<?xml version="1.0" encoding="UTF-8"?>
<!DOCTYPE svg PUBLIC "-//W3C//DTD SVG 1.1//EN" "http://www.w3.org/Graphics/SVG/1.1/DTD/svg11.dtd">
<!-- Creator: CorelDRAW X7 -->
<svg xmlns="http://www.w3.org/2000/svg" xml:space="preserve" width="3.04372in" height="2.10421in" version="1.1" style="shape-rendering:geometricPrecision; text-rendering:geometricPrecision; image-rendering:optimizeQuality; fill-rule:evenodd; clip-rule:evenodd"
viewBox="0 0 2814 1946"
 xmlns:xlink="http://www.w3.org/1999/xlink">
 <defs>
  <style type="text/css">
   <![CDATA[
    .str2 {stroke:#373435;stroke-width:12.8397}
    .str1 {stroke:#373435;stroke-width:12.8433}
    .str0 {stroke:#373435;stroke-width:6.42166}
    .str3 {stroke:#373435;stroke-width:6.42166;stroke-linecap:round}
    .fil1 {fill:none}
    .fil0 {fill:#D2D3D5}
    .fil2 {fill:#373435;fill-rule:nonzero}
   ]]>
  </style>
 </defs>
 <g id="Layer_x0020_1">
  <metadata id="CorelCorpID_0Corel-Layer"/>
  <polygon class="fil0 str0" points="1835,1591 1422,975 1016,1591 "/>
  <polygon class="fil0 str0" points="1422,975 1006,354 1837,348 "/>
  <line class="fil1 str1" x1="0" y1="348" x2="2814" y2= "348" />
  <line class="fil1 str1" x1="0" y1="1591" x2="2814" y2= "1591" />
  <line class="fil1 str1" x1="322" y1="1942" x2="322" y2= "42" />
  <line class="fil1 str1" x1="2505" y1="1942" x2="2505" y2= "42" />
  <line class="fil1 str2" x1="797" y1="42" x2="2070" y2= "1942" />
  <line class="fil1 str2" x1="784" y1="1942" x2="2039" y2= "42" />
  <path class="fil1 str3" d="M1444 253l-26 45 -26 -45m26 -250l0 288"/>
  <path class="fil2" d="M1464 653l-13 0 -11 -34 -39 0 -10 34 -12 0 35 -108 14 0 36 108zm-27 -44l-16 -52 -17 52 33 0z"/>
  <path class="fil2" d="M1391 1414l0 -108 30 0c11,0 20,2 25,7 6,5 8,12 8,21 0,6 -2,11 -6,14 -4,4 -9,7 -15,8 8,1 14,4 19,8 4,5 7,11 7,18 0,9 -4,17 -11,23 -6,6 -16,9 -28,9l-29 0zm12 -10l21 0c7,0 12,-2 16,-6 4,-4 7,-10 7,-16 0,-6 -3,-11 -7,-15 -4,-4 -11,-6 -19,-6l-18 0 0 43zm19 -88l-19 0 0 35 18 0c5,0 10,-1 15,-5 4,-3 6,-7 6,-13 0,-11 -6,-17 -20,-17z"/>
 </g>
</svg>
