<?xml version="1.0" encoding="UTF-8"?>
<!DOCTYPE svg PUBLIC "-//W3C//DTD SVG 1.1//EN" "http://www.w3.org/Graphics/SVG/1.1/DTD/svg11.dtd">
<!-- Creator: CorelDRAW X7 -->
<svg xmlns="http://www.w3.org/2000/svg" xml:space="preserve" width="5.36111in" height="2.77728in" version="1.1" style="shape-rendering:geometricPrecision; text-rendering:geometricPrecision; image-rendering:optimizeQuality; fill-rule:evenodd; clip-rule:evenodd"
viewBox="0 0 5343 2768"
 xmlns:xlink="http://www.w3.org/1999/xlink">
 <defs>
  <style type="text/css">
   <![CDATA[
    .str0 {stroke:#373435;stroke-width:13.8384}
    .str1 {stroke:#373435;stroke-width:13.8384;stroke-linecap:round}
    .fil0 {fill:none}
    .fil3 {fill:#FEFEFE}
    .fil1 {fill:white}
    .fil2 {fill:#373435;fill-rule:nonzero}
   ]]>
  </style>
 </defs>
 <g id="Layer_x0020_1">
  <metadata id="CorelCorpID_0Corel-Layer"/>
  <g id="_2330890616128">
   <circle class="fil0 str0" cx="2808" cy="1380" r="986"/>
   <g>
    <rect class="fil1" x="3447" y="1152" width="688" height="429"/>
    <g>
     <rect class="fil1" x="3529" y="1124" width="525" height="484"/>
     <path class="fil2" d="M3677 1240l0 66 -13 0 0 -83 8 0 2 8c3,-2 5,-4 6,-5 2,-1 5,-2 8,-3 4,-1 7,-2 11,-2 8,0 14,3 19,7 5,5 8,12 8,20l0 58 -13 0 0 -54c0,-14 -5,-20 -16,-20 -8,0 -15,2 -20,8z"/>
     <path id="1" class="fil2" d="M3814 1267l-53 0c0,11 2,18 7,23 5,4 12,6 19,6 4,0 7,0 9,0 1,-1 3,-1 4,-2 1,0 2,0 3,0 3,-1 5,-2 7,-3l2 10c-11,4 -20,6 -26,6 -11,0 -20,-4 -27,-11 -7,-6 -11,-17 -11,-31 0,-14 4,-24 10,-32 7,-8 15,-12 25,-12 10,0 17,3 23,10 5,6 8,15 8,26 0,3 0,6 0,10zm-52 -9l40 0c0,-9 -1,-15 -4,-19 -3,-5 -8,-7 -15,-7 -7,0 -13,2 -16,7 -3,5 -5,11 -5,19z"/>
     <polygon id="2" class="fil2" points="3848,1306 3824,1223 3837,1223 3855,1293 3873,1223 3885,1223 3903,1293 3920,1223 3933,1223 3910,1306 3896,1306 3879,1240 3863,1306 "/>
     <path id="3" class="fil2" d="M3600 1428l0 -16c0,-7 2,-11 6,-14 4,-3 9,-5 14,-5 5,0 9,1 14,2l-2 9c-4,0 -6,-1 -8,-1 -8,0 -12,4 -12,11l0 14 17 0 0 10 -17 0 0 73 -12 0 0 -73 -13 0 0 -10 13 0z"/>
     <path id="4" class="fil2" d="M3696 1470c0,-10 -2,-19 -6,-24 -4,-6 -11,-9 -19,-9 -8,0 -14,3 -17,8 -3,6 -5,14 -5,25 0,21 8,31 23,31 8,0 14,-2 18,-7 4,-5 6,-13 6,-24zm3 31c-6,7 -15,11 -27,11 -11,0 -20,-4 -26,-11 -6,-8 -9,-18 -9,-31 0,-14 3,-24 8,-32 6,-8 15,-12 27,-12 11,0 20,4 27,12 6,8 9,18 9,32 0,13 -3,23 -9,31z"/>
     <path id="5" class="fil2" d="M3743 1448l0 63 -12 0 0 -83 8 0 2 10c5,-4 9,-7 13,-9 4,-2 8,-3 12,-3 2,0 4,1 5,1l2 0 -2 12c-2,-1 -4,-1 -8,-1 -6,0 -13,3 -20,10z"/>
     <path id="6" class="fil2" d="M3841 1498l3 10c-9,3 -17,4 -24,4 -12,0 -20,-4 -26,-12 -6,-7 -9,-18 -9,-32 0,-13 3,-24 9,-31 6,-7 15,-11 27,-11 5,0 13,2 22,4l-5 10c-6,-2 -11,-3 -16,-3 -9,0 -15,3 -18,8 -4,5 -6,13 -6,23 0,22 8,33 23,33 7,0 13,-1 20,-3z"/>
     <path id="7" class="fil2" d="M3922 1472l-53 0c0,11 2,18 7,23 6,4 12,7 20,7 3,0 6,-1 8,-1 1,0 3,-1 4,-1 1,-1 2,-1 3,-1 3,-1 5,-2 7,-2l2 9c-11,4 -20,6 -26,6 -11,0 -20,-3 -27,-10 -7,-7 -11,-18 -11,-31 0,-14 4,-25 10,-33 7,-8 15,-12 25,-12 10,0 17,4 23,10 5,7 8,15 8,26 0,3 0,7 0,10zm-52 -9l40 0c0,-8 -1,-15 -4,-19 -3,-5 -8,-7 -15,-7 -7,0 -12,3 -16,7 -3,5 -5,11 -5,19z"/>
     <path id="8" class="fil2" d="M3942 1496c8,4 14,5 21,5 6,0 11,-1 15,-4 3,-2 5,-6 5,-10 0,-4 -2,-8 -4,-10 -3,-2 -7,-4 -11,-6 -4,-1 -8,-2 -12,-4 -5,-1 -8,-4 -11,-7 -3,-3 -4,-7 -4,-12 0,-7 2,-12 7,-16 4,-4 10,-6 18,-6 8,0 15,2 22,4l1 0 -2 11c-7,-2 -13,-4 -19,-4 -6,0 -10,1 -12,3 -2,2 -3,5 -3,9 0,3 2,5 4,7 3,2 7,3 11,5 4,1 8,3 12,4 5,2 8,5 11,9 3,3 4,8 4,13 0,8 -2,14 -8,18 -5,5 -13,7 -22,7 -10,0 -18,-2 -26,-6l3 -10z"/>
    </g>
   </g>
   <g>
    <rect class="fil1" x="2359" y="1973" width="969" height="795"/>
    <path class="fil2" d="M2477 2205c-16,0 -28,-5 -37,-16 -8,-11 -12,-25 -12,-44 0,-18 4,-32 13,-43 9,-11 22,-16 38,-16 8,0 17,2 26,5l-3 10c-7,-3 -15,-4 -24,-4 -12,0 -21,4 -28,13 -7,8 -10,20 -10,35 0,14 3,26 10,35 6,10 15,14 26,14 8,0 17,-2 29,-6l3 8c-10,6 -20,9 -31,9z"/>
    <path id="1" class="fil2" d="M2583 2163c0,-11 -2,-19 -7,-25 -4,-5 -10,-8 -18,-8 -8,0 -14,3 -17,8 -4,5 -5,14 -5,25 0,21 7,31 23,31 8,0 14,-2 18,-7 4,-5 6,-13 6,-24zm3 31c-7,7 -16,11 -27,11 -12,0 -20,-4 -27,-11 -6,-8 -9,-18 -9,-32 0,-13 3,-24 9,-31 6,-8 15,-12 26,-12 12,0 21,4 27,12 7,8 10,18 10,31 0,14 -3,24 -9,32z"/>
    <path id="2" class="fil2" d="M2630 2138l0 66 -13 0 0 -83 8 0 2 8c3,-2 5,-4 7,-5 1,-1 4,-2 7,-3 4,-1 8,-2 12,-2 7,0 14,3 19,7 5,5 7,12 7,20l0 58 -12 0 0 -54c0,-13 -6,-20 -17,-20 -8,0 -15,3 -20,8z"/>
    <path id="3" class="fil2" d="M2706 2189c7,3 14,5 21,5 6,0 11,-1 15,-4 3,-2 5,-6 5,-10 0,-5 -2,-8 -5,-10 -2,-3 -6,-4 -10,-6 -4,-1 -8,-3 -13,-4 -4,-2 -7,-4 -10,-7 -3,-3 -4,-7 -4,-12 0,-7 2,-12 6,-16 5,-4 11,-6 19,-6 8,0 15,1 21,4l2 0 -3 11c-6,-3 -12,-4 -18,-4 -6,0 -10,1 -12,3 -2,1 -3,4 -3,9 0,2 2,5 4,6 3,2 7,4 11,5 4,2 8,3 12,5 5,2 8,5 11,8 3,4 4,9 4,14 0,8 -2,14 -8,18 -5,5 -13,7 -22,7 -10,0 -18,-2 -26,-7l3 -9z"/>
    <path id="4" class="fil2" d="M2784 2186l0 -55 -11 0 0 -10 11 0 0 -24 12 0 0 24 21 0 0 10 -21 0 0 53c0,7 4,11 12,11 1,0 4,-1 8,-1l2 9c-5,1 -10,2 -14,2 -5,0 -10,-2 -14,-5 -4,-2 -6,-7 -6,-14z"/>
    <path id="5" class="fil2" d="M2837 2204l0 -83 12 0 0 83 -12 0zm12 -116l0 14 -12 0 0 -14 12 0z"/>
    <path id="6" class="fil2" d="M2879 2186l0 -55 -11 0 0 -10 11 0 0 -24 13 0 0 24 20 0 0 10 -20 0 0 53c0,7 3,11 11,11 2,0 4,-1 8,-1l2 9c-5,1 -9,2 -14,2 -5,0 -9,-2 -14,-5 -4,-2 -6,-7 -6,-14z"/>
    <path id="7" class="fil2" d="M2982 2183l0 -62 13 0 0 83 -8 0 -4 -10c-9,7 -17,11 -25,11 -8,0 -14,-2 -19,-7 -4,-5 -6,-12 -6,-20l0 -57 12 0 0 55c0,6 1,11 3,14 2,3 6,4 10,4 4,0 9,-1 14,-3 4,-3 8,-5 10,-8z"/>
    <path id="8" class="fil2" d="M3027 2186l0 -55 -11 0 0 -10 11 0 0 -24 13 0 0 24 20 0 0 10 -21 0 0 53c0,7 4,11 12,11 2,0 4,-1 8,-1l2 9c-5,1 -9,2 -14,2 -5,0 -10,-2 -14,-5 -4,-2 -6,-7 -6,-14z"/>
    <path id="9" class="fil2" d="M3080 2204l0 -83 13 0 0 83 -13 0zm13 -116l0 14 -13 0 0 -14 13 0z"/>
    <polygon id="10" class="fil2" points="3177,2121 3149,2204 3135,2204 3107,2121 3121,2121 3142,2191 3164,2121 "/>
    <path id="11" class="fil2" d="M3252 2165l-53 0c0,11 2,18 7,23 6,4 12,6 20,6 3,0 6,0 8,0 1,-1 3,-1 4,-1 1,-1 2,-1 3,-1 3,-1 5,-2 7,-3l2 10c-11,4 -20,6 -26,6 -11,0 -20,-4 -27,-10 -7,-7 -11,-18 -11,-32 0,-14 4,-24 10,-32 7,-8 15,-12 25,-12 10,0 17,3 23,10 5,6 8,15 8,26 0,3 0,6 0,10zm-52 -9l40 0c0,-9 -1,-15 -4,-19 -3,-5 -8,-7 -15,-7 -7,0 -12,2 -16,7 -3,5 -5,11 -5,19z"/>
    <polygon id="12" class="fil2" points="2567,2409 2504,2409 2504,2293 2567,2293 2567,2304 2516,2304 2516,2341 2562,2341 2562,2352 2516,2352 2516,2398 2567,2398 "/>
    <path id="13" class="fil2" d="M2641 2386l0 -38c-2,-4 -5,-6 -10,-9 -5,-2 -10,-4 -14,-4 -6,0 -11,3 -14,8 -3,5 -5,13 -5,24 0,22 8,33 22,33 4,0 8,-2 12,-4 4,-3 7,-6 9,-10zm13 63l-13 0 0 -49 -2 3c-2,1 -4,2 -5,3 -1,1 -3,2 -6,3 -3,1 -6,1 -10,1 -9,0 -17,-3 -23,-9 -6,-7 -9,-17 -9,-31 0,-14 2,-25 8,-33 5,-8 13,-13 24,-13 8,0 16,4 24,12l4 -10 8 0 0 123z"/>
    <path id="14" class="fil2" d="M2732 2388l0 -62 12 0 0 83 -7 0 -4 -10c-9,8 -18,11 -26,11 -8,0 -14,-2 -18,-7 -4,-5 -7,-11 -7,-20l0 -57 13 0 0 55c0,7 1,11 3,14 2,3 5,5 9,5 5,0 9,-2 14,-4 5,-3 8,-5 11,-8z"/>
    <path id="15" class="fil2" d="M2810 2360l7 0c0,-11 -1,-17 -4,-20 -2,-3 -8,-5 -17,-5 -8,0 -16,1 -22,4l-2 -10c9,-3 19,-5 29,-5 19,0 29,10 29,30l0 55 -7 0 -5 -10c-5,5 -9,7 -13,9 -4,1 -8,2 -13,2 -8,0 -14,-2 -18,-7 -4,-4 -6,-10 -6,-18 0,-17 14,-25 42,-25zm7 10l-7 0c-12,0 -19,1 -24,3 -4,3 -6,6 -6,11 0,4 1,8 4,11 2,3 5,5 9,5 4,0 8,-1 12,-3 3,-2 7,-5 12,-10l0 -17z"/>
    <path id="16" class="fil2" d="M2862 2391l0 -55 -11 0 0 -10 11 0 0 -24 13 0 0 24 20 0 0 10 -20 0 0 53c0,7 3,11 11,11 2,0 4,0 8,-1l2 9c-5,1 -9,2 -14,2 -5,0 -10,-1 -14,-4 -4,-3 -6,-8 -6,-15z"/>
    <path id="17" class="fil2" d="M2915 2409l0 -83 13 0 0 83 -13 0zm13 -116l0 15 -13 0 0 -15 13 0z"/>
    <path id="18" class="fil2" d="M3007 2368c0,-10 -2,-19 -7,-24 -4,-6 -10,-9 -18,-9 -8,0 -14,3 -17,8 -4,6 -5,14 -5,25 0,21 7,31 23,31 8,0 14,-2 18,-7 4,-5 6,-13 6,-24zm3 31c-7,7 -15,11 -27,11 -12,0 -20,-4 -26,-11 -7,-7 -10,-18 -10,-31 0,-14 3,-24 9,-32 6,-8 15,-12 26,-12 12,0 21,4 27,12 7,8 10,18 10,32 0,13 -3,23 -9,31z"/>
    <path id="19" class="fil2" d="M3054 2343l0 66 -13 0 0 -83 8 0 2 8c3,-2 5,-3 7,-4 1,-1 4,-3 7,-4 4,-1 8,-2 12,-2 7,0 14,3 19,8 5,4 7,11 7,20l0 57 -12 0 0 -54c0,-13 -6,-20 -17,-20 -8,0 -15,3 -20,8z"/>
    <path id="20" class="fil2" d="M3130 2394c8,4 14,5 21,5 6,0 11,-1 15,-4 3,-2 5,-6 5,-10 0,-4 -2,-8 -4,-10 -3,-2 -7,-4 -11,-6 -4,-1 -8,-2 -12,-4 -5,-1 -8,-4 -11,-7 -3,-3 -4,-7 -4,-12 0,-7 2,-12 6,-16 5,-4 11,-6 19,-6 8,0 15,2 22,4l1 0 -2 11c-7,-2 -13,-4 -19,-4 -6,0 -10,1 -12,3 -2,2 -3,5 -3,9 0,3 2,5 4,7 3,2 7,3 11,5 4,1 8,3 12,4 5,2 8,5 11,9 3,3 4,8 4,13 0,8 -2,14 -8,18 -5,5 -13,7 -22,7 -10,0 -18,-2 -26,-6l3 -10z"/>
    <polygon id="21" class="fil2" points="2470,2542 2413,2542 2415,2534 2471,2534 "/>
    <path id="22" class="fil2" d="M2487 2501c1,-5 3,-9 6,-12 3,-2 6,-3 10,-3 3,0 6,0 9,1l-2 7c-3,0 -4,-1 -5,-1 -6,0 -9,3 -10,9l-1 10 12 0 -1 7 -12 0 -8 56c-1,7 -2,13 -4,17 -2,5 -4,8 -8,12l-4 -4c4,-5 6,-12 8,-22l8 -59 -9 0 1 -7 9 0 1 -11z"/>
    <path id="23" class="fil2" d="M2534 2519c-6,0 -11,3 -14,9 -3,5 -5,12 -5,19 0,8 1,13 3,16 2,2 5,4 9,4 7,0 12,-3 15,-9 4,-5 5,-11 5,-19 0,-7 -1,-13 -3,-16 -2,-3 -5,-4 -10,-4zm-7 56c-14,0 -21,-9 -21,-26 0,-11 3,-20 8,-27 5,-8 12,-11 21,-11 7,0 12,2 16,6 3,5 5,11 5,20 0,11 -3,20 -8,27 -5,7 -12,11 -21,11z"/>
    <path id="24" class="fil2" d="M2598 2511c2,0 4,0 4,0 1,0 1,0 2,0l-3 9c-1,-1 -3,-1 -5,-1 -5,0 -10,3 -15,8l-6 47 -9 0 9 -62 5 0 1 7c4,-3 7,-5 10,-6 2,-2 5,-2 7,-2z"/>
    <path id="25" class="fil2" d="M2651 2575c-11,0 -17,-7 -17,-22 0,-11 2,-20 6,-28 3,-5 5,-8 9,-11 4,-2 8,-3 13,-3 7,0 13,2 17,8l2 -7 5 0 -9 62 -5 0 -2 -7 -2 1c-5,5 -11,7 -17,7zm24 -51c-4,-3 -8,-5 -12,-5 -4,0 -7,1 -10,3 -2,2 -5,4 -6,8 -3,6 -4,13 -4,22 0,10 3,15 9,15 5,0 9,-2 13,-5 4,-4 6,-8 7,-13l3 -25z"/>
    <polygon id="26" class="fil2" points="2695,2574 2707,2487 2716,2487 2704,2574 "/>
    <polygon id="27" class="fil2" points="2724,2574 2736,2487 2745,2487 2732,2574 "/>
    <path id="28" class="fil2" d="M2802 2575c-7,0 -12,-2 -16,-6 -4,-4 -6,-10 -6,-18 0,-10 2,-19 7,-27 2,-4 5,-7 9,-10 4,-2 8,-3 13,-3 5,0 10,1 13,4 3,2 4,6 4,12 0,5 -2,9 -7,13 -5,4 -13,5 -23,5 -2,0 -4,0 -7,0 0,2 0,4 0,6 0,6 1,10 4,12 3,3 6,4 11,4 3,0 6,-1 10,-2l6 -2 0 8c-8,2 -14,4 -18,4zm-5 -37c6,0 11,-1 15,-3 4,-2 6,-4 6,-8 0,-6 -3,-8 -10,-8 -9,0 -15,6 -17,19 2,0 4,0 6,0z"/>
    <polygon id="29" class="fil2" points="2836,2574 2848,2487 2856,2487 2844,2574 "/>
    <path id="30" class="fil2" d="M2885 2575c-6,0 -12,-2 -15,-6 -4,-4 -6,-10 -6,-18 0,-10 2,-19 6,-27 3,-4 6,-7 9,-10 4,-2 9,-3 14,-3 5,0 9,1 12,4 3,2 5,6 5,12 0,5 -3,9 -8,13 -5,4 -12,5 -22,5 -2,0 -5,0 -7,0 -1,2 -1,4 -1,6 0,6 2,10 5,12 2,3 6,4 10,4 4,0 7,-1 10,-2l6 -2 0 8c-7,2 -13,4 -18,4zm-5 -37c6,0 11,-1 16,-3 4,-2 6,-4 6,-8 0,-6 -4,-8 -11,-8 -8,0 -14,6 -17,19 2,0 4,0 6,0z"/>
    <path id="31" class="fil2" d="M2953 2511c7,0 11,2 14,8 7,-6 13,-8 18,-8 5,0 9,1 12,4 3,2 4,6 4,11 0,1 0,3 0,4l-6 44 -8 0 5 -40c1,-1 1,-2 1,-4 0,-4 -1,-6 -3,-8 -2,-2 -4,-3 -7,-3 -4,0 -9,2 -15,6 0,2 0,4 0,5l-6 44 -8 0c4,-28 6,-43 6,-44 0,-4 -1,-6 -3,-8 -2,-2 -4,-3 -6,-3 -3,0 -5,0 -7,1 -2,0 -4,1 -5,2 -1,0 -2,1 -4,3l-6 49 -9 0 9 -62 5 0 1 6c2,-1 3,-3 5,-3 1,-1 3,-2 5,-3 2,-1 5,-1 8,-1z"/>
    <path id="32" class="fil2" d="M3035 2575c-6,0 -11,-2 -15,-6 -4,-4 -6,-10 -6,-18 0,-10 2,-19 7,-27 2,-4 5,-7 8,-10 4,-2 9,-3 14,-3 5,0 9,1 12,4 4,2 5,6 5,12 0,5 -2,9 -7,13 -6,4 -13,5 -23,5 -2,0 -5,0 -7,0 0,2 -1,4 -1,6 0,6 2,10 5,12 2,3 6,4 10,4 4,0 7,-1 11,-2l5 -2 1 8c-8,2 -14,4 -19,4zm-5 -37c6,0 12,-1 16,-3 4,-2 6,-4 6,-8 0,-6 -4,-8 -11,-8 -8,0 -14,6 -17,19 2,0 4,0 6,0z"/>
    <path id="33" class="fil2" d="M3103 2511c4,0 8,1 11,4 3,2 4,6 4,12 0,1 0,2 0,4l-6 43 -9 0c4,-29 6,-44 6,-45 0,-7 -3,-10 -9,-10 -5,0 -10,2 -15,6l-6 49 -9 0 9 -62 5 0 1 6c2,-2 3,-3 4,-4 2,0 4,-1 6,-2 2,-1 5,-1 8,-1z"/>
    <path id="34" class="fil2" d="M3143 2561c0,4 3,6 7,6 1,0 3,0 6,0l0 6c-3,1 -6,2 -9,2 -3,0 -6,-1 -9,-3 -2,-1 -3,-4 -3,-8 0,-1 2,-16 6,-45l-8 0 1 -7 8 0 2 -18 9 0 -3 18 14 0 -1 7 -14 0c-4,27 -6,41 -6,42z"/>
    <path id="35" class="fil2" d="M3170 2563c5,3 9,4 14,4 4,0 8,-1 11,-4 2,-2 4,-5 4,-9 0,-4 -3,-7 -9,-10 -2,-1 -5,-2 -7,-3 -2,-1 -5,-2 -6,-4 -2,-2 -3,-5 -3,-7 0,-6 2,-11 6,-14 3,-4 8,-5 13,-5 6,0 11,0 15,2l1 1 -3 8c-2,-2 -4,-2 -7,-3 -3,0 -5,0 -6,0 -7,0 -10,3 -10,9 0,2 1,3 2,5 2,1 4,2 7,3 2,1 4,2 7,3 2,2 4,3 6,6 2,2 2,5 2,8 0,7 -2,12 -6,16 -5,4 -10,6 -17,6 -6,0 -12,-2 -17,-5l3 -7z"/>
    <polygon id="36" class="fil2" points="3270,2542 3214,2542 3215,2534 3271,2534 "/>
   </g>
   <g>
    <rect class="fil1" x="1208" y="1034" width="1229" height="692"/>
    <path class="fil2" d="M1365 1148l0 66 -12 0 0 -83 8 0 1 8c3,-2 5,-4 7,-5 1,-1 4,-2 7,-3 4,-2 8,-2 12,-2 7,0 14,2 19,7 5,5 7,11 7,20l0 58 -12 0 0 -54c0,-14 -6,-21 -17,-21 -8,0 -15,3 -20,9z"/>
    <path id="1" class="fil2" d="M1502 1175l-53 0c0,10 3,18 8,22 5,5 11,7 19,7 4,0 6,0 8,-1 1,0 3,0 4,-1 2,0 3,-1 3,-1 3,-1 5,-1 7,-2l2 10c-11,4 -19,6 -26,6 -11,0 -20,-4 -27,-11 -7,-7 -10,-17 -10,-31 0,-14 3,-25 9,-33 7,-7 15,-11 25,-11 10,0 18,3 23,9 6,7 9,16 9,27 0,3 -1,6 -1,10zm-52 -10l41 0c0,-8 -2,-14 -5,-19 -3,-4 -8,-6 -15,-6 -7,0 -12,2 -15,7 -4,5 -6,11 -6,18z"/>
    <polygon id="2" class="fil2" points="1537,1214 1512,1131 1525,1131 1544,1200 1561,1131 1573,1131 1592,1201 1609,1131 1622,1131 1599,1214 1584,1214 1567,1148 1551,1214 "/>
    <polygon id="3" class="fil2" points="1737,1130 1709,1214 1695,1214 1667,1130 1681,1130 1702,1200 1723,1130 "/>
    <path id="4" class="fil2" d="M1812 1175l-53 0c0,10 2,18 7,22 5,5 12,7 19,7 4,0 7,0 8,-1 2,0 3,0 5,-1 1,0 2,-1 3,-1 2,-1 5,-1 7,-2l2 10c-11,4 -20,6 -26,6 -12,0 -21,-4 -28,-11 -6,-7 -10,-17 -10,-31 0,-14 3,-25 10,-33 6,-7 15,-11 24,-11 10,0 18,3 24,9 5,7 8,16 8,27 0,3 0,6 0,10zm-53 -10l41 0c0,-8 -1,-14 -4,-19 -3,-4 -8,-6 -15,-6 -7,0 -13,2 -16,7 -3,5 -5,11 -6,18z"/>
    <polygon id="5" class="fil2" points="1835,1214 1835,1097 1848,1097 1848,1214 "/>
    <path id="6" class="fil2" d="M1929 1173c0,-11 -2,-19 -6,-25 -4,-6 -10,-8 -19,-8 -8,0 -13,2 -17,8 -3,5 -5,13 -5,24 0,21 8,32 23,32 8,0 14,-3 18,-8 4,-5 6,-13 6,-23zm3 30c-6,8 -15,12 -27,12 -11,0 -20,-4 -26,-12 -6,-7 -9,-18 -9,-31 0,-13 3,-24 9,-32 6,-7 14,-11 26,-11 11,0 20,4 27,11 6,8 10,19 10,32 0,13 -3,24 -10,31z"/>
    <path id="7" class="fil2" d="M2013 1201l2 9c-9,3 -16,4 -23,4 -12,0 -21,-3 -27,-11 -6,-8 -9,-19 -9,-32 0,-14 3,-24 9,-31 7,-8 16,-11 28,-11 5,0 12,1 22,4l-5 9c-6,-1 -12,-2 -17,-2 -8,0 -14,2 -18,7 -4,5 -5,13 -5,24 0,22 7,33 23,33 6,0 13,-1 20,-3z"/>
    <path id="8" class="fil2" d="M2034 1214l0 -83 12 0 0 83 -12 0zm12 -117l0 15 -12 0 0 -15 12 0z"/>
    <path id="9" class="fil2" d="M2076 1196l0 -56 -12 0 0 -9 12 0 0 -24 12 0 0 24 21 0 0 9 -21 0 0 53c0,8 4,11 11,11 2,0 5,0 9,-1l1 9c-4,2 -9,3 -14,3 -4,0 -9,-2 -13,-5 -4,-3 -6,-8 -6,-14z"/>
    <path id="10" class="fil2" d="M2129 1214l0 -83 12 0 0 83 -12 0zm12 -117l0 15 -12 0 0 -15 12 0z"/>
    <path id="11" class="fil2" d="M2227 1175l-53 0c0,10 2,18 7,22 5,5 12,7 19,7 4,0 7,0 8,-1 2,0 3,0 5,-1 1,0 2,-1 3,-1 3,-1 5,-1 7,-2l2 10c-11,4 -20,6 -26,6 -11,0 -21,-4 -27,-11 -7,-7 -11,-17 -11,-31 0,-14 3,-25 10,-33 6,-7 15,-11 25,-11 9,0 17,3 23,9 5,7 8,16 8,27 0,3 0,6 0,10zm-52 -10l40 0c0,-8 -1,-14 -4,-19 -3,-4 -8,-6 -15,-6 -7,0 -13,2 -16,7 -3,5 -5,11 -5,18z"/>
    <path id="12" class="fil2" d="M2247 1199c7,3 14,5 21,5 6,0 11,-2 15,-4 3,-3 5,-6 5,-11 0,-4 -2,-7 -5,-10 -3,-2 -6,-4 -10,-5 -4,-1 -9,-3 -13,-4 -4,-2 -7,-4 -10,-7 -3,-4 -5,-7 -5,-12 0,-7 3,-13 7,-16 5,-4 11,-6 19,-6 7,0 15,1 21,3l1 1 -2 10c-6,-2 -13,-3 -18,-3 -6,0 -10,1 -12,2 -2,2 -3,5 -3,9 0,3 1,5 4,7 3,2 7,4 11,5 4,1 8,3 12,5 4,2 8,4 11,8 3,4 4,8 4,13 0,8 -3,14 -8,19 -5,4 -13,7 -22,7 -10,0 -18,-3 -26,-7l3 -9z"/>
    <path id="13" class="fil2" d="M1740 1369l6 0c0,-10 -1,-16 -3,-19 -3,-4 -9,-5 -17,-5 -9,0 -16,1 -23,3l-2 -9c9,-3 19,-5 29,-5 19,0 29,10 29,29l0 56 -7 0 -4 -10c-5,4 -10,7 -14,9 -3,1 -8,2 -12,2 -8,0 -14,-2 -19,-7 -4,-5 -6,-11 -6,-18 0,-17 14,-26 43,-26zm7 11l-8 0c-11,0 -19,1 -23,3 -4,2 -7,6 -7,10 0,5 2,9 4,12 2,3 6,4 10,4 4,0 7,-1 11,-2 3,-2 8,-5 13,-10l0 -17z"/>
    <path id="14" class="fil2" d="M1802 1353l0 66 -13 0 0 -83 8 0 2 8c3,-2 5,-4 7,-5 1,-1 4,-2 7,-3 4,-1 8,-2 12,-2 7,0 14,3 19,7 5,5 7,12 7,20l0 58 -12 0 0 -54c0,-14 -6,-20 -17,-20 -8,0 -15,2 -20,8z"/>
    <path id="15" class="fil2" d="M1929 1303l12 0 0 116 -7 0 -4 -10c-10,8 -19,11 -27,11 -20,0 -30,-14 -30,-43 0,-16 4,-27 11,-34 6,-6 13,-9 21,-9 8,0 16,3 24,8l0 -39zm0 95l0 -43c-3,-3 -6,-5 -9,-7 -4,-2 -8,-3 -11,-3 -9,0 -15,2 -18,8 -3,5 -5,13 -5,24 0,10 2,19 5,24 3,6 8,8 13,8 8,0 16,-3 25,-11z"/>
    <path id="16" class="fil2" d="M1377 1508l12 0 0 116 -7 0 -4 -9c-11,7 -20,10 -27,10 -20,0 -30,-14 -30,-43 0,-16 4,-27 11,-34 6,-5 13,-8 21,-8 8,0 16,2 24,8l0 -40zm0 96l0 -44c-3,-2 -6,-5 -10,-7 -4,-2 -7,-3 -10,-3 -9,0 -15,3 -18,8 -4,5 -5,13 -5,24 0,11 1,19 5,24 3,6 7,9 13,9 8,0 16,-4 25,-11z"/>
    <path id="17" class="fil2" d="M1417 1624l0 -83 12 0 0 83 -12 0zm12 -116l0 15 -12 0 0 -15 12 0z"/>
    <path id="18" class="fil2" d="M1454 1609c7,4 14,5 21,5 6,0 11,-1 14,-4 4,-2 5,-6 5,-10 0,-4 -1,-8 -4,-10 -3,-2 -6,-4 -10,-6 -5,-1 -9,-2 -13,-4 -4,-1 -8,-4 -10,-7 -3,-3 -5,-7 -5,-12 0,-7 3,-12 7,-16 5,-4 11,-6 19,-6 7,0 14,2 21,4l1 0 -2 11c-7,-2 -13,-4 -18,-4 -6,0 -10,1 -12,3 -2,2 -3,5 -3,9 0,3 1,5 4,7 3,2 6,3 11,5 4,1 8,3 12,4 4,2 8,5 11,9 2,3 4,8 4,13 0,8 -3,14 -8,18 -6,5 -13,7 -23,7 -9,0 -18,-2 -25,-6l3 -10z"/>
    <path id="19" class="fil2" d="M1542 1664l-12 0 0 -123 7 0 4 10c5,-4 9,-7 13,-9 4,-2 9,-3 14,-3 19,0 29,15 29,43 0,17 -3,28 -10,35 -6,5 -14,8 -22,8 -8,0 -15,-2 -23,-8l0 47zm0 -102l0 44c2,3 5,5 9,6 4,2 7,3 11,3 8,0 14,-3 18,-8 3,-5 5,-13 5,-24 0,-11 -2,-19 -5,-24 -4,-6 -8,-9 -13,-9 -4,0 -7,1 -11,2 -3,2 -6,3 -8,4 -1,2 -3,3 -6,6z"/>
    <polygon id="20" class="fil2" points="1620,1624 1620,1508 1633,1508 1633,1624 "/>
    <path id="21" class="fil2" d="M1699 1574l7 0c0,-10 -2,-16 -4,-19 -3,-3 -8,-5 -17,-5 -9,0 -16,1 -22,4l-3 -10c10,-3 19,-5 29,-5 20,0 29,10 29,30l0 55 -7 0 -4 -10c-5,5 -10,7 -13,9 -4,1 -8,2 -13,2 -8,0 -14,-2 -18,-7 -5,-4 -7,-10 -7,-18 0,-17 14,-26 43,-26zm7 11l-8 0c-11,0 -19,1 -23,3 -4,2 -6,6 -6,11 0,4 1,8 3,11 3,3 6,5 10,5 4,0 7,-1 11,-3 4,-2 8,-5 13,-10l0 -17z"/>
    <path id="22" class="fil2" d="M1797 1611l3 10c-9,3 -17,4 -24,4 -11,0 -20,-4 -26,-12 -6,-7 -9,-18 -9,-32 0,-13 3,-24 9,-31 6,-7 15,-11 27,-11 6,0 13,2 22,4l-5 10c-6,-2 -11,-3 -16,-3 -8,0 -14,3 -18,8 -4,5 -6,13 -6,23 0,22 8,33 24,33 6,0 12,-1 19,-3z"/>
    <path id="23" class="fil2" d="M1878 1585l-53 0c0,11 3,18 8,23 5,4 11,7 19,7 4,0 6,-1 8,-1 1,0 3,-1 4,-1 2,-1 3,-1 3,-1 3,-1 5,-2 7,-2l2 9c-11,4 -19,6 -26,6 -11,0 -20,-3 -27,-10 -7,-7 -10,-18 -10,-31 0,-14 3,-25 9,-33 7,-8 15,-12 25,-12 10,0 18,4 23,10 6,7 8,15 8,26 0,3 0,7 0,10zm-52 -9l41 0c0,-8 -2,-15 -5,-19 -3,-5 -8,-7 -15,-7 -7,0 -12,3 -16,7 -3,5 -5,11 -5,19z"/>
    <path id="24" class="fil2" d="M1937 1539c10,0 18,4 23,12 9,-8 18,-12 26,-12 8,0 14,3 19,7 5,4 8,11 8,20l0 58 -12 0 0 -53c0,-7 -2,-12 -5,-16 -3,-3 -7,-5 -12,-5 -7,0 -14,3 -21,8 0,3 1,5 1,8l0 58 -13 0 0 -53c0,-7 -1,-12 -4,-16 -3,-3 -7,-5 -12,-5 -4,0 -7,1 -10,1 -2,1 -4,2 -6,3 -1,1 -3,2 -5,4l0 66 -12 0 0 -83 8 0 2 9c3,-3 5,-4 6,-5 2,-2 4,-3 8,-4 3,-1 7,-2 11,-2z"/>
    <path id="25" class="fil2" d="M2101 1585l-53 0c0,11 2,18 7,23 5,4 11,7 19,7 4,0 7,-1 8,-1 2,0 3,-1 5,-1 1,-1 2,-1 3,-1 2,-1 5,-2 7,-2l2 9c-11,4 -20,6 -26,6 -12,0 -21,-3 -28,-10 -6,-7 -10,-18 -10,-31 0,-14 3,-25 10,-33 6,-8 14,-12 24,-12 10,0 18,4 24,10 5,7 8,15 8,26 0,3 0,7 0,10zm-53 -9l41 0c0,-8 -2,-15 -4,-19 -3,-5 -8,-7 -15,-7 -8,0 -13,3 -16,7 -3,5 -5,11 -6,19z"/>
    <path id="26" class="fil2" d="M2137 1558l0 66 -13 0 0 -83 8 0 2 8c3,-2 5,-3 6,-4 2,-2 5,-3 8,-4 4,-1 7,-2 11,-2 8,0 14,3 19,8 5,4 8,11 8,20l0 57 -13 0 0 -54c0,-13 -5,-20 -16,-20 -8,0 -15,3 -20,8z"/>
    <path id="27" class="fil2" d="M2218 1606l0 -55 -11 0 0 -10 11 0 0 -24 13 0 0 24 20 0 0 10 -20 0 0 53c0,7 3,11 11,11 2,0 4,0 8,-1l2 9c-5,1 -9,2 -14,2 -5,0 -9,-1 -14,-4 -4,-3 -6,-8 -6,-15z"/>
    <path id="28" class="fil2" d="M2270 1609c8,4 15,5 21,5 7,0 12,-1 15,-4 3,-2 5,-6 5,-10 0,-4 -1,-8 -4,-10 -3,-2 -7,-4 -11,-6 -4,-1 -8,-2 -12,-4 -4,-1 -8,-4 -11,-7 -3,-3 -4,-7 -4,-12 0,-7 2,-12 7,-16 4,-4 10,-6 18,-6 8,0 15,2 22,4l1 0 -2 11c-7,-2 -13,-4 -19,-4 -6,0 -9,1 -12,3 -2,2 -3,5 -3,9 0,3 2,5 5,7 2,2 6,3 10,5 4,1 8,3 13,4 4,2 7,5 10,9 3,3 4,8 4,13 0,8 -2,14 -8,18 -5,5 -13,7 -22,7 -10,0 -18,-2 -26,-6l3 -10z"/>
   </g>
   <g>
    <rect class="fil3" x="2293" width="1106" height="795"/>
    <polygon class="fil2" points="2479,232 2416,232 2416,115 2479,115 2479,126 2428,126 2428,163 2475,163 2475,174 2428,174 2428,221 2479,221 "/>
    <path id="1" class="fil2" d="M2553 209l0 -39c-2,-3 -5,-6 -10,-9 -5,-2 -10,-3 -14,-3 -6,0 -11,2 -14,7 -3,5 -5,13 -5,24 0,22 8,33 22,33 4,0 8,-1 12,-4 4,-2 7,-5 9,-9zm13 62l-13 0 0 -49 -2 3c-2,2 -4,3 -5,4 -1,0 -3,1 -6,2 -3,1 -6,2 -10,2 -9,0 -17,-4 -23,-10 -6,-7 -9,-17 -9,-31 0,-13 2,-25 8,-33 5,-8 13,-12 24,-12 8,0 16,4 24,11l5 -9 7 0 0 122z"/>
    <path id="2" class="fil2" d="M2644 210l0 -61 12 0 0 83 -7 0 -4 -10c-9,7 -18,11 -26,11 -8,0 -14,-3 -18,-7 -4,-5 -7,-12 -7,-21l0 -56 13 0 0 54c0,7 1,12 3,15 2,2 5,4 9,4 5,0 9,-1 14,-4 5,-2 8,-5 11,-8z"/>
    <path id="3" class="fil2" d="M2722 182l7 0c0,-10 -1,-17 -4,-20 -2,-3 -8,-4 -17,-4 -8,0 -16,1 -22,3l-2 -9c9,-4 19,-5 29,-5 19,0 29,10 29,29l0 56 -7 0 -5 -10c-5,4 -9,7 -13,8 -4,2 -8,3 -13,3 -8,0 -14,-3 -18,-7 -4,-5 -6,-11 -6,-19 0,-17 14,-25 42,-25zm7 10l-7 0c-11,0 -19,1 -24,4 -4,2 -6,5 -6,10 0,5 1,9 4,12 2,3 5,4 9,4 4,0 8,-1 12,-3 3,-1 7,-5 12,-9l0 -18z"/>
    <path id="4" class="fil2" d="M2774 214l0 -56 -11 0 0 -9 11 0 0 -24 13 0 0 24 20 0 0 9 -20 0 0 53c0,8 3,11 11,11 2,0 4,0 8,-1l2 9c-5,2 -9,3 -14,3 -5,0 -9,-2 -14,-5 -4,-3 -6,-8 -6,-14z"/>
    <path id="5" class="fil2" d="M2827 232l0 -83 13 0 0 83 -13 0zm13 -117l0 15 -13 0 0 -15 13 0z"/>
    <path id="6" class="fil2" d="M2919 191c0,-11 -2,-19 -7,-25 -4,-6 -10,-8 -18,-8 -8,0 -14,2 -17,8 -4,5 -5,13 -5,24 0,21 7,32 23,32 8,0 14,-3 18,-8 4,-5 6,-13 6,-23zm3 30c-7,8 -15,12 -27,12 -11,0 -20,-4 -26,-12 -7,-7 -10,-18 -10,-31 0,-13 3,-24 9,-32 6,-7 15,-11 26,-11 12,0 21,4 27,11 7,8 10,19 10,32 0,13 -3,24 -9,31z"/>
    <path id="7" class="fil2" d="M2966 166l0 66 -12 0 0 -83 7 0 2 8c3,-2 5,-4 7,-5 1,-1 4,-2 7,-3 4,-2 8,-2 12,-2 7,0 14,2 19,7 5,5 7,11 7,20l0 58 -12 0 0 -54c0,-14 -6,-21 -17,-21 -8,0 -15,3 -20,9z"/>
    <path id="8" class="fil2" d="M3042 217c8,3 14,5 21,5 7,0 11,-2 15,-4 3,-3 5,-6 5,-11 0,-4 -2,-7 -4,-10 -3,-2 -7,-4 -11,-5 -4,-1 -8,-3 -12,-4 -5,-2 -8,-4 -11,-7 -3,-4 -4,-7 -4,-12 0,-7 2,-13 7,-16 4,-4 10,-6 18,-6 8,0 15,1 22,3l1 1 -2 10c-7,-2 -13,-3 -19,-3 -6,0 -10,1 -12,2 -2,2 -3,5 -3,9 0,3 2,5 5,7 2,2 6,4 10,5 4,1 8,3 13,5 4,2 7,4 10,8 3,4 4,8 4,13 0,8 -2,14 -8,19 -5,4 -13,7 -22,7 -10,0 -18,-3 -26,-7l3 -9z"/>
    <path id="9" class="fil2" d="M3211 191c0,-11 -2,-19 -7,-25 -4,-6 -10,-8 -18,-8 -8,0 -14,2 -17,8 -4,5 -5,13 -5,24 0,21 7,32 23,32 8,0 14,-3 18,-8 4,-5 6,-13 6,-23zm3 30c-7,8 -15,12 -27,12 -11,0 -20,-4 -26,-12 -7,-7 -10,-18 -10,-31 0,-13 3,-24 9,-32 6,-7 15,-11 26,-11 12,0 21,4 27,11 7,8 10,19 10,32 0,13 -3,24 -9,31z"/>
    <path id="10" class="fil2" d="M3249 149l0 -16c0,-7 2,-12 6,-15 5,-3 9,-4 14,-4 5,0 9,0 14,2l-2 9c-4,-1 -6,-1 -8,-1 -8,0 -12,3 -12,11l0 14 17 0 0 9 -17 0 0 74 -12 0 0 -74 -13 0 0 -9 13 0z"/>
    <polygon id="11" class="fil2" points="2712,437 2700,437 2700,342 2662,406 2658,406 2621,342 2621,437 2608,437 2608,321 2622,321 2660,385 2700,321 2712,321 "/>
    <path id="12" class="fil2" d="M2788 396c0,-11 -2,-19 -7,-25 -4,-5 -10,-8 -18,-8 -8,0 -14,3 -17,8 -4,5 -5,14 -5,25 0,21 7,31 23,31 8,0 14,-2 18,-7 4,-6 6,-13 6,-24zm3 31c-7,7 -15,11 -27,11 -12,0 -20,-4 -26,-11 -7,-8 -10,-18 -10,-32 0,-13 3,-24 9,-31 6,-8 15,-12 26,-12 12,0 21,4 27,12 7,8 10,18 10,31 0,14 -3,24 -9,32z"/>
    <path id="13" class="fil2" d="M2824 419l0 -55 -11 0 0 -10 12 0 0 -24 12 0 0 24 20 0 0 10 -20 0 0 53c0,7 4,11 11,11 2,0 5,-1 8,-1l2 9c-4,1 -9,2 -14,2 -5,0 -9,-2 -13,-5 -4,-2 -7,-7 -7,-14z"/>
    <path id="14" class="fil2" d="M2878 437l0 -83 12 0 0 83 -12 0zm12 -116l0 14 -12 0 0 -14 12 0z"/>
    <path id="15" class="fil2" d="M2969 396c0,-11 -2,-19 -6,-25 -4,-5 -11,-8 -19,-8 -8,0 -13,3 -17,8 -3,5 -5,14 -5,25 0,21 8,31 23,31 8,0 14,-2 18,-7 4,-6 6,-13 6,-24zm3 31c-6,7 -15,11 -27,11 -11,0 -20,-4 -26,-11 -6,-8 -9,-18 -9,-32 0,-13 3,-24 9,-31 5,-8 14,-12 26,-12 11,0 20,4 27,12 6,8 10,18 10,31 0,14 -4,24 -10,32z"/>
    <path id="16" class="fil2" d="M3016 371l0 66 -12 0 0 -83 8 0 2 8c2,-2 4,-4 6,-5 2,-1 4,-2 8,-3 3,-1 7,-2 11,-2 8,0 14,3 19,7 5,5 8,12 8,20l0 58 -13 0 0 -54c0,-14 -5,-20 -17,-20 -8,0 -14,2 -20,8z"/>
    <polygon id="17" class="fil2" points="2470,570 2413,570 2415,562 2471,562 "/>
    <path id="18" class="fil2" d="M2487 529c1,-6 3,-10 6,-12 3,-2 6,-4 10,-4 3,0 6,1 9,2l-2 7c-3,-1 -4,-1 -5,-1 -6,0 -9,3 -10,8l-1 11 12 0 -1 7 -12 0 -8 56c-1,7 -2,13 -4,17 -2,4 -4,8 -8,12l-4 -5c4,-4 6,-11 8,-21l8 -59 -9 0 1 -7 9 0 1 -11z"/>
    <path id="19" class="fil2" d="M2534 546c-6,0 -11,3 -14,9 -3,6 -5,13 -5,20 0,7 1,12 3,15 2,3 5,4 9,4 7,0 12,-2 15,-8 4,-5 5,-12 5,-19 0,-8 -1,-13 -3,-16 -2,-3 -5,-5 -10,-5zm-7 57c-14,0 -21,-9 -21,-26 0,-11 3,-20 8,-28 5,-7 12,-11 21,-11 7,0 12,2 16,7 3,4 5,11 5,20 0,10 -3,19 -8,27 -5,7 -12,11 -21,11z"/>
    <path id="20" class="fil2" d="M2598 538c2,0 4,0 4,1 1,0 1,0 2,0l-3 9c-1,-1 -3,-1 -5,-1 -5,0 -10,2 -15,7l-6 48 -9 0 9 -62 5 0 1 7c4,-3 7,-6 10,-7 2,-1 5,-2 7,-2z"/>
    <path id="21" class="fil2" d="M2651 603c-11,0 -17,-8 -17,-22 0,-11 2,-21 6,-29 3,-4 5,-7 9,-10 4,-2 8,-4 13,-4 7,0 13,3 17,8l2 -6 5 0 -9 62 -5 0 -2 -8 -2 2c-5,4 -11,7 -17,7zm24 -51c-4,-4 -8,-6 -12,-6 -4,0 -7,1 -10,3 -2,2 -5,5 -6,8 -3,7 -4,14 -4,23 0,10 3,15 9,15 5,0 9,-2 13,-6 4,-3 6,-7 7,-13l3 -24z"/>
    <polygon id="22" class="fil2" points="2695,602 2707,515 2716,515 2704,602 "/>
    <polygon id="23" class="fil2" points="2724,602 2736,515 2745,515 2732,602 "/>
    <path id="24" class="fil2" d="M2802 603c-7,0 -12,-2 -16,-6 -4,-4 -6,-10 -6,-18 0,-10 2,-19 7,-27 2,-4 5,-8 9,-10 4,-2 8,-4 13,-4 5,0 10,2 13,4 3,3 4,7 4,12 0,6 -2,10 -7,14 -5,3 -13,5 -23,5 -2,0 -4,0 -7,0 0,2 0,3 0,5 0,6 1,10 4,13 3,2 6,4 11,4 3,0 6,-1 10,-2l6 -2 0 7c-8,3 -14,5 -18,5zm-5 -37c6,0 11,-1 15,-3 4,-2 6,-5 6,-9 0,-5 -3,-8 -10,-8 -9,0 -15,7 -17,20 2,0 4,0 6,0z"/>
    <polygon id="25" class="fil2" points="2836,602 2848,515 2856,515 2844,602 "/>
    <path id="26" class="fil2" d="M2885 603c-6,0 -12,-2 -15,-6 -4,-4 -6,-10 -6,-18 0,-10 2,-19 6,-27 3,-4 6,-8 9,-10 4,-2 9,-4 14,-4 5,0 9,2 12,4 3,3 5,7 5,12 0,6 -3,10 -8,14 -5,3 -12,5 -22,5 -2,0 -5,0 -7,0 -1,2 -1,3 -1,5 0,6 2,10 5,13 2,2 6,4 10,4 4,0 7,-1 10,-2l6 -2 0 7c-7,3 -13,5 -18,5zm-5 -37c6,0 11,-1 16,-3 4,-2 6,-5 6,-9 0,-5 -4,-8 -11,-8 -8,0 -14,7 -17,20 2,0 4,0 6,0z"/>
    <path id="27" class="fil2" d="M2953 538c7,0 11,3 14,9 7,-6 13,-9 18,-9 5,0 9,2 12,4 3,3 4,7 4,12 0,1 0,2 0,4l-6 44 -8 0 5 -40c1,-1 1,-3 1,-4 0,-4 -1,-7 -3,-9 -2,-2 -4,-3 -7,-3 -4,0 -9,2 -15,7 0,2 0,4 0,5l-6 44 -8 0c4,-29 6,-43 6,-44 0,-4 -1,-7 -3,-9 -2,-2 -4,-3 -6,-3 -3,0 -5,1 -7,1 -2,1 -4,2 -5,2 -1,1 -2,2 -4,3l-6 50 -9 0 9 -62 5 0 1 6c2,-2 3,-3 5,-4 1,-1 3,-1 5,-2 2,-1 5,-2 8,-2z"/>
    <path id="28" class="fil2" d="M3035 603c-6,0 -11,-2 -15,-6 -4,-4 -6,-10 -6,-18 0,-10 2,-19 7,-27 2,-4 5,-8 8,-10 4,-2 9,-4 14,-4 5,0 9,2 12,4 4,3 5,7 5,12 0,6 -2,10 -7,14 -6,3 -13,5 -23,5 -2,0 -5,0 -7,0 0,2 -1,3 -1,5 0,6 2,10 5,13 2,2 6,4 10,4 4,0 7,-1 11,-2l5 -2 1 7c-8,3 -14,5 -19,5zm-5 -37c6,0 12,-1 16,-3 4,-2 6,-5 6,-9 0,-5 -4,-8 -11,-8 -8,0 -14,7 -17,20 2,0 4,0 6,0z"/>
    <path id="29" class="fil2" d="M3103 538c4,0 8,2 11,4 3,3 4,7 4,12 0,2 0,3 0,5l-6 43 -9 0c4,-29 6,-44 6,-45 0,-7 -3,-11 -9,-11 -5,0 -10,2 -15,6l-6 50 -9 0 9 -62 5 0 1 6c2,-2 3,-3 4,-4 2,-1 4,-2 6,-2 2,-1 5,-2 8,-2z"/>
    <path id="30" class="fil2" d="M3143 589c0,4 3,6 7,6 1,0 3,0 6,-1l0 7c-3,1 -6,2 -9,2 -3,0 -6,-1 -9,-3 -2,-2 -3,-5 -3,-9 0,-1 2,-15 6,-44l-8 0 1 -7 8 0 2 -18 9 0 -3 18 14 0 -1 7 -14 0c-4,27 -6,41 -6,42z"/>
    <path id="31" class="fil2" d="M3170 591c5,2 9,3 14,3 4,0 8,-1 11,-3 2,-2 4,-6 4,-10 0,-4 -3,-7 -9,-9 -2,-1 -5,-2 -7,-3 -2,-1 -5,-2 -6,-4 -2,-2 -3,-5 -3,-8 0,-6 2,-10 6,-14 3,-3 8,-5 13,-5 6,0 11,1 15,3l1 0 -3 8c-2,-1 -4,-2 -7,-2 -3,0 -5,-1 -6,-1 -7,0 -10,4 -10,10 0,2 1,3 2,4 2,2 4,3 7,4 2,1 4,2 7,3 2,1 4,3 6,5 2,3 2,5 2,9 0,6 -2,12 -6,16 -5,4 -10,6 -17,6 -6,0 -12,-2 -17,-5l3 -7z"/>
    <polygon id="32" class="fil2" points="3270,570 3214,570 3215,562 3271,562 "/>
   </g>
   <polyline class="fil0 str1" points="3623,883 3621,814 3681,848 "/>
   <polyline class="fil0 str1" points="2024,843 1963,875 1968,806 "/>
   <polyline class="fil0 str1" points="1956,1935 2017,1967 2012,1898 "/>
   <polyline class="fil0 str1" points="3637,1975 3639,1906 3579,1940 "/>
  </g>
  <rect class="fil0" y="2" width="5343" height="2637"/>
 </g>
</svg>
