<?xml version="1.0" encoding="UTF-8"?>
<!DOCTYPE svg PUBLIC "-//W3C//DTD SVG 1.1//EN" "http://www.w3.org/Graphics/SVG/1.1/DTD/svg11.dtd">
<!-- Creator: CorelDRAW 2017 -->
<svg xmlns="http://www.w3.org/2000/svg" xml:space="preserve" width="4.49191in" height="2.85771in" version="1.1" style="shape-rendering:geometricPrecision; text-rendering:geometricPrecision; image-rendering:optimizeQuality; fill-rule:evenodd; clip-rule:evenodd"
viewBox="0 0 4552.17 2896.04"
 xmlns:xlink="http://www.w3.org/1999/xlink">
 <defs>
  <style type="text/css">
   <![CDATA[
    .str2 {stroke:#373435;stroke-width:14.08;stroke-miterlimit:2.61313;stroke-opacity:0.749020}
    .str4 {stroke:#96989A;stroke-width:21.11;stroke-miterlimit:2.61313}
    .str1 {stroke:#373435;stroke-width:14.08;stroke-miterlimit:2.61313}
    .str0 {stroke:#373435;stroke-width:14.08;stroke-miterlimit:2.61313}
    .str6 {stroke:#373435;stroke-width:7.03;stroke-miterlimit:2.61313}
    .str3 {stroke:#96989A;stroke-width:21.11;stroke-linecap:round;stroke-miterlimit:2.61313}
    .str7 {stroke:#373435;stroke-width:14.07;stroke-linecap:round;stroke-miterlimit:2.61313}
    .str5 {stroke:#373435;stroke-width:7.04;stroke-linecap:round;stroke-miterlimit:2.61313}
    .fil0 {fill:none}
    .fil1 {fill:#FEFEFE}
    .fil4 {fill:#373435;fill-rule:nonzero}
    .fil2 {fill:#D2D3D5;fill-opacity:0.749020}
    .fil3 {fill:#D2D3D5}
   ]]>
  </style>
 </defs>
 <g id="Layer_x0020_1">
  <metadata id="CorelCorpID_0Corel-Layer"/>
  <line class="fil0 str0" x1="1659.38" y1="531.38" x2="2532.42" y2= "7.04" />
  <line class="fil0 str0" x1="4231.53" y1="7.04" x2="3770.11" y2= "503.28" />
  <line class="fil0 str0" x1="2532.42" y1="1718.37" x2="1659.38" y2= "2654.25" />
  <line class="fil0 str0" x1="4231.53" y1="1718.37" x2="3767.09" y2= "2654.25" />
  <rect class="fil1 str0" x="2532.42" y="7.04" width="1699.11" height="1711.33"/>
  <path class="fil1 str1" d="M3349.38 1441.97l-453.73 -436.03 417.93 -346.74c33.18,-25.88 114.93,-67.68 180.87,-4.54 88.62,84.86 39.63,168.41 7.88,196.92 20.9,-18.69 95.41,-0.05 124.2,30.75 83.97,77.83 46.23,163.39 27.73,184.49l-304.89 375.15z"/>
  <line class="fil0 str1" x1="3133.91" y1="1234.91" x2="3502.33" y2= "851.58" />
  <polygon class="fil2 str2" points="2104.72,267.45 3999.38,267.45 3999.38,2175.75 2104.72,2175.75 "/>
  <rect class="fil0 str0" x="1659.38" y="531.38" width="2107.71" height="2122.87"/>
  <g id="_2485975106976">
   <polygon class="fil1 str1" points="2799.76,1562.57 2764.83,1761.83 2403.42,1593.04 2651.63,1348.68 "/>
   <circle class="fil1 str1" cx="2532.42" cy="1718.37" r="179.85"/>
   <circle class="fil1 str1" cx="2889.68" cy="1718.37" r="179.85"/>
   <path class="fil1 str1" d="M2812.1 1562.64l-221.8 -295.74 372.23 -318.1c115.82,-109.03 310.68,130.17 204.73,252.72 -103.61,103.25 -242.44,247.32 -355.15,361.12 -16.74,16.9 233.69,252.42 218.29,267.76 113.03,-141.07 227.35,-274.05 340.38,-415.12 22.58,-27.9 10.32,-109.64 -43.11,-175.54 -46.08,-40.19 -98.5,-47.65 -160.41,-38.22l-355.15 361.12z"/>
   <circle class="fil1 str1" cx="2889.68" cy="1718.37" r="179.85"/>
   <circle class="fil1 str1" cx="2703.76" cy="1406.45" r="179.85"/>
  </g>
  <line class="fil0 str0" x1="3768.99" y1="531.93" x2="4231.53" y2= "7.04" />
  <path class="fil0 str3" d="M2971.88 940.86c158.79,-66.34 263.44,123.63 199.81,260.01 204.24,-11.31 227.48,158.67 194.6,220.3"/>
  <polygon class="fil3 str0" points="85.99,1709.23 1040.31,1709.23 1040.31,2670.41 85.99,2670.41 "/>
  <circle class="fil1 str4" cx="486.37" cy="2257.17" r="82.59"/>
  <circle class="fil1 str4" cx="654.07" cy="2257.67" r="82.59"/>
  <circle class="fil1 str4" cx="569.97" cy="2110.51" r="82.59"/>
  <path class="fil0 str5" d="M1140.45 2162.63l60.8 34.46 -60.8 34.46m-96.48 -34.46l147.15 0"/>
  <path class="fil4" d="M1162.44 2050.11c2.67,2.87 4.7,5.71 6.05,8.59 0.96,1.97 2.53,7.18 4.73,15.56l7.32 -10.89c1.94,-2.62 4.28,-5.15 7.07,-7.54 2.76,-2.37 5.21,-4.03 7.32,-4.9 1.32,-0.53 2.78,-0.81 4.39,-0.81 2.39,0 4.28,0.62 5.72,1.89 1.4,1.26 2.11,2.81 2.11,4.62 0,2.08 -0.42,3.52 -1.24,4.28 -1.58,1.38 -3.35,2.05 -5.35,2.05 -1.15,0 -2.42,-0.25 -3.75,-0.73 -2.62,-0.87 -4.36,-1.3 -5.26,-1.3 -1.32,0 -2.9,0.76 -4.73,2.31 -3.46,2.84 -7.57,8.36 -12.36,16.55l6.84 28.46c1.07,4.31 1.97,6.87 2.7,7.72 0.73,0.84 1.44,1.26 2.17,1.26 1.18,0 2.56,-0.62 4.11,-1.89 3.1,-2.51 5.71,-5.77 7.88,-9.82l2.9 1.49c-3.49,6.42 -7.91,11.77 -13.29,16.02 -3.04,2.39 -5.6,3.6 -7.72,3.6 -3.1,0 -5.54,-1.69 -7.37,-5.07 -1.15,-2.17 -3.52,-11.46 -7.12,-27.87 -8.56,14.92 -15.43,24.52 -20.61,28.8 -3.35,2.76 -6.59,4.14 -9.71,4.14 -2.19,0 -4.19,-0.79 -6.02,-2.39 -1.32,-1.24 -1.97,-2.87 -1.97,-4.9 0,-1.83 0.59,-3.35 1.8,-4.56 1.21,-1.21 2.67,-1.83 4.45,-1.83 1.74,0 3.6,0.87 5.57,2.65 1.4,1.26 2.51,1.92 3.26,1.92 0.67,0 1.52,-0.42 2.56,-1.3 2.56,-2.08 6.08,-6.56 10.5,-13.4 4.42,-6.87 7.35,-11.83 8.7,-14.89 -3.35,-13.37 -5.15,-20.44 -5.43,-21.22 -1.24,-3.58 -2.87,-6.11 -4.87,-7.6 -2.03,-1.49 -4.98,-2.23 -8.9,-2.23 -1.24,0 -2.67,0.06 -4.31,0.17l0 -3.04 21.84 -3.88z"/>
  <path class="fil0 str5" d="M528 1603.11l34.46 -60.8 34.46 60.8m-34.46 96.48l0 -147.15"/>
  <path class="fil4" d="M445.52 1533.2c1.86,3.18 3.15,6.16 3.86,8.95 0.7,2.76 1.43,8.22 2.14,16.36l3.6 40.54c3.32,-3.97 8.14,-10.22 14.44,-18.8 3.04,-4.17 6.79,-9.85 11.29,-17.06 2.7,-4.39 4.36,-7.46 4.95,-9.2 0.34,-0.9 0.51,-1.8 0.51,-2.73 0,-0.59 -0.2,-1.1 -0.56,-1.49 -0.39,-0.36 -1.4,-0.81 -3.01,-1.35 -1.63,-0.51 -2.98,-1.49 -4.05,-2.87 -1.07,-1.41 -1.6,-3.01 -1.6,-4.84 0,-2.25 0.68,-4.05 2,-5.43 1.32,-1.38 2.96,-2.05 4.96,-2.05 2.42,0 4.48,1.01 6.19,3.01 1.72,2 2.56,4.76 2.56,8.27 0,4.36 -1.49,9.32 -4.48,14.89 -2.98,5.6 -8.73,14.16 -17.26,25.7 -8.5,11.54 -18.78,24.15 -30.77,37.81 -8.31,9.4 -14.44,15.34 -18.44,17.79 -4.03,2.45 -7.46,3.66 -10.3,3.66 -1.69,0 -3.18,-0.65 -4.48,-1.94 -1.29,-1.26 -1.94,-2.76 -1.94,-4.48 0,-2.11 0.9,-4.05 2.68,-5.83 1.77,-1.75 3.71,-2.62 5.8,-2.62 1.1,0 2,0.25 2.73,0.73 0.42,0.28 0.9,1.07 1.44,2.34 0.51,1.29 0.99,2.17 1.44,2.59 0.28,0.28 0.62,0.42 0.99,0.42 0.34,0 0.9,-0.28 1.74,-0.85 3.01,-1.89 6.5,-4.87 10.53,-8.98 5.21,-5.43 9.09,-9.93 11.68,-13.48l-4.62 -52.11c-0.76,-8.61 -1.92,-13.85 -3.44,-15.71 -1.55,-1.86 -4.11,-2.79 -7.74,-2.79 -1.15,0 -3.21,0.17 -6.16,0.51l-0.67 -3.04 24.01 -5.91z"/>
  <path class="fil0 str5" d="M3097.1 171.19l34.46 -60.8 34.46 60.8m-34.46 96.48l0 -147.15"/>
  <path class="fil4" d="M3014.24 101.28c1.86,3.18 3.15,6.16 3.86,8.95 0.7,2.76 1.43,8.22 2.14,16.36l3.6 40.54c3.32,-3.97 8.14,-10.22 14.44,-18.8 3.04,-4.17 6.79,-9.85 11.29,-17.06 2.7,-4.39 4.36,-7.46 4.95,-9.2 0.34,-0.9 0.51,-1.8 0.51,-2.73 0,-0.59 -0.2,-1.1 -0.56,-1.49 -0.39,-0.36 -1.4,-0.81 -3.01,-1.35 -1.63,-0.51 -2.98,-1.49 -4.05,-2.87 -1.07,-1.41 -1.6,-3.01 -1.6,-4.84 0,-2.25 0.68,-4.05 2,-5.43 1.32,-1.38 2.96,-2.05 4.96,-2.05 2.42,0 4.48,1.01 6.19,3.01 1.72,2 2.56,4.76 2.56,8.27 0,4.36 -1.49,9.32 -4.48,14.89 -2.98,5.6 -8.73,14.16 -17.26,25.7 -8.5,11.54 -18.78,24.15 -30.77,37.81 -8.31,9.4 -14.44,15.34 -18.44,17.79 -4.03,2.45 -7.46,3.66 -10.3,3.66 -1.69,0 -3.18,-0.65 -4.48,-1.94 -1.29,-1.26 -1.94,-2.76 -1.94,-4.48 0,-2.11 0.9,-4.05 2.68,-5.83 1.77,-1.75 3.71,-2.62 5.8,-2.62 1.1,0 2,0.25 2.73,0.73 0.42,0.28 0.9,1.07 1.44,2.34 0.51,1.29 0.99,2.17 1.44,2.59 0.28,0.28 0.62,0.42 0.99,0.42 0.34,0 0.9,-0.28 1.74,-0.85 3.01,-1.89 6.5,-4.87 10.53,-8.98 5.21,-5.43 9.09,-9.93 11.68,-13.48l-4.62 -52.11c-0.76,-8.61 -1.92,-13.85 -3.44,-15.71 -1.55,-1.86 -4.11,-2.79 -7.74,-2.79 -1.15,0 -3.21,0.17 -6.16,0.51l-0.67 -3.04 24.01 -5.91z"/>
  <path class="fil0 str5" d="M4103.28 1220.17l60.8 34.46 -60.8 34.46m-96.48 -34.46l147.15 0"/>
  <path class="fil4" d="M4125.27 1107.66c2.67,2.87 4.7,5.71 6.05,8.59 0.96,1.97 2.53,7.18 4.73,15.56l7.32 -10.89c1.94,-2.62 4.28,-5.15 7.07,-7.54 2.76,-2.37 5.21,-4.03 7.32,-4.9 1.32,-0.53 2.78,-0.81 4.39,-0.81 2.39,0 4.28,0.62 5.72,1.89 1.4,1.26 2.11,2.81 2.11,4.62 0,2.08 -0.42,3.52 -1.24,4.28 -1.58,1.38 -3.35,2.05 -5.35,2.05 -1.15,0 -2.42,-0.25 -3.75,-0.73 -2.62,-0.87 -4.36,-1.3 -5.26,-1.3 -1.32,0 -2.9,0.76 -4.73,2.31 -3.46,2.84 -7.57,8.36 -12.36,16.55l6.84 28.46c1.07,4.31 1.97,6.87 2.7,7.72 0.73,0.84 1.44,1.26 2.17,1.26 1.18,0 2.56,-0.62 4.11,-1.89 3.1,-2.51 5.71,-5.77 7.88,-9.82l2.9 1.49c-3.49,6.42 -7.91,11.77 -13.29,16.02 -3.04,2.39 -5.6,3.6 -7.72,3.6 -3.1,0 -5.54,-1.69 -7.37,-5.07 -1.15,-2.17 -3.52,-11.46 -7.12,-27.87 -8.56,14.92 -15.43,24.52 -20.61,28.8 -3.35,2.76 -6.59,4.14 -9.71,4.14 -2.19,0 -4.19,-0.79 -6.02,-2.39 -1.32,-1.24 -1.97,-2.87 -1.97,-4.9 0,-1.83 0.59,-3.35 1.8,-4.56 1.21,-1.21 2.67,-1.83 4.45,-1.83 1.74,0 3.6,0.87 5.57,2.65 1.4,1.26 2.51,1.92 3.26,1.92 0.67,0 1.52,-0.42 2.56,-1.3 2.56,-2.08 6.08,-6.56 10.5,-13.4 4.42,-6.87 7.35,-11.83 8.7,-14.89 -3.35,-13.37 -5.15,-20.44 -5.43,-21.22 -1.24,-3.58 -2.87,-6.11 -4.87,-7.6 -2.03,-1.49 -4.98,-2.23 -8.9,-2.23 -1.24,0 -2.67,0.06 -4.31,0.17l0 -3.04 21.84 -3.88z"/>
  <path class="fil0 str5" d="M2670.21 1703.7l-67.19 19.24 18.02 -67.52m92.18 -44.69l-103.1 104.98"/>
  <path class="fil4" d="M2545.77 1599.71l52.44 0 0 2.03 -57.09 59.62 24.32 0c5.71,0 9.32,-0.22 10.86,-0.65 1.55,-0.45 2.96,-1.38 4.25,-2.79 1.27,-1.44 2.73,-4 4.31,-7.71l3.04 0 -7.18 22.3 -53.79 0 0 -2.37 57.09 -59.62 -23.82 0c-5.04,0 -8.08,0.14 -9.12,0.42 -1.55,0.31 -3.1,1.18 -4.62,2.59 -1.52,1.41 -3.07,3.71 -4.67,6.95l-3.04 0 7.01 -20.77z"/>
  <line class="fil0 str6" x1="4341.04" y1="1724.63" x2="4552.17" y2= "1724.63" />
  <line class="fil0 str6" x1="3904.71" y1="2653.59" x2="4115.84" y2= "2653.59" />
  <g id="_2485975114848">
   <path class="fil0 str5" d="M4416.31 1748.34l28.56 -20.15 2.06 34.59m-174.53 319.09l168.14 -344.52"/>
   <path class="fil0 str5" d="M4003.35 2614.31l2.61 34.85 28.01 -20.4m142.24 -340.39l-165.92 351.62"/>
  </g>
  <path class="fil4" d="M4145.7 2133.3l-6.7 22.29 11.37 0 -1.35 5.24 -11.6 0 -14.95 48.7c-1.92,5.52 -2.87,9.09 -2.87,10.72 0,0.87 0.2,1.55 0.59,2 0.39,0.48 0.84,0.7 1.38,0.7 1.24,0 2.87,-0.9 4.87,-2.7 1.18,-1.1 3.83,-4.48 7.88,-10.16l2.73 2.08c-4.78,7.23 -9.29,12.27 -13.57,15.12 -2.9,1.97 -5.83,2.96 -8.81,2.96 -2.28,0 -4.14,-0.73 -5.6,-2.23 -1.46,-1.49 -2.2,-3.4 -2.2,-5.74 0,-2.96 0.93,-7.52 2.79,-13.63l14.47 -47.83 -12.58 0 0.81 -3.24c6.05,-1.66 11.18,-4.11 15.4,-7.37 4.22,-3.24 8.98,-8.9 14.3,-16.92l3.63 0z"/>
  <path id="1" class="fil4" d="M4192.23 2155.59l88.84 0 0 6.76 -88.84 0 0 -6.76zm0 26.86l88.84 0 0 6.76 -88.84 0 0 -6.76z"/>
  <path id="2" class="fil4" d="M4346.27 2127.39l27.33 -13.17 2.73 0 0 94.42c0,6.28 0.25,10.22 0.79,11.77 0.54,1.52 1.61,2.73 3.27,3.55 1.66,0.82 5.04,1.3 10.13,1.41l0 3.04 -42.22 0 0 -3.04c5.29,-0.11 8.7,-0.56 10.22,-1.38 1.55,-0.79 2.62,-1.86 3.24,-3.21 0.59,-1.35 0.9,-5.41 0.9,-12.13l0 -60.47c0,-8.14 -0.28,-13.37 -0.82,-15.68 -0.39,-1.78 -1.1,-3.07 -2.11,-3.89 -1.04,-0.81 -2.25,-1.24 -3.69,-1.24 -2.05,0 -4.9,0.84 -8.53,2.56l-1.24 -2.53z"/>
  <path class="fil4" d="M70.75 93.75c-7.88,5.63 -15.06,8.45 -21.54,8.45 -16.89,0 -25.33,-12.15 -25.33,-36.45 0,-13.79 3,-23.46 9.01,-28.99 5.35,-4.88 11.85,-7.32 19.49,-7.32 7.65,0 14.05,3.47 19.21,10.41l3.66 -9.15 6.19 0 0 74.04c0,10.23 -2.53,17.83 -7.6,22.8 -5.07,4.97 -11.92,7.46 -20.55,7.46 -4.41,0 -8.35,-0.56 -11.83,-1.69 -3.47,-1.13 -7.08,-2.39 -10.84,-3.8l1.97 -7.46c7.88,2.53 14.47,3.8 19.77,3.8 5.3,0 9.69,-1.64 13.16,-4.92 3.47,-3.28 5.21,-8.26 5.21,-14.92l0 -12.24zm0 -10.13l0 -26.32c0,-5.54 -1.83,-10.04 -5.49,-13.51 -3.66,-3.47 -7.41,-5.21 -11.26,-5.21 -7.32,0 -12.43,2.13 -15.34,6.4 -2.91,4.27 -4.36,11.1 -4.36,20.48 0,18.39 5.16,27.59 15.48,27.59 6.75,0 13.74,-3.14 20.97,-9.43z"/>
  <polygon id="1" class="fil4" points="107.06,101.21 107.06,2.69 117.62,2.69 117.62,101.21 "/>
  <path id="2" class="fil4" d="M186.72 66.51c0,-9.05 -1.78,-15.98 -5.35,-20.76 -3.56,-4.79 -8.77,-7.18 -15.62,-7.18 -6.85,0 -11.71,2.27 -14.57,6.83 -2.86,4.55 -4.29,11.52 -4.29,20.9 0,17.73 6.52,26.6 19.57,26.6 6.85,0 11.94,-2.13 15.27,-6.4 3.33,-4.27 5,-10.93 5,-19.99zm2.53 25.97c-5.35,6.38 -12.9,9.57 -22.66,9.57 -9.76,0 -17.24,-3.17 -22.45,-9.5 -5.21,-6.33 -7.81,-15.2 -7.81,-26.6 0,-11.4 2.51,-20.34 7.53,-26.81 5.02,-6.48 12.38,-9.71 22.1,-9.71 9.72,0 17.36,3.28 22.95,9.85 5.58,6.57 8.37,15.48 8.37,26.74 0,11.26 -2.68,20.08 -8.02,26.46z"/>
  <path id="3" class="fil4" d="M216.14 2.69l10.56 0 0 35.19c8.07,-5.72 15.29,-8.59 21.68,-8.59 16.89,0 25.33,12.15 25.33,36.45 0,13.79 -3,23.46 -9.01,28.99 -5.35,4.88 -11.63,7.32 -18.86,7.32 -3.66,0 -7.37,-0.82 -11.12,-2.47 -3.75,-1.64 -6.85,-3.4 -9.29,-5.28l-3.1 6.9 -6.19 0 0 -98.52zm10.56 45.18l0 38.28c1.88,2.16 4.38,3.85 7.53,5.07 3.14,1.22 6.22,1.83 9.22,1.83 7.32,0 12.43,-2.16 15.34,-6.48 2.91,-4.32 4.36,-11.07 4.36,-20.27 0,-9.19 -1.46,-16.14 -4.36,-20.83 -2.91,-4.69 -6.62,-7.04 -11.12,-7.04 -6.75,0 -13.74,3.14 -20.97,9.43z"/>
  <path id="4" class="fil4" d="M323.39 59.13l5.77 0c0,-8.54 -1.08,-14.1 -3.24,-16.68 -2.16,-2.58 -6.94,-3.87 -14.36,-3.87 -7.41,0 -13.7,0.99 -18.86,2.96l-1.97 -8.17c7.88,-2.63 16.04,-3.94 24.49,-3.94 16.51,0 24.77,8.25 24.77,24.77l0 47.01 -6.19 0 -3.66 -8.3c-4.31,3.56 -8.04,5.98 -11.19,7.25 -3.14,1.27 -6.78,1.9 -10.91,1.9 -6.57,0 -11.68,-1.95 -15.34,-5.84 -3.66,-3.89 -5.49,-9.03 -5.49,-15.41 0,-14.45 12.06,-21.68 36.17,-21.68zm5.91 8.87l-6.34 0c-9.57,0 -16.16,0.94 -19.77,2.81 -3.61,1.88 -5.42,4.81 -5.42,8.8 0,3.99 1.03,7.25 3.1,9.78 2.06,2.53 4.76,3.8 8.09,3.8 3.33,0 6.52,-0.77 9.57,-2.32 3.05,-1.55 6.64,-4.25 10.77,-8.09l0 -14.78z"/>
  <polygon id="5" class="fil4" points="365.61,101.21 365.61,2.69 376.17,2.69 376.17,101.21 "/>
  <path id="6" class="fil4" d="M478.35 90.23l2.11 8.31c-7.51,2.25 -14.12,3.38 -19.85,3.38 -10.04,0 -17.6,-3.28 -22.66,-9.85 -5.07,-6.57 -7.6,-15.62 -7.6,-27.16 0,-11.54 2.63,-20.34 7.88,-26.39 5.25,-6.05 12.99,-9.08 23.22,-9.08 4.41,0 10.6,1.13 18.58,3.38l-4.22 8.16c-5.16,-1.5 -9.81,-2.25 -13.94,-2.25 -7.13,0 -12.27,2.11 -15.41,6.33 -3.14,4.23 -4.71,10.89 -4.71,19.99 0,18.48 6.62,27.73 19.85,27.73 5.25,0 10.84,-0.84 16.75,-2.53z"/>
  <path id="7" class="fil4" d="M541.41 66.51c0,-9.05 -1.78,-15.98 -5.35,-20.76 -3.56,-4.79 -8.77,-7.18 -15.62,-7.18 -6.85,0 -11.71,2.27 -14.57,6.83 -2.86,4.55 -4.29,11.52 -4.29,20.9 0,17.73 6.52,26.6 19.57,26.6 6.85,0 11.94,-2.13 15.27,-6.4 3.33,-4.27 5,-10.93 5,-19.99zm2.53 25.97c-5.35,6.38 -12.9,9.57 -22.66,9.57 -9.76,0 -17.24,-3.17 -22.45,-9.5 -5.21,-6.33 -7.81,-15.2 -7.81,-26.6 0,-11.4 2.51,-20.34 7.53,-26.81 5.02,-6.48 12.38,-9.71 22.1,-9.71 9.72,0 17.36,3.28 22.95,9.85 5.58,6.57 8.37,15.48 8.37,26.74 0,11.26 -2.68,20.08 -8.02,26.46z"/>
  <path id="8" class="fil4" d="M614.31 66.51c0,-9.05 -1.78,-15.98 -5.35,-20.76 -3.56,-4.79 -8.77,-7.18 -15.62,-7.18 -6.85,0 -11.71,2.27 -14.57,6.83 -2.86,4.55 -4.29,11.52 -4.29,20.9 0,17.73 6.52,26.6 19.57,26.6 6.85,0 11.94,-2.13 15.27,-6.4 3.33,-4.27 5,-10.93 5,-19.99zm2.53 25.97c-5.35,6.38 -12.9,9.57 -22.66,9.57 -9.76,0 -17.24,-3.17 -22.45,-9.5 -5.21,-6.33 -7.81,-15.2 -7.81,-26.6 0,-11.4 2.51,-20.34 7.53,-26.81 5.02,-6.48 12.38,-9.71 22.1,-9.71 9.72,0 17.36,3.28 22.95,9.85 5.58,6.57 8.37,15.48 8.37,26.74 0,11.26 -2.68,20.08 -8.02,26.46z"/>
  <path id="9" class="fil4" d="M654.28 47.44l0 53.77 -10.56 0 0 -70.37 6.76 0 1.69 8.3c4.5,-3.57 8.25,-6.08 11.26,-7.53 3,-1.46 6.43,-2.18 10.27,-2.18 1.88,0 3.28,0.09 4.23,0.28l1.97 0.56 -1.69 9.72c-1.69,-0.57 -3.99,-0.85 -6.9,-0.85 -5.63,0 -11.3,2.77 -17.03,8.3z"/>
  <path id="10" class="fil4" d="M736.06 2.69l10.56 0 0 98.52 -6.19 0 -3.52 -8.02c-8.63,6.1 -16.14,9.15 -22.52,9.15 -16.89,0 -25.33,-12.15 -25.33,-36.45 0,-13.79 3,-23.41 9.01,-28.85 5.35,-4.98 11.4,-7.46 18.16,-7.46 6.75,0 13.37,2.3 19.85,6.9l0 -33.78zm0 81.07l0 -36.59c-1.97,-2.35 -4.57,-4.36 -7.81,-6.05 -3.24,-1.69 -6.22,-2.53 -8.94,-2.53 -7.32,0 -12.43,2.16 -15.34,6.47 -2.91,4.32 -4.36,11.08 -4.36,20.27 0,9.2 1.46,16.14 4.36,20.83 2.91,4.69 6.62,7.04 11.12,7.04 6.75,0 13.74,-3.14 20.97,-9.43z"/>
  <polygon id="11" class="fil4" points="777.58,101.21 767.02,101.21 767.02,86.29 777.58,86.29 "/>
  <path id="12" class="fil4" d="M830.5 88.68c6.1,2.82 11.92,4.23 17.45,4.23 5.54,0 9.74,-1.11 12.6,-3.31 2.86,-2.21 4.29,-5.14 4.29,-8.8 0,-3.66 -1.22,-6.5 -3.66,-8.51 -2.44,-2.02 -5.42,-3.59 -8.94,-4.72 -3.52,-1.13 -7.04,-2.35 -10.56,-3.66 -3.52,-1.32 -6.5,-3.29 -8.94,-5.91 -2.44,-2.63 -3.66,-5.96 -3.66,-9.99 0,-5.91 1.92,-10.49 5.77,-13.72 3.85,-3.24 9.05,-4.86 15.62,-4.86 6.57,0 12.67,0.99 18.3,2.96l0.99 0.42 -1.83 9.01c-5.63,-2.16 -10.86,-3.24 -15.7,-3.24 -4.83,0 -8.14,0.75 -9.92,2.25 -1.78,1.5 -2.67,4.03 -2.67,7.6 0,2.25 1.22,4.18 3.66,5.77 2.44,1.6 5.42,2.98 8.94,4.15 3.52,1.17 7.04,2.53 10.56,4.08 3.52,1.55 6.5,3.87 8.94,6.97 2.44,3.1 3.66,6.9 3.66,11.4 0,6.57 -2.3,11.75 -6.89,15.55 -4.6,3.8 -10.93,5.7 -19,5.7 -8.07,0 -15.25,-1.83 -21.53,-5.49l2.53 -7.88z"/>
  <path id="13" class="fil4" d="M907.07 102.62l-23.79 -71.78 11.97 0 17.87 59.11 18.01 -59.11 11.68 0 -24.21 70.37c-3.1,9.1 -6.52,16.14 -10.28,21.11 -3.75,4.97 -8.59,9.01 -14.5,12.1l-3.94 -7.32c3.75,-2.16 7.27,-5.35 10.56,-9.57 3.28,-4.22 5.49,-9.2 6.62,-14.92z"/>
  <path id="14" class="fil4" d="M954.5 88.68c6.1,2.82 11.92,4.23 17.45,4.23 5.54,0 9.74,-1.11 12.6,-3.31 2.86,-2.21 4.29,-5.14 4.29,-8.8 0,-3.66 -1.22,-6.5 -3.66,-8.51 -2.44,-2.02 -5.42,-3.59 -8.94,-4.72 -3.52,-1.13 -7.04,-2.35 -10.56,-3.66 -3.52,-1.32 -6.5,-3.29 -8.94,-5.91 -2.44,-2.63 -3.66,-5.96 -3.66,-9.99 0,-5.91 1.92,-10.49 5.77,-13.72 3.85,-3.24 9.05,-4.86 15.62,-4.86 6.57,0 12.67,0.99 18.3,2.96l0.99 0.42 -1.83 9.01c-5.63,-2.16 -10.86,-3.24 -15.7,-3.24 -4.83,0 -8.14,0.75 -9.92,2.25 -1.78,1.5 -2.67,4.03 -2.67,7.6 0,2.25 1.22,4.18 3.66,5.77 2.44,1.6 5.42,2.98 8.94,4.15 3.52,1.17 7.04,2.53 10.56,4.08 3.52,1.55 6.5,3.87 8.94,6.97 2.44,3.1 3.66,6.9 3.66,11.4 0,6.57 -2.3,11.75 -6.89,15.55 -4.6,3.8 -10.93,5.7 -19,5.7 -8.07,0 -15.25,-1.83 -21.53,-5.49l2.53 -7.88z"/>
  <path id="15" class="fil4" d="M1020.23 86.01l0 -46.73 -9.57 0 0 -8.44 9.71 0 0 -20.13 10.56 0 0 20.13 17.17 0 0 8.44 -17.31 0 0 44.76c0,6.29 3.19,9.43 9.57,9.43 1.5,0 3.8,-0.28 6.9,-0.85l1.55 7.6c-3.85,1.22 -7.81,1.83 -11.89,1.83 -4.08,0 -7.88,-1.24 -11.4,-3.73 -3.52,-2.49 -5.27,-6.59 -5.27,-12.32z"/>
  <path id="16" class="fil4" d="M1116.08 68.27l-44.9 0c0,9.01 2.13,15.39 6.4,19.14 4.27,3.75 9.64,5.63 16.11,5.63 3.28,0 5.59,-0.16 6.9,-0.49 1.31,-0.33 2.56,-0.65 3.73,-0.98 1.17,-0.33 1.99,-0.59 2.46,-0.77 2.35,-0.66 4.36,-1.27 6.05,-1.83l1.69 8.16c-9.38,3.28 -16.7,4.93 -21.96,4.93 -9.66,0 -17.41,-2.93 -23.22,-8.8 -5.82,-5.87 -8.73,-14.69 -8.73,-26.46 0,-11.78 2.74,-20.95 8.23,-27.52 5.49,-6.57 12.43,-9.85 20.83,-9.85 8.4,0 14.94,2.72 19.63,8.16 4.69,5.44 7.04,12.81 7.04,22.1 0,2.53 -0.1,5.4 -0.28,8.59zm-44.2 -8.02l34.34 0c0,-6.94 -1.22,-12.29 -3.66,-16.04 -2.44,-3.75 -6.69,-5.63 -12.74,-5.63 -6.05,0 -10.49,2.01 -13.3,6.05 -2.81,4.03 -4.36,9.24 -4.64,15.62z"/>
  <path id="17" class="fil4" d="M1165.77 29.29c9.01,0 15.43,3.19 19.28,9.57 7.98,-6.38 15.34,-9.57 22.1,-9.57 6.75,0 12.27,1.9 16.54,5.7 4.27,3.8 6.4,9.31 6.4,16.54l0 49.69 -10.27 0 0 -45.32c0,-5.73 -1.29,-10.06 -3.87,-13.02 -2.58,-2.96 -6.03,-4.44 -10.35,-4.44 -5.91,0 -11.87,2.35 -17.87,7.04 0.47,2.07 0.7,4.08 0.7,6.05l0 49.69 -10.27 0 0 -45.32c0,-5.73 -1.29,-10.06 -3.87,-13.02 -2.58,-2.96 -6.03,-4.44 -10.35,-4.44 -2.81,0 -5.39,0.38 -7.74,1.13 -2.35,0.75 -4.08,1.5 -5.21,2.25 -1.13,0.75 -2.58,1.88 -4.36,3.38l0 56.02 -10.56 0 0 -70.37 6.76 0 1.83 7.18c2.35,-1.97 4.15,-3.4 5.42,-4.29 1.27,-0.89 3.36,-1.86 6.26,-2.88 2.91,-1.03 6.05,-1.55 9.43,-1.55z"/>
  <path class="fil4" d="M41.66 2877.04l0 -52.5 10.7 0 0 70.37 -6.19 0 -3.52 -8.3c-7.5,6.1 -14.68,9.15 -21.53,9.15 -6.85,0 -12.08,-1.99 -15.69,-5.98 -3.61,-3.99 -5.42,-9.64 -5.42,-16.96l0 -48.28 10.56 0 0 46.59c0,5.54 0.82,9.52 2.47,11.97 1.64,2.44 4.36,3.66 8.16,3.66 3.8,0 7.67,-1.03 11.61,-3.1 3.94,-2.07 6.9,-4.27 8.87,-6.62z"/>
  <path id="1" class="fil4" d="M88.53 2839.04l0 55.88 -10.56 0 0 -70.37 6.76 0 1.69 6.89c2.16,-1.69 3.92,-3 5.28,-3.94 1.36,-0.94 3.54,-1.9 6.54,-2.88 3,-0.99 6.19,-1.48 9.57,-1.48 6.48,0 11.85,1.99 16.11,5.98 4.27,3.99 6.4,9.64 6.4,16.96l0 48.84 -10.56 0 0 -45.74c0,-11.36 -4.74,-17.03 -14.22,-17.03 -6.75,0 -12.43,2.3 -17.03,6.9z"/>
  <path id="2" class="fil4" d="M153.98 2894.92l0 -70.37 10.56 0 0 70.37 -10.56 0zm10.56 -98.52l0 12.53 -10.56 0 0 -12.53 10.56 0z"/>
  <path id="3" class="fil4" d="M189.73 2879.72l0 -46.73 -9.57 0 0 -8.44 9.71 0 0 -20.13 10.56 0 0 20.13 17.17 0 0 8.44 -17.31 0 0 44.76c0,6.29 3.19,9.43 9.57,9.43 1.5,0 3.8,-0.28 6.9,-0.85l1.55 7.6c-3.85,1.22 -7.81,1.83 -11.89,1.83 -4.08,0 -7.88,-1.24 -11.4,-3.73 -3.52,-2.49 -5.27,-6.59 -5.27,-12.32z"/>
  <polygon id="4" class="fil4" points="257.57,2859.17 230.69,2859.17 230.69,2848.61 257.57,2848.61 "/>
  <path id="5" class="fil4" d="M278.82 2879.72l0 -46.73 -9.57 0 0 -8.44 9.71 0 0 -20.13 10.56 0 0 20.13 17.17 0 0 8.44 -17.31 0 0 44.76c0,6.29 3.19,9.43 9.57,9.43 1.5,0 3.8,-0.28 6.9,-0.85l1.55 7.6c-3.85,1.22 -7.81,1.83 -11.89,1.83 -4.08,0 -7.88,-1.24 -11.4,-3.73 -3.52,-2.49 -5.27,-6.59 -5.27,-12.32z"/>
  <path id="6" class="fil4" d="M378.47 2894.92l-10.56 0 0 -46.31c0,-11.36 -4.74,-17.03 -14.22,-17.03 -7.04,0 -12.81,2.25 -17.31,6.76l0 56.58 -10.56 0 0 -98.52 10.42 0 0 33.36c2.06,-1.69 3.68,-2.91 4.86,-3.66 1.17,-0.75 3.1,-1.5 5.77,-2.25 2.67,-0.75 5.7,-1.13 9.08,-1.13 6.48,0 11.85,1.97 16.12,5.91 4.27,3.94 6.4,9.57 6.4,16.89l0 49.4z"/>
  <path id="7" class="fil4" d="M402.12 2894.92l0 -70.37 10.56 0 0 70.37 -10.56 0zm10.56 -98.52l0 12.53 -10.56 0 0 -12.53 10.56 0z"/>
  <path id="8" class="fil4" d="M477.56 2883.94l2.11 8.31c-7.51,2.25 -14.12,3.38 -19.85,3.38 -10.04,0 -17.6,-3.28 -22.66,-9.85 -5.07,-6.57 -7.6,-15.62 -7.6,-27.16 0,-11.54 2.63,-20.34 7.88,-26.39 5.25,-6.05 12.99,-9.08 23.22,-9.08 4.41,0 10.6,1.13 18.58,3.38l-4.22 8.16c-5.16,-1.5 -9.81,-2.25 -13.94,-2.25 -7.13,0 -12.27,2.11 -15.41,6.33 -3.14,4.23 -4.71,10.89 -4.71,19.99 0,18.48 6.62,27.73 19.85,27.73 5.25,0 10.84,-0.84 16.75,-2.53z"/>
  <polygon id="9" class="fil4" points="497.12,2796.39 507.68,2796.39 507.68,2854.38 537.8,2824.54 551.17,2824.54 521.33,2853.12 552.72,2894.92 540.76,2894.92 515.14,2859.73 507.68,2867.33 507.68,2894.92 497.12,2894.92 "/>
  <path id="10" class="fil4" d="M579.32 2839.04l0 55.88 -10.56 0 0 -70.37 6.76 0 1.69 6.89c2.16,-1.69 3.92,-3 5.28,-3.94 1.36,-0.94 3.54,-1.9 6.54,-2.88 3,-0.99 6.19,-1.48 9.57,-1.48 6.48,0 11.85,1.99 16.11,5.98 4.27,3.99 6.4,9.64 6.4,16.96l0 48.84 -10.56 0 0 -45.74c0,-11.36 -4.74,-17.03 -14.22,-17.03 -6.75,0 -12.43,2.3 -17.03,6.9z"/>
  <path id="11" class="fil4" d="M695.58 2861.98l-44.9 0c0,9.01 2.13,15.39 6.4,19.14 4.27,3.75 9.64,5.63 16.11,5.63 3.28,0 5.59,-0.16 6.9,-0.49 1.31,-0.33 2.56,-0.65 3.73,-0.98 1.17,-0.33 1.99,-0.59 2.46,-0.77 2.35,-0.66 4.36,-1.27 6.05,-1.83l1.69 8.16c-9.38,3.28 -16.7,4.93 -21.96,4.93 -9.66,0 -17.41,-2.93 -23.22,-8.8 -5.82,-5.87 -8.73,-14.69 -8.73,-26.46 0,-11.78 2.74,-20.95 8.23,-27.52 5.49,-6.57 12.43,-9.85 20.83,-9.85 8.4,0 14.94,2.72 19.63,8.16 4.69,5.44 7.04,12.81 7.04,22.1 0,2.53 -0.1,5.4 -0.28,8.59zm-44.2 -8.02l34.34 0c0,-6.94 -1.22,-12.29 -3.66,-16.04 -2.44,-3.75 -6.69,-5.63 -12.74,-5.63 -6.05,0 -10.49,2.01 -13.3,6.05 -2.81,4.03 -4.36,9.24 -4.64,15.62z"/>
  <path id="12" class="fil4" d="M712.89 2882.39c6.1,2.82 11.92,4.23 17.45,4.23 5.54,0 9.74,-1.11 12.6,-3.31 2.86,-2.21 4.29,-5.14 4.29,-8.8 0,-3.66 -1.22,-6.5 -3.66,-8.51 -2.44,-2.02 -5.42,-3.59 -8.94,-4.72 -3.52,-1.13 -7.04,-2.35 -10.56,-3.66 -3.52,-1.32 -6.5,-3.29 -8.94,-5.91 -2.44,-2.63 -3.66,-5.96 -3.66,-9.99 0,-5.91 1.92,-10.49 5.77,-13.72 3.85,-3.24 9.05,-4.86 15.62,-4.86 6.57,0 12.67,0.99 18.3,2.96l0.99 0.42 -1.83 9.01c-5.63,-2.16 -10.86,-3.24 -15.7,-3.24 -4.83,0 -8.14,0.75 -9.92,2.25 -1.78,1.5 -2.67,4.03 -2.67,7.6 0,2.25 1.22,4.18 3.66,5.77 2.44,1.6 5.42,2.98 8.94,4.15 3.52,1.17 7.04,2.53 10.56,4.08 3.52,1.55 6.5,3.87 8.94,6.97 2.44,3.1 3.66,6.9 3.66,11.4 0,6.57 -2.3,11.75 -6.89,15.55 -4.6,3.8 -10.93,5.7 -19,5.7 -8.07,0 -15.25,-1.83 -21.53,-5.49l2.53 -7.88z"/>
  <path id="13" class="fil4" d="M774.26 2882.39c6.1,2.82 11.92,4.23 17.45,4.23 5.54,0 9.74,-1.11 12.6,-3.31 2.86,-2.21 4.29,-5.14 4.29,-8.8 0,-3.66 -1.22,-6.5 -3.66,-8.51 -2.44,-2.02 -5.42,-3.59 -8.94,-4.72 -3.52,-1.13 -7.04,-2.35 -10.56,-3.66 -3.52,-1.32 -6.5,-3.29 -8.94,-5.91 -2.44,-2.63 -3.66,-5.96 -3.66,-9.99 0,-5.91 1.92,-10.49 5.77,-13.72 3.85,-3.24 9.05,-4.86 15.62,-4.86 6.57,0 12.67,0.99 18.3,2.96l0.99 0.42 -1.83 9.01c-5.63,-2.16 -10.86,-3.24 -15.7,-3.24 -4.83,0 -8.14,0.75 -9.92,2.25 -1.78,1.5 -2.67,4.03 -2.67,7.6 0,2.25 1.22,4.18 3.66,5.77 2.44,1.6 5.42,2.98 8.94,4.15 3.52,1.17 7.04,2.53 10.56,4.08 3.52,1.55 6.5,3.87 8.94,6.97 2.44,3.1 3.66,6.9 3.66,11.4 0,6.57 -2.3,11.75 -6.89,15.55 -4.6,3.8 -10.93,5.7 -19,5.7 -8.07,0 -15.25,-1.83 -21.53,-5.49l2.53 -7.88z"/>
  <path id="14" class="fil4" d="M913.6 2796.39l10.56 0 0 98.52 -6.19 0 -3.52 -8.02c-8.63,6.1 -16.14,9.15 -22.52,9.15 -16.89,0 -25.33,-12.15 -25.33,-36.45 0,-13.79 3,-23.41 9.01,-28.85 5.35,-4.98 11.4,-7.46 18.16,-7.46 6.75,0 13.37,2.3 19.85,6.9l0 -33.78zm0 81.07l0 -36.59c-1.97,-2.35 -4.57,-4.36 -7.81,-6.05 -3.24,-1.69 -6.22,-2.53 -8.94,-2.53 -7.32,0 -12.43,2.16 -15.34,6.47 -2.91,4.32 -4.36,11.08 -4.36,20.27 0,9.2 1.46,16.14 4.36,20.83 2.91,4.69 6.62,7.04 11.12,7.04 6.75,0 13.74,-3.14 20.97,-9.43z"/>
  <path id="15" class="fil4" d="M947.8 2894.92l0 -70.37 10.56 0 0 70.37 -10.56 0zm10.56 -98.52l0 12.53 -10.56 0 0 -12.53 10.56 0z"/>
  <path id="16" class="fil4" d="M979.19 2882.39c6.1,2.82 11.92,4.23 17.45,4.23 5.54,0 9.74,-1.11 12.6,-3.31 2.86,-2.21 4.29,-5.14 4.29,-8.8 0,-3.66 -1.22,-6.5 -3.66,-8.51 -2.44,-2.02 -5.42,-3.59 -8.94,-4.72 -3.52,-1.13 -7.04,-2.35 -10.56,-3.66 -3.52,-1.32 -6.5,-3.29 -8.94,-5.91 -2.44,-2.63 -3.66,-5.96 -3.66,-9.99 0,-5.91 1.92,-10.49 5.77,-13.72 3.85,-3.24 9.05,-4.86 15.62,-4.86 6.57,0 12.67,0.99 18.3,2.96l0.99 0.42 -1.83 9.01c-5.63,-2.16 -10.86,-3.24 -15.7,-3.24 -4.83,0 -8.14,0.75 -9.92,2.25 -1.78,1.5 -2.67,4.03 -2.67,7.6 0,2.25 1.22,4.18 3.66,5.77 2.44,1.6 5.42,2.98 8.94,4.15 3.52,1.17 7.04,2.53 10.56,4.08 3.52,1.55 6.5,3.87 8.94,6.97 2.44,3.1 3.66,6.9 3.66,11.4 0,6.57 -2.3,11.75 -6.89,15.55 -4.6,3.8 -10.93,5.7 -19,5.7 -8.07,0 -15.25,-1.83 -21.53,-5.49l2.53 -7.88z"/>
  <polygon id="17" class="fil4" points="1043.23,2796.39 1053.78,2796.39 1053.78,2854.38 1083.9,2824.54 1097.28,2824.54 1067.44,2853.12 1098.82,2894.92 1086.86,2894.92 1061.24,2859.73 1053.78,2867.33 1053.78,2894.92 1043.23,2894.92 "/>
  <path id="18" class="fil4" d="M1112.19 2882.39c6.1,2.82 11.92,4.23 17.45,4.23 5.54,0 9.74,-1.11 12.6,-3.31 2.86,-2.21 4.29,-5.14 4.29,-8.8 0,-3.66 -1.22,-6.5 -3.66,-8.51 -2.44,-2.02 -5.42,-3.59 -8.94,-4.72 -3.52,-1.13 -7.04,-2.35 -10.56,-3.66 -3.52,-1.32 -6.5,-3.29 -8.94,-5.91 -2.44,-2.63 -3.66,-5.96 -3.66,-9.99 0,-5.91 1.92,-10.49 5.77,-13.72 3.85,-3.24 9.05,-4.86 15.62,-4.86 6.57,0 12.67,0.99 18.3,2.96l0.99 0.42 -1.83 9.01c-5.63,-2.16 -10.86,-3.24 -15.7,-3.24 -4.83,0 -8.14,0.75 -9.92,2.25 -1.78,1.5 -2.67,4.03 -2.67,7.6 0,2.25 1.22,4.18 3.66,5.77 2.44,1.6 5.42,2.98 8.94,4.15 3.52,1.17 7.04,2.53 10.56,4.08 3.52,1.55 6.5,3.87 8.94,6.97 2.44,3.1 3.66,6.9 3.66,11.4 0,6.57 -2.3,11.75 -6.89,15.55 -4.6,3.8 -10.93,5.7 -19,5.7 -8.07,0 -15.25,-1.83 -21.53,-5.49l2.53 -7.88z"/>
  <path class="fil4" d="M340.09 2599.46l-0.14 9.15 -57.99 0 0 -10.13c15.76,-16.05 27.23,-28.95 34.41,-38.71 7.18,-9.76 10.77,-18.21 10.77,-25.34 0,-11.07 -6.15,-16.61 -18.44,-16.61 -6.66,0 -13.27,0.75 -19.85,2.25l-3.1 0.7 -1.97 -8.16c7.13,-2.63 15.44,-3.94 24.91,-3.94 9.48,0 16.71,2.13 21.68,6.4 4.98,4.27 7.46,10.51 7.46,18.72 0,8.21 -3.5,17.5 -10.49,27.87 -6.99,10.37 -17.71,22.97 -32.16,37.79l44.9 0z"/>
  <path id="1" class="fil4" d="M400.61 2510.08l10.56 0 0 98.52 -6.19 0 -3.52 -8.02c-8.63,6.1 -16.14,9.15 -22.52,9.15 -16.89,0 -25.33,-12.15 -25.33,-36.45 0,-13.79 3,-23.41 9.01,-28.85 5.35,-4.98 11.4,-7.46 18.16,-7.46 6.75,0 13.37,2.3 19.85,6.9l0 -33.78zm0 81.07l0 -36.59c-1.97,-2.35 -4.57,-4.36 -7.81,-6.05 -3.24,-1.69 -6.22,-2.53 -8.94,-2.53 -7.32,0 -12.43,2.16 -15.34,6.47 -2.91,4.32 -4.36,11.08 -4.36,20.27 0,9.2 1.46,16.14 4.36,20.83 2.91,4.69 6.62,7.04 11.12,7.04 6.75,0 13.74,-3.14 20.97,-9.43z"/>
  <path id="2" class="fil4" d="M501.67 2536.68c9.01,0 15.43,3.19 19.28,9.57 7.98,-6.38 15.34,-9.57 22.1,-9.57 6.75,0 12.27,1.9 16.54,5.7 4.27,3.8 6.4,9.31 6.4,16.54l0 49.69 -10.27 0 0 -45.32c0,-5.73 -1.29,-10.06 -3.87,-13.02 -2.58,-2.96 -6.03,-4.44 -10.35,-4.44 -5.91,0 -11.87,2.35 -17.87,7.04 0.47,2.07 0.7,4.08 0.7,6.05l0 49.69 -10.27 0 0 -45.32c0,-5.73 -1.29,-10.06 -3.87,-13.02 -2.58,-2.96 -6.03,-4.44 -10.35,-4.44 -2.81,0 -5.39,0.38 -7.74,1.13 -2.35,0.75 -4.08,1.5 -5.21,2.25 -1.13,0.75 -2.58,1.88 -4.36,3.38l0 56.02 -10.56 0 0 -70.37 6.76 0 1.83 7.18c2.35,-1.97 4.15,-3.4 5.42,-4.29 1.27,-0.89 3.36,-1.86 6.26,-2.88 2.91,-1.03 6.05,-1.55 9.43,-1.55z"/>
  <path id="3" class="fil4" d="M635.1 2573.91c0,-9.05 -1.78,-15.98 -5.35,-20.76 -3.56,-4.79 -8.77,-7.18 -15.62,-7.18 -6.85,0 -11.71,2.27 -14.57,6.83 -2.86,4.55 -4.29,11.52 -4.29,20.9 0,17.73 6.52,26.6 19.57,26.6 6.85,0 11.94,-2.13 15.27,-6.4 3.33,-4.27 5,-10.93 5,-19.99zm2.53 25.97c-5.35,6.38 -12.9,9.57 -22.66,9.57 -9.76,0 -17.24,-3.17 -22.45,-9.5 -5.21,-6.33 -7.81,-15.2 -7.81,-26.6 0,-11.4 2.51,-20.34 7.53,-26.81 5.02,-6.48 12.38,-9.71 22.1,-9.71 9.72,0 17.36,3.28 22.95,9.85 5.58,6.57 8.37,15.48 8.37,26.74 0,11.26 -2.68,20.08 -8.02,26.46z"/>
  <path id="4" class="fil4" d="M704.62 2510.08l10.56 0 0 98.52 -6.19 0 -3.52 -8.02c-8.63,6.1 -16.14,9.15 -22.52,9.15 -16.89,0 -25.33,-12.15 -25.33,-36.45 0,-13.79 3,-23.41 9.01,-28.85 5.35,-4.98 11.4,-7.46 18.16,-7.46 6.75,0 13.37,2.3 19.85,6.9l0 -33.78zm0 81.07l0 -36.59c-1.97,-2.35 -4.57,-4.36 -7.81,-6.05 -3.24,-1.69 -6.22,-2.53 -8.94,-2.53 -7.32,0 -12.43,2.16 -15.34,6.47 -2.91,4.32 -4.36,11.08 -4.36,20.27 0,9.2 1.46,16.14 4.36,20.83 2.91,4.69 6.62,7.04 11.12,7.04 6.75,0 13.74,-3.14 20.97,-9.43z"/>
  <path id="5" class="fil4" d="M789.63 2575.67l-44.9 0c0,9.01 2.13,15.39 6.4,19.14 4.27,3.75 9.64,5.63 16.11,5.63 3.28,0 5.59,-0.16 6.9,-0.49 1.31,-0.33 2.56,-0.65 3.73,-0.98 1.17,-0.33 1.99,-0.59 2.46,-0.77 2.35,-0.66 4.36,-1.27 6.05,-1.83l1.69 8.16c-9.38,3.28 -16.7,4.93 -21.96,4.93 -9.66,0 -17.41,-2.93 -23.22,-8.8 -5.82,-5.87 -8.73,-14.69 -8.73,-26.46 0,-11.78 2.74,-20.95 8.23,-27.52 5.49,-6.57 12.43,-9.85 20.83,-9.85 8.4,0 14.94,2.72 19.63,8.16 4.69,5.44 7.04,12.81 7.04,22.1 0,2.53 -0.1,5.4 -0.28,8.59zm-44.2 -8.02l34.34 0c0,-6.94 -1.22,-12.29 -3.66,-16.04 -2.44,-3.75 -6.69,-5.63 -12.74,-5.63 -6.05,0 -10.49,2.01 -13.3,6.05 -2.81,4.03 -4.36,9.24 -4.64,15.62z"/>
  <polygon id="6" class="fil4" points="809.62,2608.61 809.62,2510.08 820.18,2510.08 820.18,2608.61 "/>
  <path class="fil0 str5" d="M592.52 774.61l34.46 -60.8 34.46 60.8m-34.46 96.48l0 -147.15"/>
  <path class="fil0 str5" d="M721.85 838.17l60.8 34.46 -60.8 34.46m-96.48 -34.46l147.15 0"/>
  <path class="fil0 str5" d="M580.2 967.96l-67.19 19.24 18.02 -67.52m92.18 -44.69l-103.1 104.98"/>
  <path class="fil4" d="M801.51 736.69c2.67,2.87 4.7,5.71 6.05,8.59 0.96,1.97 2.53,7.18 4.73,15.56l7.32 -10.89c1.94,-2.62 4.28,-5.15 7.07,-7.54 2.76,-2.37 5.21,-4.03 7.32,-4.9 1.32,-0.53 2.78,-0.81 4.39,-0.81 2.39,0 4.28,0.62 5.72,1.89 1.4,1.26 2.11,2.81 2.11,4.62 0,2.08 -0.42,3.52 -1.24,4.28 -1.58,1.38 -3.35,2.05 -5.35,2.05 -1.15,0 -2.42,-0.25 -3.75,-0.73 -2.62,-0.87 -4.36,-1.3 -5.26,-1.3 -1.32,0 -2.9,0.76 -4.73,2.31 -3.46,2.84 -7.57,8.36 -12.36,16.55l6.84 28.46c1.07,4.31 1.97,6.87 2.7,7.72 0.73,0.84 1.44,1.26 2.17,1.26 1.18,0 2.56,-0.62 4.11,-1.89 3.1,-2.51 5.71,-5.77 7.88,-9.82l2.9 1.49c-3.49,6.42 -7.91,11.77 -13.29,16.02 -3.04,2.39 -5.6,3.6 -7.72,3.6 -3.1,0 -5.54,-1.69 -7.37,-5.07 -1.15,-2.17 -3.52,-11.46 -7.12,-27.87 -8.56,14.92 -15.43,24.52 -20.61,28.8 -3.35,2.76 -6.59,4.14 -9.71,4.14 -2.19,0 -4.19,-0.79 -6.02,-2.39 -1.32,-1.24 -1.97,-2.87 -1.97,-4.9 0,-1.83 0.59,-3.35 1.8,-4.56 1.21,-1.21 2.67,-1.83 4.45,-1.83 1.74,0 3.6,0.87 5.57,2.65 1.4,1.26 2.51,1.92 3.26,1.92 0.67,0 1.52,-0.42 2.56,-1.3 2.56,-2.08 6.08,-6.56 10.5,-13.4 4.42,-6.87 7.35,-11.83 8.7,-14.89 -3.35,-13.37 -5.15,-20.44 -5.43,-21.22 -1.24,-3.58 -2.87,-6.11 -4.87,-7.6 -2.03,-1.49 -4.98,-2.23 -8.9,-2.23 -1.24,0 -2.67,0.06 -4.31,0.17l0 -3.04 21.84 -3.88z"/>
  <path class="fil4" d="M522.88 690.66c1.86,3.18 3.15,6.16 3.86,8.95 0.7,2.76 1.43,8.22 2.14,16.36l3.6 40.54c3.32,-3.97 8.14,-10.22 14.44,-18.8 3.04,-4.17 6.79,-9.85 11.29,-17.06 2.7,-4.39 4.36,-7.46 4.95,-9.2 0.34,-0.9 0.51,-1.8 0.51,-2.73 0,-0.59 -0.2,-1.1 -0.56,-1.49 -0.39,-0.36 -1.4,-0.81 -3.01,-1.35 -1.63,-0.51 -2.98,-1.49 -4.05,-2.87 -1.07,-1.41 -1.6,-3.01 -1.6,-4.84 0,-2.25 0.68,-4.05 2,-5.43 1.32,-1.38 2.96,-2.05 4.96,-2.05 2.42,0 4.48,1.01 6.19,3.01 1.72,2 2.56,4.76 2.56,8.27 0,4.36 -1.49,9.32 -4.48,14.89 -2.98,5.6 -8.73,14.16 -17.26,25.7 -8.5,11.54 -18.78,24.15 -30.77,37.81 -8.31,9.4 -14.44,15.34 -18.44,17.79 -4.03,2.45 -7.46,3.66 -10.3,3.66 -1.69,0 -3.18,-0.65 -4.48,-1.94 -1.29,-1.26 -1.94,-2.76 -1.94,-4.48 0,-2.11 0.9,-4.05 2.68,-5.83 1.77,-1.75 3.71,-2.62 5.8,-2.62 1.1,0 2,0.25 2.73,0.73 0.42,0.28 0.9,1.07 1.44,2.34 0.51,1.29 0.99,2.17 1.44,2.59 0.28,0.28 0.62,0.42 0.99,0.42 0.34,0 0.9,-0.28 1.74,-0.85 3.01,-1.89 6.5,-4.87 10.53,-8.98 5.21,-5.43 9.09,-9.93 11.68,-13.48l-4.62 -52.11c-0.76,-8.61 -1.92,-13.85 -3.44,-15.71 -1.55,-1.86 -4.11,-2.79 -7.74,-2.79 -1.15,0 -3.21,0.17 -6.16,0.51l-0.67 -3.04 24.01 -5.91z"/>
  <path class="fil4" d="M588.47 1022.51l52.44 0 0 2.03 -57.09 59.62 24.32 0c5.71,0 9.32,-0.22 10.86,-0.65 1.55,-0.45 2.96,-1.38 4.25,-2.79 1.27,-1.44 2.73,-4 4.31,-7.71l3.04 0 -7.18 22.3 -53.79 0 0 -2.37 57.09 -59.62 -23.82 0c-5.04,0 -8.08,0.14 -9.12,0.42 -1.55,0.31 -3.1,1.18 -4.62,2.59 -1.52,1.41 -3.07,3.71 -4.67,6.95l-3.04 0 7.01 -20.77z"/>
  <path class="fil0 str7" d="M592.52 471.91l34.46 -60.8 34.46 60.8m-34.46 182.82l0 -233.49"/>
  <path class="fil0 str7" d="M1028.94 838.17l60.8 34.46 -60.8 34.46m-182.82 -34.46l233.49 0"/>
  <path class="fil0 str7" d="M373.67 1178.1l-67.47 18.23 19.03 -67.25m154.26 -103.99l-166.08 164.12"/>
  <path class="fil0 str7" d="M995.42 294.92l63.35 -29.53 -7.22 69.51m-424.57 536.18l425.91 -597.44"/>
  <path class="fil4" d="M1100.55 698.69c3.57,0 6.59,1.24 9.06,3.75 2.47,2.51 3.71,5.51 3.71,9.03 0,3.55 -1.24,6.53 -3.74,9.01 -2.51,2.48 -5.52,3.72 -9.04,3.72 -3.55,0 -6.53,-1.24 -9.01,-3.72 -2.48,-2.48 -3.71,-5.46 -3.71,-9.01 0,-3.52 1.24,-6.53 3.71,-9.03 2.48,-2.51 5.46,-3.75 9.01,-3.75zm11.6 37.33l0 61.14c0,5.49 0.65,9.01 1.91,10.56 1.3,1.52 3.8,2.39 7.54,2.62l0 2.87 -42.06 0 0 -2.87c3.49,-0.11 6.08,-1.1 7.77,-3.01 1.13,-1.26 1.69,-4.67 1.69,-10.16l0 -45.1c0,-5.51 -0.65,-9.01 -1.94,-10.55 -1.29,-1.52 -3.8,-2.39 -7.52,-2.62l0 -2.87 32.6 0z"/>
  <polygon class="fil4" points="1077.95,682.12 1097.99,646.99 1104.78,646.99 1124.48,682.12 1111.02,682.12 1100.64,664.02 1090.42,682.12 "/>
  <path class="fil4" d="M531.8 355.09c3.52,0 6.48,1.21 8.92,3.66 2.45,2.45 3.66,5.38 3.66,8.84 0,3.52 -1.24,6.5 -3.69,8.98 -2.48,2.45 -5.43,3.69 -8.89,3.69 -3.46,0 -6.42,-1.24 -8.9,-3.69 -2.45,-2.48 -3.69,-5.46 -3.69,-8.98 0,-3.46 1.21,-6.39 3.66,-8.84 2.45,-2.45 5.41,-3.66 8.93,-3.66zm11.57 37.33l0 79.92c0,7.49 -0.48,13.01 -1.41,16.58 -1.38,5.18 -4.11,9.32 -8.19,12.47 -4.11,3.12 -9.52,4.7 -16.21,4.7 -6.76,0 -11.74,-1.38 -14.98,-4.14 -3.21,-2.76 -4.81,-6.08 -4.81,-9.99 0,-2.42 0.84,-4.53 2.53,-6.33 1.66,-1.78 3.63,-2.68 5.88,-2.68 2.11,0 3.75,0.62 4.96,1.86 1.21,1.24 1.83,3.12 1.83,5.6 0,0.67 -0.03,1.44 -0.09,2.31 -0.11,1.18 -0.17,1.97 -0.17,2.42 0,1.94 0.45,3.38 1.32,4.31 0.9,0.93 2.03,1.41 3.4,1.41 1.27,0 2.37,-0.57 3.27,-1.66 0.93,-1.1 1.38,-2.65 1.38,-4.7 0,-1.1 -0.17,-3.32 -0.51,-6.67 -0.56,-6.11 -0.87,-9.8 -0.93,-11.06l-0.26 -19.56 0 -47.72 0.08 -4.36c0,-3.52 -0.59,-5.94 -1.77,-7.26 -1.18,-1.32 -3.66,-2.17 -7.43,-2.57l0 -2.87 32.09 0z"/>
  <polygon class="fil4" points="509.17,338.52 529.22,303.39 536,303.39 555.71,338.52 542.25,338.52 531.86,320.42 521.64,338.52 "/>
  <path class="fil4" d="M410.22 1262l0 73.78 17.87 -17.71c3.69,-3.55 6,-6.14 6.9,-7.77 0.9,-1.6 1.35,-3.18 1.35,-4.7 0,-1.49 -0.59,-2.76 -1.8,-3.77 -1.21,-0.99 -3.57,-1.72 -7.09,-2.17l0 -2.87 34.68 0 0 2.87c-3.32,0.17 -6.19,0.96 -8.67,2.39 -2.48,1.41 -7.32,5.69 -14.52,12.81l-8.45 8.39 18.16 26.52c7.32,10.81 11.65,16.86 13.03,18.19 1.89,1.89 4.25,2.93 7.09,3.15l0 2.87 -39.83 0 0 -2.87c1.74,0 3.04,-0.34 3.83,-0.99 0.79,-0.67 1.21,-1.38 1.21,-2.17 0,-1.26 -1.15,-3.63 -3.46,-7.04l-15.37 -22.46 -4.93 4.87 0 13.93c0,5.91 0.56,9.6 1.66,11.06 1.1,1.46 3.38,2.39 6.79,2.78l0 2.87 -39.86 0 0 -2.87c3.24,-0.34 5.52,-1.38 6.9,-3.15 0.93,-1.21 1.38,-4.78 1.38,-10.7l0 -78.54c0,-5.88 -0.53,-9.57 -1.58,-11.01 -1.07,-1.46 -3.29,-2.39 -6.7,-2.84l0 -2.87 31.42 0z"/>
  <polygon class="fil4" points="393.64,1242.89 413.69,1207.76 420.47,1207.76 440.18,1242.89 426.72,1242.89 416.33,1224.79 406.12,1242.89 "/>
  <path class="fil4" d="M916.47 398.42l-26.12 -59.79c-3.12,-7.26 -5.57,-11.88 -7.35,-13.82 -1.26,-1.44 -3.12,-2.39 -5.6,-2.9l0 -2.87 40.99 0 0 2.87c-2.56,0 -4.34,0.48 -5.26,1.41 -1.32,1.24 -1.97,2.68 -1.97,4.34 0,2.05 1.21,5.91 3.6,11.57l12.75 28.94 10.11 -24.97c2.9,-7.21 4.36,-12.3 4.36,-15.28 0,-1.72 -0.62,-3.12 -1.86,-4.22 -1.24,-1.07 -3.41,-1.66 -6.56,-1.78l0 -2.87 25.17 0 0 2.87c-2.42,0.34 -4.39,1.24 -5.94,2.76 -1.52,1.49 -3.83,5.91 -6.93,13.23l-25.59 60.52 -3.8 0z"/>
 </g>
</svg>
