<?xml version="1.0" encoding="UTF-8"?>
<!DOCTYPE svg PUBLIC "-//W3C//DTD SVG 1.1//EN" "http://www.w3.org/Graphics/SVG/1.1/DTD/svg11.dtd">
<!-- Creator: CorelDRAW 2017 -->
<svg xmlns="http://www.w3.org/2000/svg" xml:space="preserve" width="5.44167in" height="2.43333in" version="1.1" style="shape-rendering:geometricPrecision; text-rendering:geometricPrecision; image-rendering:optimizeQuality; fill-rule:evenodd; clip-rule:evenodd"
viewBox="0 0 5430.06 2428.15"
 xmlns:xlink="http://www.w3.org/1999/xlink">
 <defs>
  <style type="text/css">
   <![CDATA[
    .str0 {stroke:#373435;stroke-width:6.93;stroke-miterlimit:2.61313}
    .str1 {stroke:#373435;stroke-width:6.93;stroke-linecap:round;stroke-miterlimit:2.61313}
    .fil0 {fill:none}
    .fil1 {fill:#FEFEFE}
    .fil2 {fill:#373435;fill-rule:nonzero}
   ]]>
  </style>
 </defs>
 <g id="Layer_x0020_1">
  <metadata id="CorelCorpID_0Corel-Layer"/>
  <g id="_2510276429952">
   <rect class="fil0 str0" x="1531.18" y="1012.77" width="374.2" height="487.6"/>
   <rect class="fil1 str0" x="1476.3" y="957.89" width="374.2" height="487.6"/>
   <rect class="fil1 str0" x="1416.43" y="906.84" width="374.2" height="487.6"/>
   <path class="fil2" d="M1557.46 1071.51c0,12.49 -3.62,22.54 -10.87,30.16 -7.24,7.61 -16.93,11.42 -29.05,11.42l-16.19 0 0 -77.61 19.62 0c11.02,0 19.85,3.36 26.5,10.09 6.65,6.73 9.98,15.37 9.98,25.94zm-8.98 -0.89c0,-8.72 -2.66,-15.56 -7.98,-20.51 -5.32,-4.95 -11.68,-7.43 -19.07,-7.43l-11.09 0 0 63.2 8.21 0c8.35,0 15.43,-3.14 21.23,-9.42 5.8,-6.29 8.71,-14.89 8.71,-25.83z"/>
   <path id="1" class="fil2" d="M1597.04 1079.93l4.55 0c0,-6.73 -0.85,-11.11 -2.55,-13.14 -1.7,-2.03 -5.47,-3.05 -11.31,-3.05 -5.84,0 -10.79,0.78 -14.86,2.33l-1.55 -6.43c6.21,-2.07 12.64,-3.1 19.29,-3.1 13.01,0 19.51,6.5 19.51,19.51l0 37.03 -4.88 0 -2.88 -6.54c-3.4,2.81 -6.34,4.71 -8.82,5.71 -2.48,1 -5.34,1.5 -8.59,1.5 -5.17,0 -9.2,-1.53 -12.08,-4.6 -2.88,-3.07 -4.33,-7.11 -4.33,-12.14 0,-11.39 9.5,-17.07 28.49,-17.07zm4.66 6.99l-4.99 0c-7.54,0 -12.73,0.74 -15.58,2.22 -2.84,1.48 -4.27,3.79 -4.27,6.93 0,3.14 0.81,5.71 2.44,7.7 1.63,2 3.75,2.99 6.37,2.99 2.62,0 5.14,-0.61 7.54,-1.83 2.4,-1.22 5.23,-3.35 8.48,-6.38l0 -11.64z"/>
   <path id="2" class="fil2" d="M1631.63 1101.11l0 -36.81 -7.54 0 0 -6.65 7.65 0 0 -15.86 8.32 0 0 15.86 13.53 0 0 6.65 -13.64 0 0 35.26c0,4.95 2.51,7.43 7.54,7.43 1.18,0 2.99,-0.22 5.43,-0.67l1.22 5.99c-3.03,0.96 -6.15,1.44 -9.37,1.44 -3.21,0 -6.21,-0.98 -8.98,-2.94 -2.77,-1.96 -4.16,-5.19 -4.16,-9.7z"/>
   <path id="3" class="fil2" d="M1692.61 1079.93l4.55 0c0,-6.73 -0.85,-11.11 -2.55,-13.14 -1.7,-2.03 -5.47,-3.05 -11.31,-3.05 -5.84,0 -10.79,0.78 -14.86,2.33l-1.55 -6.43c6.21,-2.07 12.64,-3.1 19.29,-3.1 13.01,0 19.51,6.5 19.51,19.51l0 37.03 -4.88 0 -2.88 -6.54c-3.4,2.81 -6.34,4.71 -8.82,5.71 -2.48,1 -5.34,1.5 -8.59,1.5 -5.17,0 -9.2,-1.53 -12.08,-4.6 -2.88,-3.07 -4.33,-7.11 -4.33,-12.14 0,-11.39 9.5,-17.07 28.49,-17.07zm4.66 6.99l-4.99 0c-7.54,0 -12.73,0.74 -15.58,2.22 -2.84,1.48 -4.27,3.79 -4.27,6.93 0,3.14 0.81,5.71 2.44,7.7 1.63,2 3.75,2.99 6.37,2.99 2.62,0 5.14,-0.61 7.54,-1.83 2.4,-1.22 5.23,-3.35 8.48,-6.38l0 -11.64z"/>
   <path id="4" class="fil2" d="M1548.37 1250.12l0 -48.67 -21.4 0 0 48.67 -8.32 0 0 -48.79 -8.54 0 0 -6.65 8.65 0 0 -10.64c0,-4.51 1.39,-7.74 4.16,-9.7 2.77,-1.96 5.77,-2.94 8.98,-2.94 3.22,0 6.34,0.48 9.37,1.44l-1.22 5.99c-2.44,-0.44 -4.25,-0.66 -5.43,-0.66 -5.1,0 -7.65,2.48 -7.65,7.43l0 9.09 29.71 0 0 55.44 -8.32 0zm8.32 -77.5l0 9.87 -8.32 0 0 -9.87 8.32 0z"/>
   <polygon id="5" class="fil2" points="1576.86,1250.12 1576.86,1172.51 1585.18,1172.51 1585.18,1250.12 "/>
   <path id="6" class="fil2" d="M1643.83 1224.18l-35.37 0c0,7.1 1.68,12.12 5.05,15.08 3.36,2.96 7.59,4.44 12.69,4.44 2.59,0 4.4,-0.13 5.43,-0.39 1.03,-0.26 2.02,-0.51 2.94,-0.77 0.92,-0.26 1.57,-0.46 1.94,-0.61 1.85,-0.52 3.43,-1 4.77,-1.44l1.33 6.43c-7.39,2.59 -13.16,3.88 -17.3,3.88 -7.61,0 -13.71,-2.31 -18.29,-6.93 -4.58,-4.62 -6.88,-11.57 -6.88,-20.84 0,-9.28 2.16,-16.5 6.49,-21.68 4.32,-5.17 9.79,-7.76 16.41,-7.76 6.62,0 11.77,2.14 15.47,6.43 3.69,4.29 5.54,10.09 5.54,17.41 0,2 -0.07,4.25 -0.22,6.76zm-34.81 -6.32l27.05 0c0,-5.47 -0.96,-9.68 -2.88,-12.64 -1.92,-2.95 -5.27,-4.44 -10.03,-4.44 -4.77,0 -8.26,1.59 -10.48,4.77 -2.22,3.18 -3.44,7.28 -3.66,12.3z"/>
   <path id="7" class="fil2" d="M1657.47 1240.25c4.8,2.22 9.39,3.33 13.75,3.33 4.36,0 7.67,-0.87 9.92,-2.6 2.26,-1.74 3.38,-4.05 3.38,-6.93 0,-2.88 -0.96,-5.12 -2.88,-6.71 -1.92,-1.59 -4.27,-2.82 -7.04,-3.71 -2.77,-0.89 -5.54,-1.85 -8.31,-2.88 -2.77,-1.03 -5.12,-2.59 -7.04,-4.66 -1.93,-2.07 -2.88,-4.69 -2.88,-7.87 0,-4.66 1.51,-8.26 4.55,-10.81 3.03,-2.55 7.13,-3.82 12.31,-3.82 5.17,0 9.97,0.77 14.41,2.33l0.78 0.33 -1.44 7.1c-4.44,-1.7 -8.56,-2.55 -12.36,-2.55 -3.81,0 -6.41,0.59 -7.81,1.78 -1.41,1.18 -2.11,3.18 -2.11,5.99 0,1.77 0.96,3.29 2.88,4.55 1.92,1.26 4.27,2.35 7.04,3.27 2.77,0.93 5.54,2 8.32,3.22 2.77,1.22 5.12,3.05 7.04,5.49 1.92,2.44 2.88,5.43 2.88,8.98 0,5.17 -1.81,9.26 -5.43,12.25 -3.62,2.99 -8.61,4.49 -14.97,4.49 -6.36,0 -12.01,-1.44 -16.96,-4.32l2 -6.21z"/>
  </g>
  <g id="_2510276428608">
   <rect class="fil0 str0" x="1756.75" y="168.22" width="374.2" height="487.6"/>
   <rect class="fil1 str0" x="1701.86" y="113.34" width="374.2" height="487.6"/>
   <rect class="fil1 str0" x="1641.99" y="62.29" width="374.2" height="487.6"/>
   <path class="fil2" d="M1744.77 198.91l-8.37 29.16 9.64 0c4.35,0 7.59,-0.66 9.76,-2 2.14,-1.33 4.38,-4.18 6.65,-8.54l2 0 -7.65 26.72 -2.22 0c0.54,-2.16 0.81,-3.95 0.81,-5.36 0,-2.22 -0.72,-3.92 -2.16,-5.13 -1.44,-1.2 -4.14,-1.81 -8.08,-1.81l-9.86 0 -6.71 23.28c-1.14,3.59 -1.74,5.97 -1.74,7.17 0,1.2 0.5,2.15 1.5,2.81 1,0.65 3.42,1.09 7.28,1.33l-0.64 2 -28.7 0 0.7 -2c2.82,-0.07 4.69,-0.33 5.63,-0.76 1.44,-0.61 2.51,-1.44 3.2,-2.49 0.98,-1.48 2.13,-4.53 3.46,-9.15l12.75 -44.31c1.05,-3.58 1.57,-6.39 1.57,-8.41 0,-0.94 -0.24,-1.76 -0.7,-2.42 -0.48,-0.66 -1.16,-1.16 -2.09,-1.5 -0.93,-0.31 -2.75,-0.48 -5.49,-0.48l0.64 -2 57.23 0 -5.43 18.52 -2 0c0.4,-2.24 0.59,-4.07 0.59,-5.51 0,-2.38 -0.64,-4.25 -1.98,-5.63 -1.31,-1.39 -3.01,-2.38 -5.08,-2.96 -1.44,-0.35 -4.69,-0.53 -9.72,-0.53l-14.8 0z"/>
   <path id="1" class="fil2" d="M1803.68 266.54l-0.59 2 -29.82 0 0.76 -2c3.03,-0.07 5.04,-0.33 6,-0.76 1.59,-0.61 2.77,-1.46 3.53,-2.55 1.18,-1.7 2.42,-4.73 3.68,-9.09l12.75 -44.37c1.09,-3.69 1.63,-6.49 1.63,-8.35 0,-0.94 -0.24,-1.74 -0.7,-2.38 -0.46,-0.67 -1.18,-1.17 -2.14,-1.5 -0.94,-0.35 -2.81,-0.52 -5.6,-0.52l0.64 -2 28.03 0 -0.59 2c-2.31,-0.04 -4.03,0.24 -5.15,0.83 -1.63,0.8 -2.86,1.93 -3.7,3.38 -0.85,1.48 -1.94,4.73 -3.29,9.76l-12.75 44.26c-1.14,3.72 -1.72,6.08 -1.72,7.1 0,0.83 0.22,1.52 0.66,2.11 0.46,0.57 1.18,1.02 2.16,1.33 1,0.31 3.06,0.55 6.21,0.76z"/>
   <path id="2" class="fil2" d="M1814.44 270.19l5.99 -27.27 1.88 0c-0.26,2.64 -0.39,4.82 -0.39,6.56 0,4.93 1.59,8.96 4.75,12.06 3.14,3.1 7.26,4.66 12.36,4.66 4.71,0 8.3,-1.46 10.76,-4.36 2.46,-2.9 3.68,-6.26 3.68,-10.05 0,-2.46 -0.55,-4.69 -1.68,-6.71 -1.7,-2.99 -6.23,-8.28 -13.6,-15.82 -3.57,-3.62 -5.86,-6.3 -6.88,-8.08 -1.65,-2.92 -2.46,-5.99 -2.46,-9.2 0,-5.12 1.93,-9.52 5.75,-13.16 3.85,-3.64 8.76,-5.47 14.76,-5.47 2.02,0 3.94,0.2 5.75,0.61 1.11,0.2 3.16,0.94 6.12,2.18 2.11,0.83 3.27,1.29 3.48,1.37 0.51,0.11 1.07,0.17 1.68,0.17 1.05,0 1.96,-0.28 2.71,-0.81 0.76,-0.55 1.65,-1.72 2.66,-3.51l2 0 -5.65 24.39 -1.89 0c0.15,-2.16 0.22,-3.92 0.22,-5.26 0,-4.38 -1.46,-7.95 -4.35,-10.74 -2.9,-2.79 -6.71,-4.18 -11.46,-4.18 -3.75,0 -6.82,1.11 -9.17,3.31 -2.35,2.2 -3.53,4.75 -3.53,7.63 0,2.53 0.75,4.93 2.25,7.23 1.5,2.31 4.95,6.04 10.37,11.22 5.4,5.19 8.91,9.24 10.5,12.14 1.59,2.92 2.38,6.01 2.38,9.3 0,3.73 -0.98,7.33 -2.96,10.83 -1.96,3.49 -4.79,6.19 -8.46,8.1 -3.68,1.92 -7.69,2.88 -12.05,2.88 -2.18,0 -4.2,-0.2 -6.06,-0.59 -1.89,-0.41 -4.88,-1.37 -8.98,-2.92 -1.4,-0.54 -2.59,-0.81 -3.53,-0.81 -2.13,0 -3.79,1.44 -4.97,4.32l-2 0z"/>
   <path id="3" class="fil2" d="M1896.28 227.84l34.22 0 5.21 -18.19c1.01,-3.55 1.51,-6.28 1.51,-8.24 0,-0.94 -0.22,-1.76 -0.66,-2.42 -0.46,-0.66 -1.15,-1.16 -2.09,-1.5 -0.94,-0.31 -2.77,-0.48 -5.53,-0.48l0.54 -2 29.4 0 -0.65 2c-2.49,-0.04 -4.36,0.22 -5.58,0.76 -1.74,0.76 -3.01,1.74 -3.84,2.94 -1.18,1.72 -2.4,4.71 -3.62,8.98l-13.12 45.49c-1.07,3.36 -1.61,5.76 -1.61,7.21 0,1.24 0.46,2.2 1.42,2.83 0.96,0.65 3.23,1.09 6.86,1.31l-0.59 2 -28.2 0 0.76 -2c2.81,-0.07 4.69,-0.33 5.63,-0.76 1.44,-0.64 2.48,-1.48 3.14,-2.49 0.92,-1.4 2.09,-4.47 3.45,-9.2l6.47 -22.47 -34.22 0 -6.8 23.58c-1.04,3.29 -1.57,5.69 -1.57,7.21 0,1.24 0.48,2.2 1.42,2.83 0.92,0.65 3.2,1.09 6.82,1.31l-0.44 2 -28.4 0 0.7 -2c2.84,-0.07 4.75,-0.33 5.69,-0.76 1.44,-0.64 2.49,-1.48 3.19,-2.49 0.93,-1.48 2.09,-4.55 3.46,-9.2l12.77 -44.42c1.05,-3.62 1.57,-6.38 1.57,-8.24 0,-0.94 -0.22,-1.76 -0.66,-2.42 -0.46,-0.66 -1.17,-1.16 -2.13,-1.5 -0.94,-0.31 -2.81,-0.48 -5.6,-0.48l0.64 -2 28.92 0 -0.61 2c-2.4,-0.04 -4.19,0.22 -5.34,0.76 -1.7,0.72 -2.96,1.68 -3.75,2.88 -1.07,1.59 -2.27,4.6 -3.57,9.02l-5.23 18.17z"/>
   <path id="4" class="fil2" d="M1773.93 400.29l0 -48.67 -21.4 0 0 48.67 -8.32 0 0 -48.79 -8.54 0 0 -6.65 8.65 0 0 -10.64c0,-4.51 1.39,-7.74 4.16,-9.7 2.77,-1.96 5.77,-2.94 8.98,-2.94 3.22,0 6.34,0.48 9.37,1.44l-1.22 5.99c-2.44,-0.44 -4.25,-0.66 -5.43,-0.66 -5.1,0 -7.65,2.48 -7.65,7.43l0 9.09 29.71 0 0 55.44 -8.32 0zm8.32 -77.5l0 9.87 -8.32 0 0 -9.87 8.32 0z"/>
   <polygon id="5" class="fil2" points="1802.42,400.29 1802.42,322.68 1810.74,322.68 1810.74,400.29 "/>
   <path id="6" class="fil2" d="M1869.39 374.34l-35.37 0c0,7.1 1.68,12.12 5.05,15.08 3.36,2.96 7.59,4.44 12.69,4.44 2.59,0 4.4,-0.13 5.43,-0.39 1.03,-0.26 2.02,-0.51 2.94,-0.77 0.92,-0.26 1.57,-0.46 1.94,-0.61 1.85,-0.52 3.43,-1 4.77,-1.44l1.33 6.43c-7.39,2.59 -13.16,3.88 -17.3,3.88 -7.61,0 -13.71,-2.31 -18.29,-6.93 -4.58,-4.62 -6.88,-11.57 -6.88,-20.84 0,-9.28 2.16,-16.5 6.49,-21.68 4.32,-5.17 9.79,-7.76 16.41,-7.76 6.62,0 11.77,2.14 15.47,6.43 3.69,4.29 5.54,10.09 5.54,17.41 0,2 -0.07,4.25 -0.22,6.76zm-34.81 -6.32l27.05 0c0,-5.47 -0.96,-9.68 -2.88,-12.64 -1.92,-2.95 -5.27,-4.44 -10.03,-4.44 -4.77,0 -8.26,1.59 -10.48,4.77 -2.22,3.18 -3.44,7.28 -3.66,12.3z"/>
   <path id="7" class="fil2" d="M1883.03 390.42c4.8,2.22 9.39,3.33 13.75,3.33 4.36,0 7.67,-0.87 9.92,-2.6 2.26,-1.74 3.38,-4.05 3.38,-6.93 0,-2.88 -0.96,-5.12 -2.88,-6.71 -1.92,-1.59 -4.27,-2.82 -7.04,-3.71 -2.77,-0.89 -5.54,-1.85 -8.31,-2.88 -2.77,-1.03 -5.12,-2.59 -7.04,-4.66 -1.93,-2.07 -2.88,-4.69 -2.88,-7.87 0,-4.66 1.51,-8.26 4.55,-10.81 3.03,-2.55 7.13,-3.82 12.31,-3.82 5.17,0 9.97,0.77 14.41,2.33l0.78 0.33 -1.44 7.1c-4.44,-1.7 -8.56,-2.55 -12.36,-2.55 -3.81,0 -6.41,0.59 -7.81,1.78 -1.41,1.18 -2.11,3.18 -2.11,5.99 0,1.77 0.96,3.29 2.88,4.55 1.92,1.26 4.27,2.35 7.04,3.27 2.77,0.93 5.54,2 8.32,3.22 2.77,1.22 5.12,3.05 7.04,5.49 1.92,2.44 2.88,5.43 2.88,8.98 0,5.17 -1.81,9.26 -5.43,12.25 -3.62,2.99 -8.61,4.49 -14.97,4.49 -6.36,0 -12.01,-1.44 -16.96,-4.32l2 -6.21z"/>
  </g>
  <rect class="fil0 str0" x="2369.71" y="653.59" width="838.33" height="1092.37"/>
  <path class="fil2" d="M2553.12 1067.73l-11.31 0 0 32.6 -8.32 0 0 -77.61 22.18 0c8.28,0 14.28,1.81 18.02,5.43 3.73,3.62 5.6,9.26 5.6,16.91 0,7.65 -2.29,13.34 -6.88,17.08 -4.58,3.73 -11.01,5.6 -19.29,5.6zm-1.22 -37.92l-10.09 0 0 30.82 7.32 0c7.61,0 13.16,-1.15 16.63,-3.44 3.47,-2.29 5.21,-6.23 5.21,-11.81 0,-5.58 -1.51,-9.57 -4.55,-11.97 -3.03,-2.4 -7.87,-3.6 -14.52,-3.6z"/>
  <path id="1" class="fil2" d="M2601.8 1057.98l0 42.35 -8.32 0 0 -55.44 5.32 0 1.33 6.54c3.55,-2.81 6.5,-4.79 8.87,-5.93 2.37,-1.14 5.06,-1.72 8.09,-1.72 1.48,0 2.59,0.07 3.33,0.22l1.55 0.44 -1.33 7.65c-1.33,-0.44 -3.14,-0.66 -5.43,-0.66 -4.44,0 -8.91,2.18 -13.42,6.54z"/>
  <path id="2" class="fil2" d="M2668.87 1073c0,-7.13 -1.41,-12.58 -4.22,-16.35 -2.81,-3.77 -6.91,-5.66 -12.3,-5.66 -5.4,0 -9.22,1.79 -11.48,5.38 -2.26,3.58 -3.38,9.07 -3.38,16.46 0,13.97 5.14,20.96 15.41,20.96 5.39,0 9.41,-1.68 12.03,-5.04 2.62,-3.36 3.94,-8.61 3.94,-15.75zm2 20.46c-4.22,5.03 -10.16,7.54 -17.85,7.54 -7.69,0 -13.58,-2.49 -17.68,-7.48 -4.11,-4.99 -6.16,-11.97 -6.16,-20.96 0,-8.98 1.98,-16.02 5.93,-21.12 3.96,-5.1 9.76,-7.65 17.41,-7.65 7.65,0 13.68,2.59 18.07,7.76 4.4,5.17 6.6,12.2 6.6,21.07 0,8.87 -2.11,15.82 -6.32,20.85z"/>
  <path id="3" class="fil2" d="M2698.14 1022.72l0 9.75 -8.31 0 0 -9.75 8.31 0zm-12.86 100.23c3.03,-3.92 4.55,-10.2 4.55,-18.85l0 -59.21 8.31 0 0 56.54c0,6.36 -0.61,11.42 -1.83,15.19 -1.22,3.77 -3.27,7.17 -6.16,10.2l-4.88 -3.88z"/>
  <path id="4" class="fil2" d="M2755.13 1074.38l-35.37 0c0,7.1 1.68,12.12 5.05,15.08 3.36,2.96 7.59,4.44 12.69,4.44 2.59,0 4.4,-0.13 5.43,-0.39 1.03,-0.26 2.02,-0.51 2.94,-0.77 0.92,-0.26 1.57,-0.46 1.94,-0.61 1.85,-0.52 3.43,-1 4.77,-1.44l1.33 6.43c-7.39,2.59 -13.16,3.88 -17.3,3.88 -7.61,0 -13.71,-2.31 -18.29,-6.93 -4.58,-4.62 -6.88,-11.57 -6.88,-20.84 0,-9.28 2.16,-16.5 6.49,-21.68 4.32,-5.17 9.79,-7.76 16.41,-7.76 6.62,0 11.77,2.14 15.47,6.43 3.69,4.29 5.54,10.09 5.54,17.41 0,2 -0.07,4.25 -0.22,6.76zm-34.81 -6.32l27.05 0c0,-5.47 -0.96,-9.68 -2.88,-12.64 -1.92,-2.95 -5.27,-4.44 -10.03,-4.44 -4.77,0 -8.26,1.59 -10.48,4.77 -2.22,3.18 -3.44,7.28 -3.66,12.3z"/>
  <path id="5" class="fil2" d="M2803.47 1091.68l1.67 6.54c-5.91,1.77 -11.13,2.66 -15.64,2.66 -7.91,0 -13.86,-2.59 -17.85,-7.76 -3.99,-5.17 -5.99,-12.31 -5.99,-21.4 0,-9.09 2.07,-16.02 6.21,-20.79 4.14,-4.77 10.24,-7.15 18.3,-7.15 3.47,0 8.35,0.89 14.63,2.66l-3.33 6.43c-4.06,-1.18 -7.72,-1.78 -10.98,-1.78 -5.61,0 -9.66,1.67 -12.14,4.99 -2.48,3.33 -3.71,8.58 -3.71,15.75 0,14.56 5.21,21.84 15.63,21.84 4.14,0 8.54,-0.67 13.19,-2z"/>
  <path id="6" class="fil2" d="M2820.22 1088.36l0 -36.81 -7.54 0 0 -6.65 7.65 0 0 -15.86 8.32 0 0 15.86 13.53 0 0 6.65 -13.64 0 0 35.26c0,4.95 2.51,7.43 7.54,7.43 1.18,0 2.99,-0.22 5.43,-0.67l1.22 5.99c-3.03,0.96 -6.15,1.44 -9.37,1.44 -3.21,0 -6.21,-0.98 -8.98,-2.94 -2.77,-1.96 -4.16,-5.19 -4.16,-9.7z"/>
  <polygon id="7" class="fil2" points="2926.88,1022.72 2926.88,1029.92 2893.28,1029.92 2893.28,1054.54 2924.22,1054.54 2924.22,1061.97 2893.28,1061.97 2893.28,1100.33 2884.97,1100.33 2884.97,1022.72 "/>
  <path id="8" class="fil2" d="M2939.96 1100.33l0 -55.44 8.32 0 0 55.44 -8.32 0zm8.32 -77.61l0 9.86 -8.32 0 0 -9.86 8.32 0z"/>
  <polygon id="9" class="fil2" points="2966.79,1100.33 2966.79,1022.72 2975.11,1022.72 2975.11,1100.33 "/>
  <path id="10" class="fil2" d="M3033.76 1074.38l-35.37 0c0,7.1 1.68,12.12 5.05,15.08 3.36,2.96 7.59,4.44 12.69,4.44 2.59,0 4.4,-0.13 5.43,-0.39 1.03,-0.26 2.02,-0.51 2.94,-0.77 0.92,-0.26 1.57,-0.46 1.94,-0.61 1.85,-0.52 3.43,-1 4.77,-1.44l1.33 6.43c-7.39,2.59 -13.16,3.88 -17.3,3.88 -7.61,0 -13.71,-2.31 -18.29,-6.93 -4.58,-4.62 -6.88,-11.57 -6.88,-20.84 0,-9.28 2.16,-16.5 6.49,-21.68 4.32,-5.17 9.79,-7.76 16.41,-7.76 6.62,0 11.77,2.14 15.47,6.43 3.69,4.29 5.54,10.09 5.54,17.41 0,2 -0.07,4.25 -0.22,6.76zm-34.81 -6.32l27.05 0c0,-5.47 -0.96,-9.68 -2.88,-12.64 -1.92,-2.95 -5.27,-4.44 -10.03,-4.44 -4.77,0 -8.26,1.59 -10.48,4.77 -2.22,3.18 -3.44,7.28 -3.66,12.3z"/>
  <path class="fil2" d="M2491.06 1390.45c-7.63,-13.32 -11.45,-27.76 -11.45,-43.32 0,-15.55 3.98,-30.02 11.93,-43.41l6.4 1.26c-7.37,13.64 -11.06,27.7 -11.06,42.15 0,14.46 3.62,28.51 10.87,42.15l-6.69 1.16z"/>
  <path id="1" class="fil2" d="M2506.39 1369.21c4.2,1.94 8.21,2.91 12.03,2.91 3.81,0 6.71,-0.76 8.68,-2.28 1.97,-1.52 2.96,-3.54 2.96,-6.07 0,-2.52 -0.84,-4.48 -2.52,-5.87 -1.68,-1.39 -3.73,-2.47 -6.16,-3.25 -2.42,-0.77 -4.85,-1.61 -7.28,-2.52 -2.42,-0.9 -4.48,-2.26 -6.16,-4.07 -1.68,-1.81 -2.52,-4.11 -2.52,-6.89 0,-4.07 1.33,-7.23 3.98,-9.46 2.65,-2.23 6.24,-3.35 10.77,-3.35 4.53,0 8.73,0.68 12.61,2.04l0.68 0.29 -1.26 6.21c-3.88,-1.49 -7.49,-2.23 -10.82,-2.23 -3.33,0 -5.61,0.52 -6.84,1.55 -1.23,1.04 -1.84,2.78 -1.84,5.24 0,1.55 0.84,2.88 2.52,3.98 1.68,1.1 3.74,2.05 6.16,2.86 2.43,0.81 4.85,1.74 7.28,2.81 2.43,1.06 4.48,2.67 6.16,4.8 1.68,2.13 2.52,4.75 2.52,7.86 0,4.53 -1.58,8.1 -4.75,10.72 -3.17,2.62 -7.54,3.93 -13.09,3.93 -5.56,0 -10.51,-1.26 -14.85,-3.78l1.75 -5.43z"/>
  <path id="2" class="fil2" d="M2584.2 1355.14l-30.95 0c0,6.21 1.47,10.6 4.41,13.19 2.94,2.59 6.65,3.88 11.11,3.88 2.26,0 3.85,-0.11 4.75,-0.34 0.9,-0.22 1.76,-0.45 2.57,-0.68 0.81,-0.22 1.38,-0.4 1.7,-0.53 1.62,-0.46 3.01,-0.88 4.17,-1.26l1.16 5.63c-6.47,2.26 -11.51,3.39 -15.13,3.39 -6.66,0 -12,-2.02 -16.01,-6.06 -4.01,-4.04 -6.01,-10.12 -6.01,-18.24 0,-8.12 1.89,-14.44 5.67,-18.96 3.78,-4.53 8.57,-6.79 14.36,-6.79 5.79,0 10.3,1.87 13.53,5.63 3.23,3.75 4.85,8.83 4.85,15.23 0,1.75 -0.06,3.72 -0.19,5.92zm-30.46 -5.53l23.67 0c0,-4.79 -0.84,-8.47 -2.52,-11.06 -1.68,-2.59 -4.61,-3.88 -8.78,-3.88 -4.17,0 -7.23,1.39 -9.17,4.17 -1.94,2.78 -3.01,6.37 -3.2,10.77z"/>
  <path id="3" class="fil2" d="M2599.13 1367.37l0 -32.21 -6.6 0 0 -5.82 6.69 0 0 -13.87 7.28 0 0 13.87 11.84 0 0 5.82 -11.93 0 0 30.85c0,4.33 2.2,6.5 6.6,6.5 1.03,0 2.62,-0.2 4.75,-0.58l1.06 5.24c-2.65,0.84 -5.38,1.26 -8.2,1.26 -2.81,0 -5.43,-0.86 -7.86,-2.57 -2.43,-1.71 -3.64,-4.55 -3.64,-8.49z"/>
  <path id="4" class="fil2" d="M2632.7 1367.37l0 -32.21 -6.6 0 0 -5.82 6.69 0 0 -13.87 7.28 0 0 13.87 11.84 0 0 5.82 -11.93 0 0 30.85c0,4.33 2.2,6.5 6.6,6.5 1.03,0 2.62,-0.2 4.75,-0.58l1.06 5.24c-2.65,0.84 -5.38,1.26 -8.2,1.26 -2.81,0 -5.43,-0.86 -7.86,-2.57 -2.43,-1.71 -3.64,-4.55 -3.64,-8.49z"/>
  <path id="5" class="fil2" d="M2663.74 1377.84l0 -48.51 7.28 0 0 48.51 -7.28 0zm7.28 -67.91l0 8.64 -7.28 0 0 -8.64 7.28 0z"/>
  <path id="6" class="fil2" d="M2694.5 1339.33l0 38.52 -7.28 0 0 -48.51 4.66 0 1.17 4.75c1.49,-1.16 2.7,-2.07 3.64,-2.71 0.94,-0.65 2.44,-1.31 4.51,-1.99 2.07,-0.68 4.27,-1.02 6.6,-1.02 4.46,0 8.17,1.38 11.11,4.13 2.94,2.75 4.41,6.64 4.41,11.69l0 33.66 -7.28 0 0 -31.53c0,-7.83 -3.26,-11.74 -9.8,-11.74 -4.66,0 -8.57,1.59 -11.74,4.75z"/>
  <path id="7" class="fil2" d="M2768.52 1372.7c-5.43,3.88 -10.38,5.82 -14.84,5.82 -11.64,0 -17.46,-8.38 -17.46,-25.13 0,-9.51 2.07,-16.17 6.21,-19.98 3.69,-3.36 8.16,-5.04 13.44,-5.04 5.27,0 9.68,2.39 13.24,7.18l2.52 -6.31 4.27 0 0 51.03c0,7.05 -1.74,12.29 -5.24,15.72 -3.49,3.43 -8.21,5.14 -14.17,5.14 -3.04,0 -5.76,-0.39 -8.15,-1.17 -2.39,-0.77 -4.88,-1.65 -7.47,-2.62l1.36 -5.14c5.43,1.74 9.98,2.62 13.63,2.62 3.65,0 6.67,-1.13 9.07,-3.39 2.39,-2.26 3.59,-5.69 3.59,-10.28l0 -8.44zm0 -6.99l0 -18.14c0,-3.81 -1.26,-6.92 -3.78,-9.31 -2.52,-2.39 -5.11,-3.59 -7.76,-3.59 -5.04,0 -8.57,1.47 -10.58,4.42 -2,2.94 -3.01,7.65 -3.01,14.12 0,12.67 3.56,19.01 10.67,19.01 4.66,0 9.48,-2.17 14.45,-6.5z"/>
  <path id="8" class="fil2" d="M2791.7 1369.21c4.2,1.94 8.21,2.91 12.03,2.91 3.81,0 6.71,-0.76 8.68,-2.28 1.97,-1.52 2.96,-3.54 2.96,-6.07 0,-2.52 -0.84,-4.48 -2.52,-5.87 -1.68,-1.39 -3.73,-2.47 -6.16,-3.25 -2.42,-0.77 -4.85,-1.61 -7.28,-2.52 -2.42,-0.9 -4.48,-2.26 -6.16,-4.07 -1.68,-1.81 -2.52,-4.11 -2.52,-6.89 0,-4.07 1.33,-7.23 3.98,-9.46 2.65,-2.23 6.24,-3.35 10.77,-3.35 4.53,0 8.73,0.68 12.61,2.04l0.68 0.29 -1.26 6.21c-3.88,-1.49 -7.49,-2.23 -10.82,-2.23 -3.33,0 -5.61,0.52 -6.84,1.55 -1.23,1.04 -1.84,2.78 -1.84,5.24 0,1.55 0.84,2.88 2.52,3.98 1.68,1.1 3.74,2.05 6.16,2.86 2.43,0.81 4.85,1.74 7.28,2.81 2.43,1.06 4.48,2.67 6.16,4.8 1.68,2.13 2.52,4.75 2.52,7.86 0,4.53 -1.58,8.1 -4.75,10.72 -3.17,2.62 -7.54,3.93 -13.09,3.93 -5.56,0 -10.51,-1.26 -14.85,-3.78l1.75 -5.43z"/>
  <polygon id="9" class="fil2" points="2845.16,1369.4 2834.19,1394.53 2829.44,1392.98 2837.88,1367.07 "/>
  <path id="10" class="fil2" d="M2891.05 1400.93l-7.28 0 0 -71.5 4.27 0 2.52 5.43c2.71,-2.07 5.25,-3.67 7.61,-4.8 2.36,-1.13 4.97,-1.7 7.81,-1.7 11.64,0 17.46,8.38 17.46,25.13 0,9.51 -2.07,16.13 -6.21,19.89 -3.69,3.43 -7.88,5.14 -12.56,5.14 -4.69,0 -9.23,-1.55 -13.63,-4.66l0 27.06zm0 -59.57l0 25.9c1.29,1.55 3.04,2.78 5.24,3.69 2.2,0.9 4.3,1.36 6.31,1.36 5.04,0 8.57,-1.49 10.57,-4.46 2.01,-2.98 3.01,-7.63 3.01,-13.97 0,-6.34 -1,-11.13 -3.01,-14.36 -2,-3.23 -4.56,-4.85 -7.66,-4.85 -2.07,0 -4.13,0.42 -6.16,1.26 -2.04,0.84 -3.56,1.63 -4.56,2.38 -1,0.75 -2.25,1.76 -3.74,3.06z"/>
  <polygon id="11" class="fil2" points="2936.74,1377.84 2936.74,1309.93 2944.02,1309.93 2944.02,1377.84 "/>
  <path id="12" class="fil2" d="M2991.65 1353.93c0,-6.24 -1.23,-11.01 -3.69,-14.31 -2.46,-3.3 -6.05,-4.95 -10.77,-4.95 -4.72,0 -8.07,1.57 -10.04,4.71 -1.97,3.14 -2.96,7.94 -2.96,14.41 0,12.22 4.49,18.33 13.49,18.33 4.72,0 8.23,-1.47 10.52,-4.42 2.29,-2.94 3.45,-7.53 3.45,-13.77zm1.74 17.9c-3.69,4.4 -8.89,6.6 -15.62,6.6 -6.73,0 -11.88,-2.18 -15.47,-6.55 -3.59,-4.36 -5.39,-10.48 -5.39,-18.33 0,-7.86 1.73,-14.02 5.19,-18.48 3.46,-4.46 8.54,-6.69 15.23,-6.69 6.69,0 11.97,2.26 15.81,6.79 3.85,4.53 5.78,10.67 5.78,18.43 0,7.76 -1.85,13.84 -5.53,18.24z"/>
  <path id="13" class="fil2" d="M3013.08 1367.37l0 -32.21 -6.6 0 0 -5.82 6.69 0 0 -13.87 7.28 0 0 13.87 11.84 0 0 5.82 -11.93 0 0 30.85c0,4.33 2.2,6.5 6.6,6.5 1.03,0 2.62,-0.2 4.75,-0.58l1.06 5.24c-2.65,0.84 -5.38,1.26 -8.2,1.26 -2.81,0 -5.43,-0.86 -7.86,-2.57 -2.43,-1.71 -3.64,-4.55 -3.64,-8.49z"/>
  <path id="14" class="fil2" d="M3043.64 1369.21c4.2,1.94 8.21,2.91 12.03,2.91 3.81,0 6.71,-0.76 8.68,-2.28 1.97,-1.52 2.96,-3.54 2.96,-6.07 0,-2.52 -0.84,-4.48 -2.52,-5.87 -1.68,-1.39 -3.73,-2.47 -6.16,-3.25 -2.42,-0.77 -4.85,-1.61 -7.28,-2.52 -2.42,-0.9 -4.48,-2.26 -6.16,-4.07 -1.68,-1.81 -2.52,-4.11 -2.52,-6.89 0,-4.07 1.33,-7.23 3.98,-9.46 2.65,-2.23 6.24,-3.35 10.77,-3.35 4.53,0 8.73,0.68 12.61,2.04l0.68 0.29 -1.26 6.21c-3.88,-1.49 -7.49,-2.23 -10.82,-2.23 -3.33,0 -5.61,0.52 -6.84,1.55 -1.23,1.04 -1.84,2.78 -1.84,5.24 0,1.55 0.84,2.88 2.52,3.98 1.68,1.1 3.74,2.05 6.16,2.86 2.43,0.81 4.85,1.74 7.28,2.81 2.43,1.06 4.48,2.67 6.16,4.8 1.68,2.13 2.52,4.75 2.52,7.86 0,4.53 -1.58,8.1 -4.75,10.72 -3.17,2.62 -7.54,3.93 -13.09,3.93 -5.56,0 -10.51,-1.26 -14.85,-3.78l1.75 -5.43z"/>
  <polygon id="15" class="fil2" points="3097.1,1369.4 3086.14,1394.53 3081.38,1392.98 3089.83,1367.07 "/>
  <path id="16" class="fil2" d="M2539.13 1490.19l1.46 5.72c-5.17,1.55 -9.74,2.33 -13.68,2.33 -6.92,0 -12.13,-2.26 -15.62,-6.79 -3.49,-4.53 -5.24,-10.77 -5.24,-18.72 0,-7.96 1.81,-14.02 5.43,-18.19 3.62,-4.17 8.96,-6.26 16.01,-6.26 3.04,0 7.31,0.78 12.81,2.33l-2.91 5.63c-3.56,-1.03 -6.76,-1.55 -9.61,-1.55 -4.91,0 -8.46,1.45 -10.62,4.36 -2.17,2.91 -3.25,7.5 -3.25,13.78 0,12.74 4.56,19.11 13.68,19.11 3.62,0 7.47,-0.58 11.54,-1.74z"/>
  <path id="17" class="fil2" d="M2582.6 1473.84c0,-6.24 -1.23,-11.01 -3.69,-14.31 -2.46,-3.3 -6.05,-4.95 -10.77,-4.95 -4.72,0 -8.07,1.57 -10.04,4.71 -1.97,3.14 -2.96,7.94 -2.96,14.41 0,12.22 4.49,18.33 13.49,18.33 4.72,0 8.23,-1.47 10.52,-4.42 2.29,-2.94 3.45,-7.53 3.45,-13.77zm1.74 17.9c-3.69,4.4 -8.89,6.6 -15.62,6.6 -6.73,0 -11.88,-2.18 -15.47,-6.55 -3.59,-4.36 -5.39,-10.48 -5.39,-18.33 0,-7.86 1.73,-14.02 5.19,-18.48 3.46,-4.46 8.54,-6.69 15.23,-6.69 6.69,0 11.97,2.26 15.81,6.79 3.85,4.53 5.78,10.67 5.78,18.43 0,7.76 -1.85,13.84 -5.53,18.24z"/>
  <path id="18" class="fil2" d="M2610.15 1459.24l0 38.52 -7.28 0 0 -48.51 4.66 0 1.17 4.75c1.49,-1.16 2.7,-2.07 3.64,-2.71 0.94,-0.65 2.44,-1.31 4.51,-1.99 2.07,-0.68 4.27,-1.02 6.6,-1.02 4.46,0 8.17,1.38 11.11,4.13 2.94,2.75 4.41,6.64 4.41,11.69l0 33.66 -7.28 0 0 -31.53c0,-7.83 -3.26,-11.74 -9.8,-11.74 -4.66,0 -8.57,1.59 -11.74,4.75z"/>
  <path id="19" class="fil2" d="M2682.03 1497.75l0 -42.59 -18.72 0 0 42.59 -7.28 0 0 -42.68 -7.47 0 0 -5.82 7.57 0 0 -9.31c0,-3.94 1.21,-6.77 3.64,-8.49 2.42,-1.72 5.04,-2.57 7.86,-2.57 2.81,0 5.55,0.42 8.2,1.26l-1.07 5.24c-2.13,-0.39 -3.72,-0.58 -4.75,-0.58 -4.46,0 -6.69,2.16 -6.69,6.5l0 7.96 26 0 0 48.51 -7.28 0zm7.28 -67.81l0 8.64 -7.28 0 0 -8.64 7.28 0z"/>
  <path id="20" class="fil2" d="M2734.51 1492.61c-5.43,3.88 -10.38,5.82 -14.84,5.82 -11.64,0 -17.46,-8.38 -17.46,-25.13 0,-9.51 2.07,-16.17 6.21,-19.98 3.69,-3.36 8.16,-5.04 13.44,-5.04 5.27,0 9.68,2.39 13.24,7.18l2.52 -6.31 4.27 0 0 51.03c0,7.05 -1.74,12.29 -5.24,15.72 -3.49,3.43 -8.21,5.14 -14.17,5.14 -3.04,0 -5.76,-0.39 -8.15,-1.17 -2.39,-0.77 -4.88,-1.65 -7.47,-2.62l1.36 -5.14c5.43,1.74 9.98,2.62 13.63,2.62 3.65,0 6.67,-1.13 9.07,-3.39 2.39,-2.26 3.59,-5.69 3.59,-10.28l0 -8.44zm0 -6.99l0 -18.14c0,-3.81 -1.26,-6.92 -3.78,-9.31 -2.52,-2.39 -5.11,-3.59 -7.76,-3.59 -5.04,0 -8.57,1.47 -10.58,4.42 -2,2.94 -3.01,7.65 -3.01,14.12 0,12.67 3.56,19.01 10.67,19.01 4.66,0 9.48,-2.17 14.45,-6.5z"/>
  <path id="21" class="fil2" d="M2787.29 1485.43l0 -36.19 7.37 0 0 48.51 -4.27 0 -2.43 -5.72c-5.17,4.2 -10.12,6.31 -14.84,6.31 -4.72,0 -8.32,-1.38 -10.82,-4.12 -2.49,-2.75 -3.74,-6.65 -3.74,-11.69l0 -33.28 7.28 0 0 32.11c0,3.81 0.57,6.56 1.7,8.25 1.14,1.68 3.01,2.52 5.63,2.52 2.62,0 5.28,-0.71 8,-2.14 2.71,-1.42 4.75,-2.94 6.11,-4.56z"/>
  <path id="22" class="fil2" d="M2819.6 1460.69l0 37.06 -7.28 0 0 -48.51 4.66 0 1.17 5.72c3.1,-2.46 5.69,-4.19 7.76,-5.19 2.07,-1 4.43,-1.5 7.08,-1.5 1.29,0 2.26,0.07 2.91,0.19l1.36 0.39 -1.17 6.69c-1.16,-0.39 -2.75,-0.58 -4.75,-0.58 -3.88,0 -7.79,1.91 -11.74,5.72z"/>
  <path id="23" class="fil2" d="M2869.27 1468.74l3.98 0c0,-5.89 -0.75,-9.72 -2.23,-11.5 -1.49,-1.78 -4.79,-2.67 -9.9,-2.67 -5.11,0 -9.44,0.68 -13,2.04l-1.36 -5.63c5.43,-1.81 11.06,-2.71 16.88,-2.71 11.38,0 17.07,5.69 17.07,17.07l0 32.4 -4.27 0 -2.52 -5.72c-2.97,2.46 -5.54,4.13 -7.71,5 -2.16,0.87 -4.67,1.31 -7.52,1.31 -4.53,0 -8.05,-1.34 -10.57,-4.03 -2.52,-2.68 -3.78,-6.22 -3.78,-10.62 0,-9.96 8.31,-14.94 24.93,-14.94zm4.07 6.11l-4.36 0c-6.6,0 -11.14,0.65 -13.63,1.94 -2.49,1.29 -3.73,3.32 -3.73,6.06 0,2.75 0.71,5 2.13,6.75 1.42,1.74 3.28,2.62 5.58,2.62 2.29,0 4.49,-0.53 6.6,-1.6 2.1,-1.07 4.58,-2.93 7.42,-5.58l0 -10.19z"/>
  <path id="24" class="fil2" d="M2899.53 1487.27l0 -32.21 -6.6 0 0 -5.82 6.69 0 0 -13.87 7.28 0 0 13.87 11.84 0 0 5.82 -11.93 0 0 30.85c0,4.33 2.2,6.5 6.6,6.5 1.03,0 2.62,-0.2 4.75,-0.58l1.06 5.24c-2.65,0.84 -5.38,1.26 -8.2,1.26 -2.81,0 -5.43,-0.86 -7.86,-2.57 -2.43,-1.71 -3.64,-4.55 -3.64,-8.49z"/>
  <path id="25" class="fil2" d="M2930.58 1497.75l0 -48.51 7.28 0 0 48.51 -7.28 0zm7.28 -67.91l0 8.64 -7.28 0 0 -8.64 7.28 0z"/>
  <path id="26" class="fil2" d="M2984.03 1473.84c0,-6.24 -1.23,-11.01 -3.69,-14.31 -2.46,-3.3 -6.05,-4.95 -10.77,-4.95 -4.72,0 -8.07,1.57 -10.04,4.71 -1.97,3.14 -2.96,7.94 -2.96,14.41 0,12.22 4.49,18.33 13.49,18.33 4.72,0 8.23,-1.47 10.52,-4.42 2.29,-2.94 3.45,-7.53 3.45,-13.77zm1.74 17.9c-3.69,4.4 -8.89,6.6 -15.62,6.6 -6.73,0 -11.88,-2.18 -15.47,-6.55 -3.59,-4.36 -5.39,-10.48 -5.39,-18.33 0,-7.86 1.73,-14.02 5.19,-18.48 3.46,-4.46 8.54,-6.69 15.23,-6.69 6.69,0 11.97,2.26 15.81,6.79 3.85,4.53 5.78,10.67 5.78,18.43 0,7.76 -1.85,13.84 -5.53,18.24z"/>
  <path id="27" class="fil2" d="M3011.58 1459.24l0 38.52 -7.28 0 0 -48.51 4.66 0 1.17 4.75c1.49,-1.16 2.7,-2.07 3.64,-2.71 0.94,-0.65 2.44,-1.31 4.51,-1.99 2.07,-0.68 4.27,-1.02 6.6,-1.02 4.46,0 8.17,1.38 11.11,4.13 2.94,2.75 4.41,6.64 4.41,11.69l0 33.66 -7.28 0 0 -31.53c0,-7.83 -3.26,-11.74 -9.8,-11.74 -4.66,0 -8.57,1.59 -11.74,4.75z"/>
  <polygon id="28" class="fil2" points="3067.36,1489.31 3056.4,1514.44 3051.64,1512.88 3060.09,1486.98 "/>
  <path id="29" class="fil2" d="M2745.77 1594.96l-30.95 0c0,6.21 1.47,10.6 4.41,13.19 2.94,2.59 6.65,3.88 11.11,3.88 2.26,0 3.85,-0.11 4.75,-0.34 0.9,-0.22 1.76,-0.45 2.57,-0.68 0.81,-0.22 1.38,-0.4 1.7,-0.53 1.62,-0.46 3.01,-0.88 4.17,-1.26l1.16 5.63c-6.47,2.26 -11.51,3.39 -15.13,3.39 -6.66,0 -12,-2.02 -16.01,-6.06 -4.01,-4.04 -6.01,-10.12 -6.01,-18.24 0,-8.12 1.89,-14.44 5.67,-18.96 3.78,-4.53 8.57,-6.79 14.36,-6.79 5.79,0 10.3,1.87 13.53,5.63 3.23,3.75 4.85,8.83 4.85,15.23 0,1.75 -0.06,3.72 -0.19,5.92zm-30.46 -5.53l23.67 0c0,-4.79 -0.84,-8.47 -2.52,-11.06 -1.68,-2.59 -4.61,-3.88 -8.78,-3.88 -4.17,0 -7.23,1.39 -9.17,4.17 -1.94,2.78 -3.01,6.37 -3.2,10.77z"/>
  <path id="30" class="fil2" d="M2760.7 1607.18l0 -32.21 -6.6 0 0 -5.82 6.69 0 0 -13.87 7.28 0 0 13.87 11.84 0 0 5.82 -11.93 0 0 30.85c0,4.33 2.2,6.5 6.6,6.5 1.03,0 2.62,-0.2 4.75,-0.58l1.06 5.24c-2.65,0.84 -5.38,1.26 -8.2,1.26 -2.81,0 -5.43,-0.86 -7.86,-2.57 -2.43,-1.71 -3.64,-4.55 -3.64,-8.49z"/>
  <path id="31" class="fil2" d="M2821.63 1610.09l1.46 5.72c-5.17,1.55 -9.74,2.33 -13.68,2.33 -6.92,0 -12.13,-2.26 -15.62,-6.79 -3.49,-4.53 -5.24,-10.77 -5.24,-18.72 0,-7.96 1.81,-14.02 5.43,-18.19 3.62,-4.17 8.96,-6.26 16.01,-6.26 3.04,0 7.31,0.78 12.81,2.33l-2.91 5.63c-3.56,-1.03 -6.76,-1.55 -9.61,-1.55 -4.91,0 -8.46,1.45 -10.62,4.36 -2.17,2.91 -3.25,7.5 -3.25,13.78 0,12.74 4.56,19.11 13.68,19.11 3.62,0 7.47,-0.58 11.54,-1.74z"/>
  <polygon id="32" class="fil2" points="2838.8,1617.66 2831.52,1617.66 2831.52,1607.38 2838.8,1607.38 "/>
  <path id="33" class="fil2" d="M2852.58 1543.54c7.96,13.39 11.93,27.86 11.93,43.41 0,15.56 -3.81,29.99 -11.44,43.32l-6.69 -1.16c7.24,-13.65 10.86,-27.7 10.86,-42.15 0,-14.45 -3.69,-28.51 -11.06,-42.15l6.4 -1.26z"/>
  <g id="_2510272271904">
   <rect class="fil0 str0" x="3737.3" y="1012.77" width="374.2" height="487.6"/>
   <rect class="fil1 str0" x="3682.42" y="957.89" width="374.2" height="487.6"/>
   <rect class="fil1 str0" x="3622.55" y="906.84" width="374.2" height="487.6"/>
   <polygon class="fil2" points="3746.12,1052.07 3737.81,1052.07 3737.81,988.43 3712.86,1031.67 3709.98,1031.56 3685.03,988.54 3685.03,1052.07 3676.82,1052.07 3676.82,974.46 3686.14,974.46 3711.53,1017.15 3737.81,974.46 3746.12,974.46 "/>
   <path id="1" class="fil2" d="M3796.68 1024.74c0,-7.13 -1.41,-12.58 -4.22,-16.35 -2.81,-3.77 -6.91,-5.66 -12.3,-5.66 -5.4,0 -9.22,1.79 -11.48,5.38 -2.26,3.58 -3.38,9.07 -3.38,16.46 0,13.97 5.14,20.96 15.41,20.96 5.39,0 9.41,-1.68 12.03,-5.04 2.62,-3.36 3.94,-8.61 3.94,-15.75zm2 20.46c-4.22,5.03 -10.16,7.54 -17.85,7.54 -7.69,0 -13.58,-2.49 -17.68,-7.48 -4.11,-4.99 -6.16,-11.97 -6.16,-20.96 0,-8.98 1.98,-16.02 5.93,-21.12 3.96,-5.1 9.76,-7.65 17.41,-7.65 7.65,0 13.68,2.59 18.07,7.76 4.4,5.17 6.6,12.2 6.6,21.07 0,8.87 -2.11,15.82 -6.32,20.85z"/>
   <path id="2" class="fil2" d="M3851.45 974.46l8.32 0 0 77.61 -4.88 0 -2.77 -6.32c-6.8,4.8 -12.71,7.21 -17.74,7.21 -13.3,0 -19.96,-9.57 -19.96,-28.72 0,-10.86 2.37,-18.44 7.1,-22.73 4.21,-3.92 8.98,-5.88 14.3,-5.88 5.32,0 10.53,1.81 15.63,5.43l0 -26.61zm0 63.86l0 -28.82c-1.55,-1.85 -3.6,-3.44 -6.15,-4.77 -2.55,-1.33 -4.9,-2 -7.04,-2 -5.76,0 -9.79,1.7 -12.08,5.1 -2.29,3.4 -3.44,8.73 -3.44,15.97 0,7.24 1.15,12.72 3.44,16.41 2.29,3.7 5.21,5.54 8.76,5.54 5.32,0 10.83,-2.48 16.52,-7.43z"/>
   <path id="3" class="fil2" d="M3918.42 1026.13l-35.37 0c0,7.1 1.68,12.12 5.05,15.08 3.36,2.96 7.59,4.44 12.69,4.44 2.59,0 4.4,-0.13 5.43,-0.39 1.03,-0.26 2.02,-0.51 2.94,-0.77 0.92,-0.26 1.57,-0.46 1.94,-0.61 1.85,-0.52 3.43,-1 4.77,-1.44l1.33 6.43c-7.39,2.59 -13.16,3.88 -17.3,3.88 -7.61,0 -13.71,-2.31 -18.29,-6.93 -4.58,-4.62 -6.88,-11.57 -6.88,-20.84 0,-9.28 2.16,-16.5 6.49,-21.68 4.32,-5.17 9.79,-7.76 16.41,-7.76 6.62,0 11.77,2.14 15.47,6.43 3.69,4.29 5.54,10.09 5.54,17.41 0,2 -0.07,4.25 -0.22,6.76zm-34.81 -6.32l27.05 0c0,-5.47 -0.96,-9.68 -2.88,-12.64 -1.92,-2.95 -5.27,-4.44 -10.03,-4.44 -4.77,0 -8.26,1.59 -10.48,4.77 -2.22,3.18 -3.44,7.28 -3.66,12.3z"/>
   <polygon id="4" class="fil2" points="3934.16,1052.07 3934.16,974.46 3942.48,974.46 3942.48,1052.07 "/>
   <path id="5" class="fil2" d="M3736.09 1114.27l-1.77 7.43 -6.43 -1.89c-4.58,-1.11 -8.54,-1.66 -11.86,-1.66 -8.72,0 -13.08,3.88 -13.08,11.64 0,3.4 1.33,6.19 3.99,8.37 2.66,2.18 5.89,3.92 9.7,5.21 3.81,1.3 7.61,2.7 11.42,4.22 3.81,1.52 7.04,3.84 9.7,6.99 2.66,3.14 3.99,7.11 3.99,11.92 0,7.32 -2.26,13.03 -6.77,17.13 -4.51,4.1 -10.9,6.15 -19.18,6.15 -4.14,0 -8.3,-0.61 -12.47,-1.83 -4.18,-1.22 -7.59,-2.64 -10.26,-4.27l2.77 -6.32c6.73,3.11 13.1,4.66 19.12,4.66 6.02,0 10.61,-1.22 13.75,-3.66 3.14,-2.44 4.71,-5.99 4.71,-10.64 0,-4.73 -2.55,-8.43 -7.65,-11.09 -2.29,-1.18 -4.82,-2.29 -7.6,-3.33 -2.77,-1.03 -5.54,-2.16 -8.31,-3.38 -2.77,-1.22 -5.28,-2.61 -7.54,-4.16 -2.26,-1.55 -4.1,-3.66 -5.54,-6.32 -1.44,-2.66 -2.16,-5.77 -2.16,-9.31 0,-6.36 1.91,-11.24 5.71,-14.63 3.81,-3.4 8.93,-5.1 15.35,-5.1 6.43,0 13.23,1.3 20.4,3.88z"/>
   <path id="6" class="fil2" d="M3759.48 1177.14l0 -36.81 -7.54 0 0 -6.65 7.65 0 0 -15.86 8.32 0 0 15.86 13.53 0 0 6.65 -13.64 0 0 35.26c0,4.95 2.51,7.43 7.54,7.43 1.18,0 2.99,-0.22 5.43,-0.67l1.22 5.99c-3.03,0.96 -6.15,1.44 -9.37,1.44 -3.21,0 -6.21,-0.98 -8.98,-2.94 -2.77,-1.96 -4.16,-5.19 -4.16,-9.7z"/>
   <path id="7" class="fil2" d="M3820.46 1155.96l4.55 0c0,-6.73 -0.85,-11.11 -2.55,-13.14 -1.7,-2.03 -5.47,-3.05 -11.31,-3.05 -5.84,0 -10.79,0.78 -14.86,2.33l-1.55 -6.43c6.21,-2.07 12.64,-3.1 19.29,-3.1 13.01,0 19.51,6.5 19.51,19.51l0 37.03 -4.88 0 -2.88 -6.54c-3.4,2.81 -6.34,4.71 -8.82,5.71 -2.48,1 -5.34,1.5 -8.59,1.5 -5.17,0 -9.2,-1.53 -12.08,-4.6 -2.88,-3.07 -4.33,-7.11 -4.33,-12.14 0,-11.39 9.5,-17.07 28.49,-17.07zm4.66 6.99l-4.99 0c-7.54,0 -12.73,0.74 -15.58,2.22 -2.84,1.48 -4.27,3.79 -4.27,6.93 0,3.14 0.81,5.71 2.44,7.7 1.63,2 3.75,2.99 6.37,2.99 2.62,0 5.14,-0.61 7.54,-1.83 2.4,-1.22 5.23,-3.35 8.48,-6.38l0 -11.64z"/>
   <path id="8" class="fil2" d="M3855.06 1177.14l0 -36.81 -7.54 0 0 -6.65 7.65 0 0 -15.86 8.32 0 0 15.86 13.53 0 0 6.65 -13.64 0 0 35.26c0,4.95 2.51,7.43 7.54,7.43 1.18,0 2.99,-0.22 5.43,-0.67l1.22 5.99c-3.03,0.96 -6.15,1.44 -9.37,1.44 -3.21,0 -6.21,-0.98 -8.98,-2.94 -2.77,-1.96 -4.16,-5.19 -4.16,-9.7z"/>
   <path id="9" class="fil2" d="M3930.56 1163.17l-35.37 0c0,7.1 1.68,12.12 5.05,15.08 3.36,2.96 7.59,4.44 12.69,4.44 2.59,0 4.4,-0.13 5.43,-0.39 1.03,-0.26 2.02,-0.51 2.94,-0.77 0.92,-0.26 1.57,-0.46 1.94,-0.61 1.85,-0.52 3.43,-1 4.77,-1.44l1.33 6.43c-7.39,2.59 -13.16,3.88 -17.3,3.88 -7.61,0 -13.71,-2.31 -18.29,-6.93 -4.58,-4.62 -6.88,-11.57 -6.88,-20.84 0,-9.28 2.16,-16.5 6.49,-21.68 4.32,-5.17 9.79,-7.76 16.41,-7.76 6.62,0 11.77,2.14 15.47,6.43 3.69,4.29 5.54,10.09 5.54,17.41 0,2 -0.07,4.25 -0.22,6.76zm-34.81 -6.32l27.05 0c0,-5.47 -0.96,-9.68 -2.88,-12.64 -1.92,-2.95 -5.27,-4.44 -10.03,-4.44 -4.77,0 -8.26,1.59 -10.48,4.77 -2.22,3.18 -3.44,7.28 -3.66,12.3z"/>
   <path id="10" class="fil2" d="M3756.43 1326.15l0 -48.67 -21.4 0 0 48.67 -8.32 0 0 -48.79 -8.54 0 0 -6.65 8.65 0 0 -10.64c0,-4.51 1.39,-7.74 4.16,-9.7 2.77,-1.96 5.77,-2.94 8.98,-2.94 3.22,0 6.34,0.48 9.37,1.44l-1.22 5.99c-2.44,-0.44 -4.25,-0.66 -5.43,-0.66 -5.1,0 -7.65,2.48 -7.65,7.43l0 9.09 29.71 0 0 55.44 -8.32 0zm8.32 -77.5l0 9.87 -8.32 0 0 -9.87 8.32 0z"/>
   <polygon id="11" class="fil2" points="3784.93,1326.15 3784.93,1248.54 3793.24,1248.54 3793.24,1326.15 "/>
   <path id="12" class="fil2" d="M3851.89 1300.21l-35.37 0c0,7.1 1.68,12.12 5.05,15.08 3.36,2.96 7.59,4.44 12.69,4.44 2.59,0 4.4,-0.13 5.43,-0.39 1.03,-0.26 2.02,-0.51 2.94,-0.77 0.92,-0.26 1.57,-0.46 1.94,-0.61 1.85,-0.52 3.43,-1 4.77,-1.44l1.33 6.43c-7.39,2.59 -13.16,3.88 -17.3,3.88 -7.61,0 -13.71,-2.31 -18.29,-6.93 -4.58,-4.62 -6.88,-11.57 -6.88,-20.84 0,-9.28 2.16,-16.5 6.49,-21.68 4.32,-5.17 9.79,-7.76 16.41,-7.76 6.62,0 11.77,2.14 15.47,6.43 3.69,4.29 5.54,10.09 5.54,17.41 0,2 -0.07,4.25 -0.22,6.76zm-34.81 -6.32l27.05 0c0,-5.47 -0.96,-9.68 -2.88,-12.64 -1.92,-2.95 -5.27,-4.44 -10.03,-4.44 -4.77,0 -8.26,1.59 -10.48,4.77 -2.22,3.18 -3.44,7.28 -3.66,12.3z"/>
   <path id="13" class="fil2" d="M3865.53 1316.29c4.8,2.22 9.39,3.33 13.75,3.33 4.36,0 7.67,-0.87 9.92,-2.6 2.26,-1.74 3.38,-4.05 3.38,-6.93 0,-2.88 -0.96,-5.12 -2.88,-6.71 -1.92,-1.59 -4.27,-2.82 -7.04,-3.71 -2.77,-0.89 -5.54,-1.85 -8.31,-2.88 -2.77,-1.03 -5.12,-2.59 -7.04,-4.66 -1.93,-2.07 -2.88,-4.69 -2.88,-7.87 0,-4.66 1.51,-8.26 4.55,-10.81 3.03,-2.55 7.13,-3.82 12.31,-3.82 5.17,0 9.97,0.77 14.41,2.33l0.78 0.33 -1.44 7.1c-4.44,-1.7 -8.56,-2.55 -12.36,-2.55 -3.81,0 -6.41,0.59 -7.81,1.78 -1.41,1.18 -2.11,3.18 -2.11,5.99 0,1.77 0.96,3.29 2.88,4.55 1.92,1.26 4.27,2.35 7.04,3.27 2.77,0.93 5.54,2 8.32,3.22 2.77,1.22 5.12,3.05 7.04,5.49 1.92,2.44 2.88,5.43 2.88,8.98 0,5.17 -1.81,9.26 -5.43,12.25 -3.62,2.99 -8.61,4.49 -14.97,4.49 -6.36,0 -12.01,-1.44 -16.96,-4.32l2 -6.21z"/>
  </g>
  <g id="_2510272274560">
   <rect class="fil0 str0" x="3602.17" y="168.22" width="374.2" height="487.6"/>
   <rect class="fil1 str0" x="3547.29" y="113.34" width="374.2" height="487.6"/>
   <rect class="fil1 str0" x="3487.42" y="62.29" width="374.2" height="487.6"/>
   <path class="fil2" d="M3558.61 247.4l-6.88 0 0 36.37 -8.32 0 0 -77.61 22.4 0c7.54,0 13.21,1.72 17.02,5.16 3.81,3.44 5.71,8.33 5.71,14.69 0,4.44 -1.54,8.5 -4.6,12.2 -3.06,3.69 -6.86,5.84 -11.36,6.43 3.62,0.81 6.19,1.98 7.7,3.49 1.52,1.52 3.31,4.75 5.38,9.7l10.98 25.94 -8.76 0 -10.75 -24.84c-2,-4.66 -4.23,-7.74 -6.71,-9.26 -2.48,-1.52 -6.41,-2.27 -11.81,-2.27zm6.76 -34.15l-13.64 0 0 27.05 12.53 0c4.58,0 8.22,-1.35 10.92,-4.05 2.7,-2.7 4.05,-6.12 4.05,-10.26 0,-4.14 -1.22,-7.3 -3.66,-9.48 -2.44,-2.18 -5.84,-3.27 -10.2,-3.27z"/>
   <path id="1" class="fil2" d="M3648.75 257.94l-35.37 0c0,7.1 1.68,12.12 5.05,15.08 3.36,2.96 7.59,4.44 12.69,4.44 2.59,0 4.4,-0.13 5.43,-0.39 1.03,-0.26 2.02,-0.51 2.94,-0.77 0.92,-0.26 1.57,-0.46 1.94,-0.61 1.85,-0.52 3.43,-1 4.77,-1.44l1.33 6.43c-7.39,2.59 -13.16,3.88 -17.3,3.88 -7.61,0 -13.71,-2.31 -18.29,-6.93 -4.58,-4.62 -6.88,-11.57 -6.88,-20.84 0,-9.28 2.16,-16.5 6.49,-21.68 4.32,-5.17 9.79,-7.76 16.41,-7.76 6.62,0 11.77,2.14 15.47,6.43 3.69,4.29 5.54,10.09 5.54,17.41 0,2 -0.07,4.25 -0.22,6.76zm-34.81 -6.32l27.05 0c0,-5.47 -0.96,-9.68 -2.88,-12.64 -1.92,-2.95 -5.27,-4.44 -10.03,-4.44 -4.77,0 -8.26,1.59 -10.48,4.77 -2.22,3.18 -3.44,7.28 -3.66,12.3z"/>
   <path id="2" class="fil2" d="M3662.39 274.01c4.8,2.22 9.39,3.33 13.75,3.33 4.36,0 7.67,-0.87 9.92,-2.6 2.26,-1.74 3.38,-4.05 3.38,-6.93 0,-2.88 -0.96,-5.12 -2.88,-6.71 -1.92,-1.59 -4.27,-2.82 -7.04,-3.71 -2.77,-0.89 -5.54,-1.85 -8.31,-2.88 -2.77,-1.03 -5.12,-2.59 -7.04,-4.66 -1.93,-2.07 -2.88,-4.69 -2.88,-7.87 0,-4.66 1.51,-8.26 4.55,-10.81 3.03,-2.55 7.13,-3.82 12.31,-3.82 5.17,0 9.97,0.77 14.41,2.33l0.78 0.33 -1.44 7.1c-4.44,-1.7 -8.56,-2.55 -12.36,-2.55 -3.81,0 -6.41,0.59 -7.81,1.78 -1.41,1.18 -2.11,3.18 -2.11,5.99 0,1.77 0.96,3.29 2.88,4.55 1.92,1.26 4.27,2.35 7.04,3.27 2.77,0.93 5.54,2 8.32,3.22 2.77,1.22 5.12,3.05 7.04,5.49 1.92,2.44 2.88,5.43 2.88,8.98 0,5.17 -1.81,9.26 -5.43,12.25 -3.62,2.99 -8.61,4.49 -14.97,4.49 -6.36,0 -12.01,-1.44 -16.96,-4.32l2 -6.21z"/>
   <path id="3" class="fil2" d="M3744.55 269.8l0 -41.36 8.43 0 0 55.44 -4.88 0 -2.77 -6.54c-5.91,4.8 -11.57,7.21 -16.96,7.21 -5.39,0 -9.52,-1.57 -12.36,-4.71 -2.85,-3.14 -4.27,-7.59 -4.27,-13.36l0 -38.03 8.32 0 0 36.7c0,4.36 0.64,7.5 1.94,9.42 1.29,1.93 3.43,2.88 6.43,2.88 2.99,0 6.04,-0.81 9.15,-2.44 3.1,-1.63 5.43,-3.36 6.99,-5.21z"/>
   <polygon id="4" class="fil2" points="3773.15,283.88 3773.15,206.27 3781.47,206.27 3781.47,283.88 "/>
   <path id="5" class="fil2" d="M3802.98 271.91l0 -36.81 -7.54 0 0 -6.65 7.65 0 0 -15.86 8.32 0 0 15.86 13.53 0 0 6.65 -13.64 0 0 35.26c0,4.95 2.51,7.43 7.54,7.43 1.18,0 2.99,-0.22 5.43,-0.67l1.22 5.99c-3.03,0.96 -6.15,1.44 -9.37,1.44 -3.21,0 -6.21,-0.98 -8.98,-2.94 -2.77,-1.96 -4.16,-5.19 -4.16,-9.7z"/>
   <path id="6" class="fil2" d="M3626.47 420.92l0 -48.67 -21.4 0 0 48.67 -8.32 0 0 -48.79 -8.54 0 0 -6.65 8.65 0 0 -10.64c0,-4.51 1.39,-7.74 4.16,-9.7 2.77,-1.96 5.77,-2.94 8.98,-2.94 3.22,0 6.34,0.48 9.37,1.44l-1.22 5.99c-2.44,-0.44 -4.25,-0.66 -5.43,-0.66 -5.1,0 -7.65,2.48 -7.65,7.43l0 9.09 29.71 0 0 55.44 -8.32 0zm8.32 -77.5l0 9.87 -8.32 0 0 -9.87 8.32 0z"/>
   <polygon id="7" class="fil2" points="3654.96,420.92 3654.96,343.31 3663.28,343.31 3663.28,420.92 "/>
   <path id="8" class="fil2" d="M3721.93 394.98l-35.37 0c0,7.1 1.68,12.12 5.05,15.08 3.36,2.96 7.59,4.44 12.69,4.44 2.59,0 4.4,-0.13 5.43,-0.39 1.03,-0.26 2.02,-0.51 2.94,-0.77 0.92,-0.26 1.57,-0.46 1.94,-0.61 1.85,-0.52 3.43,-1 4.77,-1.44l1.33 6.43c-7.39,2.59 -13.16,3.88 -17.3,3.88 -7.61,0 -13.71,-2.31 -18.29,-6.93 -4.58,-4.62 -6.88,-11.57 -6.88,-20.84 0,-9.28 2.16,-16.5 6.49,-21.68 4.32,-5.17 9.79,-7.76 16.41,-7.76 6.62,0 11.77,2.14 15.47,6.43 3.69,4.29 5.54,10.09 5.54,17.41 0,2 -0.07,4.25 -0.22,6.76zm-34.81 -6.32l27.05 0c0,-5.47 -0.96,-9.68 -2.88,-12.64 -1.92,-2.95 -5.27,-4.44 -10.03,-4.44 -4.77,0 -8.26,1.59 -10.48,4.77 -2.22,3.18 -3.44,7.28 -3.66,12.3z"/>
   <path id="9" class="fil2" d="M3735.57 411.05c4.8,2.22 9.39,3.33 13.75,3.33 4.36,0 7.67,-0.87 9.92,-2.6 2.26,-1.74 3.38,-4.05 3.38,-6.93 0,-2.88 -0.96,-5.12 -2.88,-6.71 -1.92,-1.59 -4.27,-2.82 -7.04,-3.71 -2.77,-0.89 -5.54,-1.85 -8.31,-2.88 -2.77,-1.03 -5.12,-2.59 -7.04,-4.66 -1.93,-2.07 -2.88,-4.69 -2.88,-7.87 0,-4.66 1.51,-8.26 4.55,-10.81 3.03,-2.55 7.13,-3.82 12.31,-3.82 5.17,0 9.97,0.77 14.41,2.33l0.78 0.33 -1.44 7.1c-4.44,-1.7 -8.56,-2.55 -12.36,-2.55 -3.81,0 -6.41,0.59 -7.81,1.78 -1.41,1.18 -2.11,3.18 -2.11,5.99 0,1.77 0.96,3.29 2.88,4.55 1.92,1.26 4.27,2.35 7.04,3.27 2.77,0.93 5.54,2 8.32,3.22 2.77,1.22 5.12,3.05 7.04,5.49 1.92,2.44 2.88,5.43 2.88,8.98 0,5.17 -1.81,9.26 -5.43,12.25 -3.62,2.99 -8.61,4.49 -14.97,4.49 -6.36,0 -12.01,-1.44 -16.96,-4.32l2 -6.21z"/>
  </g>
  <g id="_2510272281760">
   <rect class="fil0 str0" x="1756.75" y="1842.53" width="374.2" height="487.6"/>
   <rect class="fil1 str0" x="1701.86" y="1787.65" width="374.2" height="487.6"/>
   <rect class="fil1 str0" x="1641.99" y="1736.6" width="374.2" height="487.6"/>
   <path class="fil2" d="M1767.44 1943.5c-10.72,0 -19.23,-3.62 -25.56,-10.86 -6.32,-7.24 -9.48,-16.91 -9.48,-28.99 0,-12.09 2.99,-21.7 8.98,-28.83 5.99,-7.13 14.34,-10.7 25.06,-10.7 6.8,0 13.71,1.33 20.74,3.99l-2 6.88c-2.51,-1.03 -5.8,-1.9 -9.87,-2.6 -4.07,-0.7 -7.21,-1.05 -9.42,-1.05 -7.76,0 -13.9,2.84 -18.41,8.54 -4.51,5.69 -6.76,13.38 -6.76,23.06 0,9.68 2.38,17.67 7.15,23.95 4.77,6.28 10.89,9.42 18.35,9.42 5.25,0 10.2,-0.74 14.86,-2.22l0 -23.39 -16.19 0 0 -7.21 24.5 0 0 34.04c-6.95,3.99 -14.26,5.99 -21.95,5.99z"/>
   <path id="1" class="fil2" d="M1847.49 1916.9l-35.37 0c0,7.1 1.68,12.12 5.05,15.08 3.36,2.96 7.59,4.44 12.69,4.44 2.59,0 4.4,-0.13 5.43,-0.39 1.03,-0.26 2.02,-0.51 2.94,-0.77 0.92,-0.26 1.57,-0.46 1.94,-0.61 1.85,-0.52 3.43,-1 4.77,-1.44l1.33 6.43c-7.39,2.59 -13.16,3.88 -17.3,3.88 -7.61,0 -13.71,-2.31 -18.29,-6.93 -4.58,-4.62 -6.88,-11.57 -6.88,-20.84 0,-9.28 2.16,-16.5 6.49,-21.68 4.32,-5.17 9.79,-7.76 16.41,-7.76 6.62,0 11.77,2.14 15.47,6.43 3.69,4.29 5.54,10.09 5.54,17.41 0,2 -0.07,4.25 -0.22,6.76zm-34.81 -6.32l27.05 0c0,-5.47 -0.96,-9.68 -2.88,-12.64 -1.92,-2.95 -5.27,-4.44 -10.03,-4.44 -4.77,0 -8.26,1.59 -10.48,4.77 -2.22,3.18 -3.44,7.28 -3.66,12.3z"/>
   <path id="2" class="fil2" d="M1897.5 1915.51c0,-7.13 -1.41,-12.58 -4.22,-16.35 -2.81,-3.77 -6.91,-5.66 -12.3,-5.66 -5.4,0 -9.22,1.79 -11.48,5.38 -2.26,3.58 -3.38,9.07 -3.38,16.46 0,13.97 5.14,20.96 15.41,20.96 5.39,0 9.41,-1.68 12.03,-5.04 2.62,-3.36 3.94,-8.61 3.94,-15.75zm2 20.46c-4.22,5.03 -10.16,7.54 -17.85,7.54 -7.69,0 -13.58,-2.49 -17.68,-7.48 -4.11,-4.99 -6.16,-11.97 -6.16,-20.96 0,-8.98 1.98,-16.02 5.93,-21.12 3.96,-5.1 9.76,-7.65 17.41,-7.65 7.65,0 13.68,2.59 18.07,7.76 4.4,5.17 6.6,12.2 6.6,21.07 0,8.87 -2.11,15.82 -6.32,20.85z"/>
   <polygon id="3" class="fil2" points="1924.89,1942.84 1916.57,1942.84 1916.57,1931.09 1924.89,1931.09 "/>
   <path id="4" class="fil2" d="M1773.93 2079.88l0 -48.67 -21.4 0 0 48.67 -8.32 0 0 -48.79 -8.54 0 0 -6.65 8.65 0 0 -10.64c0,-4.51 1.39,-7.74 4.16,-9.7 2.77,-1.96 5.77,-2.94 8.98,-2.94 3.22,0 6.34,0.48 9.37,1.44l-1.22 5.99c-2.44,-0.44 -4.25,-0.66 -5.43,-0.66 -5.1,0 -7.65,2.48 -7.65,7.43l0 9.09 29.71 0 0 55.44 -8.32 0zm8.32 -77.5l0 9.87 -8.32 0 0 -9.87 8.32 0z"/>
   <polygon id="5" class="fil2" points="1802.42,2079.88 1802.42,2002.27 1810.74,2002.27 1810.74,2079.88 "/>
   <path id="6" class="fil2" d="M1869.39 2053.94l-35.37 0c0,7.1 1.68,12.12 5.05,15.08 3.36,2.96 7.59,4.44 12.69,4.44 2.59,0 4.4,-0.13 5.43,-0.39 1.03,-0.26 2.02,-0.51 2.94,-0.77 0.92,-0.26 1.57,-0.46 1.94,-0.61 1.85,-0.52 3.43,-1 4.77,-1.44l1.33 6.43c-7.39,2.59 -13.16,3.88 -17.3,3.88 -7.61,0 -13.71,-2.31 -18.29,-6.93 -4.58,-4.62 -6.88,-11.57 -6.88,-20.84 0,-9.28 2.16,-16.5 6.49,-21.68 4.32,-5.17 9.79,-7.76 16.41,-7.76 6.62,0 11.77,2.14 15.47,6.43 3.69,4.29 5.54,10.09 5.54,17.41 0,2 -0.07,4.25 -0.22,6.76zm-34.81 -6.32l27.05 0c0,-5.47 -0.96,-9.68 -2.88,-12.64 -1.92,-2.95 -5.27,-4.44 -10.03,-4.44 -4.77,0 -8.26,1.59 -10.48,4.77 -2.22,3.18 -3.44,7.28 -3.66,12.3z"/>
   <path id="7" class="fil2" d="M1883.03 2070.01c4.8,2.22 9.39,3.33 13.75,3.33 4.36,0 7.67,-0.87 9.92,-2.6 2.26,-1.74 3.38,-4.05 3.38,-6.93 0,-2.88 -0.96,-5.12 -2.88,-6.71 -1.92,-1.59 -4.27,-2.82 -7.04,-3.71 -2.77,-0.89 -5.54,-1.85 -8.31,-2.88 -2.77,-1.03 -5.12,-2.59 -7.04,-4.66 -1.93,-2.07 -2.88,-4.69 -2.88,-7.87 0,-4.66 1.51,-8.26 4.55,-10.81 3.03,-2.55 7.13,-3.82 12.31,-3.82 5.17,0 9.97,0.77 14.41,2.33l0.78 0.33 -1.44 7.1c-4.44,-1.7 -8.56,-2.55 -12.36,-2.55 -3.81,0 -6.41,0.59 -7.81,1.78 -1.41,1.18 -2.11,3.18 -2.11,5.99 0,1.77 0.96,3.29 2.88,4.55 1.92,1.26 4.27,2.35 7.04,3.27 2.77,0.93 5.54,2 8.32,3.22 2.77,1.22 5.12,3.05 7.04,5.49 1.92,2.44 2.88,5.43 2.88,8.98 0,5.17 -1.81,9.26 -5.43,12.25 -3.62,2.99 -8.61,4.49 -14.97,4.49 -6.36,0 -12.01,-1.44 -16.96,-4.32l2 -6.21z"/>
  </g>
  <g id="_2510272269568">
   <rect class="fil0 str0" x="3602.17" y="1842.53" width="374.2" height="487.6"/>
   <rect class="fil1 str0" x="3547.29" y="1787.65" width="374.2" height="487.6"/>
   <rect class="fil1 str0" x="3487.42" y="1736.6" width="374.2" height="487.6"/>
   <path class="fil2" d="M3583.84 1958.74c-10.13,0 -17.78,-3.75 -22.95,-11.25 -5.17,-7.5 -7.76,-17.06 -7.76,-28.66 0,-11.61 2.6,-21.07 7.82,-28.38 5.21,-7.32 12.86,-10.98 22.95,-10.98 10.09,0 17.76,3.66 23.01,10.98 5.25,7.32 7.87,16.78 7.87,28.38 0,15.89 -4.51,27.35 -13.53,34.37 -4.8,3.7 -10.61,5.54 -17.41,5.54zm0.22 -72.07c-7.54,0 -13.18,3.14 -16.91,9.42 -3.73,6.28 -5.6,13.97 -5.6,23.06 0,9.09 1.91,16.74 5.71,22.95 3.8,6.21 9.41,9.31 16.79,9.31 7.39,0 12.97,-3.14 16.74,-9.42 3.77,-6.29 5.65,-14.19 5.65,-23.73 0,-11.97 -3.36,-20.92 -10.09,-26.83 -3.47,-3.18 -7.58,-4.77 -12.31,-4.77z"/>
   <path id="1" class="fil2" d="M3631.29 1946.21l0 -36.81 -7.54 0 0 -6.65 7.65 0 0 -15.86 8.32 0 0 15.86 13.53 0 0 6.65 -13.64 0 0 35.26c0,4.95 2.51,7.43 7.54,7.43 1.18,0 2.99,-0.22 5.43,-0.67l1.22 5.99c-3.03,0.96 -6.15,1.44 -9.37,1.44 -3.21,0 -6.21,-0.98 -8.98,-2.94 -2.77,-1.96 -4.16,-5.19 -4.16,-9.7z"/>
   <path id="2" class="fil2" d="M3709.79 1958.19l-8.31 0 0 -36.48c0,-8.95 -3.74,-13.42 -11.2,-13.42 -5.54,0 -10.09,1.78 -13.64,5.32l0 44.57 -8.32 0 0 -77.61 8.21 0 0 26.27c1.63,-1.33 2.9,-2.29 3.82,-2.88 0.92,-0.59 2.44,-1.18 4.55,-1.77 2.11,-0.59 4.49,-0.89 7.15,-0.89 5.1,0 9.33,1.55 12.69,4.66 3.36,3.11 5.04,7.54 5.04,13.31l0 38.92z"/>
   <path id="3" class="fil2" d="M3768.44 1932.24l-35.37 0c0,7.1 1.68,12.12 5.05,15.08 3.36,2.96 7.59,4.44 12.69,4.44 2.59,0 4.4,-0.13 5.43,-0.39 1.03,-0.26 2.02,-0.51 2.94,-0.77 0.92,-0.26 1.57,-0.46 1.94,-0.61 1.85,-0.52 3.43,-1 4.77,-1.44l1.33 6.43c-7.39,2.59 -13.16,3.88 -17.3,3.88 -7.61,0 -13.71,-2.31 -18.29,-6.93 -4.58,-4.62 -6.88,-11.57 -6.88,-20.84 0,-9.28 2.16,-16.5 6.49,-21.68 4.32,-5.17 9.79,-7.76 16.41,-7.76 6.62,0 11.77,2.14 15.47,6.43 3.69,4.29 5.54,10.09 5.54,17.41 0,2 -0.07,4.25 -0.22,6.76zm-34.81 -6.32l27.05 0c0,-5.47 -0.96,-9.68 -2.88,-12.64 -1.92,-2.95 -5.27,-4.44 -10.03,-4.44 -4.77,0 -8.26,1.59 -10.48,4.77 -2.22,3.18 -3.44,7.28 -3.66,12.3z"/>
   <path id="4" class="fil2" d="M3792.5 1915.83l0 42.35 -8.32 0 0 -55.44 5.32 0 1.33 6.54c3.55,-2.81 6.5,-4.79 8.87,-5.93 2.37,-1.14 5.06,-1.72 8.09,-1.72 1.48,0 2.59,0.07 3.33,0.22l1.55 0.44 -1.33 7.65c-1.33,-0.44 -3.14,-0.66 -5.43,-0.66 -4.44,0 -8.91,2.18 -13.42,6.54z"/>
   <path id="5" class="fil2" d="M3597.86 2095.78c-10.13,0 -17.78,-3.75 -22.95,-11.25 -5.17,-7.5 -7.76,-17.06 -7.76,-28.66 0,-11.61 2.6,-21.07 7.82,-28.38 5.21,-7.32 12.86,-10.98 22.95,-10.98 10.09,0 17.76,3.66 23.01,10.98 5.25,7.32 7.87,16.78 7.87,28.38 0,15.89 -4.51,27.35 -13.53,34.37 -4.8,3.7 -10.61,5.54 -17.41,5.54zm0.22 -72.07c-7.54,0 -13.18,3.14 -16.91,9.42 -3.73,6.28 -5.6,13.97 -5.6,23.06 0,9.09 1.91,16.74 5.71,22.95 3.8,6.21 9.41,9.31 16.79,9.31 7.39,0 12.97,-3.14 16.74,-9.42 3.77,-6.29 5.65,-14.19 5.65,-23.73 0,-11.97 -3.36,-20.92 -10.09,-26.83 -3.47,-3.18 -7.58,-4.77 -12.31,-4.77z"/>
   <path id="6" class="fil2" d="M3675.7 2081.15l0 -41.36 8.43 0 0 55.44 -4.88 0 -2.77 -6.54c-5.91,4.8 -11.57,7.21 -16.96,7.21 -5.39,0 -9.52,-1.57 -12.36,-4.71 -2.85,-3.14 -4.27,-7.59 -4.27,-13.36l0 -38.03 8.32 0 0 36.7c0,4.36 0.64,7.5 1.94,9.42 1.29,1.93 3.43,2.88 6.43,2.88 2.99,0 6.04,-0.81 9.15,-2.44 3.1,-1.63 5.43,-3.36 6.99,-5.21z"/>
   <path id="7" class="fil2" d="M3705.63 2083.26l0 -36.81 -7.54 0 0 -6.65 7.65 0 0 -15.86 8.32 0 0 15.86 13.53 0 0 6.65 -13.64 0 0 35.26c0,4.95 2.51,7.43 7.54,7.43 1.18,0 2.99,-0.22 5.43,-0.67l1.22 5.99c-3.03,0.96 -6.15,1.44 -9.37,1.44 -3.21,0 -6.21,-0.98 -8.98,-2.94 -2.77,-1.96 -4.16,-5.19 -4.16,-9.7z"/>
   <path id="8" class="fil2" d="M3740.56 2085.36c4.8,2.22 9.39,3.33 13.75,3.33 4.36,0 7.67,-0.87 9.92,-2.6 2.26,-1.74 3.38,-4.05 3.38,-6.93 0,-2.88 -0.96,-5.12 -2.88,-6.71 -1.92,-1.59 -4.27,-2.82 -7.04,-3.71 -2.77,-0.89 -5.54,-1.85 -8.31,-2.88 -2.77,-1.03 -5.12,-2.59 -7.04,-4.66 -1.93,-2.07 -2.88,-4.69 -2.88,-7.87 0,-4.66 1.51,-8.26 4.55,-10.81 3.03,-2.55 7.13,-3.82 12.31,-3.82 5.17,0 9.97,0.77 14.41,2.33l0.78 0.33 -1.44 7.1c-4.44,-1.7 -8.56,-2.55 -12.36,-2.55 -3.81,0 -6.41,0.59 -7.81,1.78 -1.41,1.18 -2.11,3.18 -2.11,5.99 0,1.77 0.96,3.29 2.88,4.55 1.92,1.26 4.27,2.35 7.04,3.27 2.77,0.93 5.54,2 8.32,3.22 2.77,1.22 5.12,3.05 7.04,5.49 1.92,2.44 2.88,5.43 2.88,8.98 0,5.17 -1.81,9.26 -5.43,12.25 -3.62,2.99 -8.61,4.49 -14.97,4.49 -6.36,0 -12.01,-1.44 -16.96,-4.32l2 -6.21z"/>
   <polygon id="9" class="fil2" points="3795.22,2095.23 3786.9,2095.23 3786.9,2083.48 3795.22,2083.48 "/>
  </g>
  <path class="fil0 str1" d="M3486.74 1076.91l59.87 33.93 -59.87 33.93m-202.05 -33.93l251.95 0"/>
  <path class="fil0 str1" d="M3344.56 1184.23l-59.87 33.93 59.87 33.93m202.05 -33.93l-251.95 0"/>
  <path class="fil0 str1" d="M2198.84 1076.91l59.87 33.93 -59.87 33.93m-202.05 -33.93l251.95 0"/>
  <path class="fil0 str1" d="M2056.66 1184.23l-59.87 33.93 59.87 33.93m202.05 -33.93l-251.95 0"/>
  <g id="_2475558302032">
   <path class="fil0 str1" d="M2338.43 527.63l25.88 63.77 -68 -10.57m-14.14 -54.47l74.32 58.85"/>
   <path class="fil0 str1" d="M2281.17 624.07l-68 -10.57 25.87 63.77m56.27 1.27l-74.32 -58.85"/>
  </g>
  <g id="_2475558296048">
   <path class="fil0 str1" d="M3304.53 527.63l-25.88 63.77 68 -10.57m14.14 -54.47l-74.32 58.85"/>
   <path class="fil0 str1" d="M3361.79 624.07l68 -10.57 -25.87 63.77m-56.27 1.27l74.32 -58.85"/>
  </g>
  <g id="_2475558295248">
   <path class="fil0 str1" d="M2239.05 1754.2l-25.88 63.77 68 -10.57m14.14 -54.47l-74.32 58.85"/>
   <path class="fil0 str1" d="M2296.31 1850.64l68 -10.57 -25.87 63.77m-56.27 1.27l74.32 -58.85"/>
  </g>
  <rect class="fil0" y="-0" width="5430.06" height="2428.15"/>
 </g>
</svg>
