<?xml version="1.0" encoding="UTF-8"?>
<!DOCTYPE svg PUBLIC "-//W3C//DTD SVG 1.1//EN" "http://www.w3.org/Graphics/SVG/1.1/DTD/svg11.dtd">
<!-- Creator: CorelDRAW 2017 -->
<svg xmlns="http://www.w3.org/2000/svg" xml:space="preserve" width="2.25575in" height="2.33457in" version="1.1" style="shape-rendering:geometricPrecision; text-rendering:geometricPrecision; image-rendering:optimizeQuality; fill-rule:evenodd; clip-rule:evenodd"
viewBox="0 0 3599.33 3725.1"
 xmlns:xlink="http://www.w3.org/1999/xlink">
 <defs>
  <style type="text/css">
   <![CDATA[
    .str0 {stroke:#373435;stroke-width:22.16;stroke-linecap:round;stroke-miterlimit:2.61313}
    .str1 {stroke:#373435;stroke-width:11.08;stroke-linecap:round;stroke-miterlimit:2.61313}
    .fil1 {fill:none;fill-rule:nonzero}
    .fil0 {fill:#373435;fill-rule:nonzero}
   ]]>
  </style>
 </defs>
 <g id="Layer_x0020_1">
  <metadata id="CorelCorpID_0Corel-Layer"/>
  <path class="fil0" d="M2911.62 2246.2l0 79.59 -15.92 0 0 -100.29 9.55 0 3.18 11.14c3.18,-3.18 4.77,-4.77 7.96,-6.37 1.59,-1.59 4.77,-3.18 7.96,-3.18 4.77,-1.59 9.55,-3.18 14.33,-3.18 9.55,0 17.51,3.18 22.29,9.55 6.37,4.77 9.55,12.73 9.55,23.88l0 68.45 -14.33 0 0 -65.27c0,-15.92 -7.96,-23.88 -20.69,-23.88 -9.55,0 -17.51,3.18 -23.88,9.55l0 0.01z"/>
  <path id="_1" class="fil0" d="M3069.21 2276.45c0,-12.73 -3.18,-22.29 -7.96,-28.65 -4.77,-6.37 -12.73,-11.14 -22.29,-11.14 -9.55,0 -17.51,3.18 -20.69,9.55 -4.77,6.37 -6.37,17.51 -6.37,30.25 0,25.47 9.55,38.21 28.65,38.21 9.55,0 15.92,-3.18 20.69,-9.55 4.77,-6.37 7.96,-15.92 7.96,-28.65l0.01 -0.01zm3.18 36.61c-7.96,9.55 -19.1,14.33 -31.84,14.33 -14.33,0 -25.47,-4.77 -31.84,-14.33 -7.96,-7.96 -11.14,-20.69 -11.14,-36.61 0,-15.92 3.18,-28.65 9.55,-38.21 7.96,-9.55 17.51,-14.33 31.84,-14.33 14.33,0 25.47,4.77 33.43,14.33 6.37,9.55 11.14,22.29 11.14,38.21 0,15.92 -3.18,28.65 -11.14,36.61z"/>
  <path id="_2" class="fil0" d="M3156.77 2308.28c7.96,3.18 15.92,6.37 23.88,6.37 7.96,0 14.33,-1.59 17.51,-4.77 4.77,-3.18 6.37,-7.96 6.37,-12.73 0,-4.77 -1.59,-9.55 -4.77,-12.73 -3.18,-1.59 -7.96,-4.77 -12.73,-6.37 -4.77,-1.59 -9.55,-3.18 -14.33,-4.77 -4.77,-1.59 -9.55,-4.77 -12.73,-7.96 -3.18,-4.77 -6.37,-9.55 -6.37,-14.33 0,-7.96 3.18,-15.92 9.55,-19.1 4.77,-4.77 12.73,-7.96 20.69,-7.96 9.55,0 19.1,1.59 27.06,4.77l1.59 0 -3.18 12.73c-7.96,-3.18 -15.92,-4.77 -22.29,-4.77 -6.37,0 -11.14,1.59 -14.33,3.18 -1.59,3.18 -3.18,6.37 -3.18,11.14 0,3.18 1.59,6.37 4.77,7.96 3.18,3.18 7.96,4.77 12.73,6.37 4.77,1.59 9.55,3.18 14.33,6.37 6.37,1.59 9.55,4.77 12.73,9.55 4.77,4.77 6.37,9.55 6.37,15.92 0,9.55 -3.18,15.92 -9.55,22.29 -7.96,4.77 -15.92,7.96 -27.06,7.96 -12.73,0 -22.29,-3.18 -31.84,-7.96l4.77 -11.14 0.01 -0.01z"/>
  <path id="_3" class="fil0" d="M3308.01 2276.45c0,-12.73 -1.59,-22.29 -6.37,-28.65 -6.37,-6.37 -12.73,-11.14 -22.29,-11.14 -9.55,0 -17.51,3.18 -20.69,9.55 -4.77,6.37 -6.37,17.51 -6.37,30.25 0,25.47 9.55,38.21 27.06,38.21 9.55,0 17.51,-3.18 22.29,-9.55 4.77,-6.37 6.37,-15.92 6.37,-28.65l0 -0.01zm4.77 36.61c-7.96,9.55 -19.1,14.33 -31.84,14.33 -14.33,0 -25.47,-4.77 -31.84,-14.33 -7.96,-7.96 -11.14,-20.69 -11.14,-36.61 0,-15.92 3.18,-28.65 9.55,-38.21 7.96,-9.55 17.51,-14.33 31.84,-14.33 14.33,0 23.88,4.77 31.84,14.33 7.96,9.55 12.73,22.29 12.73,38.21 0,15.92 -4.77,28.65 -11.14,36.61l0.01 0z"/>
  <polygon id="_4" class="fil0" points="3350.99,2325.79 3350.99,2185.7 3365.32,2185.7 3365.32,2325.79 "/>
  <polygon id="_5" class="fil0" points="3470.38,2225.5 3436.95,2325.79 3419.44,2325.79 3386.01,2225.5 3401.93,2225.5 3427.4,2309.87 3452.87,2225.5 "/>
  <path id="_6" class="fil0" d="M3559.53 2279.63l-63.67 0c0,12.73 3.18,22.29 9.55,27.06 6.37,4.77 12.73,7.96 22.29,7.96 4.77,0 7.96,0 9.55,-1.59 1.59,0 4.77,0 6.37,0 1.59,-1.59 1.59,-1.59 3.18,-1.59 3.18,-1.59 6.37,-1.59 7.96,-3.18l3.18 11.14c-14.33,4.77 -23.88,7.96 -31.84,7.96 -12.73,0 -23.88,-4.77 -33.43,-12.73 -7.96,-7.96 -11.14,-20.69 -11.14,-38.21 0,-15.92 3.18,-28.65 11.14,-38.21 7.96,-9.55 17.51,-14.33 30.25,-14.33 11.14,0 20.69,4.77 27.06,11.14 6.37,7.96 9.55,19.1 9.55,31.84 0,3.18 0,7.96 0,12.73zm-62.08 -11.14l47.76 0c0,-11.14 -1.59,-17.51 -4.77,-23.88 -3.18,-4.77 -9.55,-7.96 -17.51,-7.96 -9.55,0 -15.92,3.18 -19.1,9.55 -4.77,4.77 -6.37,12.73 -6.37,22.29l0.01 0z"/>
  <polygon id="_7" class="fil0" points="2859.08,2572.54 2859.08,2432.45 2873.41,2432.45 2873.41,2572.54 "/>
  <path id="_8" class="fil0" d="M2906.84 2572.54l0 -100.29 15.92 0 0 100.29 -15.92 0zm15.92 -140.09l0 17.51 -15.92 0 0 -17.51 15.92 0z"/>
  <path id="_9" class="fil0" d="M2997.58 2470.66c12.73,0 22.29,4.77 27.06,12.73 11.14,-7.96 22.29,-12.73 31.84,-12.73 9.55,0 17.51,3.18 23.88,7.96 4.77,4.77 7.96,12.73 7.96,23.88l0 70.04 -14.33 0 0 -63.67c0,-7.96 -1.59,-14.33 -4.77,-19.1 -4.77,-4.77 -9.55,-6.37 -15.92,-6.37 -7.96,0 -15.92,3.18 -23.88,9.55 0,3.18 0,6.37 0,9.55l0 70.04 -14.33 0 0 -63.67c0,-7.96 -1.59,-14.33 -4.77,-19.1 -4.77,-4.77 -9.55,-6.37 -15.92,-6.37 -3.18,0 -6.37,0 -9.55,1.59 -4.77,1.59 -6.37,1.59 -7.96,3.18 -1.59,1.59 -3.18,3.18 -6.37,4.77l0 79.59 -14.33 0 0 -100.29 9.55 0 1.59 11.14c3.18,-3.18 6.37,-4.77 7.96,-6.37 1.59,-1.59 4.77,-3.18 9.55,-4.77 3.18,-1.59 7.96,-1.59 12.73,-1.59l0.01 0.01z"/>
  <path id="_10" class="fil0" d="M3121.75 2572.54l0 -100.29 15.92 0 0 100.29 -15.92 0zm15.92 -140.09l0 17.51 -15.92 0 0 -17.51 15.92 0z"/>
  <path id="_11" class="fil0" d="M3172.69 2550.25l0 -65.27 -12.73 0 0 -12.73 12.73 0 0 -28.65 15.92 0 0 28.65 23.88 0 0 12.73 -23.88 0 0 63.67c0,7.96 3.18,12.73 12.73,12.73 1.59,0 4.77,0 9.55,-1.59l3.18 11.14c-6.37,1.59 -11.14,3.18 -17.51,3.18 -6.37,0 -11.14,-1.59 -15.92,-6.37 -4.77,-3.18 -7.96,-7.96 -7.96,-17.51l0.01 0.01z"/>
  <path id="_12" class="fil0" d="M3331.88 2470.66c12.73,0 22.29,4.77 27.06,12.73 11.14,-7.96 22.29,-12.73 31.84,-12.73 9.55,0 17.51,3.18 22.29,7.96 6.37,4.77 9.55,12.73 9.55,23.88l0 70.04 -14.33 0 0 -63.67c0,-7.96 -1.59,-14.33 -6.37,-19.1 -3.18,-4.77 -7.96,-6.37 -14.33,-6.37 -7.96,0 -15.92,3.18 -25.47,9.55 1.59,3.18 1.59,6.37 1.59,9.55l0 70.04 -14.33 0 0 -63.67c0,-7.96 -1.59,-14.33 -6.37,-19.1 -3.18,-4.77 -7.96,-6.37 -14.33,-6.37 -3.18,0 -7.96,0 -11.14,1.59 -3.18,1.59 -4.77,1.59 -6.37,3.18 -1.59,1.59 -4.77,3.18 -6.37,4.77l0 79.59 -15.92 0 0 -100.29 9.55 0 3.18 11.14c3.18,-3.18 6.37,-4.77 7.96,-6.37 1.59,-1.59 4.77,-3.18 7.96,-4.77 4.77,-1.59 9.55,-1.59 14.33,-1.59l0.03 0.01z"/>
  <path id="_13" class="fil0" d="M3527.69 2526.38l-63.67 0c0,12.73 3.18,20.69 9.55,27.06 6.37,4.77 14.33,7.96 22.29,7.96 4.77,0 7.96,0 11.14,-1.59 1.59,0 3.18,0 4.77,-1.59 1.59,0 3.18,0 3.18,0 3.18,-1.59 6.37,-1.59 7.96,-3.18l3.18 11.14c-12.73,4.77 -23.88,7.96 -31.84,7.96 -12.73,0 -23.88,-4.77 -31.84,-12.73 -7.96,-7.96 -12.73,-20.69 -12.73,-38.21 0,-15.92 3.18,-28.65 11.14,-38.21 7.96,-9.55 17.51,-14.33 30.25,-14.33 11.14,0 20.69,4.77 27.06,11.14 6.37,7.96 11.14,19.1 11.14,31.84 0,3.18 -1.59,7.96 -1.59,12.73l-0.01 0zm-62.08 -11.14l49.35 0c0,-11.14 -3.18,-17.51 -6.37,-23.88 -3.18,-4.77 -9.55,-7.96 -17.51,-7.96 -7.96,0 -14.33,3.18 -19.1,9.55 -3.18,4.77 -6.37,12.73 -6.37,22.29l0.01 0z"/>
  <path id="_14" class="fil0" d="M3559.53 2550.25l0 -65.27 -14.33 0 0 -12.73 14.33 0 0 -28.65 14.33 0 0 28.65 23.88 0 0 12.73 -23.88 0 0 63.67c0,7.96 4.77,12.73 14.33,12.73 1.59,0 4.77,0 9.55,-1.59l1.59 11.14c-4.77,1.59 -11.14,3.18 -17.51,3.18 -4.77,0 -11.14,-1.59 -15.92,-6.37 -4.77,-3.18 -6.37,-7.96 -6.37,-17.51l0.01 0.01z"/>
  <polygon class="fil0" points="523.74,186.25 503.05,186.25 503.05,0 523.74,0 "/>
  <path id="_1_0" class="fil0" d="M590.6 81.19l0 105.07 -19.1 0 0 -133.72 12.73 0 3.18 14.33c4.77,-3.18 7.96,-6.37 9.55,-7.96 3.18,-1.59 6.37,-3.18 12.73,-6.37 6.37,-1.59 11.14,-1.59 17.51,-1.59 12.73,0 22.29,3.18 31.84,11.14 7.96,7.96 11.14,17.51 11.14,31.84l0 92.33 -19.1 0 0 -85.96c0,-22.29 -9.55,-33.43 -27.06,-33.43 -12.73,0 -23.88,4.77 -33.43,14.33l0.01 -0.01z"/>
  <path id="_2_1" class="fil0" d="M714.77 186.25l0 -133.72 20.69 0 0 133.72 -20.69 0zm20.69 -186.25l0 23.88 -20.69 0 0 -23.88 20.69 0z"/>
  <path id="_3_2" class="fil0" d="M783.23 157.6l0 -89.15 -19.1 0 0 -15.92 19.1 0 0 -36.61 19.1 0 0 36.61 33.43 0 0 15.92 -33.43 0 0 85.96c0,11.14 6.37,17.51 17.51,17.51 3.18,0 7.96,-1.59 14.33,-1.59l3.18 14.33c-7.96,1.59 -15.92,3.18 -23.88,3.18 -6.37,0 -14.33,-3.18 -20.69,-6.37 -6.37,-4.77 -9.55,-12.73 -9.55,-23.88l-0.01 -0.01z"/>
  <path id="_4_3" class="fil0" d="M867.59 186.25l0 -133.72 20.69 0 0 133.72 -20.69 0zm20.7 -186.25l0 23.88 -20.69 0 0 -23.88 20.69 0z"/>
  <path id="_5_4" class="fil0" d="M990.17 106.66l9.55 0c0,-15.92 -1.59,-27.06 -4.77,-31.84 -4.77,-4.77 -14.33,-6.37 -27.06,-6.37 -14.33,0 -27.06,1.59 -36.61,4.77l-3.18 -15.92c14.33,-4.77 30.25,-6.37 46.17,-6.37 30.25,0 46.17,15.92 46.17,46.17l0 89.15 -11.14 0 -6.37 -15.92c-9.55,6.37 -15.92,11.14 -22.29,14.33 -4.77,1.59 -12.73,3.18 -20.69,3.18 -11.14,0 -20.69,-3.18 -28.65,-11.14 -6.37,-7.96 -9.55,-17.51 -9.55,-28.65 0,-27.06 22.29,-41.39 68.45,-41.39l-0.01 0zm11.14 17.51l-12.73 0c-17.51,0 -30.25,1.59 -36.61,4.77 -7.96,3.18 -11.14,9.55 -11.14,15.92 0,7.96 1.59,14.33 6.37,19.1 3.18,4.77 7.96,6.37 14.33,6.37 6.37,0 12.73,-1.59 19.1,-3.18 4.77,-3.18 12.73,-7.96 20.69,-15.92l0 -27.06 -0.01 0z"/>
  <polygon id="_6_5" class="fil0" points="1069.77,186.25 1069.77,0 1088.87,0 1088.87,186.25 "/>
  <path id="_7_6" class="fil0" d="M1133.45 186.25l0 -133.72 20.69 0 0 133.72 -20.69 0zm20.69 -186.25l0 23.88 -20.69 0 0 -23.88 20.69 0z"/>
  <polygon id="_8_7" class="fil0" points="1187.57,52.54 1268.76,52.54 1268.76,68.45 1209.86,168.75 1271.95,168.75 1271.95,186.25 1187.57,186.25 1187.57,170.34 1244.88,70.04 1187.57,70.04 "/>
  <path id="_9_8" class="fil0" d="M1402.48 124.17l-84.37 0c0,17.51 3.18,28.65 11.14,36.61 7.96,6.37 19.1,9.55 30.25,9.55 6.37,0 11.14,0 14.33,0 1.59,-1.59 4.77,-1.59 6.37,-3.18 1.59,0 3.18,0 4.77,0 4.77,-1.59 7.96,-3.18 11.14,-4.77l3.18 15.92c-17.51,6.37 -31.84,9.55 -41.39,9.55 -17.51,0 -33.43,-6.37 -42.98,-17.51 -11.14,-9.55 -17.51,-27.06 -17.51,-49.35 0,-22.29 4.77,-39.8 15.92,-52.54 9.55,-11.14 23.88,-17.51 39.8,-17.51 15.92,0 27.06,4.77 36.61,14.33 9.55,11.14 12.73,25.47 12.73,42.98 0,4.77 0,9.55 0,15.92l0.01 0.02zm-82.78 -15.92l63.67 0c0,-12.73 -1.59,-22.29 -6.37,-30.25 -4.77,-6.37 -12.73,-9.55 -23.88,-9.55 -11.14,0 -20.69,3.18 -25.47,11.14 -4.77,7.96 -7.96,17.51 -7.96,28.65l0.01 0z"/>
  <path id="_10_9" class="fil0" d="M1641.27 85.97c0,30.25 -7.96,54.13 -25.47,73.23 -17.51,17.51 -41.39,27.06 -70.04,27.06l-39.8 0 0 -186.25 47.76 0c27.06,0 47.76,7.96 63.67,23.88 15.92,15.92 23.88,36.61 23.88,62.08l0.01 0zm-22.29 -1.6c0,-20.69 -6.37,-36.61 -19.1,-49.35 -12.73,-11.14 -27.06,-17.51 -44.57,-17.51l-27.06 0 0 151.23 19.1 0c20.69,0 38.21,-7.96 50.94,-22.29 14.33,-15.92 20.69,-36.61 20.69,-62.08l0 0.01z"/>
  <path id="_11_10" class="fil0" d="M1736.78 106.66l11.14 0c0,-15.92 -3.18,-27.06 -6.37,-31.84 -4.77,-4.77 -14.33,-6.37 -27.06,-6.37 -14.33,0 -27.06,1.59 -36.61,4.77l-3.18 -15.92c14.33,-4.77 30.25,-6.37 46.17,-6.37 31.84,0 46.17,15.92 46.17,46.17l0 89.15 -11.14 0 -6.37 -15.92c-7.96,6.37 -15.92,11.14 -22.29,14.33 -4.77,1.59 -12.73,3.18 -20.69,3.18 -11.14,0 -20.69,-3.18 -28.65,-11.14 -6.37,-7.96 -9.55,-17.51 -9.55,-28.65 0,-27.06 22.29,-41.39 68.45,-41.39l-0.01 0zm11.14 17.51l-12.73 0c-17.51,0 -30.25,1.59 -36.61,4.77 -7.96,3.18 -11.14,9.55 -11.14,15.92 0,7.96 1.59,14.33 6.37,19.1 3.18,4.77 9.55,6.37 15.92,6.37 4.77,0 11.14,-1.59 17.51,-3.18 6.37,-3.18 12.73,-7.96 20.69,-15.92l0 -27.06 -0.01 0z"/>
  <path id="_12_11" class="fil0" d="M1819.56 157.6l0 -89.15 -19.1 0 0 -15.92 19.1 0 0 -36.61 19.1 0 0 36.61 33.43 0 0 15.92 -33.43 0 0 85.96c0,11.14 6.37,17.51 19.1,17.51 1.59,0 6.37,-1.59 12.73,-1.59l3.18 14.33c-7.96,1.59 -15.92,3.18 -22.29,3.18 -7.96,0 -15.92,-3.18 -22.29,-6.37 -6.37,-4.77 -9.55,-12.73 -9.55,-23.88l0 -0.01z"/>
  <path id="_13_12" class="fil0" d="M1966.02 106.66l11.14 0c0,-15.92 -3.18,-27.06 -6.37,-31.84 -4.77,-4.77 -14.33,-6.37 -27.06,-6.37 -14.33,0 -27.06,1.59 -36.61,4.77l-3.18 -15.92c14.33,-4.77 30.25,-6.37 46.17,-6.37 31.84,0 46.17,15.92 46.17,46.17l0 89.15 -11.14 0 -6.37 -15.92c-7.96,6.37 -15.92,11.14 -22.29,14.33 -4.77,1.59 -12.73,3.18 -20.69,3.18 -11.14,0 -20.69,-3.18 -28.65,-11.14 -6.37,-7.96 -9.55,-17.51 -9.55,-28.65 0,-27.06 22.29,-41.39 68.45,-41.39l-0.01 0zm11.14 17.51l-12.73 0c-17.51,0 -30.25,1.59 -36.61,4.77 -7.96,3.18 -11.14,9.55 -11.14,15.92 0,7.96 1.59,14.33 6.37,19.1 3.18,4.77 9.55,6.37 15.92,6.37 4.77,0 11.14,-1.59 17.51,-3.18 6.37,-3.18 12.73,-7.96 20.69,-15.92l0 -27.06 -0.01 0z"/>
  <path id="_14_13" class="fil0" d="M778.45 335.9l-4.77 17.51 -14.33 -4.77c-11.14,-3.18 -20.69,-4.77 -28.65,-4.77 -20.69,0 -31.84,9.55 -31.84,28.65 0,7.96 3.18,14.33 9.55,20.69 6.37,4.77 14.33,9.55 23.88,12.73 9.55,1.59 17.51,6.37 27.06,9.55 9.55,3.18 17.51,9.55 23.88,15.92 6.37,7.96 9.55,17.51 9.55,28.65 0,17.51 -6.37,31.84 -17.51,41.39 -9.55,9.55 -25.47,14.33 -44.57,14.33 -11.14,0 -20.69,-1.59 -30.25,-3.18 -11.14,-3.18 -19.1,-6.37 -25.47,-11.14l6.37 -14.33c17.51,6.37 31.84,11.14 46.17,11.14 14.33,0 25.47,-3.18 33.43,-9.55 7.96,-4.77 11.14,-14.33 11.14,-25.47 0,-11.14 -6.37,-20.69 -17.51,-27.06 -6.37,-1.59 -12.73,-4.77 -19.1,-7.96 -6.37,-1.59 -12.73,-4.77 -19.1,-7.96 -7.96,-1.59 -12.73,-6.37 -19.1,-9.55 -4.77,-3.18 -9.55,-7.96 -12.73,-14.33 -3.18,-6.37 -4.77,-14.33 -4.77,-22.29 0,-15.92 3.18,-27.06 12.73,-36.61 9.55,-7.96 22.29,-11.14 36.61,-11.14 15.92,0 31.84,3.18 49.35,9.55l0.01 0.01z"/>
  <path id="_15" class="fil0" d="M834.17 485.53l0 -87.56 -17.51 0 0 -15.92 19.1 0 0 -38.21 19.1 0 0 38.21 31.84 0 0 15.92 -31.84 0 0 84.37c0,11.14 6.37,17.51 17.51,17.51 3.18,0 7.96,0 12.73,-1.59l3.18 14.33c-6.37,3.18 -14.33,3.18 -22.29,3.18 -7.96,0 -14.33,-1.59 -20.69,-6.37 -7.96,-4.77 -11.14,-12.73 -11.14,-23.88l0 -0.01z"/>
  <path id="_16" class="fil0" d="M944.01 413.9l0 100.29 -20.69 0 0 -132.13 12.73 0 3.18 15.92c9.55,-6.37 15.92,-11.14 22.29,-14.33 4.77,-3.18 11.14,-4.77 19.1,-4.77 3.18,0 6.37,0 7.96,1.59l3.18 0 -3.18 19.1c-3.18,-1.59 -7.96,-1.59 -12.73,-1.59 -11.14,0 -22.29,4.77 -31.84,15.92l-0.01 0z"/>
  <path id="_17" class="fil0" d="M1098.42 480.76l0 -98.7 20.69 0 0 132.13 -12.73 0 -6.37 -14.33c-14.33,11.14 -27.06,15.92 -39.8,15.92 -14.33,0 -23.88,-3.18 -30.25,-11.14 -6.37,-6.37 -11.14,-17.51 -11.14,-31.84l0 -90.74 20.69 0 0 87.56c0,11.14 1.59,17.51 4.77,22.29 3.18,4.77 7.96,7.96 15.92,7.96 6.37,0 14.33,-3.18 20.69,-6.37 7.96,-3.18 14.33,-7.96 17.51,-12.73l0.01 -0.01z"/>
  <path id="_18" class="fil0" d="M1244.88 493.5l4.77 15.92c-14.33,4.77 -27.06,6.37 -38.21,6.37 -19.1,0 -33.43,-6.37 -42.98,-17.51 -9.55,-12.73 -14.33,-30.25 -14.33,-52.54 0,-20.69 4.77,-38.21 14.33,-49.35 11.14,-11.14 25.47,-17.51 44.57,-17.51 7.96,0 20.69,3.18 35.02,6.37l-7.96 15.92c-9.55,-3.18 -19.1,-4.77 -25.47,-4.77 -14.33,0 -23.88,4.77 -30.25,12.73 -4.77,7.96 -7.96,20.69 -7.96,36.61 0,35.02 12.73,52.54 36.61,52.54 9.55,0 20.69,-1.59 31.84,-4.77l0.01 0.01z"/>
  <path id="_19" class="fil0" d="M1284.68 485.53l0 -87.56 -17.51 0 0 -15.92 19.1 0 0 -38.21 19.1 0 0 38.21 31.84 0 0 15.92 -31.84 0 0 84.37c0,11.14 6.37,17.51 17.51,17.51 3.18,0 7.96,0 12.73,-1.59l3.18 14.33c-6.37,3.18 -14.33,3.18 -22.29,3.18 -7.96,0 -14.33,-1.59 -20.69,-6.37 -7.96,-4.77 -11.14,-12.73 -11.14,-23.88l0 -0.01z"/>
  <path id="_20" class="fil0" d="M1450.24 480.76l0 -98.7 20.69 0 0 132.13 -12.73 0 -6.37 -14.33c-14.33,11.14 -27.06,15.92 -39.8,15.92 -14.33,0 -23.88,-3.18 -30.25,-11.14 -6.37,-6.37 -11.14,-17.51 -11.14,-31.84l0 -90.74 20.69 0 0 87.56c0,11.14 1.59,17.51 4.77,22.29 3.18,4.77 7.96,7.96 15.92,7.96 6.37,0 14.33,-3.18 20.69,-6.37 7.96,-3.18 14.33,-7.96 17.51,-12.73l0.01 -0.01z"/>
  <path id="_21" class="fil0" d="M1539.38 413.9l0 100.29 -20.69 0 0 -132.13 12.73 0 3.18 15.92c7.96,-6.37 15.92,-11.14 20.69,-14.33 6.37,-3.18 12.73,-4.77 20.69,-4.77 3.18,0 4.77,0 7.96,1.59l3.18 0 -3.18 19.1c-3.18,-1.59 -7.96,-1.59 -12.73,-1.59 -11.14,0 -22.29,4.77 -31.84,15.92z"/>
  <path id="_22" class="fil0" d="M1709.72 452.11l-84.37 0c0,17.51 3.18,30.25 11.14,36.61 7.96,6.37 19.1,11.14 30.25,11.14 6.37,0 11.14,0 14.33,-1.59 1.59,0 4.77,-1.59 6.37,-1.59 1.59,0 3.18,-1.59 4.77,-1.59 4.77,-1.59 7.96,-1.59 11.14,-3.18l3.18 15.92c-17.51,4.77 -31.84,7.96 -41.39,7.96 -17.51,0 -33.43,-4.77 -44.57,-15.92 -9.55,-11.14 -15.92,-27.06 -15.92,-49.35 0,-22.29 4.77,-39.8 15.92,-52.54 9.55,-12.73 23.88,-19.1 39.8,-19.1 15.92,0 27.06,4.77 36.61,15.92 9.55,9.55 12.73,23.88 12.73,41.39 0,4.77 0,11.14 0,15.92zm-84.37 -14.33l65.27 0c0,-12.73 -1.59,-23.88 -6.37,-30.25 -4.77,-7.96 -12.73,-11.14 -23.88,-11.14 -11.14,0 -20.69,3.18 -25.47,11.14 -4.77,7.96 -7.96,17.51 -9.55,30.25z"/>
  <path id="_23" class="fil0" d="M1743.15 491.9c11.14,4.77 22.29,7.96 31.84,7.96 11.14,0 19.1,-3.18 23.88,-6.37 6.37,-4.77 7.96,-9.55 7.96,-17.51 0,-6.37 -1.59,-12.73 -6.37,-15.92 -4.77,-3.18 -11.14,-6.37 -17.51,-9.55 -6.37,-1.59 -12.73,-3.18 -19.1,-6.37 -6.37,-1.59 -12.73,-6.37 -17.51,-11.14 -4.77,-4.77 -6.37,-11.14 -6.37,-19.1 0,-11.14 3.18,-19.1 11.14,-25.47 6.37,-6.37 15.92,-9.55 28.65,-9.55 12.73,0 23.88,1.59 35.02,6.37l1.59 0 -3.18 17.51c-11.14,-4.77 -20.69,-6.37 -30.25,-6.37 -7.96,0 -14.33,1.59 -17.51,4.77 -4.77,3.18 -6.37,7.96 -6.37,14.33 0,3.18 3.18,7.96 7.96,11.14 4.77,3.18 9.55,4.77 15.92,7.96 6.37,1.59 14.33,4.77 20.69,6.37 6.37,3.18 12.73,7.96 15.92,14.33 4.77,4.77 7.96,12.73 7.96,20.69 0,12.73 -4.77,22.29 -12.73,30.25 -9.55,6.37 -20.69,9.55 -36.61,9.55 -15.92,0 -28.65,-3.18 -41.39,-9.55l6.37 -14.33 0.03 0z"/>
  <path class="fil1 str0" d="M1303.78 859.64l-54.13 97.11 -54.13 -97.11m54.13 -237.2l0 318.38"/>
  <path class="fil0" d="M382.06 1139.82l-28.65 0 0 78 -19.1 0 0 -186.25 52.54 0c20.69,0 35.02,4.77 44.57,14.33 7.96,7.96 12.73,20.69 12.73,39.8 0,19.1 -6.37,31.84 -15.92,41.39 -11.14,7.96 -27.06,12.73 -46.17,12.73zm-3.18 -90.74l-25.47 0 0 73.23 19.1 0c17.51,0 30.25,-1.59 39.8,-7.96 7.96,-4.77 11.14,-14.33 11.14,-27.06 0,-14.33 -3.18,-23.88 -9.55,-30.25 -7.96,-4.77 -19.1,-7.96 -35.02,-7.96z"/>
  <path id="_1_14" class="fil0" d="M569.91 1155.73l-84.37 0c0,17.51 4.77,28.65 12.73,36.61 7.96,6.37 17.51,11.14 30.25,11.14 6.37,0 9.55,-1.59 12.73,-1.59 1.59,0 4.77,-1.59 6.37,-1.59 3.18,-1.59 4.77,-1.59 4.77,-1.59 4.77,-1.59 7.96,-3.18 11.14,-3.18l3.18 14.33c-17.51,6.37 -30.25,9.55 -41.39,9.55 -17.51,0 -31.84,-4.77 -42.98,-15.92 -11.14,-11.14 -17.51,-28.65 -17.51,-50.94 0,-22.29 6.37,-38.21 15.92,-50.94 11.14,-12.73 23.88,-19.1 39.8,-19.1 15.92,0 28.65,4.77 36.61,15.92 9.55,9.55 14.33,23.88 14.33,41.39 0,4.77 0,9.55 -1.59,15.92l0.01 -0.01zm-82.78 -14.33l65.27 0c0,-14.33 -3.18,-23.88 -7.96,-30.25 -4.77,-7.96 -12.73,-11.14 -23.88,-11.14 -11.14,0 -19.1,3.18 -25.47,11.14 -4.77,7.96 -7.96,17.51 -7.96,30.25z"/>
  <path id="_2_15" class="fil0" d="M628.81 1115.94l0 101.88 -20.69 0 0 -132.13 12.73 0 3.18 15.92c7.96,-7.96 15.92,-12.73 20.69,-14.33 6.37,-3.18 12.73,-4.77 20.69,-4.77 3.18,0 6.37,0 7.96,0l3.18 1.59 -3.18 19.1c-3.18,-1.59 -7.96,-1.59 -12.73,-1.59 -11.14,0 -22.29,4.77 -31.84,14.33z"/>
  <path id="_3_16" class="fil0" d="M713.18 1085.69l0 -25.47c0,-11.14 3.18,-19.1 9.55,-23.88 6.37,-4.77 14.33,-6.37 20.69,-6.37 7.96,0 15.92,0 23.88,3.18l-3.18 14.33c-6.37,-1.59 -11.14,-1.59 -12.73,-1.59 -12.73,0 -19.1,6.37 -19.1,17.51l0 22.29 27.06 0 0 15.92 -27.06 0 0 116.21 -19.1 0 0 -116.21 -20.69 0 0 -15.92 20.69 0 0.01 -0.01z"/>
  <path id="_4_17" class="fil0" d="M866 1152.55c0,-17.51 -3.18,-30.25 -9.55,-39.8 -6.37,-7.96 -17.51,-12.73 -30.25,-12.73 -12.73,0 -22.29,4.77 -27.06,12.73 -4.77,7.96 -7.96,22.29 -7.96,39.8 0,33.43 12.73,49.35 36.61,49.35 12.73,0 22.29,-3.18 28.65,-11.14 6.37,-7.96 9.55,-20.69 9.55,-38.21l0.01 0zm4.77 49.35c-9.55,12.73 -23.88,17.51 -42.98,17.51 -17.51,0 -31.84,-4.77 -41.39,-17.51 -9.55,-11.14 -15.92,-28.65 -15.92,-50.94 0,-20.69 4.77,-38.21 14.33,-49.35 9.55,-12.73 23.88,-19.1 42.98,-19.1 17.51,0 31.84,6.37 42.98,19.1 9.55,12.73 15.92,28.65 15.92,50.94 0,20.69 -4.77,36.61 -15.92,49.35z"/>
  <path id="_5_18" class="fil0" d="M942.42 1115.94l0 101.88 -20.69 0 0 -132.13 12.73 0 3.18 15.92c9.55,-7.96 15.92,-12.73 22.29,-14.33 4.77,-3.18 11.14,-4.77 19.1,-4.77 3.18,0 6.37,0 7.96,0l3.18 1.59 -3.18 19.1c-3.18,-1.59 -7.96,-1.59 -12.73,-1.59 -11.14,0 -22.29,4.77 -31.84,14.33l-0.01 0z"/>
  <path id="_6_19" class="fil0" d="M1076.14 1082.51c17.51,0 30.25,6.37 36.61,17.51 15.92,-11.14 28.65,-17.51 41.39,-17.51 14.33,0 23.88,3.18 31.84,11.14 7.96,6.37 12.73,17.51 12.73,30.25l0 93.92 -19.1 0 0 -84.37c0,-11.14 -3.18,-19.1 -7.96,-25.47 -4.77,-4.77 -11.14,-7.96 -19.1,-7.96 -11.14,0 -22.29,4.77 -35.02,12.73 1.59,4.77 1.59,7.96 1.59,11.14l0 93.92 -19.1 0 0 -84.37c0,-11.14 -1.59,-19.1 -7.96,-25.47 -4.77,-4.77 -11.14,-7.96 -19.1,-7.96 -4.77,0 -9.55,0 -14.33,1.59 -4.77,1.59 -7.96,3.18 -9.55,4.77 -3.18,1.59 -4.77,3.18 -7.96,6.37l0 105.07 -20.69 0 0 -132.13 12.73 0 3.18 12.73c4.77,-3.18 7.96,-6.37 11.14,-7.96 1.59,-1.59 6.37,-3.18 11.14,-4.77 6.37,-1.59 11.14,-3.18 17.51,-3.18l0 0.01z"/>
  <path id="_7_20" class="fil0" d="M1370.64 1138.23l11.14 0c0,-15.92 -1.59,-25.47 -6.37,-30.25 -4.77,-6.37 -12.73,-7.96 -27.06,-7.96 -14.33,0 -25.47,1.59 -35.02,4.77l-4.77 -14.33c15.92,-4.77 30.25,-7.96 46.17,-7.96 31.84,0 47.76,15.92 47.76,47.76l0 87.56 -12.73 0 -6.37 -15.92c-7.96,7.96 -15.92,12.73 -20.69,14.33 -6.37,3.18 -12.73,3.18 -20.69,3.18 -12.73,0 -22.29,-3.18 -28.65,-11.14 -7.96,-6.37 -11.14,-15.92 -11.14,-28.65 0,-27.06 22.29,-41.39 68.45,-41.39l-0.01 0zm11.14 17.51l-12.73 0c-17.51,0 -30.25,1.59 -36.61,4.77 -6.37,3.18 -9.55,9.55 -9.55,17.51 0,6.37 1.59,12.73 4.77,17.51 4.77,4.77 9.55,7.96 15.92,7.96 6.37,0 12.73,-1.59 17.51,-4.77 6.37,-3.18 12.73,-7.96 20.69,-15.92l0 -27.06 -0.01 -0.01z"/>
  <path id="_8_21" class="fil0" d="M1611.02 1039.52l-4.77 17.51 -15.92 -4.77c-11.14,-3.18 -20.69,-4.77 -28.65,-4.77 -20.69,0 -30.25,9.55 -30.25,28.65 0,7.96 3.18,14.33 9.55,20.69 6.37,4.77 14.33,7.96 22.29,11.14 9.55,3.18 19.1,6.37 28.65,11.14 7.96,3.18 15.92,9.55 22.29,15.92 6.37,7.96 9.55,17.51 9.55,28.65 0,17.51 -4.77,31.84 -15.92,41.39 -11.14,9.55 -25.47,14.33 -46.17,14.33 -9.55,0 -19.1,-1.59 -30.25,-3.18 -9.55,-3.18 -17.51,-6.37 -23.88,-11.14l6.37 -14.33c15.92,6.37 31.84,11.14 46.17,11.14 14.33,0 25.47,-3.18 33.43,-9.55 6.37,-6.37 11.14,-14.33 11.14,-25.47 0,-11.14 -6.37,-20.69 -19.1,-27.06 -4.77,-1.59 -11.14,-4.77 -17.51,-7.96 -7.96,-1.59 -14.33,-4.77 -20.69,-7.96 -6.37,-3.18 -12.73,-6.37 -17.51,-9.55 -6.37,-3.18 -9.55,-9.55 -14.33,-15.92 -3.18,-6.37 -4.77,-12.73 -4.77,-22.29 0,-14.33 4.77,-27.06 14.33,-35.02 9.55,-7.96 20.69,-11.14 36.61,-11.14 15.92,0 31.84,3.18 49.35,9.55z"/>
  <path id="_9_22" class="fil0" d="M1660.37 1217.82l0 -132.13 19.1 0 0 132.13 -19.1 0zm19.1 -186.25l0 23.88 -19.1 0 0 -23.88 19.1 0z"/>
  <path id="_10_23" class="fil0" d="M1744.74 1112.75l0 105.07 -20.69 0 0 -132.13 12.73 0 3.18 12.73c4.77,-3.18 7.96,-6.37 9.55,-7.96 3.18,-1.59 6.37,-3.18 12.73,-4.77 6.37,-1.59 11.14,-3.18 17.51,-3.18 12.73,0 22.29,3.18 31.84,11.14 7.96,7.96 11.14,19.1 11.14,31.84l0 92.33 -19.1 0 0 -85.96c0,-20.69 -9.55,-31.84 -27.06,-31.84 -12.73,0 -23.88,4.77 -31.84,12.73z"/>
  <path id="_11_24" class="fil0" d="M1946.91 1203.49c-14.33,11.14 -28.65,15.92 -41.39,15.92 -31.84,0 -47.76,-22.29 -47.76,-68.45 0,-25.47 6.37,-44.57 17.51,-54.13 9.55,-9.55 22.29,-14.33 36.61,-14.33 14.33,0 27.06,6.37 36.61,19.1l6.37 -15.92 12.73 0 0 138.5c0,20.69 -4.77,35.02 -14.33,44.57 -9.55,7.96 -23.88,12.73 -39.8,12.73 -7.96,0 -15.92,0 -22.29,-3.18 -6.37,-1.59 -12.73,-3.18 -20.69,-6.37l4.77 -14.33c14.33,4.77 27.06,7.96 36.61,7.96 9.55,0 19.1,-3.18 25.47,-9.55 6.37,-6.37 9.55,-15.92 9.55,-28.65l0 -23.88 0.01 0.01zm0 -19.1l0 -49.35c0,-9.55 -3.18,-19.1 -11.14,-25.47 -6.37,-6.37 -12.73,-9.55 -20.69,-9.55 -14.33,0 -23.88,3.18 -28.65,12.73 -6.37,7.96 -7.96,20.69 -7.96,38.21 0,35.02 9.55,52.54 28.65,52.54 12.73,0 25.47,-6.37 39.8,-19.1z"/>
  <polygon id="_12_25" class="fil0" points="2015.37,1217.82 2015.37,1031.56 2036.06,1031.56 2036.06,1217.82 "/>
  <path id="_13_26" class="fil0" d="M2176.15 1155.73l-84.37 0c0,17.51 3.18,28.65 11.14,36.61 7.96,6.37 19.1,11.14 30.25,11.14 6.37,0 11.14,-1.59 14.33,-1.59 1.59,0 4.77,-1.59 6.37,-1.59 1.59,-1.59 3.18,-1.59 4.77,-1.59 4.77,-1.59 7.96,-3.18 11.14,-3.18l3.18 14.33c-17.51,6.37 -31.84,9.55 -41.39,9.55 -17.51,0 -33.43,-4.77 -42.98,-15.92 -11.14,-11.14 -17.51,-28.65 -17.51,-50.94 0,-22.29 4.77,-38.21 15.92,-50.94 9.55,-12.73 23.88,-19.1 39.8,-19.1 15.92,0 27.06,4.77 36.61,15.92 9.55,9.55 12.73,23.88 12.73,41.39 0,4.77 0,9.55 0,15.92l0.01 -0.01zm-82.78 -14.33l63.67 0c0,-14.33 -1.59,-23.88 -6.37,-30.25 -4.77,-7.96 -12.73,-11.14 -23.88,-11.14 -11.14,0 -20.69,3.18 -25.47,11.14 -4.77,7.96 -7.96,17.51 -7.96,30.25l0.01 0z"/>
  <path id="_14_27" class="fil0" d="M383.65 1548.94c-25.47,0 -46.17,-9.55 -58.9,-25.47 -14.33,-17.51 -20.69,-41.39 -20.69,-70.04 0,-28.65 7.96,-52.54 22.29,-70.04 14.33,-15.92 33.43,-25.47 58.9,-25.47 14.33,0 28.65,3.18 42.98,7.96l-4.77 17.51c-11.14,-4.77 -23.88,-7.96 -38.21,-7.96 -19.1,0 -33.43,6.37 -44.57,20.69 -11.14,12.73 -15.92,31.84 -15.92,55.71 0,23.88 4.77,42.98 14.33,57.31 11.14,14.33 25.47,22.29 42.98,22.29 12.73,0 27.06,-3.18 46.17,-11.14l4.77 14.33c-15.92,9.55 -31.84,14.33 -49.35,14.33l-0.01 0z"/>
  <path id="_15_28" class="fil0" d="M528.52 1467.75l11.14 0c0,-15.92 -3.18,-27.06 -6.37,-31.84 -4.77,-4.77 -14.33,-7.96 -27.06,-7.96 -14.33,0 -27.06,3.18 -36.61,6.37l-3.18 -15.92c14.33,-4.77 30.25,-6.37 46.17,-6.37 31.84,0 46.17,14.33 46.17,46.17l0 89.15 -11.14 0 -6.37 -15.92c-7.96,6.37 -15.92,11.14 -22.29,14.33 -4.77,1.59 -12.73,3.18 -20.69,3.18 -11.14,0 -20.69,-4.77 -28.65,-11.14 -6.37,-7.96 -9.55,-17.51 -9.55,-28.65 0,-28.65 22.29,-41.39 68.45,-41.39l-0.01 -0.01zm11.14 15.92l-12.73 0c-17.51,0 -30.25,1.59 -36.61,6.37 -7.96,3.18 -11.14,7.96 -11.14,15.92 0,7.96 1.59,14.33 6.37,19.1 3.18,4.77 9.55,6.37 15.92,6.37 4.77,0 11.14,-1.59 17.51,-4.77 6.37,-1.59 12.73,-7.96 20.69,-14.33l0 -28.65 -0.01 -0.01z"/>
  <polygon id="_16_29" class="fil0" points="608.12,1547.35 608.12,1361.09 627.22,1361.09 627.22,1547.35 "/>
  <path id="_17_30" class="fil0" d="M754.57 1526.65l3.18 15.92c-14.33,3.18 -25.47,6.37 -36.61,6.37 -19.1,0 -33.43,-6.37 -42.98,-19.1 -9.55,-12.73 -14.33,-30.25 -14.33,-50.94 0,-22.29 4.77,-38.21 14.33,-50.94 9.55,-11.14 25.47,-15.92 44.57,-15.92 7.96,0 19.1,1.59 35.02,6.37l-7.96 14.33c-9.55,-3.18 -19.1,-3.18 -27.06,-3.18 -12.73,0 -22.29,3.18 -28.65,11.14 -6.37,7.96 -9.55,20.69 -9.55,38.21 0,35.02 12.73,52.54 38.21,52.54 9.55,0 20.69,-1.59 31.84,-4.77l-0.01 -0.01z"/>
  <path id="_18_31" class="fil0" d="M867.59 1513.91l0 -100.29 20.69 0 0 133.72 -12.73 0 -6.37 -15.92c-14.33,11.14 -27.06,17.51 -41.39,17.51 -12.73,0 -22.29,-4.77 -28.65,-11.14 -6.37,-7.96 -11.14,-19.1 -11.14,-31.84l0 -92.33 20.69 0 0 89.15c0,9.55 1.59,17.51 4.77,22.29 3.18,4.77 7.96,6.37 15.92,6.37 6.37,0 14.33,-1.59 20.69,-6.37 7.96,-3.18 12.73,-7.96 17.51,-11.14l0.01 0z"/>
  <polygon id="_19_32" class="fil0" points="936.05,1547.35 936.05,1361.09 955.15,1361.09 955.15,1547.35 "/>
  <path id="_20_33" class="fil0" d="M1061.81 1467.75l11.14 0c0,-15.92 -3.18,-27.06 -6.37,-31.84 -4.77,-4.77 -12.73,-7.96 -27.06,-7.96 -14.33,0 -25.47,3.18 -35.02,6.37l-4.77 -15.92c15.92,-4.77 30.25,-6.37 46.17,-6.37 31.84,0 47.76,14.33 47.76,46.17l0 89.15 -12.73 0 -6.37 -15.92c-7.96,6.37 -15.92,11.14 -20.69,14.33 -6.37,1.59 -12.73,3.18 -20.69,3.18 -12.73,0 -22.29,-4.77 -28.65,-11.14 -7.96,-7.96 -11.14,-17.51 -11.14,-28.65 0,-28.65 22.29,-41.39 68.45,-41.39l-0.01 -0.01zm11.14 15.92l-12.73 0c-17.51,0 -30.25,1.59 -36.61,6.37 -6.37,3.18 -9.55,7.96 -9.55,15.92 0,7.96 1.59,14.33 4.77,19.1 4.77,4.77 9.55,6.37 15.92,6.37 6.37,0 12.73,-1.59 17.51,-4.77 6.37,-1.59 12.73,-7.96 20.69,-14.33l0 -28.65 -0.01 -0.01z"/>
  <path id="_21_34" class="fil0" d="M1144.59 1518.69l0 -89.15 -17.51 0 0 -15.92 17.51 0 0 -38.21 20.69 0 0 38.21 31.84 0 0 15.92 -31.84 0 0 84.37c0,12.73 4.77,19.1 17.51,19.1 3.18,0 6.37,-1.59 12.73,-1.59l3.18 14.33c-7.96,1.59 -14.33,3.18 -22.29,3.18 -7.96,0 -15.92,-3.18 -22.29,-7.96 -6.37,-4.77 -9.55,-11.14 -9.55,-22.29l0 -0.01z"/>
  <path id="_22_35" class="fil0" d="M1230.55 1547.35l0 -133.72 19.1 0 0 133.72 -19.1 0zm19.1 -186.25l0 23.88 -19.1 0 0 -23.88 19.1 0z"/>
  <path id="_23_36" class="fil0" d="M1377.01 1482.08c0,-17.51 -4.77,-30.25 -11.14,-39.8 -6.37,-9.55 -15.92,-14.33 -28.65,-14.33 -12.73,0 -22.29,4.77 -28.65,14.33 -4.77,7.96 -7.96,20.69 -7.96,38.21 0,33.43 12.73,50.94 36.61,50.94 14.33,0 23.88,-4.77 30.25,-12.73 6.37,-7.96 9.55,-20.69 9.55,-36.61l0 -0.01zm4.77 47.76c-11.14,12.73 -25.47,19.1 -42.98,19.1 -19.1,0 -33.43,-6.37 -42.98,-19.1 -9.55,-11.14 -14.33,-28.65 -14.33,-49.35 0,-22.29 4.77,-38.21 14.33,-50.94 9.55,-12.73 22.29,-17.51 41.39,-17.51 17.51,0 33.43,4.77 42.98,17.51 11.14,12.73 15.92,30.25 15.92,50.94 0,20.69 -4.77,38.21 -14.33,49.35z"/>
  <path id="_24" class="fil0" d="M1451.83 1440.69l0 106.66 -20.69 0 0 -133.72 12.73 0 3.18 12.73c4.77,-3.18 7.96,-4.77 11.14,-6.37 1.59,-1.59 6.37,-4.77 12.73,-6.37 4.77,-1.59 11.14,-1.59 17.51,-1.59 12.73,0 22.29,3.18 30.25,11.14 7.96,6.37 12.73,17.51 12.73,31.84l0 92.33 -20.69 0 0 -87.56c0,-20.69 -9.55,-31.84 -27.06,-31.84 -12.73,0 -23.88,4.77 -31.84,12.73l-0.01 0.01z"/>
  <path id="_25" class="fil0" d="M1712.9 1548.94c-25.47,0 -44.57,-9.55 -57.31,-25.47 -14.33,-17.51 -20.69,-41.39 -20.69,-70.04 0,-28.65 6.37,-52.54 20.69,-70.04 14.33,-15.92 35.02,-25.47 60.5,-25.47 14.33,0 28.65,3.18 41.39,7.96l-4.77 17.51c-9.55,-4.77 -22.29,-7.96 -38.21,-7.96 -17.51,0 -33.43,6.37 -42.98,20.69 -11.14,12.73 -17.51,31.84 -17.51,55.71 0,23.88 6.37,42.98 15.92,57.31 9.55,14.33 23.88,22.29 42.98,22.29 11.14,0 27.06,-3.18 44.57,-11.14l6.37 14.33c-15.92,9.55 -31.84,14.33 -50.94,14.33z"/>
  <path id="_26" class="fil0" d="M1824.34 1548.94l-44.57 -135.31 22.29 0 33.43 111.44 35.02 -111.44 22.29 0 -46.17 133.72c-6.37,17.51 -12.73,30.25 -19.1,39.8 -7.96,9.55 -15.92,17.51 -27.06,22.29l-7.96 -12.73c6.37,-4.77 12.73,-11.14 19.1,-19.1 6.37,-7.96 11.14,-17.51 12.73,-28.65l-0.01 0z"/>
  <path id="_27" class="fil0" d="M1997.86 1526.65l3.18 15.92c-14.33,3.18 -25.47,6.37 -36.61,6.37 -19.1,0 -33.43,-6.37 -42.98,-19.1 -9.55,-12.73 -14.33,-30.25 -14.33,-50.94 0,-22.29 4.77,-38.21 14.33,-50.94 9.55,-11.14 25.47,-15.92 44.57,-15.92 7.96,0 19.1,1.59 35.02,6.37l-7.96 14.33c-9.55,-3.18 -19.1,-3.18 -27.06,-3.18 -12.73,0 -22.29,3.18 -28.65,11.14 -6.37,7.96 -9.55,20.69 -9.55,38.21 0,35.02 12.73,52.54 38.21,52.54 9.55,0 20.69,-1.59 31.84,-4.77l-0.01 -0.01z"/>
  <polygon id="_28" class="fil0" points="2034.47,1547.35 2034.47,1361.09 2055.16,1361.09 2055.16,1547.35 "/>
  <path id="_29" class="fil0" d="M2195.25 1485.26l-84.37 0c0,15.92 3.18,28.65 11.14,35.02 7.96,7.96 19.1,11.14 30.25,11.14 6.37,0 11.14,0 14.33,-1.59 1.59,0 4.77,0 6.37,-1.59 1.59,0 3.18,0 4.77,-1.59 4.77,0 7.96,-1.59 11.14,-3.18l3.18 15.92c-17.51,6.37 -31.84,9.55 -41.39,9.55 -17.51,0 -33.43,-6.37 -44.57,-17.51 -9.55,-11.14 -15.92,-27.06 -15.92,-49.35 0,-22.29 4.77,-39.8 15.92,-52.54 9.55,-12.73 23.88,-17.51 39.8,-17.51 15.92,0 27.06,4.77 36.61,14.33 7.96,11.14 12.73,23.88 12.73,41.39 0,4.77 0,11.14 0,17.51zm-84.37 -15.92l65.27 0c0,-12.73 -1.59,-22.29 -6.37,-30.25 -4.77,-6.37 -12.73,-11.14 -23.88,-11.14 -11.14,0 -20.69,4.77 -25.47,12.73 -4.77,6.37 -7.96,17.51 -9.55,28.65l0 0.01z"/>
  <path class="fil1 str0" d="M1303.78 1905.53l-54.13 95.52 -54.13 -95.52m54.13 -238.78l0 318.38"/>
  <path class="fil0" d="M111.44 2281.22c-25.47,0 -44.57,-9.55 -57.31,-25.47 -14.33,-17.51 -20.69,-41.39 -20.69,-70.04 0,-28.65 6.37,-52.54 20.69,-70.04 14.33,-15.92 35.02,-25.47 60.5,-25.47 14.33,0 28.65,3.18 41.39,7.96l-4.77 15.92c-9.55,-3.18 -22.29,-6.37 -38.21,-6.37 -17.51,0 -33.43,6.37 -42.98,20.69 -11.14,12.73 -17.51,31.84 -17.51,55.71 0,23.88 6.37,42.98 15.92,57.31 9.55,14.33 23.88,22.29 42.98,22.29 11.14,0 27.06,-3.18 44.57,-11.14l6.37 14.33c-15.92,9.55 -31.84,14.33 -50.94,14.33l0 0.01z"/>
  <path id="_1_37" class="fil0" d="M299.28 2279.63l-20.69 0 0 -87.56c0,-22.29 -7.96,-31.84 -27.06,-31.84 -12.73,0 -23.88,3.18 -31.84,12.73l0 106.66 -20.69 0 0 -186.25 20.69 0 0 62.08c3.18,-3.18 6.37,-4.77 7.96,-6.37 3.18,-1.59 6.37,-3.18 11.14,-4.77 4.77,-1.59 11.14,-1.59 17.51,-1.59 12.73,0 22.29,3.18 30.25,11.14 7.96,7.96 12.73,17.51 12.73,31.84l0 93.92 -0.01 0.01z"/>
  <path id="_2_38" class="fil0" d="M439.37 2217.54l-84.37 0c0,15.92 3.18,28.65 11.14,35.02 7.96,7.96 19.1,11.14 31.84,11.14 4.77,0 9.55,0 12.73,-1.59 1.59,0 4.77,0 6.37,-1.59 3.18,0 4.77,0 4.77,-1.59 4.77,0 7.96,-1.59 11.14,-3.18l3.18 15.92c-17.51,6.37 -31.84,9.55 -41.39,9.55 -17.51,0 -31.84,-6.37 -42.98,-17.51 -11.14,-11.14 -17.51,-27.06 -17.51,-49.35 0,-22.29 6.37,-39.8 15.92,-52.54 11.14,-12.73 23.88,-17.51 39.8,-17.51 15.92,0 28.65,4.77 36.61,14.33 9.55,11.14 12.73,23.88 12.73,41.39 0,4.77 0,11.14 0,17.51l0.01 0zm-82.78 -15.92l63.67 0c0,-12.73 -1.59,-23.88 -6.37,-30.25 -4.77,-6.37 -12.73,-11.14 -23.88,-11.14 -11.14,0 -19.1,4.77 -25.47,12.73 -4.77,6.37 -7.96,17.51 -7.96,28.65l0.01 0.01z"/>
  <path id="_3_39" class="fil0" d="M555.58 2258.93l3.18 15.92c-12.73,3.18 -25.47,6.37 -36.61,6.37 -19.1,0 -33.43,-6.37 -42.98,-19.1 -9.55,-12.73 -14.33,-30.25 -14.33,-50.94 0,-22.29 4.77,-39.8 14.33,-50.94 11.14,-11.14 25.47,-15.92 44.57,-15.92 7.96,0 19.1,1.59 35.02,6.37l-7.96 14.33c-9.55,-3.18 -19.1,-3.18 -27.06,-3.18 -12.73,0 -22.29,3.18 -28.65,11.14 -6.37,7.96 -7.96,20.69 -7.96,38.21 0,35.02 11.14,52.54 36.61,52.54 9.55,0 20.69,-1.59 31.84,-4.77l0 -0.01z"/>
  <polygon id="_4_40" class="fil0" points="592.2,2093.37 612.89,2093.37 612.89,2203.22 668.6,2145.91 694.08,2145.91 638.36,2200.03 697.26,2279.63 674.97,2279.63 627.22,2212.77 612.89,2227.1 612.89,2279.63 592.2,2279.63 "/>
  <path id="_5_41" class="fil0" d="M888.29 2099.74l-4.77 17.51 -15.92 -4.77c-11.14,-1.59 -19.1,-3.18 -27.06,-3.18 -22.29,0 -31.84,9.55 -31.84,27.06 0,7.96 3.18,15.92 9.55,20.69 6.37,4.77 14.33,9.55 22.29,12.73 9.55,3.18 19.1,6.37 28.65,9.55 7.96,3.18 15.92,9.55 22.29,17.51 6.37,6.37 9.55,15.92 9.55,28.65 0,17.51 -4.77,30.25 -15.92,39.8 -11.14,11.14 -25.47,15.92 -46.17,15.92 -9.55,0 -19.1,-1.59 -30.25,-4.77 -9.55,-3.18 -17.51,-6.37 -23.88,-9.55l6.37 -15.92c15.92,7.96 31.84,11.14 46.17,11.14 14.33,0 25.47,-3.18 33.43,-9.55 6.37,-4.77 11.14,-14.33 11.14,-25.47 0,-11.14 -6.37,-19.1 -19.1,-25.47 -4.77,-3.18 -11.14,-6.37 -17.51,-7.96 -6.37,-3.18 -14.33,-6.37 -20.69,-7.96 -6.37,-3.18 -12.73,-6.37 -17.51,-11.14 -6.37,-3.18 -9.55,-7.96 -12.73,-14.33 -4.77,-6.37 -6.37,-14.33 -6.37,-22.29 0,-15.92 4.77,-27.06 14.33,-35.02 9.55,-7.96 20.69,-12.73 36.61,-12.73 15.92,0 31.84,3.18 49.35,9.55l0 0.01z"/>
  <path id="_6_42" class="fil0" d="M1023.61 2214.36c0,-17.51 -3.18,-30.25 -11.14,-39.8 -6.37,-9.55 -15.92,-14.33 -28.65,-14.33 -12.73,0 -22.29,4.77 -28.65,12.73 -4.77,9.55 -7.96,22.29 -7.96,39.8 0,33.43 12.73,50.94 38.21,50.94 12.73,0 22.29,-4.77 28.65,-12.73 6.37,-7.96 9.55,-20.69 9.55,-36.61zm4.77 47.76c-11.14,12.73 -25.47,19.1 -42.98,19.1 -19.1,0 -33.43,-6.37 -42.98,-19.1 -9.55,-11.14 -14.33,-28.65 -14.33,-49.35 0,-22.29 4.77,-38.21 14.33,-50.94 9.55,-12.73 22.29,-17.51 41.39,-17.51 19.1,0 33.43,4.77 42.98,17.51 11.14,12.73 15.92,30.25 15.92,50.94 0,20.69 -4.77,38.21 -14.33,49.35z"/>
  <polygon id="_7_43" class="fil0" points="1079.32,2279.63 1079.32,2093.37 1098.42,2093.37 1098.42,2279.63 "/>
  <polygon id="_8_44" class="fil0" points="1238.51,2145.91 1193.94,2279.63 1170.06,2279.63 1125.49,2145.91 1147.78,2145.91 1182.8,2257.34 1216.22,2145.91 "/>
  <path id="_9_45" class="fil0" d="M1357.91 2217.54l-85.96 0c0,15.92 4.77,28.65 12.73,35.02 7.96,7.96 19.1,11.14 30.25,11.14 6.37,0 11.14,0 12.73,-1.59 3.18,0 4.77,0 7.96,-1.59 1.59,0 3.18,0 4.77,-1.59 4.77,0 7.96,-1.59 11.14,-3.18l3.18 15.92c-17.51,6.37 -31.84,9.55 -41.39,9.55 -19.1,0 -33.43,-6.37 -44.57,-17.51 -11.14,-11.14 -15.92,-27.06 -15.92,-49.35 0,-22.29 4.77,-39.8 15.92,-52.54 9.55,-12.73 22.29,-17.51 38.21,-17.51 15.92,0 28.65,4.77 38.21,14.33 7.96,11.14 12.73,23.88 12.73,41.39 0,4.77 0,11.14 0,17.51zm-84.37 -15.92l65.27 0c0,-12.73 -1.59,-23.88 -6.37,-30.25 -4.77,-6.37 -12.73,-11.14 -23.88,-11.14 -12.73,0 -20.69,4.77 -25.47,12.73 -6.37,6.37 -7.96,17.51 -9.55,28.65l0 0.01z"/>
  <polygon id="_10_46" class="fil0" points="1561.67,2279.63 1461.38,2279.63 1461.38,2093.37 1482.08,2093.37 1482.08,2262.12 1561.67,2262.12 "/>
  <path id="_11_47" class="fil0" d="M1583.96 2279.63l0 -133.72 19.1 0 0 133.72 -19.1 0zm19.1 -186.25l0 23.88 -19.1 0 0 -23.88 19.1 0z"/>
  <path id="_12_48" class="fil0" d="M1704.94 2142.72c15.92,0 28.65,6.37 36.61,19.1 14.33,-12.73 28.65,-19.1 41.39,-19.1 12.73,0 22.29,4.77 30.25,11.14 7.96,7.96 12.73,17.51 12.73,31.84l0 93.92 -19.1 0 0 -85.96c0,-11.14 -3.18,-19.1 -7.96,-25.47 -4.77,-4.77 -11.14,-7.96 -19.1,-7.96 -11.14,0 -22.29,4.77 -33.43,14.33 0,3.18 1.59,6.37 1.59,11.14l0 93.92 -20.69 0 0 -85.96c0,-11.14 -1.59,-19.1 -6.37,-25.47 -4.77,-4.77 -11.14,-7.96 -20.69,-7.96 -4.77,0 -9.55,1.59 -14.33,3.18 -4.77,0 -7.96,1.59 -9.55,3.18 -1.59,1.59 -4.77,3.18 -7.96,6.37l0 106.66 -20.69 0 0 -133.72 12.73 0 4.77 14.33c3.18,-4.77 6.37,-6.37 9.55,-7.96 1.59,-1.59 6.37,-4.77 11.14,-6.37 6.37,-1.59 12.73,-3.18 19.1,-3.18l0.01 0z"/>
  <path id="_13_49" class="fil0" d="M1870.51 2279.63l0 -133.72 20.69 0 0 133.72 -20.69 0zm20.69 -186.25l0 23.88 -20.69 0 0 -23.88 20.69 0z"/>
  <path id="_14_50" class="fil0" d="M1937.36 2250.97l0 -89.15 -17.51 0 0 -15.92 19.1 0 0 -38.21 19.1 0 0 38.21 33.43 0 0 15.92 -33.43 0 0 84.37c0,12.73 6.37,19.1 17.51,19.1 3.18,0 7.96,-1.59 14.33,-1.59l1.59 14.33c-6.37,1.59 -14.33,3.18 -22.29,3.18 -7.96,0 -14.33,-3.18 -20.69,-7.96 -6.37,-4.77 -11.14,-12.73 -11.14,-22.29l0 -0.01z"/>
  <path id="_15_51" class="fil0" d="M2021.74 2255.75c11.14,4.77 22.29,7.96 33.43,7.96 9.55,0 17.51,-1.59 23.88,-6.37 4.77,-4.77 7.96,-9.55 7.96,-17.51 0,-6.37 -3.18,-11.14 -7.96,-15.92 -3.18,-3.18 -9.55,-6.37 -15.92,-7.96 -6.37,-3.18 -12.73,-4.77 -20.69,-7.96 -6.37,-1.59 -11.14,-4.77 -15.92,-11.14 -4.77,-4.77 -7.96,-11.14 -7.96,-17.51 0,-11.14 4.77,-20.69 11.14,-27.06 7.96,-6.37 17.51,-7.96 30.25,-7.96 12.73,0 23.88,1.59 35.02,4.77l1.59 1.59 -3.18 15.92c-11.14,-3.18 -20.69,-6.37 -30.25,-6.37 -9.55,0 -15.92,1.59 -19.1,4.77 -3.18,3.18 -4.77,7.96 -4.77,14.33 0,4.77 1.59,7.96 6.37,11.14 4.77,3.18 11.14,4.77 17.51,7.96 6.37,1.59 12.73,4.77 19.1,7.96 7.96,3.18 12.73,6.37 17.51,12.73 4.77,6.37 6.37,12.73 6.37,20.69 0,12.73 -3.18,22.29 -12.73,30.25 -7.96,6.37 -20.69,11.14 -35.02,11.14 -15.92,0 -28.65,-3.18 -41.39,-11.14l4.77 -14.33 -0.01 0.02z"/>
  <path id="_16_52" class="fil0" d="M2215.95 2145.91l0 -25.47c0,-11.14 3.18,-19.1 9.55,-22.29 6.37,-4.77 12.73,-7.96 20.69,-7.96 7.96,0 15.92,1.59 22.29,3.18l-1.59 14.33c-6.37,0 -11.14,-1.59 -14.33,-1.59 -11.14,0 -17.51,6.37 -17.51,17.51l0 22.29 27.06 0 0 15.92 -27.06 0 0 117.8 -20.69 0 0 -117.8 -20.69 0 0 -15.92 22.29 0 0 -0.01z"/>
  <path id="_17_53" class="fil0" d="M2368.77 2214.36c0,-17.51 -3.18,-30.25 -9.55,-39.8 -7.96,-9.55 -17.51,-14.33 -30.25,-14.33 -12.73,0 -22.29,4.77 -27.06,12.73 -4.77,9.55 -7.96,22.29 -7.96,39.8 0,33.43 12.73,50.94 36.61,50.94 12.73,0 22.29,-4.77 28.65,-12.73 6.37,-7.96 9.55,-20.69 9.55,-36.61l0.01 0zm4.77 47.76c-9.55,12.73 -23.88,19.1 -42.98,19.1 -17.51,0 -31.84,-6.37 -41.39,-19.1 -11.14,-11.14 -15.92,-28.65 -15.92,-49.35 0,-22.29 4.77,-38.21 14.33,-50.94 9.55,-12.73 23.88,-17.51 41.39,-17.51 19.1,0 33.43,4.77 44.57,17.51 9.55,12.73 15.92,30.25 15.92,50.94 0,20.69 -6.37,38.21 -15.92,49.35z"/>
  <path id="_18_54" class="fil0" d="M2445.19 2177.74l0 101.88 -20.69 0 0 -133.72 12.73 0 3.18 15.92c7.96,-6.37 15.92,-11.14 20.69,-14.33 6.37,-3.18 12.73,-3.18 20.69,-3.18 3.18,0 4.77,0 7.96,0l3.18 1.59 -3.18 17.51c-3.18,-1.59 -7.96,-1.59 -12.73,-1.59 -11.14,0 -22.29,4.77 -31.84,15.92z"/>
  <polygon id="_19_55" class="fil0" points="52.54,2607.56 52.54,2438.82 -0,2438.82 -0,2421.31 124.17,2421.31 124.17,2438.82 71.64,2438.82 71.64,2607.56 "/>
  <path id="_20_56" class="fil0" d="M245.15 2545.48l-84.37 0c0,17.51 3.18,28.65 11.14,36.61 9.55,6.37 19.1,9.55 31.84,9.55 4.77,0 9.55,0 12.73,0 1.59,0 4.77,-1.59 6.37,-1.59 3.18,-1.59 4.77,-1.59 4.77,-1.59 4.77,-1.59 7.96,-3.18 11.14,-3.18l3.18 14.33c-17.51,6.37 -30.25,9.55 -41.39,9.55 -17.51,0 -31.84,-4.77 -42.98,-15.92 -11.14,-11.14 -17.51,-28.65 -17.51,-50.94 0,-22.29 6.37,-39.8 15.92,-50.94 11.14,-12.73 23.88,-19.1 39.8,-19.1 15.92,0 28.65,4.77 36.61,15.92 9.55,9.55 12.73,23.88 12.73,41.39 0,4.77 0,9.55 0,15.92l0.01 0zm-82.78 -14.33l63.67 0c0,-14.33 -1.59,-23.88 -6.37,-30.25 -4.77,-7.96 -12.73,-11.14 -23.88,-11.14 -11.14,0 -19.1,3.18 -25.47,11.14 -4.77,7.96 -7.96,17.51 -7.96,30.25l0.01 0z"/>
  <path id="_21_57" class="fil0" d="M302.47 2505.68l0 101.88 -19.1 0 0 -132.13 12.73 0 3.18 15.92c7.96,-7.96 15.92,-12.73 20.69,-14.33 6.37,-3.18 12.73,-4.77 19.1,-4.77 4.77,0 6.37,0 7.96,0l4.77 1.59 -3.18 19.1c-3.18,-1.59 -7.96,-1.59 -12.73,-1.59 -11.14,0 -22.29,4.77 -33.43,14.33l0.01 0z"/>
  <path id="_22_58" class="fil0" d="M437.78 2472.25c17.51,0 28.65,6.37 36.61,17.51 14.33,-11.14 28.65,-17.51 41.39,-17.51 12.73,0 23.88,3.18 31.84,11.14 7.96,6.37 11.14,17.51 11.14,30.25l0 93.92 -19.1 0 0 -85.96c0,-9.55 -1.59,-19.1 -6.37,-23.88 -4.77,-6.37 -11.14,-7.96 -20.69,-7.96 -11.14,0 -22.29,3.18 -33.43,12.73 1.59,3.18 1.59,7.96 1.59,11.14l0 93.92 -19.1 0 0 -85.96c0,-9.55 -3.18,-19.1 -7.96,-23.88 -4.77,-6.37 -11.14,-7.96 -19.1,-7.96 -4.77,0 -9.55,0 -14.33,1.59 -4.77,1.59 -7.96,3.18 -9.55,4.77 -3.18,1.59 -4.77,3.18 -9.55,6.37l0 105.07 -19.1 0 0 -132.13 12.73 0 3.18 12.73c4.77,-3.18 7.96,-6.37 9.55,-7.96 3.18,-1.59 6.37,-3.18 12.73,-4.77 4.77,-3.18 11.14,-3.18 17.51,-3.18l0.01 0z"/>
  <path id="_23_59" class="fil0" d="M604.93 2607.56l0 -132.13 19.1 0 0 132.13 -19.1 0zm19.1 -186.25l0 23.88 -19.1 0 0 -23.88 19.1 0z"/>
  <path id="_24_60" class="fil0" d="M687.71 2502.5l0 105.07 -19.1 0 0 -132.13 12.73 0 3.18 12.73c4.77,-3.18 7.96,-6.37 9.55,-7.96 3.18,-1.59 6.37,-3.18 12.73,-4.77 6.37,-1.59 11.14,-3.18 17.51,-3.18 12.73,0 22.29,3.18 30.25,11.14 9.55,7.96 12.73,19.1 12.73,31.84l0 92.33 -19.1 0 0 -85.96c0,-22.29 -9.55,-31.84 -27.06,-31.84 -12.73,0 -23.88,3.18 -33.43,12.73l0.01 0z"/>
  <path id="_25_61" class="fil0" d="M873.96 2527.97l9.55 0c0,-15.92 -1.59,-27.06 -4.77,-31.84 -4.77,-4.77 -14.33,-6.37 -27.06,-6.37 -14.33,0 -27.06,1.59 -36.61,4.77l-3.18 -14.33c14.33,-4.77 30.25,-7.96 46.17,-7.96 30.25,0 46.17,15.92 46.17,46.17l0 89.15 -11.14 0 -6.37 -15.92c-9.55,7.96 -15.92,11.14 -22.29,14.33 -4.77,1.59 -12.73,3.18 -20.69,3.18 -11.14,0 -20.69,-3.18 -28.65,-11.14 -6.37,-6.37 -9.55,-15.92 -9.55,-28.65 0,-27.06 22.29,-41.39 68.45,-41.39l-0.01 0zm11.14 17.51l-12.73 0c-17.51,0 -30.25,1.59 -36.61,4.77 -7.96,3.18 -11.14,9.55 -11.14,17.51 0,6.37 1.59,12.73 6.37,17.51 3.18,4.77 7.96,7.96 14.33,7.96 6.37,0 12.73,-1.59 19.1,-4.77 4.77,-3.18 12.73,-7.96 20.69,-15.92l0 -27.06 -0.01 -0.01z"/>
  <path id="_26_62" class="fil0" d="M956.74 2578.91l0 -87.56 -19.1 0 0 -15.92 19.1 0 0 -38.21 19.1 0 0 38.21 33.43 0 0 15.92 -33.43 0 0 84.37c0,11.14 6.37,17.51 19.1,17.51 1.59,0 6.37,0 12.73,-1.59l3.18 14.33c-7.96,1.59 -15.92,3.18 -23.88,3.18 -6.37,0 -14.33,-1.59 -20.69,-6.37 -6.37,-4.77 -9.55,-12.73 -9.55,-23.88l-0.01 -0.01z"/>
  <path id="_27_63" class="fil0" d="M1041.11 2607.56l0 -132.13 20.69 0 0 132.13 -20.69 0zm20.69 -186.25l0 23.88 -20.69 0 0 -23.88 20.69 0z"/>
  <path id="_28_64" class="fil0" d="M1187.57 2542.29c0,-17.51 -3.18,-30.25 -9.55,-39.8 -6.37,-7.96 -17.51,-12.73 -30.25,-12.73 -12.73,0 -22.29,4.77 -27.06,12.73 -4.77,7.96 -7.96,22.29 -7.96,39.8 0,33.43 12.73,49.35 36.61,49.35 12.73,0 22.29,-3.18 28.65,-11.14 6.37,-7.96 9.55,-20.69 9.55,-38.21l0.01 0zm4.77 49.35c-9.55,11.14 -23.88,17.51 -42.98,17.51 -17.51,0 -31.84,-6.37 -41.39,-17.51 -11.14,-12.73 -15.92,-28.65 -15.92,-50.94 0,-20.69 4.77,-38.21 14.33,-49.35 9.55,-12.73 23.88,-19.1 42.98,-19.1 17.51,0 31.84,6.37 42.98,19.1 9.55,11.14 15.92,28.65 15.92,49.35 0,22.29 -4.77,38.21 -15.92,50.94z"/>
  <path id="_29_65" class="fil0" d="M1263.99 2502.5l0 105.07 -20.69 0 0 -132.13 12.73 0 3.18 12.73c4.77,-3.18 7.96,-6.37 9.55,-7.96 3.18,-1.59 7.96,-3.18 12.73,-4.77 6.37,-1.59 12.73,-3.18 19.1,-3.18 11.14,0 22.29,3.18 30.25,11.14 7.96,7.96 11.14,19.1 11.14,31.84l0 92.33 -19.1 0 0 -85.96c0,-22.29 -9.55,-31.84 -27.06,-31.84 -12.73,0 -23.88,3.18 -31.84,12.73z"/>
  <path id="_30" class="fil0" d="M1539.38 2542.29c0,-17.51 -3.18,-30.25 -9.55,-39.8 -7.96,-7.96 -17.51,-12.73 -30.25,-12.73 -12.73,0 -22.29,4.77 -27.06,12.73 -6.37,7.96 -7.96,22.29 -7.96,39.8 0,33.43 12.73,49.35 36.61,49.35 12.73,0 22.29,-3.18 28.65,-11.14 6.37,-7.96 9.55,-20.69 9.55,-38.21l0.01 0zm4.78 49.35c-9.55,11.14 -23.88,17.51 -42.98,17.51 -17.51,0 -31.84,-6.37 -41.39,-17.51 -11.14,-12.73 -15.92,-28.65 -15.92,-50.94 0,-20.69 4.77,-38.21 14.33,-49.35 9.55,-12.73 23.88,-19.1 41.39,-19.1 19.1,0 33.43,6.37 44.57,19.1 9.55,11.14 15.92,28.65 15.92,49.35 0,22.29 -6.37,38.21 -15.92,50.94z"/>
  <path id="_31" class="fil0" d="M1601.47 2475.44l0 -25.47c0,-11.14 3.18,-19.1 9.55,-23.88 6.37,-4.77 14.33,-6.37 20.69,-6.37 7.96,0 15.92,0 23.88,3.18l-3.18 14.33c-6.37,-1.59 -11.14,-1.59 -12.73,-1.59 -12.73,0 -19.1,4.77 -19.1,17.51l0 22.29 27.06 0 0 15.92 -27.06 0 0 116.21 -20.69 0 0 -116.21 -19.1 0 0 -15.92 20.69 0 0.01 -0.01z"/>
  <path id="_32" class="fil0" d="M1806.82 2609.15c-25.47,0 -44.57,-7.96 -58.9,-25.47 -12.73,-17.51 -20.69,-39.8 -20.69,-70.04 0,-28.65 7.96,-52.54 22.29,-68.45 14.33,-17.51 35.02,-25.47 60.5,-25.47 14.33,0 27.06,1.59 41.39,7.96l-4.77 15.92c-11.14,-4.77 -23.88,-6.37 -38.21,-6.37 -19.1,0 -33.43,6.37 -44.57,19.1 -11.14,14.33 -15.92,33.43 -15.92,55.71 0,23.88 4.77,42.98 15.92,58.9 9.55,14.33 23.88,20.69 41.39,20.69 12.73,0 28.65,-3.18 46.17,-9.55l4.77 12.73c-14.33,9.55 -31.84,14.33 -49.35,14.33l-0.01 0.01z"/>
  <path id="_33" class="fil0" d="M1918.26 2610.75l-44.57 -135.31 22.29 0 33.43 111.44 33.43 -111.44 22.29 0 -46.17 132.13c-4.77,17.51 -11.14,30.25 -19.1,39.8 -6.37,9.55 -15.92,17.51 -27.06,23.88l-7.96 -14.33c7.96,-4.77 14.33,-9.55 20.69,-17.51 6.37,-7.96 9.55,-17.51 12.73,-28.65l-0.01 0.01z"/>
  <path id="_34" class="fil0" d="M2090.19 2586.87l4.77 15.92c-14.33,4.77 -27.06,6.37 -38.21,6.37 -19.1,0 -33.43,-6.37 -42.98,-19.1 -9.55,-11.14 -14.33,-28.65 -14.33,-50.94 0,-22.29 4.77,-38.21 15.92,-49.35 9.55,-11.14 23.88,-17.51 42.98,-17.51 9.55,0 20.69,1.59 35.02,6.37l-7.96 15.92c-9.55,-3.18 -17.51,-4.77 -25.47,-4.77 -14.33,0 -23.88,4.77 -28.65,12.73 -6.37,7.96 -9.55,19.1 -9.55,36.61 0,35.02 12.73,52.54 36.61,52.54 11.14,0 20.69,-1.59 31.84,-4.77l0.01 0z"/>
  <polygon id="_35" class="fil0" points="2128.39,2607.56 2128.39,2421.31 2147.5,2421.31 2147.5,2607.56 "/>
  <path id="_36" class="fil0" d="M2192.07 2607.56l0 -132.13 20.69 0 0 132.13 -20.69 0zm20.69 -186.25l0 23.88 -20.69 0 0 -23.88 20.69 0z"/>
  <path id="_37" class="fil0" d="M2276.44 2502.5l0 105.07 -19.1 0 0 -132.13 12.73 0 3.18 12.73c3.18,-3.18 6.37,-6.37 9.55,-7.96 1.59,-1.59 6.37,-3.18 12.73,-4.77 4.77,-1.59 11.14,-3.18 17.51,-3.18 12.73,0 22.29,3.18 30.25,11.14 7.96,7.96 12.73,19.1 12.73,31.84l0 92.33 -20.69 0 0 -85.96c0,-22.29 -7.96,-31.84 -27.06,-31.84 -12.73,0 -22.29,3.18 -31.84,12.73z"/>
  <path id="_38" class="fil0" d="M2480.21 2593.24c-15.92,11.14 -28.65,15.92 -41.39,15.92 -31.84,0 -47.76,-22.29 -47.76,-68.45 0,-25.47 6.37,-44.57 17.51,-54.13 9.55,-9.55 22.29,-14.33 36.61,-14.33 14.33,0 25.47,6.37 36.61,19.1l6.37 -17.51 11.14 0 0 140.09c0,19.1 -4.77,35.02 -14.33,42.98 -9.55,9.55 -22.29,14.33 -38.21,14.33 -7.96,0 -15.92,0 -22.29,-3.18 -6.37,-1.59 -14.33,-4.77 -20.69,-6.37l3.18 -14.33c15.92,4.77 27.06,6.37 38.21,6.37 9.55,0 17.51,-3.18 23.88,-7.96 7.96,-6.37 11.14,-15.92 11.14,-28.65l0 -23.88 0 0.01zm0 -19.1l0 -49.35c0,-11.14 -4.77,-19.1 -11.14,-25.47 -6.37,-6.37 -14.33,-9.55 -20.69,-9.55 -14.33,0 -23.88,3.18 -30.25,11.14 -4.77,9.55 -7.96,22.29 -7.96,39.8 0,35.02 9.55,50.94 30.25,50.94 12.73,0 25.47,-4.77 39.8,-17.51l0 0.01z"/>
  <path class="fil1 str0" d="M1303.78 3376.46l-54.13 95.52 -54.13 -95.52m54.13 -238.79l0 318.38"/>
  <polygon class="fil0" points="944.01,3537.24 944.01,3554.76 862.82,3554.76 862.82,3613.66 936.05,3613.66 936.05,3632.76 862.82,3632.76 862.82,3723.5 842.13,3723.5 842.13,3537.24 "/>
  <path id="_1_66" class="fil0" d="M974.25 3723.5l0 -132.13 20.69 0 0 132.13 -20.69 0zm20.69 -186.25l0 23.88 -20.69 0 0 -23.88 20.69 0z"/>
  <path id="_2_67" class="fil0" d="M1058.63 3618.43l0 105.07 -19.1 0 0 -132.13 12.73 0 3.18 12.73c3.18,-3.18 6.37,-6.37 9.55,-7.96 3.18,-1.59 6.37,-3.18 12.73,-4.77 4.77,-1.59 11.14,-3.18 17.51,-3.18 12.73,0 22.29,4.77 30.25,11.14 7.96,7.96 12.73,19.1 12.73,31.84l0 92.33 -20.69 0 0 -85.96c0,-20.69 -7.96,-31.84 -27.06,-31.84 -12.73,0 -22.29,4.77 -31.84,12.73z"/>
  <path id="_3_68" class="fil0" d="M1243.29 3643.9l11.14 0c0,-15.92 -1.59,-25.47 -6.37,-30.25 -3.18,-4.77 -12.73,-7.96 -27.06,-7.96 -14.33,0 -25.47,1.59 -35.02,6.37l-3.18 -15.92c14.33,-4.77 30.25,-7.96 46.17,-7.96 30.25,0 46.17,15.92 46.17,47.76l0 87.56 -11.14 0 -7.96 -15.92c-7.96,7.96 -14.33,12.73 -20.69,14.33 -6.37,3.18 -12.73,3.18 -20.69,3.18 -12.73,0 -22.29,-3.18 -28.65,-11.14 -6.37,-6.37 -11.14,-15.92 -11.14,-28.65 0,-27.06 23.88,-41.39 68.45,-41.39l-0.01 -0.01zm11.14 17.51l-11.14 0c-19.1,0 -30.25,1.59 -38.21,4.77 -6.37,3.18 -9.55,9.55 -9.55,17.51 0,6.37 1.59,12.73 6.37,17.51 3.18,4.77 7.96,7.96 14.33,7.96 6.37,0 12.73,-1.59 19.1,-4.77 4.77,-3.18 11.14,-7.96 19.1,-15.92l0 -27.06 -0.01 -0.01z"/>
  <polygon id="_4_69" class="fil0" points="1322.89,3723.5 1322.89,3537.24 1343.58,3537.24 1343.58,3723.5 "/>
  <path id="_5_70" class="fil0" d="M1388.16 3723.5l0 -132.13 20.69 0 0 132.13 -20.69 0zm20.69 -186.25l0 23.88 -20.69 0 0 -23.88 20.69 0z"/>
  <polygon id="_6_71" class="fil0" points="1440.69,3591.37 1523.46,3591.37 1523.46,3607.29 1464.56,3705.99 1526.65,3705.99 1526.65,3723.5 1440.69,3723.5 1440.69,3707.58 1499.59,3608.88 1440.69,3608.88 "/>
  <path id="_7_72" class="fil0" d="M1657.19 3661.41l-85.96 0c0,17.51 4.77,30.25 12.73,36.61 7.96,6.37 17.51,11.14 30.25,11.14 6.37,0 11.14,-1.59 12.73,-1.59 3.18,0 4.77,-1.59 7.96,-1.59 1.59,0 3.18,-1.59 4.77,-1.59 3.18,-1.59 7.96,-3.18 11.14,-3.18l3.18 15.92c-17.51,4.77 -31.84,7.96 -41.39,7.96 -19.1,0 -33.43,-4.77 -44.57,-15.92 -11.14,-11.14 -15.92,-28.65 -15.92,-49.35 0,-22.29 4.77,-39.8 15.92,-52.54 9.55,-12.73 22.29,-19.1 38.21,-19.1 15.92,0 28.65,4.77 38.21,15.92 7.96,9.55 12.73,23.88 12.73,41.39 0,4.77 0,9.55 0,15.92zm-84.37 -14.33l65.27 0c0,-12.73 -1.59,-23.88 -6.37,-30.25 -4.77,-7.96 -12.73,-11.14 -23.88,-11.14 -12.73,0 -20.69,3.18 -25.47,11.14 -6.37,7.96 -7.96,17.51 -9.55,30.25z"/>
  <path class="fil0" d="M147.83 2984.85c0,-12.73 -3.18,-22.29 -7.96,-28.65 -4.77,-7.96 -12.73,-11.14 -22.29,-11.14 -9.55,0 -15.92,3.18 -20.69,9.55 -3.18,6.37 -6.37,17.51 -6.37,30.25 0,25.47 9.55,38.21 28.65,38.21 9.55,0 17.51,-3.18 20.69,-9.55 4.77,-6.37 7.96,-15.92 7.96,-28.65l0.01 -0.01zm3.18 36.61c-7.96,9.55 -17.51,14.33 -31.84,14.33 -14.33,0 -23.88,-4.77 -31.84,-14.33 -7.96,-7.96 -11.14,-20.69 -11.14,-36.61 0,-17.51 3.18,-28.65 11.14,-38.21 6.37,-9.55 17.51,-14.33 30.25,-14.33 14.33,0 25.47,4.77 33.43,14.33 7.96,9.55 11.14,22.29 11.14,38.21 0,15.92 -3.18,28.65 -11.14,36.61l-0.01 0z"/>
  <path id="_1_73" class="fil0" d="M205.14 2954.6l0 79.59 -15.92 0 0 -100.29 9.55 0 3.18 11.14c3.18,-3.18 4.77,-4.77 6.37,-6.37 3.18,-1.59 4.77,-3.18 9.55,-4.77 4.77,0 9.55,-1.59 14.33,-1.59 7.96,0 15.92,3.18 22.29,7.96 6.37,6.37 9.55,14.33 9.55,25.47l0 68.45 -15.92 0 0 -65.27c0,-15.92 -6.37,-23.88 -19.1,-23.88 -9.55,0 -17.51,3.18 -23.88,9.55z"/>
  <path id="_2_74" class="fil0" d="M369.1 2988.03l-63.67 0c0,12.73 3.18,20.69 9.55,27.06 6.37,4.77 12.73,7.96 22.29,7.96 4.77,0 7.96,0 9.55,-1.59 1.59,0 4.77,0 6.37,-1.59 1.59,0 1.59,0 3.18,0 3.18,-1.59 6.37,-1.59 7.96,-3.18l3.18 11.14c-14.33,4.77 -23.88,7.96 -31.84,7.96 -14.33,0 -23.88,-4.77 -33.43,-12.73 -7.96,-7.96 -11.14,-20.69 -11.14,-38.21 0,-15.92 3.18,-28.65 11.14,-38.21 7.96,-9.55 17.51,-14.33 30.25,-14.33 11.14,0 20.69,4.77 27.06,11.14 6.37,7.96 9.55,19.1 9.55,31.84 0,3.18 0,7.96 0,12.73zm-62.08 -11.14l47.76 0c0,-11.14 -1.59,-17.51 -4.77,-23.88 -3.18,-4.77 -9.55,-7.96 -17.51,-7.96 -9.55,0 -15.92,3.18 -19.1,9.55 -4.77,4.77 -6.37,12.73 -6.37,22.29l0.01 0z"/>
  <path id="_3_75" class="fil0" d="M509.19 2984.85c0,-12.73 -3.18,-22.29 -7.96,-28.65 -4.77,-7.96 -12.73,-11.14 -22.29,-11.14 -9.55,0 -15.92,3.18 -20.69,9.55 -3.18,6.37 -6.37,17.51 -6.37,30.25 0,25.47 9.55,38.21 28.65,38.21 9.55,0 15.92,-3.18 20.69,-9.55 4.77,-6.37 7.96,-15.92 7.96,-28.65l0.01 -0.01zm3.18 36.61c-7.96,9.55 -17.51,14.33 -31.84,14.33 -14.33,0 -23.88,-4.77 -31.84,-14.33 -7.96,-7.96 -11.14,-20.69 -11.14,-36.61 0,-17.51 3.18,-28.65 11.14,-38.21 6.37,-9.55 17.51,-14.33 30.25,-14.33 14.33,0 25.47,4.77 33.43,14.33 7.96,9.55 11.14,22.29 11.14,38.21 0,15.92 -3.18,28.65 -11.14,36.61l-0.01 0z"/>
  <path id="_4_76" class="fil0" d="M564.91 2957.79l0 76.41 -14.33 0 0 -100.29 9.55 0 3.18 12.73c6.37,-4.77 11.14,-9.55 15.92,-11.14 3.18,-1.59 7.96,-3.18 14.33,-3.18 1.59,0 4.77,0 4.77,0l3.18 1.59 -1.59 14.33c-3.18,-1.59 -6.37,-1.59 -9.55,-1.59 -7.96,0 -15.92,3.18 -25.47,11.14z"/>
  <path id="_5_77" class="fil0" d="M716.14 2932.31c12.73,0 22.29,4.77 27.06,14.33 12.73,-9.55 22.29,-14.33 31.84,-14.33 9.55,0 17.51,3.18 23.88,7.96 6.37,4.77 9.55,12.73 9.55,23.88l0 70.04 -15.92 0 0 -63.67c0,-7.96 -1.59,-14.33 -4.77,-19.1 -3.18,-4.77 -7.96,-6.37 -14.33,-6.37 -9.55,0 -17.51,3.18 -25.47,9.55 0,3.18 0,6.37 0,9.55l0 70.04 -14.33 0 0 -63.67c0,-7.96 -1.59,-14.33 -4.77,-19.1 -3.18,-4.77 -9.55,-6.37 -14.33,-6.37 -4.77,0 -7.96,0 -11.14,1.59 -3.18,1.59 -6.37,1.59 -7.96,3.18 -1.59,1.59 -3.18,3.18 -6.37,4.77l0 79.59 -14.33 0 0 -100.29 9.55 0 1.59 11.14c4.77,-3.18 6.37,-4.77 7.96,-6.37 1.59,-1.59 4.77,-3.18 9.55,-4.77 3.18,-1.59 7.96,-1.59 12.73,-1.59l0.03 0.01z"/>
  <path id="_6_78" class="fil0" d="M905.58 2984.85c0,-12.73 -3.18,-22.29 -7.96,-28.65 -4.77,-7.96 -12.73,-11.14 -22.29,-11.14 -9.55,0 -15.92,3.18 -20.69,9.55 -3.18,6.37 -4.77,17.51 -4.77,30.25 0,25.47 7.96,38.21 27.06,38.21 9.55,0 17.51,-3.18 22.29,-9.55 4.77,-6.37 6.37,-15.92 6.37,-28.65l-0.01 -0.01zm3.18 36.61c-6.37,9.55 -17.51,14.33 -31.84,14.33 -14.33,0 -23.88,-4.77 -31.84,-14.33 -6.37,-7.96 -11.14,-20.69 -11.14,-36.61 0,-17.51 3.18,-28.65 11.14,-38.21 6.37,-9.55 17.51,-14.33 31.84,-14.33 12.73,0 23.88,4.77 31.84,14.33 7.96,9.55 11.14,22.29 11.14,38.21 0,15.92 -3.18,28.65 -11.14,36.61z"/>
  <path id="_7_79" class="fil0" d="M962.89 2957.79l0 76.41 -15.92 0 0 -100.29 9.55 0 3.18 12.73c6.37,-4.77 11.14,-9.55 15.92,-11.14 3.18,-1.59 7.96,-3.18 14.33,-3.18 3.18,0 4.77,0 6.37,0l1.59 1.59 -1.59 14.33c-3.18,-1.59 -6.37,-1.59 -9.55,-1.59 -7.96,0 -15.92,3.18 -23.88,11.14l-0.01 0z"/>
  <path id="_8_80" class="fil0" d="M1090.24 2988.03l-63.67 0c0,12.73 3.18,20.69 9.55,27.06 6.37,4.77 14.33,7.96 22.29,7.96 4.77,0 7.96,0 9.55,-1.59 3.18,0 4.77,0 6.37,-1.59 1.59,0 3.18,0 3.18,0 3.18,-1.59 6.37,-1.59 7.96,-3.18l3.18 11.14c-14.33,4.77 -23.88,7.96 -31.84,7.96 -12.73,0 -23.88,-4.77 -31.84,-12.73 -9.55,-7.96 -12.73,-20.69 -12.73,-38.21 0,-15.92 3.18,-28.65 11.14,-38.21 7.96,-9.55 17.51,-14.33 30.25,-14.33 11.14,0 20.69,4.77 27.06,11.14 6.37,7.96 9.55,19.1 9.55,31.84 0,3.18 0,7.96 0,12.73l-0.01 0zm-62.08 -11.14l47.76 0c0,-11.14 -1.59,-17.51 -4.77,-23.88 -3.18,-4.77 -9.55,-7.96 -17.51,-7.96 -9.55,0 -15.92,3.18 -19.1,9.55 -4.77,4.77 -6.37,12.73 -6.37,22.29l0.01 0z"/>
  <path id="_9_81" class="fil0" d="M1165.06 3016.68c7.96,3.18 17.51,6.37 23.88,6.37 7.96,0 14.33,-1.59 19.1,-4.77 3.18,-3.18 4.77,-7.96 4.77,-12.73 0,-4.77 -1.59,-9.55 -4.77,-12.73 -3.18,-3.18 -7.96,-4.77 -12.73,-6.37 -4.77,-1.59 -9.55,-3.18 -14.33,-4.77 -4.77,-1.59 -9.55,-4.77 -12.73,-7.96 -3.18,-4.77 -4.77,-9.55 -4.77,-14.33 0,-9.55 1.59,-15.92 7.96,-20.69 4.77,-3.18 12.73,-6.37 22.29,-6.37 9.55,0 17.51,1.59 25.47,4.77l1.59 0 -3.18 12.73c-7.96,-3.18 -14.33,-4.77 -22.29,-4.77 -6.37,0 -11.14,1.59 -14.33,3.18 -1.59,3.18 -3.18,6.37 -3.18,11.14 0,3.18 1.59,6.37 4.77,7.96 3.18,3.18 7.96,4.77 12.73,6.37 4.77,1.59 11.14,3.18 15.92,4.77 4.77,3.18 7.96,6.37 12.73,11.14 3.18,3.18 4.77,9.55 4.77,15.92 0,9.55 -3.18,15.92 -9.55,22.29 -6.37,4.77 -15.92,7.96 -27.06,7.96 -11.14,0 -22.29,-3.18 -30.25,-7.96l3.18 -11.14 0.01 -0.01z"/>
  <path id="_10_82" class="fil0" d="M1317.89 2984.85c0,-12.73 -3.18,-22.29 -7.96,-28.65 -4.77,-7.96 -12.73,-11.14 -22.29,-11.14 -9.55,0 -15.92,3.18 -20.69,9.55 -4.77,6.37 -6.37,17.51 -6.37,30.25 0,25.47 9.55,38.21 28.65,38.21 9.55,0 15.92,-3.18 20.69,-9.55 4.77,-6.37 7.96,-15.92 7.96,-28.65l0.01 -0.01zm3.18 36.61c-7.96,9.55 -19.1,14.33 -31.84,14.33 -14.33,0 -25.47,-4.77 -31.84,-14.33 -7.96,-7.96 -11.14,-20.69 -11.14,-36.61 0,-17.51 3.18,-28.65 9.55,-38.21 7.96,-9.55 19.1,-14.33 31.84,-14.33 14.33,0 25.47,4.77 33.43,14.33 7.96,9.55 11.14,22.29 11.14,38.21 0,15.92 -3.18,28.65 -11.14,36.61z"/>
  <polygon id="_11_83" class="fil0" points="1359.28,3034.2 1359.28,2894.11 1373.6,2894.11 1373.6,3034.2 "/>
  <polygon id="_12_84" class="fil0" points="1478.67,2933.91 1445.24,3034.2 1427.73,3034.2 1394.3,2933.91 1411.81,2933.91 1437.28,3018.28 1462.75,2933.91 "/>
  <path id="_13_85" class="fil0" d="M1567.81 2988.03l-63.67 0c0,12.73 3.18,20.69 9.55,27.06 6.37,4.77 14.33,7.96 22.29,7.96 4.77,0 7.96,0 9.55,-1.59 3.18,0 4.77,0 6.37,-1.59 1.59,0 3.18,0 3.18,0 3.18,-1.59 6.37,-1.59 7.96,-3.18l3.18 11.14c-12.73,4.77 -23.88,7.96 -31.84,7.96 -12.73,0 -23.88,-4.77 -31.84,-12.73 -9.55,-7.96 -12.73,-20.69 -12.73,-38.21 0,-15.92 3.18,-28.65 11.14,-38.21 7.96,-9.55 17.51,-14.33 30.25,-14.33 11.14,0 20.69,4.77 27.06,11.14 6.37,7.96 11.14,19.1 11.14,31.84 0,3.18 -1.59,7.96 -1.59,12.73l-0.01 0zm-62.08 -11.14l47.76 0c0,-11.14 -1.59,-17.51 -4.77,-23.88 -3.18,-4.77 -9.55,-7.96 -17.51,-7.96 -7.96,0 -14.33,3.18 -19.1,9.55 -3.18,4.77 -6.37,12.73 -6.37,22.29l0.01 0z"/>
  <polygon id="_14_86" class="fil0" points="1645.82,3034.2 1645.82,2894.11 1661.74,2894.11 1661.74,3034.2 "/>
  <path id="_15_87" class="fil0" d="M1695.17 3034.2l0 -100.29 14.33 0 0 100.29 -14.33 0zm14.33 -140.09l0 17.51 -14.33 0 0 -17.51 14.33 0z"/>
  <path id="_16_88" class="fil0" d="M1785.91 2932.31c12.73,0 20.69,4.77 27.06,14.33 11.14,-9.55 20.69,-14.33 30.25,-14.33 9.55,0 17.51,3.18 23.88,7.96 6.37,4.77 9.55,12.73 9.55,23.88l0 70.04 -14.33 0 0 -63.67c0,-7.96 -1.59,-14.33 -6.37,-19.1 -3.18,-4.77 -7.96,-6.37 -14.33,-6.37 -7.96,0 -17.51,3.18 -25.47,9.55 1.59,3.18 1.59,6.37 1.59,9.55l0 70.04 -14.33 0 0 -63.67c0,-7.96 -3.18,-14.33 -6.37,-19.1 -3.18,-4.77 -7.96,-6.37 -14.33,-6.37 -4.77,0 -7.96,0 -11.14,1.59 -3.18,1.59 -6.37,1.59 -7.96,3.18 -1.59,1.59 -3.18,3.18 -4.77,4.77l0 79.59 -15.92 0 0 -100.29 9.55 0 3.18 11.14c3.18,-3.18 4.77,-4.77 7.96,-6.37 1.59,-1.59 4.77,-3.18 7.96,-4.77 4.77,-1.59 9.55,-1.59 14.33,-1.59l0.02 0.01z"/>
  <path id="_17_89" class="fil0" d="M1910.08 3034.2l0 -100.29 14.33 0 0 100.29 -14.33 0zm14.32 -140.09l0 17.51 -14.33 0 0 -17.51 14.33 0z"/>
  <path id="_18_90" class="fil0" d="M1961.02 3011.91l0 -65.27 -14.33 0 0 -12.73 14.33 0 0 -28.65 14.33 0 0 28.65 25.47 0 0 12.73 -25.47 0 0 63.67c0,7.96 4.77,12.73 14.33,12.73 1.59,0 4.77,0 9.55,-1.59l1.59 11.14c-4.77,1.59 -11.14,3.18 -15.92,3.18 -6.37,0 -11.14,-1.59 -17.51,-6.37 -4.77,-3.18 -6.37,-7.96 -6.37,-17.51l0.01 0.01z"/>
  <path id="_19_91" class="fil0" d="M2214.36 2932.31c12.73,0 22.29,4.77 27.06,14.33 12.73,-9.55 22.29,-14.33 31.84,-14.33 9.55,0 17.51,3.18 23.88,7.96 6.37,4.77 9.55,12.73 9.55,23.88l0 70.04 -15.92 0 0 -63.67c0,-7.96 -1.59,-14.33 -4.77,-19.1 -3.18,-4.77 -7.96,-6.37 -14.33,-6.37 -7.96,0 -17.51,3.18 -25.47,9.55 0,3.18 0,6.37 0,9.55l0 70.04 -14.33 0 0 -63.67c0,-7.96 -1.59,-14.33 -4.77,-19.1 -3.18,-4.77 -7.96,-6.37 -14.33,-6.37 -4.77,0 -7.96,0 -11.14,1.59 -3.18,1.59 -6.37,1.59 -7.96,3.18 -1.59,1.59 -3.18,3.18 -6.37,4.77l0 79.59 -14.33 0 0 -100.29 9.55 0 3.18 11.14c3.18,-3.18 4.77,-4.77 6.37,-6.37 1.59,-1.59 4.77,-3.18 9.55,-4.77 4.77,-1.59 7.96,-1.59 12.73,-1.59l0.02 0.01z"/>
  <path id="_20_92" class="fil0" d="M2411.75 2988.03l-63.67 0c0,12.73 3.18,20.69 9.55,27.06 4.77,4.77 12.73,7.96 22.29,7.96 4.77,0 7.96,0 9.55,-1.59 1.59,0 3.18,0 4.77,-1.59 1.59,0 3.18,0 4.77,0 3.18,-1.59 4.77,-1.59 7.96,-3.18l1.59 11.14c-12.73,4.77 -22.29,7.96 -30.25,7.96 -14.33,0 -25.47,-4.77 -33.43,-12.73 -7.96,-7.96 -12.73,-20.69 -12.73,-38.21 0,-15.92 4.77,-28.65 12.73,-38.21 7.96,-9.55 17.51,-14.33 28.65,-14.33 12.73,0 22.29,4.77 28.65,11.14 6.37,7.96 9.55,19.1 9.55,31.84 0,3.18 0,7.96 0,12.73l0.02 0zm-62.08 -11.14l47.76 0c0,-11.14 -1.59,-17.51 -4.77,-23.88 -3.18,-4.77 -9.55,-7.96 -19.1,-7.96 -7.96,0 -14.33,3.18 -17.51,9.55 -4.77,4.77 -6.37,12.73 -6.37,22.29l0.01 0z"/>
  <path id="_21_93" class="fil0" d="M2442 3011.91l0 -65.27 -12.73 0 0 -12.73 12.73 0 0 -28.65 15.92 0 0 28.65 23.88 0 0 12.73 -23.88 0 0 63.67c0,7.96 3.18,12.73 12.73,12.73 1.59,0 4.77,0 9.55,-1.59l3.18 11.14c-6.37,1.59 -11.14,3.18 -17.51,3.18 -6.37,0 -11.14,-1.59 -15.92,-6.37 -4.77,-3.18 -7.96,-7.96 -7.96,-17.51l0.01 0.01z"/>
  <path class="fil1 str1" d="M1303.78 2763.57l-54.13 95.52 -54.13 -95.52m54.13 -85.96l0 165.56"/>
  <path class="fil1 str1" d="M2664.87 2344.9l95.52 54.13 -95.52 54.13m-74.82 -54.13l154.42 0"/>
  <path class="fil1 str0" d="M2690.34 1270.36l-95.52 54.13 95.52 54.13m525.33 585.82l0 -639.95 -604.93 0"/>
  <path id="_9_94" class="fil0" d="M2033.45 3016.68c7.96,3.18 17.51,6.37 23.88,6.37 7.96,0 14.33,-1.59 19.1,-4.77 3.18,-3.18 4.77,-7.96 4.77,-12.73 0,-4.77 -1.59,-9.55 -4.77,-12.73 -3.18,-3.18 -7.96,-4.77 -12.73,-6.37 -4.77,-1.59 -9.55,-3.18 -14.33,-4.77 -4.77,-1.59 -9.55,-4.77 -12.73,-7.96 -3.18,-4.77 -4.77,-9.55 -4.77,-14.33 0,-9.55 1.59,-15.92 7.96,-20.69 4.77,-3.18 12.73,-6.37 22.29,-6.37 9.55,0 17.51,1.59 25.47,4.77l1.59 0 -3.18 12.73c-7.96,-3.18 -14.33,-4.77 -22.29,-4.77 -6.37,0 -11.14,1.59 -14.33,3.18 -1.59,3.18 -3.18,6.37 -3.18,11.14 0,3.18 1.59,6.37 4.77,7.96 3.18,3.18 7.96,4.77 12.73,6.37 4.77,1.59 11.14,3.18 15.92,4.77 4.77,3.18 7.96,6.37 12.73,11.14 3.18,3.18 4.77,9.55 4.77,15.92 0,9.55 -3.18,15.92 -9.55,22.29 -6.37,4.77 -15.92,7.96 -27.06,7.96 -11.14,0 -22.29,-3.18 -30.25,-7.96l3.18 -11.14 0.01 -0.01z"/>
 </g>
</svg>
