<?xml version="1.0" encoding="UTF-8"?>
<!DOCTYPE svg PUBLIC "-//W3C//DTD SVG 1.1//EN" "http://www.w3.org/Graphics/SVG/1.1/DTD/svg11.dtd">
<!-- Creator: CorelDRAW X7 -->
<svg xmlns="http://www.w3.org/2000/svg" xml:space="preserve" width="5.05066in" height="2.03515in" version="1.1" style="shape-rendering:geometricPrecision; text-rendering:geometricPrecision; image-rendering:optimizeQuality; fill-rule:evenodd; clip-rule:evenodd"
viewBox="0 0 5067 2042"
 xmlns:xlink="http://www.w3.org/1999/xlink">
 <defs>
  <style type="text/css">
   <![CDATA[
    .str0 {stroke:#373435;stroke-width:27.8696}
    .str1 {stroke:#373435;stroke-width:6.96345}
    .str3 {stroke:#373435;stroke-width:6.9674;stroke-linecap:round}
    .str2 {stroke:#373435;stroke-width:13.9348;stroke-dasharray:13.934809 41.804428}
    .fil0 {fill:none}
    .fil1 {fill:#373435;fill-rule:nonzero}
   ]]>
  </style>
 </defs>
 <g id="Layer_x0020_1">
  <metadata id="CorelCorpID_0Corel-Layer"/>
  <line class="fil0 str0" x1="0" y1="14" x2="5067" y2= "14" />
  <polygon class="fil1" points="248,328 248,240 221,240 221,230 285,230 285,240 258,240 258,328 "/>
  <path id="1" class="fil1" d="M313 329l-23 -71 11 0 18 59 18 -59 11 0 -24 70c-3,9 -6,16 -10,21 -3,5 -8,9 -14,12l-4 -8c4,-2 7,-5 11,-9 3,-4 5,-9 6,-15z"/>
  <path id="2" class="fil1" d="M373 361l-10 0 0 -103 6 0 3 8c4,-3 8,-5 11,-7 4,-1 7,-2 12,-2 16,0 25,12 25,36 0,13 -3,23 -9,28 -6,5 -12,8 -18,8 -7,0 -14,-2 -20,-7l0 39zm0 -86l0 38c2,2 4,4 8,5 3,1 6,2 9,2 7,0 12,-2 15,-7 3,-4 4,-11 4,-20 0,-9 -1,-16 -4,-20 -3,-5 -7,-7 -11,-7 -3,0 -6,0 -9,2 -3,1 -5,2 -7,3 -1,1 -3,3 -5,4z"/>
  <path id="3" class="fil1" d="M437 328l0 -70 10 0 0 70 -10 0zm10 -98l0 13 -10 0 0 -13 10 0z"/>
  <path id="4" class="fil1" d="M511 317l3 8c-8,2 -14,3 -20,3 -10,0 -18,-3 -23,-9 -5,-7 -7,-16 -7,-27 0,-12 3,-20 8,-26 5,-6 13,-9 23,-9 4,0 10,1 18,3l-4 8c-5,-1 -10,-2 -14,-2 -7,0 -12,2 -15,6 -3,4 -5,11 -5,20 0,18 7,27 20,27 5,0 11,0 16,-2z"/>
  <path id="5" class="fil1" d="M561 286l6 0c0,-8 -1,-14 -4,-16 -2,-3 -6,-4 -14,-4 -7,0 -13,1 -18,3l-2 -8c7,-3 15,-4 24,-4 16,0 24,8 24,24l0 47 -6 0 -3 -8c-5,3 -8,6 -11,7 -4,1 -7,2 -11,2 -7,0 -12,-2 -15,-6 -4,-4 -6,-9 -6,-15 0,-15 12,-22 36,-22zm6 9l-6 0c-10,0 -16,1 -20,3 -4,2 -5,4 -5,8 0,4 1,8 3,10 2,3 4,4 8,4 3,0 6,-1 9,-2 3,-2 7,-5 11,-8l0 -15z"/>
  <polygon id="6" class="fil1" points="603,328 603,230 613,230 613,328 "/>
  <path id="7" class="fil1" d="M173 488c6,2 12,4 17,4 6,0 10,-1 13,-3 3,-3 4,-6 4,-9 0,-4 -1,-7 -4,-9 -2,-2 -5,-3 -9,-4 -3,-1 -6,-3 -10,-4 -3,-1 -6,-3 -9,-6 -2,-2 -3,-6 -3,-10 0,-5 1,-10 5,-13 4,-3 9,-5 16,-5 6,0 12,1 18,3l1 0 -2 9c-6,-2 -11,-3 -16,-3 -4,0 -8,1 -9,2 -2,2 -3,4 -3,8 0,2 1,4 4,5 2,2 5,3 8,5 4,1 7,2 11,4 3,1 6,3 9,7 2,3 3,6 3,11 0,6 -2,11 -6,15 -5,4 -11,6 -19,6 -8,0 -15,-2 -22,-6l3 -7z"/>
  <path id="8" class="fil1" d="M234 500l0 -70 11 0 0 70 -11 0zm11 -98l0 13 -11 0 0 -13 11 0z"/>
  <path id="9" class="fil1" d="M270 485l0 -46 -10 0 0 -9 10 0 0 -20 10 0 0 20 17 0 0 9 -17 0 0 44c0,6 3,9 10,9 1,0 3,0 7,0l1 7c-4,1 -8,2 -12,2 -4,0 -8,-1 -11,-4 -3,-2 -5,-6 -5,-12z"/>
  <path id="10" class="fil1" d="M356 482l0 -52 11 0 0 70 -6 0 -4 -8c-7,6 -14,9 -21,9 -7,0 -12,-2 -16,-6 -3,-4 -5,-10 -5,-17l0 -48 10 0 0 46c0,6 1,10 3,12 1,3 4,4 8,4 4,0 7,-1 11,-3 4,-2 7,-4 9,-7z"/>
  <path id="11" class="fil1" d="M422 458l6 0c0,-8 -1,-14 -3,-16 -2,-3 -7,-4 -14,-4 -8,0 -14,1 -19,3l-2 -8c8,-3 16,-4 24,-4 16,0 25,8 25,24l0 47 -6 0 -4 -8c-4,3 -8,6 -11,7 -3,1 -7,2 -11,2 -6,0 -12,-2 -15,-6 -4,-4 -6,-9 -6,-15 0,-14 12,-22 36,-22zm6 9l-6 0c-10,0 -16,1 -20,3 -3,2 -5,5 -5,9 0,4 1,7 3,9 2,3 5,4 8,4 3,0 6,-1 9,-2 3,-2 7,-4 11,-8l0 -15z"/>
  <path id="12" class="fil1" d="M466 485l0 -46 -10 0 0 -9 10 0 0 -20 10 0 0 20 17 0 0 9 -17 0 0 44c0,6 3,9 10,9 1,0 3,0 6,0l2 7c-4,1 -8,2 -12,2 -4,0 -8,-1 -11,-4 -4,-2 -5,-6 -5,-12z"/>
  <path id="13" class="fil1" d="M510 500l0 -70 11 0 0 70 -11 0zm11 -98l0 13 -11 0 0 -13 11 0z"/>
  <path id="14" class="fil1" d="M587 466c0,-9 -2,-16 -5,-21 -4,-5 -9,-7 -16,-7 -6,0 -11,2 -14,7 -3,4 -4,11 -4,20 0,18 6,27 19,27 7,0 12,-2 15,-7 3,-4 5,-10 5,-19zm3 25c-6,7 -13,10 -23,10 -10,0 -17,-3 -22,-10 -5,-6 -8,-15 -8,-26 0,-11 3,-20 8,-26 5,-7 12,-10 22,-10 9,0 17,3 22,10 6,6 9,15 9,26 0,11 -3,20 -8,26z"/>
  <path id="15" class="fil1" d="M627 445l0 55 -11 0 0 -70 7 0 2 7c2,-1 3,-3 5,-4 1,-1 3,-2 6,-3 3,-1 6,-1 10,-1 6,0 11,2 16,6 4,4 6,9 6,17l0 48 -10 0 0 -45c0,-11 -5,-17 -15,-17 -6,0 -12,2 -16,7z"/>
  <path class="fil1" d="M361 1015c0,16 -4,29 -13,38 -9,10 -22,15 -37,15l-20 0 0 -98 24 0c14,0 25,4 34,13 8,8 12,19 12,32zm-11 -1c0,-11 -3,-19 -10,-25 -7,-7 -15,-10 -24,-10l-14 0 0 80 10 0c11,0 20,-4 27,-12 7,-8 11,-19 11,-33z"/>
  <path id="1" class="fil1" d="M411 1026l6 0c0,-8 -1,-14 -3,-16 -3,-3 -7,-4 -15,-4 -7,0 -13,1 -18,3l-2 -8c8,-3 16,-4 24,-4 16,0 25,8 25,24l0 47 -7 0 -3 -9c-5,4 -8,6 -11,8 -3,1 -7,2 -11,2 -7,0 -12,-2 -15,-6 -4,-4 -6,-9 -6,-16 0,-14 12,-21 36,-21zm6 9l-6 0c-10,0 -16,1 -20,3 -3,1 -5,4 -5,8 0,4 1,7 3,10 2,3 4,4 8,4 3,0 6,-1 9,-3 3,-1 7,-4 11,-8l0 -14z"/>
  <path id="2" class="fil1" d="M455 1053l0 -47 -10 0 0 -8 10 0 0 -20 10 0 0 20 17 0 0 8 -17 0 0 45c0,6 3,9 9,9 2,0 4,0 7,-1l2 8c-4,1 -8,2 -12,2 -4,0 -8,-2 -11,-4 -4,-3 -5,-7 -5,-12z"/>
  <path id="3" class="fil1" d="M531 1026l6 0c0,-8 -1,-14 -3,-16 -2,-3 -7,-4 -15,-4 -7,0 -13,1 -18,3l-2 -8c8,-3 16,-4 24,-4 16,0 25,8 25,24l0 47 -7 0 -3 -9c-4,4 -8,6 -11,8 -3,1 -7,2 -11,2 -7,0 -12,-2 -15,-6 -4,-4 -6,-9 -6,-16 0,-14 12,-21 36,-21zm6 9l-6 0c-10,0 -16,1 -20,3 -3,1 -5,4 -5,8 0,4 1,7 3,10 2,3 5,4 8,4 3,0 6,-1 9,-3 3,-1 7,-4 11,-8l0 -14z"/>
  <path class="fil1" d="M220 1720l-11 0 -10 -30 -35 0 -10 30 -11 0 32 -97 13 0 32 97zm-24 -39l-14 -48 -15 48 29 0z"/>
  <path id="1" class="fil1" d="M245 1754l-10 0 0 -103 6 0 4 8c3,-3 7,-6 10,-7 4,-2 8,-3 12,-3 16,0 25,12 25,36 0,14 -3,24 -9,29 -5,5 -11,7 -18,7 -7,0 -13,-2 -20,-6l0 39zm0 -86l0 37c2,2 5,4 8,5 3,2 6,2 9,2 7,0 12,-2 15,-6 3,-4 4,-11 4,-20 0,-9 -1,-16 -4,-21 -3,-4 -7,-7 -11,-7 -3,0 -6,1 -9,2 -3,1 -5,3 -6,4 -2,1 -4,2 -6,4z"/>
  <path id="2" class="fil1" d="M321 1754l-10 0 0 -103 6 0 4 8c4,-3 7,-6 11,-7 3,-2 7,-3 11,-3 17,0 25,12 25,36 0,14 -3,24 -9,29 -5,5 -11,7 -18,7 -7,0 -13,-2 -20,-6l0 39zm0 -86l0 37c2,2 5,4 8,5 3,2 6,2 9,2 7,0 12,-2 15,-6 3,-4 4,-11 4,-20 0,-9 -1,-16 -4,-21 -3,-4 -6,-7 -11,-7 -3,0 -6,1 -9,2 -3,1 -5,3 -6,4 -2,1 -4,2 -6,4z"/>
  <path id="3" class="fil1" d="M397 1667l0 53 -10 0 0 -69 7 0 1 8c5,-4 9,-6 11,-8 3,-1 7,-2 11,-2 2,0 3,0 4,1l2 0 -2 10c-2,-1 -4,-1 -7,-1 -5,0 -11,3 -17,8z"/>
  <path id="4" class="fil1" d="M482 1686c0,-9 -2,-16 -6,-21 -3,-4 -8,-7 -15,-7 -7,0 -12,3 -14,7 -3,5 -5,12 -5,21 0,17 7,26 20,26 6,0 11,-2 15,-6 3,-4 5,-11 5,-20zm2 26c-5,6 -13,9 -22,9 -10,0 -17,-3 -22,-9 -6,-6 -8,-15 -8,-27 0,-11 2,-20 7,-26 5,-6 13,-10 22,-10 10,0 17,4 23,10 5,7 8,15 8,27 0,11 -2,19 -8,26z"/>
  <path id="5" class="fil1" d="M541 1679l6 0c0,-9 -1,-14 -4,-17 -2,-2 -6,-4 -14,-4 -7,0 -13,1 -18,3l-2 -8c7,-2 15,-4 24,-4 16,0 24,8 24,25l0 46 -6 0 -3 -8c-5,4 -8,6 -11,7 -4,2 -7,2 -11,2 -7,0 -12,-2 -15,-6 -4,-3 -6,-9 -6,-15 0,-14 12,-21 36,-21zm6 8l-6 0c-10,0 -16,1 -20,3 -4,2 -5,5 -5,9 0,4 1,7 3,10 2,2 4,3 8,3 3,0 6,0 9,-2 3,-1 7,-4 11,-8l0 -15z"/>
  <path id="6" class="fil1" d="M624 1709l2 9c-8,2 -14,3 -20,3 -10,0 -17,-3 -22,-10 -5,-6 -8,-15 -8,-27 0,-11 3,-20 8,-26 5,-6 13,-9 23,-9 4,0 10,1 18,4l-4 8c-5,-2 -10,-3 -14,-3 -7,0 -12,3 -15,7 -3,4 -5,11 -5,20 0,18 7,27 20,27 5,0 11,-1 17,-3z"/>
  <path id="7" class="fil1" d="M695 1720l-10 0 0 -45c0,-12 -5,-17 -14,-17 -7,0 -13,2 -17,6l0 56 -11 0 0 -97 10 0 0 33c2,-2 4,-3 5,-4 1,-1 3,-1 6,-2 3,-1 6,-1 9,-1 6,0 12,2 16,6 4,4 6,9 6,16l0 49z"/>
  <path class="fil1" d="M1025 227c-13,0 -23,-5 -31,-14 -7,-9 -10,-21 -10,-36 0,-15 4,-27 11,-36 8,-9 18,-14 32,-14 7,0 14,2 21,4l-2 9c-6,-3 -12,-4 -20,-4 -10,0 -18,4 -23,11 -6,7 -9,17 -9,29 0,13 3,23 8,30 6,8 13,12 23,12 6,0 14,-2 23,-6l3 8c-8,4 -17,7 -26,7z"/>
  <path id="1" class="fil1" d="M1114 192c0,-9 -2,-16 -5,-21 -4,-5 -9,-7 -16,-7 -7,0 -11,2 -14,7 -3,4 -5,11 -5,20 0,18 7,27 20,27 7,0 12,-2 15,-7 3,-4 5,-10 5,-19zm2 25c-5,7 -12,10 -22,10 -10,0 -17,-3 -22,-10 -5,-6 -8,-15 -8,-26 0,-11 3,-20 7,-26 5,-7 13,-10 22,-10 10,0 18,3 23,10 6,6 8,15 8,26 0,11 -2,20 -8,26z"/>
  <path id="2" class="fil1" d="M1172 155c9,0 16,3 20,9 7,-6 15,-9 21,-9 7,0 13,2 17,5 4,4 6,10 6,17l0 49 -10 0 0 -45c0,-6 -1,-10 -4,-13 -2,-3 -6,-4 -10,-4 -6,0 -12,2 -18,7 1,2 1,4 1,6l0 49 -10 0 0 -45c0,-6 -2,-10 -4,-13 -3,-3 -6,-4 -10,-4 -3,0 -6,0 -8,1 -2,1 -4,1 -5,2 -1,1 -3,2 -5,4l0 55 -10 0 0 -70 7 0 2 7c2,-2 4,-3 5,-4 1,-1 3,-2 6,-3 3,-1 6,-1 9,-1z"/>
  <path id="3" class="fil1" d="M1272 259l-11 0 0 -103 7 0 3 8c4,-3 8,-5 11,-7 4,-1 7,-2 11,-2 17,0 25,12 25,36 0,14 -3,23 -8,29 -6,5 -12,7 -19,7 -6,0 -13,-2 -19,-7l0 39zm0 -85l0 37c2,2 4,4 7,5 4,1 7,2 9,2 8,0 13,-2 16,-6 3,-5 4,-11 4,-20 0,-10 -1,-16 -4,-21 -3,-5 -7,-7 -11,-7 -3,0 -6,1 -9,2 -3,1 -5,2 -7,3 -1,1 -3,3 -5,5z"/>
  <polygon id="4" class="fil1" points="1338,226 1338,128 1348,128 1348,226 "/>
  <path id="5" class="fil1" d="M1371 226l0 -70 11 0 0 70 -11 0zm11 -98l0 13 -11 0 0 -13 11 0z"/>
  <path id="6" class="fil1" d="M1446 215l2 8c-7,3 -14,4 -19,4 -10,0 -18,-4 -23,-10 -5,-7 -7,-16 -7,-27 0,-11 2,-20 7,-26 6,-6 13,-9 23,-9 5,0 11,1 19,3l-4 8c-6,-1 -10,-2 -14,-2 -7,0 -12,2 -15,6 -4,5 -5,11 -5,20 0,19 6,28 20,28 5,0 10,-1 16,-3z"/>
  <path id="7" class="fil1" d="M1496 184l5 0c0,-8 -1,-14 -3,-16 -2,-3 -7,-4 -14,-4 -7,0 -14,1 -19,3l-2 -8c8,-3 16,-4 24,-4 17,0 25,8 25,24l0 47 -6 0 -4 -8c-4,3 -8,6 -11,7 -3,1 -7,2 -11,2 -6,0 -11,-2 -15,-6 -3,-4 -5,-9 -5,-15 0,-14 12,-22 36,-22zm5 9l-6 0c-9,0 -16,1 -19,3 -4,2 -6,5 -6,9 0,4 1,7 3,9 2,3 5,4 8,4 4,0 7,-1 10,-2 3,-2 6,-4 10,-8l0 -15z"/>
  <path id="8" class="fil1" d="M1539 211l0 -46 -9 0 0 -9 9 0 0 -20 11 0 0 20 17 0 0 9 -18 0 0 44c0,6 4,9 10,9 1,0 4,0 7,0l1 7c-3,1 -7,2 -11,2 -5,0 -8,-1 -12,-4 -3,-2 -5,-6 -5,-12z"/>
  <path id="9" class="fil1" d="M1634 193l-45 0c0,9 3,16 7,19 4,4 9,6 16,6 3,0 5,0 7,-1 1,0 2,0 3,-1 1,0 2,0 3,0 2,-1 4,-2 6,-2l1 8c-9,3 -16,5 -21,5 -10,0 -18,-3 -23,-9 -6,-6 -9,-14 -9,-26 0,-12 3,-21 8,-27 6,-7 12,-10 21,-10 8,0 15,3 19,8 5,5 7,13 7,22 0,2 0,5 0,8zm-44 -8l34 0c0,-6 -1,-12 -3,-15 -3,-4 -7,-6 -13,-6 -6,0 -10,2 -13,6 -3,4 -5,9 -5,15z"/>
  <path id="10" class="fil1" d="M1693 128l11 0 0 98 -6 0 -4 -8c-8,6 -16,9 -22,9 -17,0 -25,-12 -25,-36 0,-14 3,-23 9,-29 5,-4 11,-7 18,-7 6,0 13,2 19,7l0 -34zm0 81l0 -36c-2,-3 -4,-5 -7,-6 -4,-2 -6,-3 -9,-3 -7,0 -12,2 -15,6 -3,5 -5,11 -5,20 0,10 2,16 5,21 3,5 6,7 11,7 6,0 13,-3 20,-9z"/>
  <path id="11" class="fil1" d="M1804 219c-8,5 -15,8 -22,8 -16,0 -25,-12 -25,-36 0,-14 3,-23 9,-29 5,-5 12,-7 19,-7 8,0 14,3 19,10l4 -9 6 0 0 73c0,11 -2,18 -7,23 -5,5 -12,7 -21,7 -4,0 -8,0 -11,-1 -4,-1 -7,-3 -11,-4l2 -7c8,2 14,3 19,3 6,0 10,-1 13,-4 4,-4 6,-9 6,-15l0 -12zm0 -10l0 -26c0,-6 -2,-10 -6,-14 -3,-3 -7,-5 -11,-5 -7,0 -12,2 -15,6 -3,5 -4,11 -4,21 0,18 5,27 15,27 7,0 13,-3 21,-9z"/>
  <path id="12" class="fil1" d="M1888 193l-45 0c0,9 3,16 7,19 4,4 9,6 16,6 3,0 5,0 7,-1 1,0 2,0 3,-1 1,0 2,0 3,0 2,-1 4,-2 6,-2l1 8c-9,3 -16,5 -21,5 -10,0 -18,-3 -23,-9 -6,-6 -9,-14 -9,-26 0,-12 3,-21 8,-27 6,-7 12,-10 21,-10 8,0 15,3 19,8 5,5 7,13 7,22 0,2 0,5 0,8zm-44 -8l34 0c0,-6 -1,-12 -3,-15 -3,-4 -7,-6 -13,-6 -6,0 -10,2 -13,6 -3,4 -5,9 -5,15z"/>
  <path id="13" class="fil1" d="M1951 192c0,-9 -2,-16 -6,-21 -3,-5 -8,-7 -15,-7 -7,0 -12,2 -14,7 -3,4 -5,11 -5,20 0,18 7,27 20,27 6,0 12,-2 15,-7 3,-4 5,-10 5,-19zm2 25c-5,7 -12,10 -22,10 -10,0 -17,-3 -22,-10 -6,-6 -8,-15 -8,-26 0,-11 2,-20 7,-26 5,-7 13,-10 22,-10 10,0 17,3 23,10 5,6 8,15 8,26 0,11 -2,20 -8,26z"/>
  <polygon id="14" class="fil1" points="1980,226 1980,128 1990,128 1990,226 "/>
  <path id="15" class="fil1" d="M2059 192c0,-9 -2,-16 -6,-21 -3,-5 -8,-7 -15,-7 -7,0 -12,2 -14,7 -3,4 -5,11 -5,20 0,18 7,27 20,27 6,0 12,-2 15,-7 3,-4 5,-10 5,-19zm2 25c-5,7 -13,10 -22,10 -10,0 -17,-3 -22,-10 -6,-6 -8,-15 -8,-26 0,-11 2,-20 7,-26 5,-7 13,-10 22,-10 10,0 17,3 23,10 5,6 8,15 8,26 0,11 -2,20 -8,26z"/>
  <path id="16" class="fil1" d="M2127 219c-7,5 -14,8 -21,8 -17,0 -25,-12 -25,-36 0,-14 3,-23 9,-29 5,-5 12,-7 19,-7 8,0 14,3 19,10l4 -9 6 0 0 73c0,11 -2,18 -7,23 -5,5 -12,7 -21,7 -4,0 -8,0 -12,-1 -3,-1 -7,-3 -10,-4l2 -7c8,2 14,3 19,3 6,0 10,-1 13,-4 4,-4 5,-9 5,-15l0 -12zm0 -10l0 -26c0,-6 -1,-10 -5,-14 -4,-3 -7,-5 -11,-5 -7,0 -12,2 -15,6 -3,5 -5,11 -5,21 0,18 5,27 16,27 6,0 13,-3 20,-9z"/>
  <path id="17" class="fil1" d="M2176 227l-24 -71 12 0 18 59 18 -59 11 0 -24 70c-3,9 -6,16 -10,21 -4,5 -8,9 -14,12l-4 -7c4,-2 7,-6 10,-10 4,-4 6,-9 7,-15z"/>
  <path id="18" class="fil1" d="M2241 171l-10 0 0 -15 10 0 0 15zm0 43l-15 36 -7 -3 12 -37 10 4z"/>
  <path id="19" class="fil1" d="M1254 398l0 -69 10 0 0 69 -10 0zm10 -97l0 12 -10 0 0 -12 10 0z"/>
  <path id="20" class="fil1" d="M1298 343l0 55 -10 0 0 -69 6 0 2 6c2,-1 4,-3 5,-4 2,0 4,-1 7,-2 3,-1 6,-2 9,-2 7,0 12,2 16,6 4,4 7,10 7,17l0 48 -11 0 0 -45c0,-11 -5,-17 -14,-17 -7,0 -12,2 -17,7z"/>
  <path id="21" class="fil1" d="M1395 357l6 0c0,-9 -1,-14 -3,-17 -3,-2 -7,-4 -15,-4 -7,0 -13,1 -18,3l-2 -8c8,-3 16,-4 24,-4 16,0 24,8 24,25l0 46 -6 0 -3 -8c-5,4 -8,6 -11,7 -3,1 -7,2 -11,2 -7,0 -12,-2 -15,-6 -4,-4 -6,-9 -6,-15 0,-14 12,-21 36,-21zm6 8l-6 0c-10,0 -16,1 -20,3 -4,2 -5,5 -5,9 0,4 1,7 3,10 2,2 4,3 8,3 3,0 6,0 9,-2 3,-2 7,-4 11,-8l0 -15z"/>
  <path id="22" class="fil1" d="M1478 387l2 9c-8,2 -14,3 -20,3 -10,0 -17,-3 -22,-10 -5,-6 -8,-15 -8,-27 0,-11 3,-20 8,-26 5,-6 13,-9 23,-9 4,0 11,1 18,4l-4 8c-5,-2 -9,-3 -14,-3 -7,0 -12,2 -15,7 -3,4 -4,10 -4,19 0,19 6,28 19,28 5,0 11,-1 17,-3z"/>
  <path id="23" class="fil1" d="M1538 387l2 9c-7,2 -14,3 -19,3 -10,0 -18,-3 -23,-10 -5,-6 -7,-15 -7,-27 0,-11 2,-20 7,-26 6,-6 13,-9 23,-9 5,0 11,1 19,4l-4 8c-5,-2 -10,-3 -14,-3 -7,0 -12,2 -15,7 -4,4 -5,10 -5,19 0,19 6,28 20,28 5,0 10,-1 16,-3z"/>
  <path id="24" class="fil1" d="M1606 366l-45 0c0,9 3,15 7,19 4,3 9,5 16,5 3,0 5,0 7,0 1,-1 2,-1 3,-1 1,-1 2,-1 3,-1 2,-1 4,-1 6,-2l1 8c-9,3 -16,5 -21,5 -10,0 -18,-3 -23,-9 -6,-5 -9,-14 -9,-26 0,-11 3,-21 8,-27 6,-7 12,-10 21,-10 8,0 15,3 19,8 5,6 7,13 7,22 0,3 0,5 0,9zm-44 -8l34 0c0,-7 -1,-12 -4,-16 -2,-4 -6,-6 -12,-6 -6,0 -11,2 -13,6 -3,4 -5,9 -5,16z"/>
  <path id="25" class="fil1" d="M1623 386c6,3 12,4 17,4 6,0 10,-1 13,-3 3,-2 4,-5 4,-9 0,-4 -1,-6 -4,-8 -2,-2 -5,-4 -8,-5 -4,-1 -7,-2 -11,-4 -3,-1 -6,-3 -9,-6 -2,-2 -3,-5 -3,-9 0,-6 1,-11 5,-14 4,-3 9,-5 16,-5 6,0 12,1 18,3l1 1 -2 8c-6,-2 -11,-3 -15,-3 -5,0 -9,1 -10,2 -2,2 -3,4 -3,8 0,2 1,4 4,6 2,1 5,3 9,4 3,1 6,2 10,4 3,1 6,4 9,7 2,3 3,7 3,11 0,7 -2,12 -6,15 -5,4 -11,6 -19,6 -8,0 -15,-2 -22,-5l3 -8z"/>
  <path id="26" class="fil1" d="M1684 386c6,3 12,4 17,4 5,0 10,-1 12,-3 3,-2 5,-5 5,-9 0,-4 -1,-6 -4,-8 -2,-2 -5,-4 -9,-5 -3,-1 -7,-2 -10,-4 -4,-1 -7,-3 -9,-6 -2,-2 -4,-5 -4,-9 0,-6 2,-11 6,-14 4,-3 9,-5 16,-5 6,0 12,1 18,3l1 1 -2 8c-6,-2 -11,-3 -16,-3 -5,0 -8,1 -10,2 -1,2 -2,4 -2,8 0,2 1,4 3,6 3,1 6,3 9,4 4,1 7,2 11,4 3,1 6,4 9,7 2,3 3,7 3,11 0,7 -2,12 -7,15 -4,4 -10,6 -18,6 -8,0 -16,-2 -22,-5l3 -8z"/>
  <path id="27" class="fil1" d="M1745 398l0 -69 11 0 0 69 -11 0zm11 -97l0 12 -11 0 0 -12 11 0z"/>
  <path id="28" class="fil1" d="M1779 301l10 0 0 35c8,-6 15,-9 22,-9 17,0 25,12 25,36 0,14 -3,23 -9,29 -5,5 -12,7 -19,7 -3,0 -7,-1 -11,-2 -3,-2 -6,-4 -9,-6l-3 7 -6 0 0 -97zm10 44l0 38c2,2 5,4 8,5 3,2 6,2 9,2 7,0 12,-2 15,-6 3,-5 4,-11 4,-20 0,-9 -1,-16 -4,-21 -3,-5 -6,-7 -11,-7 -7,0 -13,3 -21,9z"/>
  <polygon id="29" class="fil1" points="1855,398 1855,301 1865,301 1865,398 "/>
  <path id="30" class="fil1" d="M1939 366l-44 0c0,9 2,15 6,19 4,3 10,5 16,5 3,0 6,0 7,0 1,-1 2,-1 4,-1 1,-1 1,-1 2,-1 2,-1 4,-1 6,-2l2 8c-10,3 -17,5 -22,5 -10,0 -17,-3 -23,-9 -6,-5 -9,-14 -9,-26 0,-11 3,-21 8,-27 6,-7 13,-10 21,-10 8,0 15,3 19,8 5,6 7,13 7,22 0,3 0,5 0,9zm-44 -8l34 0c0,-7 -1,-12 -3,-16 -3,-4 -7,-6 -13,-6 -6,0 -10,2 -13,6 -3,4 -4,9 -5,16z"/>
  <path id="31" class="fil1" d="M1975 343l-11 0 0 -14 11 0 0 14zm0 43l-16 36 -7 -2 13 -38 10 4z"/>
  <path id="32" class="fil1" d="M1113 515l0 55 -10 0 0 -69 6 0 2 7c2,-2 4,-3 5,-4 2,-1 4,-2 7,-3 3,-1 6,-2 9,-2 7,0 12,2 16,6 4,4 6,10 6,17l0 48 -10 0 0 -45c0,-11 -5,-17 -14,-17 -7,0 -12,3 -17,7z"/>
  <path id="33" class="fil1" d="M1223 536c0,-9 -2,-16 -5,-20 -4,-5 -9,-8 -16,-8 -7,0 -11,3 -14,7 -3,5 -5,12 -5,21 0,17 7,26 20,26 7,0 12,-2 15,-6 3,-4 5,-11 5,-20zm2 26c-5,6 -12,9 -22,9 -10,0 -17,-3 -22,-9 -5,-6 -8,-15 -8,-26 0,-12 2,-21 7,-27 5,-6 13,-10 22,-10 10,0 18,4 23,10 6,7 8,15 8,27 0,11 -2,20 -8,26z"/>
  <path id="34" class="fil1" d="M1288 555l0 -46 -9 0 0 -8 10 0 0 -20 10 0 0 20 17 0 0 8 -17 0 0 44c0,7 3,10 9,10 2,0 4,0 7,-1l2 7c-4,2 -8,2 -12,2 -4,0 -8,-1 -11,-3 -4,-3 -6,-7 -6,-13z"/>
  <path id="35" class="fil1" d="M1383 538l-44 0c0,9 2,15 6,19 5,4 10,5 16,5 3,0 6,0 7,0 1,0 3,-1 4,-1 1,0 2,-1 2,-1 3,-1 5,-1 6,-2l2 8c-9,4 -17,5 -22,5 -9,0 -17,-3 -23,-8 -6,-6 -9,-15 -9,-27 0,-11 3,-20 9,-27 5,-6 12,-10 20,-10 9,0 15,3 20,8 4,6 7,13 7,22 0,3 0,6 -1,9zm-43 -8l34 0c0,-7 -2,-12 -4,-16 -2,-4 -7,-6 -13,-6 -6,0 -10,2 -13,6 -3,4 -4,10 -4,16z"/>
  <path id="36" class="fil1" d="M1401 558c6,3 11,4 17,4 5,0 9,-1 12,-3 3,-2 5,-5 5,-9 0,-3 -2,-6 -4,-8 -3,-2 -5,-4 -9,-5 -3,-1 -7,-2 -10,-3 -4,-2 -7,-4 -9,-6 -3,-3 -4,-6 -4,-10 0,-6 2,-11 6,-14 4,-3 9,-5 15,-5 7,0 13,1 18,3l1 1 -1 9c-6,-2 -11,-4 -16,-4 -5,0 -8,1 -10,3 -2,1 -2,4 -2,7 0,2 1,4 3,6 3,1 6,3 9,4 4,1 7,3 11,4 3,2 6,4 8,7 3,3 4,7 4,11 0,7 -2,12 -7,16 -4,3 -11,5 -19,5 -8,0 -15,-2 -21,-5l3 -8z"/>
  <path id="37" class="fil1" d="M1466 555l0 -46 -10 0 0 -8 10 0 0 -20 10 0 0 20 17 0 0 8 -17 0 0 44c0,7 3,10 10,10 1,0 3,0 6,-1l2 7c-4,2 -8,2 -12,2 -4,0 -8,-1 -11,-3 -4,-3 -5,-7 -5,-13z"/>
  <path id="38" class="fil1" d="M1510 570l0 -69 11 0 0 69 -11 0zm11 -97l0 12 -11 0 0 -12 11 0z"/>
  <path id="39" class="fil1" d="M1554 515l0 55 -10 0 0 -69 7 0 1 7c2,-2 4,-3 5,-4 2,-1 4,-2 7,-3 3,-1 6,-2 9,-2 7,0 12,2 16,6 5,4 7,10 7,17l0 48 -11 0 0 -45c0,-11 -4,-17 -14,-17 -6,0 -12,3 -17,7z"/>
  <path id="40" class="fil1" d="M1661 563c-8,6 -15,8 -22,8 -16,0 -25,-12 -25,-36 0,-13 3,-23 9,-28 5,-5 12,-8 19,-8 8,0 14,4 20,11l3 -9 6 0 0 73c0,10 -2,18 -7,23 -5,4 -12,7 -21,7 -4,0 -8,-1 -11,-2 -4,-1 -7,-2 -11,-4l2 -7c8,3 14,4 19,4 6,0 10,-2 14,-5 3,-3 5,-8 5,-15l0 -12zm0 -10l0 -26c0,-5 -2,-10 -6,-13 -3,-4 -7,-6 -11,-6 -7,0 -12,3 -15,7 -3,4 -4,11 -4,20 0,18 5,27 15,27 7,0 14,-3 21,-9z"/>
  <path id="41" class="fil1" d="M1731 473l11 0 0 35c8,-6 15,-9 21,-9 17,0 25,12 25,36 0,14 -3,24 -8,29 -6,5 -12,7 -19,7 -4,0 -7,-1 -11,-2 -4,-2 -7,-4 -9,-5l-3 6 -7 0 0 -97zm11 45l0 38c2,2 4,3 7,5 3,1 7,1 9,1 8,0 13,-2 16,-6 3,-4 4,-11 4,-20 0,-9 -1,-16 -4,-21 -3,-4 -7,-7 -11,-7 -7,0 -14,3 -21,10z"/>
  <path id="42" class="fil1" d="M1847 553l0 -52 11 0 0 69 -6 0 -4 -8c-7,6 -14,9 -21,9 -7,0 -12,-2 -15,-6 -4,-4 -6,-9 -6,-16l0 -48 11 0 0 46c0,5 0,9 2,12 2,2 4,3 8,3 4,0 8,-1 12,-3 4,-2 6,-4 8,-6z"/>
  <path id="43" class="fil1" d="M1923 473l11 0 0 97 -7 0 -3 -7c-9,6 -16,9 -22,9 -17,0 -25,-12 -25,-37 0,-13 2,-23 8,-28 6,-5 12,-7 18,-7 7,0 14,2 20,6l0 -33zm0 80l0 -36c-2,-2 -4,-4 -8,-6 -3,-2 -6,-3 -9,-3 -7,0 -12,3 -15,7 -3,4 -4,11 -4,20 0,9 1,16 4,21 3,4 7,7 11,7 7,0 14,-4 21,-10z"/>
  <path id="44" class="fil1" d="M1998 563c-7,6 -14,8 -21,8 -17,0 -25,-12 -25,-36 0,-13 3,-23 9,-28 5,-5 12,-8 19,-8 8,0 14,4 19,11l4 -9 6 0 0 73c0,10 -2,18 -7,23 -6,4 -12,7 -21,7 -4,0 -8,-1 -12,-2 -3,-1 -7,-2 -10,-4l2 -7c7,3 14,4 19,4 6,0 10,-2 13,-5 4,-3 5,-8 5,-15l0 -12zm0 -10l0 -26c0,-5 -1,-10 -5,-13 -4,-4 -7,-6 -11,-6 -7,0 -12,3 -15,7 -3,4 -5,11 -5,20 0,18 5,27 16,27 6,0 13,-3 20,-9z"/>
  <path id="45" class="fil1" d="M2083 538l-45 0c0,9 2,15 7,19 4,4 9,5 16,5 3,0 5,0 6,0 2,0 3,-1 4,-1 1,0 2,-1 3,-1 2,-1 4,-1 6,-2l1 8c-9,4 -16,5 -22,5 -9,0 -17,-3 -23,-8 -5,-6 -8,-15 -8,-27 0,-11 3,-20 8,-27 5,-6 12,-10 21,-10 8,0 14,3 19,8 5,6 7,13 7,22 0,3 0,6 0,9zm-44 -8l34 0c0,-7 -1,-12 -4,-16 -2,-4 -6,-6 -12,-6 -6,0 -11,2 -13,6 -3,4 -5,10 -5,16z"/>
  <path id="46" class="fil1" d="M2104 555l0 -46 -9 0 0 -8 9 0 0 -20 11 0 0 20 17 0 0 8 -17 0 0 44c0,7 3,10 9,10 2,0 4,0 7,-1l1 7c-3,2 -7,2 -11,2 -4,0 -8,-1 -12,-3 -3,-3 -5,-7 -5,-13z"/>
  <path class="fil1" d="M4089 132l-3 9 -8 -2c-6,-1 -11,-2 -15,-2 -11,0 -16,5 -16,15 0,4 2,7 5,10 3,3 7,5 12,7 5,1 10,3 14,5 5,2 9,5 13,9 3,4 5,9 5,15 0,9 -3,16 -9,21 -6,5 -14,8 -24,8 -5,0 -10,-1 -16,-2 -5,-2 -9,-4 -13,-6l4 -8c8,4 16,6 24,6 8,0 13,-1 17,-4 4,-3 6,-8 6,-14 0,-6 -3,-10 -9,-14 -3,-1 -6,-3 -10,-4 -3,-1 -7,-3 -10,-4 -4,-2 -7,-3 -10,-5 -3,-2 -5,-5 -7,-8 -2,-4 -3,-8 -3,-12 0,-8 3,-14 8,-18 4,-5 11,-7 19,-7 8,0 17,2 26,5z"/>
  <path id="1" class="fil1" d="M4114 226l0 -70 11 0 0 70 -11 0zm11 -97l0 12 -11 0 0 -12 11 0z"/>
  <path id="2" class="fil1" d="M4177 155c9,0 16,3 20,9 7,-6 15,-9 21,-9 7,0 13,2 17,6 4,3 6,9 6,16l0 49 -10 0 0 -45c0,-5 -1,-10 -4,-13 -2,-3 -6,-4 -10,-4 -6,0 -12,2 -18,7 1,2 1,4 1,6l0 49 -10 0 0 -45c0,-5 -2,-10 -4,-13 -3,-3 -6,-4 -10,-4 -3,0 -6,0 -8,1 -2,1 -4,2 -5,2 -1,1 -3,2 -5,4l0 55 -10 0 0 -70 7 0 2 8c2,-2 4,-4 5,-5 1,-1 3,-2 6,-3 3,-1 6,-1 9,-1z"/>
  <path id="3" class="fil1" d="M4277 259l-11 0 0 -102 7 0 3 7c4,-3 8,-5 11,-7 4,-1 7,-2 11,-2 17,0 25,12 25,36 0,14 -3,23 -8,29 -6,5 -12,7 -19,7 -6,0 -13,-2 -19,-7l0 39zm0 -85l0 37c2,2 4,4 7,5 4,1 7,2 9,2 8,0 13,-2 16,-6 3,-5 4,-11 4,-20 0,-9 -1,-16 -4,-21 -3,-5 -7,-7 -11,-7 -3,0 -6,1 -9,2 -3,1 -5,2 -7,3 -1,1 -3,3 -5,5z"/>
  <polygon id="4" class="fil1" points="4343,226 4343,129 4353,129 4353,226 "/>
  <path id="5" class="fil1" d="M4427 193l-45 0c0,9 2,16 7,19 4,4 9,6 16,6 3,0 5,0 6,0 2,-1 3,-1 4,-1 1,-1 2,-1 2,-1 3,-1 5,-1 6,-2l2 8c-9,3 -16,5 -22,5 -9,0 -17,-3 -23,-9 -5,-6 -8,-14 -8,-26 0,-12 3,-21 8,-27 5,-7 12,-10 21,-10 8,0 14,3 19,8 5,5 7,13 7,22 0,2 0,5 0,8zm-44 -7l34 0c0,-7 -1,-13 -4,-16 -2,-4 -6,-6 -12,-6 -6,0 -11,2 -13,6 -3,4 -5,9 -5,16z"/>
  <path id="6" class="fil1" d="M4521 219c-8,5 -15,8 -21,8 -17,0 -26,-12 -26,-36 0,-14 3,-23 9,-29 6,-5 12,-7 20,-7 7,0 14,3 19,10l3 -9 6 0 0 74c0,10 -2,17 -7,22 -5,5 -12,8 -20,8 -5,0 -9,-1 -12,-2 -4,-1 -7,-3 -11,-4l2 -7c8,2 14,3 20,3 5,0 9,-1 13,-4 3,-4 5,-9 5,-15l0 -12zm0 -10l0 -26c0,-6 -2,-10 -6,-14 -3,-3 -7,-5 -11,-5 -7,0 -12,2 -15,6 -3,5 -4,11 -4,21 0,18 5,27 15,27 7,0 14,-3 21,-9z"/>
  <path id="7" class="fil1" d="M4605 193l-44 0c0,9 2,16 6,19 4,4 10,6 16,6 3,0 6,0 7,0 1,-1 2,-1 4,-1 1,-1 2,-1 2,-1 2,-1 4,-1 6,-2l2 8c-10,3 -17,5 -22,5 -10,0 -17,-3 -23,-9 -6,-6 -9,-14 -9,-26 0,-12 3,-21 8,-27 6,-7 13,-10 21,-10 8,0 15,3 20,8 4,5 6,13 6,22 0,2 0,5 0,8zm-44 -7l34 0c0,-7 -1,-13 -3,-16 -3,-4 -7,-6 -13,-6 -6,0 -10,2 -13,6 -3,4 -4,9 -5,16z"/>
  <path id="8" class="fil1" d="M4668 192c0,-9 -2,-16 -5,-21 -4,-5 -9,-7 -16,-7 -7,0 -11,2 -14,7 -3,4 -4,11 -4,21 0,17 6,26 19,26 7,0 12,-2 15,-6 3,-5 5,-11 5,-20zm3 25c-6,7 -13,10 -23,10 -10,0 -17,-3 -22,-9 -5,-7 -8,-16 -8,-27 0,-11 3,-20 8,-26 5,-7 12,-10 21,-10 10,0 18,3 23,10 6,6 8,15 8,26 0,11 -2,20 -7,26z"/>
  <polygon id="9" class="fil1" points="4697,226 4697,129 4708,129 4708,226 "/>
  <path id="10" class="fil1" d="M4776 192c0,-9 -2,-16 -5,-21 -4,-5 -9,-7 -16,-7 -7,0 -11,2 -14,7 -3,4 -4,11 -4,21 0,17 6,26 19,26 7,0 12,-2 15,-6 3,-5 5,-11 5,-20zm3 25c-6,7 -13,10 -23,10 -10,0 -17,-3 -22,-9 -5,-7 -8,-16 -8,-27 0,-11 3,-20 8,-26 5,-7 12,-10 21,-10 10,0 18,3 23,10 6,6 8,15 8,26 0,11 -2,20 -7,26z"/>
  <path id="11" class="fil1" d="M4845 219c-8,5 -15,8 -22,8 -16,0 -25,-12 -25,-36 0,-14 3,-23 9,-29 6,-5 12,-7 20,-7 7,0 13,3 19,10l3 -9 6 0 0 74c0,10 -2,17 -7,22 -5,5 -12,8 -21,8 -4,0 -8,-1 -11,-2 -4,-1 -7,-3 -11,-4l2 -7c8,2 14,3 20,3 5,0 9,-1 13,-4 3,-4 5,-9 5,-15l0 -12zm0 -10l0 -26c0,-6 -2,-10 -6,-14 -3,-3 -7,-5 -11,-5 -7,0 -12,2 -15,6 -3,5 -4,11 -4,21 0,18 5,27 15,27 7,0 14,-3 21,-9z"/>
  <path id="12" class="fil1" d="M4893 227l-23 -71 11 0 18 59 18 -59 11 0 -24 70c-3,9 -6,16 -10,21 -3,5 -8,9 -14,12l-4 -7c4,-2 7,-6 11,-10 3,-4 5,-9 6,-15z"/>
  <path id="13" class="fil1" d="M4959 171l-11 0 0 -15 11 0 0 15zm0 43l-16 36 -7 -2 13 -38 10 4z"/>
  <path id="14" class="fil1" d="M4034 306c5,1 10,2 15,3l2 1 -2 8 -7 -2c-5,-1 -9,-2 -13,-2 -10,0 -14,5 -14,14 0,6 5,11 15,15 4,1 8,2 12,4 5,2 8,4 11,8 3,4 5,8 5,13 0,7 -2,13 -7,18 -4,4 -10,7 -17,8l0 13 -9 0 0 -13c-8,0 -15,-3 -21,-7l3 -7c7,4 14,5 21,5 7,0 12,-1 15,-4 4,-2 5,-6 5,-10 0,-5 -1,-8 -4,-11 -3,-2 -7,-4 -11,-6 -4,-1 -8,-3 -13,-5 -4,-2 -7,-4 -10,-8 -3,-3 -5,-8 -5,-14 0,-6 2,-11 6,-14 3,-4 8,-6 14,-7l0 -12 9 0 0 12z"/>
  <path id="15" class="fil1" d="M4105 306c5,1 10,2 15,3l2 1 -2 8 -8 -2c-4,-1 -9,-2 -12,-2 -10,0 -15,5 -15,14 0,6 5,11 16,15 4,1 8,2 12,4 4,2 8,4 11,8 3,4 4,8 4,13 0,7 -2,13 -6,18 -4,4 -10,7 -17,8l0 13 -10 0 0 -13c-7,0 -14,-3 -21,-7l3 -7c8,4 15,5 22,5 6,0 11,-1 15,-4 3,-2 5,-6 5,-10 0,-5 -1,-8 -4,-11 -3,-2 -7,-4 -11,-6 -4,-1 -9,-3 -13,-5 -4,-2 -8,-4 -11,-8 -3,-3 -4,-8 -4,-14 0,-6 2,-11 5,-14 4,-4 9,-6 14,-7l0 -12 10 0 0 12z"/>
  <path id="16" class="fil1" d="M4175 306c6,1 11,2 15,3l3 1 -2 8 -8 -2c-5,-1 -9,-2 -13,-2 -9,0 -14,5 -14,14 0,6 5,11 15,15 5,1 9,2 13,4 4,2 8,4 11,8 3,4 4,8 4,13 0,7 -2,13 -6,18 -4,4 -10,7 -18,8l0 13 -9 0 0 -13c-7,0 -14,-3 -21,-7l3 -7c8,4 15,5 21,5 7,0 12,-1 16,-4 3,-2 5,-6 5,-10 0,-5 -2,-8 -4,-11 -3,-2 -7,-4 -11,-6 -5,-1 -9,-3 -13,-5 -4,-2 -8,-4 -11,-8 -3,-3 -4,-8 -4,-14 0,-6 2,-11 5,-14 4,-4 8,-6 14,-7l0 -12 9 0 0 12z"/>
  <path id="17" class="fil1" d="M4252 386c6,3 12,4 17,4 6,0 10,-1 13,-3 3,-2 4,-5 4,-9 0,-4 -1,-6 -4,-8 -2,-2 -5,-4 -8,-5 -4,-1 -7,-2 -11,-4 -3,-1 -6,-3 -9,-5 -2,-3 -3,-6 -3,-10 0,-6 2,-11 5,-14 4,-3 9,-5 16,-5 6,0 12,1 18,3l1 1 -2 9c-5,-3 -11,-4 -15,-4 -5,0 -8,1 -10,3 -2,1 -3,4 -3,7 0,2 1,4 4,6 2,1 5,3 9,4 3,1 7,2 10,4 4,1 7,4 9,7 2,3 4,7 4,11 0,7 -3,12 -7,16 -5,3 -11,5 -19,5 -8,0 -15,-2 -21,-5l2 -8z"/>
  <path id="18" class="fil1" d="M4326 431l-10 0 0 -102 6 0 3 8c4,-3 8,-6 11,-7 4,-2 7,-3 11,-3 17,0 25,12 25,36 0,14 -2,24 -8,29 -6,5 -12,7 -18,7 -7,0 -14,-2 -20,-6l0 38zm0 -85l0 37c2,2 4,4 7,5 4,2 7,2 10,2 7,0 12,-2 15,-6 3,-4 4,-11 4,-20 0,-9 -1,-16 -4,-21 -3,-4 -7,-7 -11,-7 -3,0 -6,1 -9,2 -3,1 -5,2 -7,4 -1,1 -3,2 -5,4z"/>
  <path id="19" class="fil1" d="M4440 366l-45 0c0,9 3,15 7,19 4,3 9,5 16,5 3,0 5,0 7,0 1,-1 2,-1 3,-1 1,-1 2,-1 3,-1 2,-1 4,-1 6,-2l1 8c-9,4 -16,5 -21,5 -10,0 -18,-3 -23,-9 -6,-5 -9,-14 -9,-26 0,-11 3,-20 8,-27 6,-7 12,-10 21,-10 8,0 15,3 19,8 5,6 7,13 7,22 0,3 0,6 0,9zm-44 -8l34 0c0,-7 -1,-12 -3,-16 -3,-4 -7,-6 -13,-6 -6,0 -10,2 -13,6 -3,4 -5,9 -5,16z"/>
  <path id="20" class="fil1" d="M4470 343l0 55 -10 0 0 -69 6 0 2 6c2,-1 4,-3 5,-3 2,-1 4,-2 7,-3 3,-1 6,-2 9,-2 7,0 12,2 16,6 4,4 7,10 7,17l0 48 -11 0 0 -45c0,-11 -5,-17 -14,-17 -7,0 -12,2 -17,7z"/>
  <path id="21" class="fil1" d="M4539 383l0 -46 -10 0 0 -8 10 0 0 -20 10 0 0 20 17 0 0 8 -17 0 0 44c0,7 3,10 10,10 1,0 3,-1 6,-1l2 7c-4,2 -8,2 -12,2 -4,0 -8,-1 -11,-4 -4,-2 -5,-6 -5,-12z"/>
  <path id="22" class="fil1" d="M4663 364c0,-9 -2,-16 -5,-21 -4,-4 -9,-7 -16,-7 -7,0 -11,3 -14,7 -3,5 -4,11 -4,21 0,17 6,26 19,26 7,0 12,-2 15,-6 3,-4 5,-11 5,-20zm3 26c-6,6 -13,9 -23,9 -10,0 -17,-3 -22,-9 -5,-7 -8,-15 -8,-27 0,-11 3,-20 8,-26 5,-7 12,-10 21,-10 10,0 18,3 23,10 6,7 8,15 8,26 0,12 -2,20 -7,27z"/>
  <path id="23" class="fil1" d="M4703 343l0 55 -11 0 0 -69 7 0 2 6c2,-1 3,-3 5,-3 1,-1 3,-2 6,-3 3,-1 6,-2 10,-2 6,0 11,2 16,6 4,4 6,10 6,17l0 48 -10 0 0 -45c0,-11 -5,-17 -15,-17 -6,0 -12,2 -16,7z"/>
  <path id="24" class="fil1" d="M4802 386c6,3 11,4 17,4 5,0 9,-1 12,-3 3,-2 5,-5 5,-9 0,-4 -2,-6 -4,-8 -3,-2 -5,-4 -9,-5 -3,-1 -7,-2 -10,-4 -4,-1 -7,-3 -9,-5 -3,-3 -4,-6 -4,-10 0,-6 2,-11 6,-14 4,-3 9,-5 15,-5 7,0 13,1 18,3l1 1 -1 9c-6,-3 -11,-4 -16,-4 -5,0 -8,1 -10,3 -2,1 -2,4 -2,7 0,2 1,4 3,6 3,1 6,3 9,4 4,1 7,2 11,4 3,1 6,4 8,7 3,3 4,7 4,11 0,7 -2,12 -7,16 -4,3 -11,5 -19,5 -8,0 -15,-2 -21,-5l3 -8z"/>
  <path id="25" class="fil1" d="M4863 398l0 -69 10 0 0 69 -10 0zm10 -97l0 12 -10 0 0 -12 10 0z"/>
  <path id="26" class="fil1" d="M4898 383l0 -46 -9 0 0 -8 10 0 0 -20 10 0 0 20 17 0 0 8 -17 0 0 44c0,7 3,10 9,10 2,0 4,-1 7,-1l2 7c-4,2 -8,2 -12,2 -4,0 -8,-1 -11,-4 -4,-2 -6,-6 -6,-12z"/>
  <path id="27" class="fil1" d="M4993 366l-44 0c0,9 2,15 6,19 4,3 10,5 16,5 3,0 6,0 7,0 1,-1 2,-1 4,-1 1,-1 2,-1 2,-1 2,-1 4,-1 6,-2l2 8c-10,4 -17,5 -22,5 -10,0 -17,-3 -23,-9 -6,-5 -9,-14 -9,-26 0,-11 3,-20 9,-27 5,-7 12,-10 20,-10 8,0 15,3 20,8 4,6 7,13 7,22 0,3 -1,6 -1,9zm-43 -8l34 0c0,-7 -2,-12 -4,-16 -3,-4 -7,-6 -13,-6 -6,0 -10,2 -13,6 -3,4 -4,9 -4,16z"/>
  <path id="28" class="fil1" d="M4130 571l0 -70 10 0 0 70 -10 0zm10 -98l0 12 -10 0 0 -12 10 0z"/>
  <path id="29" class="fil1" d="M4174 515l0 56 -10 0 0 -70 6 0 2 7c2,-2 4,-3 5,-4 2,-1 4,-2 7,-3 3,-1 6,-2 9,-2 7,0 12,2 16,6 4,4 7,10 7,17l0 49 -11 0 0 -46c0,-11 -5,-17 -14,-17 -7,0 -12,3 -17,7z"/>
  <polygon id="30" class="fil1" points="4289,501 4265,571 4253,571 4230,501 4242,501 4259,559 4277,501 "/>
  <path id="31" class="fil1" d="M4351 538l-44 0c0,9 2,15 6,19 4,4 10,5 16,5 3,0 6,0 7,0 1,0 3,-1 4,-1 1,0 2,-1 2,-1 2,0 4,-1 6,-2l2 8c-10,4 -17,5 -22,5 -10,0 -17,-3 -23,-8 -6,-6 -9,-15 -9,-27 0,-11 3,-20 9,-27 5,-6 12,-10 20,-10 9,0 15,3 20,9 4,5 7,12 7,21 0,3 0,6 -1,9zm-43 -8l34 0c0,-7 -2,-12 -4,-16 -2,-4 -7,-5 -13,-5 -6,0 -10,2 -13,6 -3,4 -4,9 -4,15z"/>
  <path id="32" class="fil1" d="M4368 558c6,3 12,4 18,4 5,0 9,-1 12,-3 3,-2 4,-5 4,-9 0,-3 -1,-6 -3,-8 -3,-2 -6,-4 -9,-5 -3,-1 -7,-2 -10,-3 -4,-2 -7,-4 -9,-6 -3,-3 -4,-6 -4,-10 0,-6 2,-11 6,-14 4,-3 9,-5 15,-5 7,0 13,1 18,3l1 1 -1 9c-6,-2 -11,-3 -16,-3 -5,0 -8,0 -10,2 -2,1 -2,4 -2,7 0,3 1,4 3,6 3,2 6,3 9,4 3,1 7,3 10,4 4,2 7,4 9,7 3,3 4,7 4,11 0,7 -2,12 -7,16 -4,3 -11,5 -19,5 -8,0 -15,-1 -21,-5l2 -8z"/>
  <path id="33" class="fil1" d="M4434 555l0 -46 -10 0 0 -8 10 0 0 -20 10 0 0 20 17 0 0 8 -17 0 0 45c0,6 3,9 9,9 2,0 4,0 7,-1l2 8c-4,1 -8,1 -12,1 -4,0 -8,-1 -11,-3 -4,-3 -5,-7 -5,-13z"/>
  <path id="34" class="fil1" d="M4478 571l0 -70 11 0 0 70 -11 0zm11 -98l0 12 -11 0 0 -12 11 0z"/>
  <path id="35" class="fil1" d="M4551 563c-7,6 -14,9 -21,9 -17,0 -25,-13 -25,-37 0,-13 3,-23 9,-28 5,-5 12,-8 19,-8 8,0 14,4 19,11l4 -9 6 0 0 73c0,10 -3,18 -8,23 -5,5 -11,7 -20,7 -4,0 -8,-1 -12,-2 -3,-1 -7,-2 -10,-3l2 -8c7,3 14,4 19,4 5,0 10,-2 13,-5 4,-3 5,-8 5,-15l0 -12zm0 -10l0 -26c0,-5 -1,-10 -5,-13 -4,-4 -7,-5 -11,-5 -7,0 -12,2 -15,6 -3,4 -5,11 -5,20 0,18 5,27 16,27 6,0 13,-3 20,-9z"/>
  <path id="36" class="fil1" d="M4617 529l6 0c0,-9 -1,-14 -3,-17 -2,-2 -7,-3 -14,-3 -8,0 -14,0 -19,2l-2 -8c8,-2 16,-4 24,-4 17,0 25,9 25,25l0 47 -6 0 -4 -9c-4,4 -8,6 -11,7 -3,2 -7,2 -11,2 -6,0 -11,-2 -15,-5 -4,-4 -5,-9 -5,-16 0,-14 12,-21 35,-21zm6 9l-6 0c-9,0 -16,1 -20,2 -3,2 -5,5 -5,9 0,4 1,7 3,10 2,2 5,4 8,4 3,0 7,-1 10,-3 3,-1 6,-4 10,-8l0 -14z"/>
  <path id="37" class="fil1" d="M4661 555l0 -46 -10 0 0 -8 10 0 0 -20 11 0 0 20 17 0 0 8 -18 0 0 45c0,6 4,9 10,9 1,0 4,0 7,-1l1 8c-4,1 -8,1 -12,1 -4,0 -7,-1 -11,-3 -3,-3 -5,-7 -5,-13z"/>
  <path id="38" class="fil1" d="M4706 571l0 -70 10 0 0 70 -10 0zm10 -98l0 12 -10 0 0 -12 10 0z"/>
  <path id="39" class="fil1" d="M4782 536c0,-9 -1,-16 -5,-20 -4,-5 -9,-7 -15,-7 -7,0 -12,2 -15,6 -3,5 -4,12 -4,21 0,18 6,26 19,26 7,0 12,-2 15,-6 4,-4 5,-11 5,-20zm3 26c-5,6 -13,9 -23,9 -9,0 -17,-3 -22,-9 -5,-6 -8,-15 -8,-26 0,-12 3,-21 8,-27 5,-6 12,-10 22,-10 9,0 17,4 22,10 6,7 9,16 9,27 0,11 -3,20 -8,26z"/>
  <path id="40" class="fil1" d="M4822 515l0 56 -11 0 0 -70 7 0 2 7c2,-2 4,-3 5,-4 1,-1 4,-2 6,-3 3,-1 7,-2 10,-2 6,0 12,2 16,6 4,4 6,10 6,17l0 49 -10 0 0 -46c0,-11 -5,-17 -14,-17 -7,0 -13,3 -17,7z"/>
  <path class="fil1" d="M4230 1069c-13,0 -24,-4 -31,-13 -7,-9 -10,-21 -10,-37 0,-15 3,-27 11,-36 8,-9 18,-13 31,-13 8,0 15,1 22,4l-2 8c-6,-2 -12,-3 -20,-3 -10,0 -18,3 -23,10 -6,7 -9,17 -9,30 0,12 3,22 8,30 6,7 13,11 23,11 6,0 14,-2 23,-5l3 7c-8,5 -17,7 -26,7z"/>
  <path id="1" class="fil1" d="M4308 1069c-13,0 -22,-5 -29,-14 -6,-9 -9,-21 -9,-36 0,-15 3,-27 9,-36 7,-9 17,-14 29,-14 13,0 23,5 29,14 7,9 10,21 10,36 0,20 -6,34 -17,43 -6,5 -13,7 -22,7zm0 -90c-9,0 -16,3 -21,11 -5,8 -7,18 -7,29 0,12 3,21 7,29 5,8 12,12 21,12 10,0 17,-4 21,-12 5,-8 8,-18 8,-30 0,-15 -5,-26 -13,-33 -4,-4 -10,-6 -16,-6z"/>
  <polygon id="2" class="fil1" points="4448,1068 4438,1068 4438,988 4406,1043 4403,1043 4372,989 4372,1068 4361,1068 4361,971 4373,971 4405,1024 4438,971 4448,971 "/>
  <path id="3" class="fil1" d="M4493 1027l-14 0 0 41 -10 0 0 -97 28 0c10,0 18,2 22,7 5,4 7,11 7,21 0,10 -3,17 -8,21 -6,5 -14,7 -25,7zm-1 -47l-13 0 0 39 9 0c10,0 17,-2 21,-5 5,-3 7,-8 7,-15 0,-7 -2,-12 -6,-15 -4,-3 -10,-4 -18,-4z"/>
  <polygon id="4" class="fil1" points="4596,1068 4544,1068 4544,971 4555,971 4555,1059 4596,1059 "/>
  <polygon id="5" class="fil1" points="4663,1068 4610,1068 4610,971 4663,971 4663,980 4621,980 4621,1011 4659,1011 4659,1020 4621,1020 4621,1059 4663,1059 "/>
  <polygon id="6" class="fil1" points="4703,1068 4703,980 4676,980 4676,971 4740,971 4740,980 4713,980 4713,1068 "/>
  <polygon id="7" class="fil1" points="4808,1068 4756,1068 4756,971 4808,971 4808,980 4766,980 4766,1011 4805,1011 4805,1020 4766,1020 4766,1059 4808,1059 "/>
  <polygon class="fil1" points="1516,1069 1504,1069 1457,990 1457,1068 1447,1068 1447,971 1457,971 1505,1052 1505,971 1516,971 "/>
  <path id="1" class="fil1" d="M1573 1069c-12,0 -22,-5 -28,-14 -7,-9 -10,-21 -10,-36 0,-15 3,-26 10,-36 6,-9 16,-13 29,-13 12,0 22,4 28,13 7,10 10,21 10,36 0,20 -5,34 -17,43 -6,5 -13,7 -22,7zm1 -90c-10,0 -17,4 -22,11 -4,8 -7,18 -7,29 0,12 3,21 8,29 4,8 11,12 21,12 9,0 16,-4 21,-12 5,-8 7,-18 7,-30 0,-15 -4,-26 -13,-33 -4,-4 -9,-6 -15,-6z"/>
  <polygon id="2" class="fil1" points="1701,1069 1689,1069 1642,990 1642,1068 1631,1068 1631,971 1642,971 1690,1052 1690,971 1701,971 "/>
  <polygon id="3" class="fil1" points="1779,1068 1726,1068 1726,971 1779,971 1779,980 1736,980 1736,1011 1775,1011 1775,1020 1736,1020 1736,1059 1779,1059 "/>
  <polygon class="fil1" points="1255,1564 1245,1564 1245,1467 1255,1467 "/>
  <path id="1" class="fil1" d="M1291 1509l0 55 -10 0 0 -69 6 0 2 6c2,-1 4,-3 5,-3 2,-1 4,-2 7,-3 3,-1 6,-2 9,-2 7,0 12,2 16,6 4,4 7,10 7,17l0 48 -11 0 0 -45c0,-11 -5,-17 -14,-17 -7,0 -12,2 -17,7z"/>
  <polygon id="2" class="fil1" points="1406,1494 1382,1564 1370,1564 1347,1494 1359,1494 1376,1553 1394,1494 "/>
  <path id="3" class="fil1" d="M1468 1532l-44 0c0,9 2,15 6,19 4,3 10,5 16,5 3,0 6,0 7,0 1,-1 2,-1 4,-1 1,-1 2,-1 2,-1 2,-1 4,-1 6,-2l2 8c-10,4 -17,5 -22,5 -10,0 -17,-3 -23,-9 -6,-5 -9,-14 -9,-26 0,-11 3,-21 9,-27 5,-7 12,-10 20,-10 8,0 15,3 20,8 4,6 7,13 7,22 0,3 -1,6 -1,9zm-44 -8l34 0c0,-7 -1,-12 -3,-16 -3,-4 -7,-6 -13,-6 -6,0 -10,2 -13,6 -3,4 -4,9 -5,16z"/>
  <path id="4" class="fil1" d="M1485 1552c6,3 12,4 18,4 5,0 9,-1 12,-3 3,-2 4,-5 4,-9 0,-4 -1,-6 -3,-8 -3,-2 -6,-4 -9,-5 -4,-1 -7,-2 -11,-4 -3,-1 -6,-3 -8,-5 -3,-3 -4,-6 -4,-10 0,-6 2,-11 6,-14 4,-3 9,-5 15,-5 7,0 13,1 18,3l1 1 -2 9c-5,-3 -10,-4 -15,-4 -5,0 -8,1 -10,3 -2,1 -3,4 -3,7 0,2 2,4 4,6 2,1 5,3 9,4 3,1 7,2 10,4 4,1 7,4 9,7 3,3 4,7 4,11 0,7 -2,12 -7,15 -5,4 -11,6 -19,6 -8,0 -15,-2 -21,-5l2 -8z"/>
  <path id="5" class="fil1" d="M1550 1549l0 -46 -9 0 0 -8 10 0 0 -20 10 0 0 20 17 0 0 8 -17 0 0 44c0,7 3,10 9,10 2,0 4,-1 7,-1l2 7c-4,2 -8,2 -12,2 -4,0 -8,-1 -11,-4 -4,-2 -6,-6 -6,-12z"/>
  <path id="6" class="fil1" d="M1595 1564l0 -69 10 0 0 69 -10 0zm10 -97l0 12 -10 0 0 -12 10 0z"/>
  <path id="7" class="fil1" d="M1668 1557c-7,5 -15,8 -21,8 -17,0 -25,-12 -25,-36 0,-13 3,-23 9,-29 5,-4 12,-7 19,-7 8,0 14,4 19,11l4 -10 6 0 0 74c0,10 -3,17 -8,22 -5,5 -11,8 -20,8 -4,0 -8,-1 -12,-2 -3,-1 -7,-2 -10,-4l2 -7c7,2 14,4 19,4 5,0 10,-2 13,-5 4,-3 5,-8 5,-15l0 -12zm0 -10l0 -26c0,-6 -1,-10 -5,-14 -4,-3 -7,-5 -11,-5 -7,0 -13,2 -15,7 -3,4 -5,11 -5,20 0,18 5,27 16,27 6,0 13,-3 20,-9z"/>
  <path id="8" class="fil1" d="M1734 1523l6 0c0,-9 -1,-14 -3,-17 -2,-2 -7,-4 -14,-4 -8,0 -14,1 -19,3l-2 -8c8,-2 16,-4 24,-4 17,0 25,8 25,25l0 46 -6 0 -4 -8c-4,4 -8,6 -11,7 -3,2 -7,2 -11,2 -6,0 -11,-2 -15,-6 -4,-3 -5,-9 -5,-15 0,-14 12,-21 35,-21zm6 8l-6 0c-10,0 -16,1 -20,3 -3,2 -5,5 -5,9 0,4 1,7 3,10 2,2 5,3 8,3 3,0 7,0 10,-2 3,-1 6,-4 10,-8l0 -15z"/>
  <path id="9" class="fil1" d="M1778 1549l0 -46 -10 0 0 -8 10 0 0 -20 10 0 0 20 17 0 0 8 -17 0 0 44c0,7 3,10 10,10 1,0 4,-1 7,-1l1 7c-4,2 -8,2 -12,2 -4,0 -7,-1 -11,-4 -3,-2 -5,-6 -5,-12z"/>
  <path id="10" class="fil1" d="M1822 1564l0 -69 11 0 0 69 -11 0zm11 -97l0 12 -11 0 0 -12 11 0z"/>
  <path id="11" class="fil1" d="M1899 1530c0,-9 -2,-16 -5,-21 -4,-4 -9,-7 -16,-7 -6,0 -11,3 -14,7 -3,5 -4,11 -4,21 0,17 6,26 19,26 7,0 12,-2 15,-6 4,-4 5,-11 5,-20zm3 26c-6,6 -13,9 -23,9 -9,0 -17,-3 -22,-9 -5,-7 -8,-15 -8,-27 0,-11 3,-20 8,-26 5,-7 12,-10 22,-10 9,0 17,3 22,10 6,6 9,15 9,26 0,12 -3,20 -8,27z"/>
  <path id="12" class="fil1" d="M1939 1509l0 55 -11 0 0 -69 7 0 2 6c2,-1 4,-3 5,-3 1,-1 3,-2 6,-3 3,-1 7,-2 10,-2 6,0 12,2 16,6 4,4 6,10 6,17l0 48 -10 0 0 -45c0,-11 -5,-17 -14,-17 -7,0 -13,2 -17,7z"/>
  <path id="13" class="fil1" d="M1612 1702c0,-9 -2,-16 -5,-20 -4,-5 -9,-7 -16,-7 -7,0 -11,2 -14,6 -3,5 -5,12 -5,21 0,18 7,26 20,26 7,0 12,-2 15,-6 3,-4 5,-11 5,-20zm2 26c-5,6 -12,9 -22,9 -10,0 -17,-3 -22,-9 -5,-6 -8,-15 -8,-26 0,-12 3,-21 7,-27 5,-6 13,-10 22,-10 10,0 18,4 23,10 6,7 8,16 8,27 0,11 -2,20 -8,26z"/>
  <path id="14" class="fil1" d="M1644 1667l0 -14c0,-5 2,-9 5,-12 4,-2 8,-3 12,-3 4,0 8,0 11,1l-1 8c-3,-1 -5,-1 -7,-1 -6,0 -10,3 -10,9l0 12 15 0 0 8 -15 0 0 62 -10 0 0 -62 -11 0 0 -8 11 0z"/>
  <path id="15" class="fil1" d="M1282 1838c9,0 15,3 19,9 8,-6 15,-9 22,-9 7,0 12,1 16,5 5,4 7,9 7,17l0 49 -10 0 0 -45c0,-6 -2,-10 -4,-13 -3,-3 -6,-4 -11,-4 -5,0 -11,2 -17,7 0,2 0,4 0,6l0 49 -10 0 0 -45c0,-6 -1,-10 -4,-13 -2,-3 -6,-4 -10,-4 -3,0 -5,0 -7,1 -3,0 -4,1 -6,2 -1,1 -2,2 -4,3l0 56 -10 0 0 -70 6 0 2 7c2,-2 4,-3 5,-4 2,-1 4,-2 7,-3 3,-1 6,-1 9,-1z"/>
  <path id="16" class="fil1" d="M1419 1876l-44 0c0,9 2,15 6,19 5,4 10,6 16,6 4,0 6,0 7,-1 1,0 3,0 4,-1 1,0 2,0 2,-1 3,0 5,-1 6,-1l2 8c-9,3 -17,5 -22,5 -9,0 -17,-3 -23,-9 -6,-6 -8,-15 -8,-26 0,-12 2,-21 8,-28 5,-6 12,-9 20,-9 9,0 15,2 20,8 4,5 7,12 7,22 0,2 0,5 -1,8zm-43 -8l34 0c0,-7 -2,-12 -4,-16 -2,-3 -7,-5 -13,-5 -6,0 -10,2 -13,6 -3,4 -4,9 -4,15z"/>
  <path id="17" class="fil1" d="M1480 1898l2 8c-7,2 -14,3 -19,3 -10,0 -18,-3 -23,-9 -5,-7 -7,-16 -7,-27 0,-12 2,-20 7,-26 6,-6 13,-9 23,-9 5,0 11,1 19,3l-4 8c-5,-1 -10,-2 -14,-2 -7,0 -12,2 -15,6 -4,4 -5,11 -5,20 0,18 6,27 20,27 5,0 10,0 16,-2z"/>
  <path id="18" class="fil1" d="M1552 1909l-11 0 0 -46c0,-11 -4,-17 -14,-17 -7,0 -13,2 -17,7l0 56 -10 0 0 -98 10 0 0 33c2,-1 3,-3 5,-3 1,-1 3,-2 5,-3 3,0 6,-1 9,-1 7,0 12,2 16,6 5,4 7,10 7,17l0 49z"/>
  <path id="19" class="fil1" d="M1607 1867l6 0c0,-8 -1,-14 -3,-16 -3,-3 -7,-4 -15,-4 -7,0 -13,1 -18,3l-2 -8c8,-3 16,-4 24,-4 16,0 25,8 25,24l0 47 -7 0 -3 -8c-4,3 -8,5 -11,7 -3,1 -7,2 -11,2 -7,0 -12,-2 -15,-6 -4,-4 -6,-9 -6,-15 0,-15 12,-22 36,-22zm6 9l-6 0c-10,0 -16,1 -20,3 -3,2 -5,4 -5,8 0,4 1,8 3,10 2,3 5,4 8,4 3,0 6,-1 9,-2 3,-2 7,-5 11,-9l0 -14z"/>
  <path id="20" class="fil1" d="M1659 1853l0 56 -10 0 0 -70 7 0 1 7c2,-2 4,-3 5,-4 2,-1 4,-2 7,-3 3,-1 6,-1 9,-1 7,0 12,2 16,6 5,4 7,9 7,16l0 49 -11 0 0 -46c0,-11 -4,-16 -14,-16 -6,0 -12,2 -17,6z"/>
  <path id="21" class="fil1" d="M1724 1909l0 -70 11 0 0 70 -11 0zm11 -98l0 13 -11 0 0 -13 11 0z"/>
  <path id="22" class="fil1" d="M1755 1896c6,3 12,5 17,5 6,0 10,-2 13,-4 3,-2 4,-5 4,-8 0,-4 -1,-7 -3,-9 -3,-2 -6,-3 -9,-5 -4,-1 -7,-2 -11,-3 -3,-1 -6,-3 -9,-6 -2,-3 -3,-6 -3,-10 0,-6 2,-10 6,-14 3,-3 9,-4 15,-4 7,0 13,1 18,3l1 0 -2 9c-5,-2 -10,-3 -15,-3 -5,0 -8,0 -10,2 -2,1 -3,4 -3,7 0,3 1,5 4,6 2,2 5,3 9,4 3,1 7,3 10,4 4,2 7,4 9,7 2,3 4,7 4,12 0,6 -3,11 -7,15 -5,4 -11,6 -19,6 -8,0 -15,-2 -21,-6l2 -8z"/>
  <path id="23" class="fil1" d="M1848 1838c9,0 15,3 19,9 8,-6 15,-9 22,-9 7,0 12,1 16,5 5,4 7,9 7,17l0 49 -10 0 0 -45c0,-6 -2,-10 -4,-13 -3,-3 -6,-4 -11,-4 -5,0 -11,2 -17,7 0,2 0,4 0,6l0 49 -10 0 0 -45c0,-6 -1,-10 -4,-13 -2,-3 -6,-4 -10,-4 -3,0 -5,0 -7,1 -3,0 -4,1 -6,2 -1,1 -2,2 -4,3l0 56 -10 0 0 -70 6 0 2 7c2,-2 4,-3 5,-4 2,-1 4,-2 7,-3 3,-1 6,-1 9,-1z"/>
  <path id="24" class="fil1" d="M1934 1896c6,3 12,5 18,5 5,0 9,-2 12,-4 3,-2 4,-5 4,-8 0,-4 -1,-7 -3,-9 -3,-2 -6,-3 -9,-5 -4,-1 -7,-2 -11,-3 -3,-1 -6,-3 -8,-6 -3,-3 -4,-6 -4,-10 0,-6 2,-10 6,-14 4,-3 9,-4 15,-4 7,0 13,1 18,3l1 0 -2 9c-5,-2 -10,-3 -15,-3 -5,0 -8,0 -10,2 -2,1 -3,4 -3,7 0,3 2,5 4,6 3,2 5,3 9,4 3,1 7,3 10,4 4,2 7,4 9,7 3,3 4,7 4,12 0,6 -2,11 -7,15 -5,4 -11,6 -19,6 -8,0 -15,-2 -21,-6l2 -8z"/>
  <path class="fil1" d="M4247 1507l-14 0 0 41 -10 0 0 -98 28 0c10,0 18,3 22,7 5,5 7,12 7,22 0,9 -3,16 -8,21 -6,5 -14,7 -25,7zm-1 -48l-13 0 0 39 9 0c10,0 17,-1 21,-4 5,-3 7,-8 7,-15 0,-7 -2,-12 -6,-15 -4,-3 -10,-5 -18,-5z"/>
  <path id="1" class="fil1" d="M4309 1495l0 53 -11 0 0 -70 7 0 1 9c5,-4 9,-6 12,-8 3,-1 6,-2 10,-2 2,0 3,0 4,0l2 1 -2 9c-1,0 -4,0 -7,0 -5,0 -11,2 -16,8z"/>
  <path id="2" class="fil1" d="M4398 1515l-44 0c0,9 2,16 6,19 4,4 10,6 16,6 3,0 6,0 7,-1 1,0 2,0 4,-1 1,0 1,0 2,0 2,-1 4,-2 6,-2l2 8c-10,3 -17,5 -22,5 -10,0 -17,-3 -23,-9 -6,-6 -9,-14 -9,-26 0,-12 3,-21 8,-27 6,-7 13,-10 21,-10 8,0 15,3 19,8 5,5 7,13 7,22 0,2 0,5 0,8zm-44 -8l34 0c0,-6 -1,-12 -3,-15 -3,-4 -7,-6 -13,-6 -6,0 -10,2 -13,6 -3,4 -4,9 -5,15z"/>
  <path id="3" class="fil1" d="M4458 1450l10 0 0 98 -6 0 -4 -8c-8,6 -16,9 -22,9 -17,0 -25,-12 -25,-36 0,-14 3,-23 9,-29 5,-4 11,-7 18,-7 7,0 13,2 20,7l0 -34zm0 81l0 -37c-2,-2 -5,-4 -8,-5 -3,-2 -6,-3 -9,-3 -7,0 -12,2 -15,6 -3,5 -4,11 -4,20 0,10 1,16 4,21 3,5 6,7 11,7 7,0 13,-3 21,-9z"/>
  <path id="4" class="fil1" d="M4491 1548l0 -70 11 0 0 70 -11 0zm11 -98l0 13 -11 0 0 -13 11 0z"/>
  <path id="5" class="fil1" d="M4566 1537l2 8c-7,3 -14,4 -19,4 -10,0 -18,-4 -23,-10 -5,-7 -7,-16 -7,-27 0,-11 2,-20 7,-26 6,-6 13,-9 23,-9 5,0 11,1 19,3l-4 8c-5,-1 -10,-2 -14,-2 -7,0 -12,2 -15,6 -3,5 -5,11 -5,20 0,18 7,28 20,28 5,0 10,-1 16,-3z"/>
  <path id="6" class="fil1" d="M4587 1533l0 -46 -9 0 0 -9 9 0 0 -20 11 0 0 20 17 0 0 9 -17 0 0 44c0,6 3,9 9,9 2,0 4,0 7,0l2 7c-4,1 -8,2 -12,2 -4,0 -8,-1 -12,-4 -3,-2 -5,-6 -5,-12z"/>
  <path id="7" class="fil1" d="M4632 1548l0 -70 10 0 0 70 -10 0zm10 -98l0 13 -10 0 0 -13 10 0z"/>
  <polygon id="8" class="fil1" points="4713,1478 4690,1548 4678,1548 4654,1478 4666,1478 4684,1537 4702,1478 "/>
  <path id="9" class="fil1" d="M4776 1515l-45 0c0,9 3,16 7,19 4,4 9,6 16,6 3,0 5,0 7,-1 1,0 2,0 3,-1 1,0 2,0 3,0 2,-1 4,-2 6,-2l1 8c-9,3 -16,5 -21,5 -10,0 -18,-3 -23,-9 -6,-6 -9,-14 -9,-26 0,-12 3,-21 8,-27 6,-7 12,-10 21,-10 8,0 15,3 19,8 5,5 7,13 7,22 0,2 0,5 0,8zm-44 -8l34 0c0,-6 -1,-12 -3,-15 -3,-4 -7,-6 -13,-6 -6,0 -10,2 -13,6 -3,4 -5,9 -5,15z"/>
  <path id="10" class="fil1" d="M4217 1738c-11,-19 -17,-40 -17,-62 0,-22 6,-43 17,-62l9 2c-10,19 -15,39 -15,60 0,21 5,41 15,61l-9 1z"/>
  <path id="11" class="fil1" d="M4281 1623l10 0 0 97 -6 0 -3 -8c-9,6 -16,9 -23,9 -16,0 -25,-12 -25,-36 0,-13 3,-23 9,-28 6,-5 12,-8 18,-8 7,0 14,3 20,7l0 -33zm0 80l0 -36c-2,-3 -5,-5 -8,-6 -3,-2 -6,-3 -9,-3 -7,0 -12,2 -15,7 -3,4 -4,11 -4,20 0,9 1,16 4,20 3,5 7,7 11,7 7,0 14,-3 21,-9z"/>
  <path id="12" class="fil1" d="M4315 1720l0 -69 10 0 0 69 -10 0zm10 -97l0 12 -10 0 0 -12 10 0z"/>
  <path id="13" class="fil1" d="M4359 1667l0 53 -10 0 0 -69 6 0 2 8c4,-4 8,-6 11,-8 3,-1 6,-2 10,-2 2,0 3,0 4,0l2 1 -1 10c-2,-1 -4,-1 -7,-1 -6,0 -11,3 -17,8z"/>
  <path id="14" class="fil1" d="M4449 1688l-45 0c0,9 2,15 6,19 5,3 10,5 16,5 4,0 6,0 7,0 2,-1 3,-1 4,-1 1,-1 2,-1 2,-1 3,-1 5,-1 6,-2l2 8c-9,3 -16,5 -22,5 -9,0 -17,-3 -23,-9 -5,-5 -8,-14 -8,-26 0,-12 2,-21 8,-27 5,-7 12,-10 20,-10 9,0 15,3 20,8 5,6 7,13 7,22 0,3 0,5 0,9zm-44 -8l34 0c0,-7 -1,-12 -4,-16 -2,-4 -6,-6 -12,-6 -6,0 -11,2 -14,6 -2,4 -4,9 -4,16z"/>
  <path id="15" class="fil1" d="M4509 1709l2 9c-7,2 -14,3 -19,3 -10,0 -18,-3 -23,-10 -5,-6 -7,-15 -7,-27 0,-11 2,-20 8,-26 5,-6 12,-9 23,-9 4,0 10,1 18,4l-4 8c-5,-2 -10,-3 -14,-3 -7,0 -12,2 -15,7 -3,4 -5,10 -5,19 0,19 7,28 20,28 5,0 10,-1 16,-3z"/>
  <path id="16" class="fil1" d="M4530 1705l0 -46 -9 0 0 -8 10 0 0 -20 10 0 0 20 17 0 0 8 -17 0 0 44c0,6 3,10 9,10 2,0 4,-1 7,-1l2 7c-4,1 -8,2 -12,2 -4,0 -8,-1 -11,-4 -4,-2 -6,-6 -6,-12z"/>
  <path id="17" class="fil1" d="M4652 1703l0 -52 10 0 0 69 -6 0 -3 -8c-8,6 -15,9 -22,9 -7,0 -12,-2 -15,-6 -4,-4 -6,-9 -6,-17l0 -47 11 0 0 46c0,5 1,9 2,12 2,2 5,3 8,3 4,0 8,-1 12,-3 4,-2 7,-4 9,-6z"/>
  <path id="18" class="fil1" d="M4685 1708c6,3 12,4 17,4 6,0 10,-1 13,-3 2,-2 4,-5 4,-9 0,-4 -1,-6 -4,-8 -2,-2 -5,-4 -9,-5 -3,-1 -7,-2 -10,-4 -4,-1 -6,-3 -9,-6 -2,-2 -3,-5 -3,-9 0,-6 1,-11 5,-14 4,-3 9,-5 16,-5 6,0 12,1 18,3l1 1 -2 8c-6,-2 -11,-3 -16,-3 -4,0 -8,1 -9,2 -2,2 -3,4 -3,8 0,2 1,4 4,6 2,1 5,3 8,4 4,1 7,2 11,4 3,1 6,4 9,7 2,3 3,7 3,11 0,7 -2,12 -6,15 -5,4 -11,6 -19,6 -8,0 -15,-2 -22,-5l3 -8z"/>
  <path id="19" class="fil1" d="M4797 1688l-45 0c0,9 2,15 7,19 4,3 9,5 15,5 4,0 6,0 7,0 2,-1 3,-1 4,-1 1,-1 2,-1 2,-1 3,-1 5,-1 6,-2l2 8c-9,3 -16,5 -22,5 -9,0 -17,-3 -23,-9 -5,-5 -8,-14 -8,-26 0,-12 2,-21 8,-27 5,-7 12,-10 21,-10 8,0 14,3 19,8 5,6 7,13 7,22 0,3 0,5 0,9zm-44 -8l34 0c0,-7 -1,-12 -4,-16 -2,-4 -6,-6 -12,-6 -6,0 -11,2 -14,6 -2,4 -4,9 -4,16z"/>
  <path id="20" class="fil1" d="M4239 1892l0 -69 10 0 0 69 -10 0zm10 -97l0 12 -10 0 0 -12 10 0z"/>
  <path id="21" class="fil1" d="M4283 1837l0 55 -11 0 0 -69 7 0 2 7c2,-2 4,-3 5,-4 1,-1 3,-2 6,-3 3,-1 7,-2 10,-2 6,0 12,2 16,6 4,4 6,10 6,17l0 48 -10 0 0 -45c0,-11 -5,-17 -14,-17 -7,0 -13,3 -17,7z"/>
  <path id="22" class="fil1" d="M4424 1795l11 0 0 97 -7 0 -3 -7c-9,6 -16,9 -22,9 -17,0 -25,-12 -25,-37 0,-13 3,-23 9,-28 5,-5 11,-7 17,-7 7,0 14,2 20,6l0 -33zm0 80l0 -36c-2,-2 -4,-4 -8,-6 -3,-2 -6,-3 -8,-3 -8,0 -13,3 -16,7 -3,4 -4,11 -4,20 0,9 1,16 4,21 3,4 7,7 11,7 7,0 14,-4 21,-10z"/>
  <path id="23" class="fil1" d="M4508 1860l-44 0c0,9 2,15 6,19 4,4 10,5 16,5 3,0 6,0 7,0 1,0 2,-1 4,-1 1,0 2,-1 2,-1 2,-1 4,-1 6,-2l2 8c-10,4 -17,5 -22,5 -10,0 -17,-3 -23,-8 -6,-6 -9,-15 -9,-27 0,-11 3,-20 9,-27 5,-6 12,-10 20,-10 8,0 15,3 20,8 4,6 7,13 7,22 0,3 -1,6 -1,9zm-43 -8l34 0c0,-7 -2,-12 -4,-16 -3,-4 -7,-6 -13,-6 -6,0 -10,2 -13,6 -3,4 -4,10 -4,16z"/>
  <path id="24" class="fil1" d="M4525 1880c6,3 12,4 18,4 5,0 9,-1 12,-3 3,-2 4,-5 4,-9 0,-3 -1,-6 -3,-8 -3,-2 -6,-4 -9,-5 -4,-1 -7,-2 -10,-3 -4,-2 -7,-4 -9,-6 -3,-3 -4,-6 -4,-10 0,-6 2,-11 6,-14 4,-3 9,-5 15,-5 7,0 13,1 18,3l1 1 -2 9c-5,-2 -10,-4 -15,-4 -5,0 -8,1 -10,3 -2,1 -3,4 -3,7 0,2 2,4 4,6 3,1 5,3 9,4 3,1 7,3 10,4 4,2 7,4 9,7 3,3 4,7 4,11 0,7 -2,12 -7,16 -5,3 -11,5 -19,5 -8,0 -15,-2 -21,-5l2 -8z"/>
  <path id="25" class="fil1" d="M4587 1892l0 -69 10 0 0 69 -10 0zm10 -97l0 12 -10 0 0 -12 10 0z"/>
  <path id="26" class="fil1" d="M4660 1885c-8,6 -15,8 -21,8 -17,0 -25,-12 -25,-36 0,-13 3,-23 9,-28 5,-5 11,-8 19,-8 8,0 14,4 19,11l4 -9 6 0 0 73c0,10 -3,18 -8,23 -5,4 -12,7 -20,7 -4,0 -8,-1 -12,-2 -3,-1 -7,-2 -11,-4l2 -7c8,3 15,4 20,4 5,0 10,-2 13,-5 3,-3 5,-8 5,-15l0 -12zm0 -10l0 -26c0,-6 -2,-10 -5,-13 -4,-4 -8,-6 -11,-6 -8,0 -13,3 -16,7 -2,4 -4,11 -4,20 0,18 5,27 15,27 7,0 14,-3 21,-9z"/>
  <path id="27" class="fil1" d="M4707 1837l0 55 -11 0 0 -69 7 0 1 7c3,-2 4,-3 6,-4 1,-1 3,-2 6,-3 3,-1 6,-2 10,-2 6,0 11,2 16,6 4,4 6,10 6,17l0 48 -10 0 0 -45c0,-11 -5,-17 -15,-17 -6,0 -12,3 -16,7z"/>
  <path id="28" class="fil1" d="M4773 1786c11,19 17,40 17,62 0,23 -5,43 -16,63l-10 -2c10,-20 16,-40 16,-61 0,-20 -6,-41 -16,-60l9 -2z"/>
  <path class="fil1" d="M2765 1549l0 -98 28 0c10,0 17,2 22,7 5,4 7,10 7,18 0,6 -2,10 -5,14 -4,3 -8,5 -14,6 7,1 13,4 17,8 4,4 6,9 6,16 0,8 -3,15 -9,21 -6,5 -15,8 -25,8l-27 0zm11 -9l19 0c6,0 11,-2 15,-6 3,-4 5,-8 5,-14 0,-5 -2,-10 -6,-14 -4,-3 -9,-5 -17,-5l-16 0 0 39zm17 -80l-17 0 0 32 16 0c5,0 10,-1 13,-4 4,-3 6,-7 6,-12 0,-10 -6,-15 -18,-16z"/>
  <path id="1" class="fil1" d="M2857 1496l0 53 -10 0 0 -70 6 0 2 8c4,-3 8,-6 11,-7 3,-2 6,-2 10,-2 2,0 3,0 4,0l2 1 -1 9c-2,0 -4,-1 -7,-1 -6,0 -11,3 -17,9z"/>
  <path id="2" class="fil1" d="M2928 1507l6 0c0,-8 -1,-14 -3,-16 -2,-3 -7,-4 -14,-4 -8,0 -14,1 -19,3l-2 -8c8,-3 16,-4 24,-4 17,0 25,8 25,24l0 47 -6 0 -4 -8c-4,3 -8,6 -11,7 -3,1 -7,2 -11,2 -6,0 -11,-2 -15,-6 -4,-4 -6,-9 -6,-15 0,-15 12,-22 36,-22zm6 9l-6 0c-10,0 -16,1 -20,3 -3,2 -5,4 -5,8 0,4 1,8 3,10 2,3 5,4 8,4 3,0 6,-1 9,-2 4,-2 7,-5 11,-8l0 -15z"/>
  <path id="3" class="fil1" d="M3011 1538l2 8c-7,2 -14,4 -19,4 -10,0 -18,-4 -23,-10 -5,-7 -7,-16 -7,-27 0,-12 2,-20 7,-26 6,-6 13,-9 23,-9 5,0 11,1 19,3l-4 8c-6,-1 -10,-2 -14,-2 -7,0 -12,2 -15,6 -4,4 -5,11 -5,20 0,18 6,27 19,27 6,0 11,0 17,-2z"/>
  <polygon id="4" class="fil1" points="3030,1451 3041,1451 3041,1509 3071,1479 3084,1479 3054,1507 3085,1549 3074,1549 3048,1514 3041,1522 3041,1549 3030,1549 "/>
  <path id="5" class="fil1" d="M3150 1516l-45 0c0,9 2,15 7,19 4,4 9,6 16,6 3,0 5,0 6,-1 2,0 3,0 4,-1 1,0 2,0 3,0 2,-1 4,-2 6,-2l1 8c-9,3 -16,5 -22,5 -9,0 -17,-3 -23,-9 -5,-6 -8,-15 -8,-26 0,-12 3,-21 8,-27 5,-7 12,-10 21,-10 8,0 14,2 19,8 5,5 7,13 7,22 0,2 0,5 0,8zm-44 -8l34 0c0,-7 -1,-12 -4,-16 -2,-3 -6,-5 -12,-5 -6,0 -11,2 -13,6 -3,4 -5,9 -5,15z"/>
  <path id="6" class="fil1" d="M3171 1534l0 -46 -9 0 0 -9 9 0 0 -20 11 0 0 20 17 0 0 9 -17 0 0 44c0,6 3,9 9,9 2,0 4,0 7,-1l1 8c-3,1 -7,2 -11,2 -4,0 -8,-2 -12,-4 -3,-2 -5,-7 -5,-12z"/>
  <path id="7" class="fil1" d="M3289 1549l0 -61 -27 0 0 61 -10 0 0 -61 -11 0 0 -9 11 0 0 -13c0,-6 2,-10 5,-12 4,-3 7,-4 11,-4 4,0 8,1 12,2l-1 7c-3,0 -6,-1 -7,-1 -7,0 -10,4 -10,10l0 11 38 0 0 70 -11 0zm11 -98l0 13 -11 0 0 -13 11 0z"/>
  <path id="8" class="fil1" d="M3373 1516l-44 0c0,9 2,15 6,19 4,4 10,6 16,6 3,0 6,0 7,-1 1,0 2,0 4,-1 1,0 2,0 2,0 2,-1 4,-2 6,-2l2 8c-10,3 -17,5 -22,5 -10,0 -17,-3 -23,-9 -6,-6 -9,-15 -9,-26 0,-12 3,-21 8,-27 6,-7 13,-10 21,-10 8,0 15,2 20,8 4,5 6,13 6,22 0,2 0,5 0,8zm-44 -8l34 0c0,-7 -1,-12 -3,-16 -3,-3 -7,-5 -13,-5 -6,0 -10,2 -13,6 -3,4 -4,9 -5,15z"/>
  <polygon id="9" class="fil1" points="3393,1549 3393,1451 3403,1451 3403,1549 "/>
  <path id="10" class="fil1" d="M3469 1451l10 0 0 98 -6 0 -4 -8c-8,6 -16,9 -22,9 -17,0 -25,-12 -25,-36 0,-14 3,-23 9,-29 5,-5 11,-7 18,-7 7,0 13,2 20,7l0 -34zm0 81l0 -37c-2,-2 -5,-4 -8,-6 -3,-1 -6,-2 -9,-2 -7,0 -12,2 -15,6 -3,5 -5,11 -5,20 0,9 2,16 5,21 3,5 6,7 11,7 6,0 13,-3 21,-9z"/>
  <path id="11" class="fil1" d="M2792 1624l11 0 0 34c8,-5 15,-8 21,-8 17,0 25,12 25,36 0,14 -3,23 -8,29 -6,4 -12,7 -19,7 -4,0 -7,-1 -11,-3 -4,-1 -7,-3 -9,-5l-3 7 -7 0 0 -97zm11 44l0 38c2,2 4,4 7,5 3,1 7,2 9,2 8,0 13,-2 16,-6 3,-5 4,-11 4,-20 0,-10 -1,-16 -4,-21 -3,-5 -7,-7 -11,-7 -7,0 -14,3 -21,9z"/>
  <path id="12" class="fil1" d="M2917 1688l-45 0c0,9 3,16 7,19 4,4 9,6 16,6 3,0 5,0 7,-1 1,0 2,0 3,0 1,-1 2,-1 3,-1 2,-1 4,-2 6,-2l1 8c-9,3 -16,5 -21,5 -10,0 -18,-3 -23,-9 -6,-6 -9,-14 -9,-26 0,-12 3,-21 8,-27 6,-7 12,-10 21,-10 8,0 15,3 19,8 5,5 7,13 7,22 0,2 0,5 0,8zm-44 -7l34 0c0,-7 -1,-13 -4,-16 -2,-4 -6,-6 -12,-6 -6,0 -10,2 -13,6 -3,4 -5,9 -5,16z"/>
  <path id="13" class="fil1" d="M2989 1721l-11 0 0 -46c0,-11 -4,-17 -14,-17 -7,0 -12,3 -17,7l0 56 -10 0 0 -97 10 0 0 33c2,-2 4,-3 5,-4 1,-1 3,-2 5,-2 3,-1 6,-1 9,-1 7,0 12,2 16,5 5,4 7,10 7,17l0 49z"/>
  <path id="14" class="fil1" d="M3044 1679l6 0c0,-8 -1,-14 -3,-16 -2,-3 -7,-4 -14,-4 -8,0 -14,1 -19,3l-2 -8c8,-3 16,-4 24,-4 17,0 25,8 25,25l0 46 -6 0 -4 -8c-4,3 -8,6 -11,7 -3,1 -7,2 -11,2 -6,0 -12,-2 -15,-6 -4,-4 -6,-9 -6,-15 0,-14 12,-22 36,-22zm6 9l-6 0c-10,0 -16,1 -20,3 -3,2 -5,5 -5,9 0,4 1,7 3,9 2,3 5,4 8,4 3,0 6,-1 9,-2 3,-2 7,-4 11,-8l0 -15z"/>
  <polygon id="15" class="fil1" points="3134,1651 3110,1721 3098,1721 3075,1651 3087,1651 3104,1710 3122,1651 "/>
  <path id="16" class="fil1" d="M3146 1721l0 -70 11 0 0 70 -11 0zm11 -97l0 12 -11 0 0 -12 11 0z"/>
  <path id="17" class="fil1" d="M3223 1687c0,-9 -2,-16 -5,-21 -4,-5 -9,-7 -16,-7 -7,0 -11,2 -14,7 -3,4 -5,11 -5,21 0,17 7,26 20,26 7,0 12,-2 15,-7 3,-4 5,-10 5,-19zm2 25c-5,7 -12,10 -22,10 -10,0 -17,-3 -22,-10 -5,-6 -8,-15 -8,-26 0,-11 2,-20 7,-26 5,-7 13,-10 22,-10 10,0 17,3 23,10 6,6 8,15 8,26 0,11 -2,20 -8,26z"/>
  <path id="18" class="fil1" d="M3262 1668l0 53 -10 0 0 -70 7 0 1 9c5,-4 9,-6 11,-8 3,-1 7,-2 11,-2 2,0 3,0 4,0l2 1 -2 9c-2,0 -4,0 -7,0 -5,0 -11,2 -17,8z"/>
  <path id="19" class="fil1" d="M3339 1624l10 0 0 34c8,-5 15,-8 21,-8 17,0 26,12 26,36 0,14 -3,23 -9,29 -6,4 -12,7 -19,7 -4,0 -7,-1 -11,-3 -4,-1 -7,-3 -9,-5l-3 7 -6 0 0 -97zm10 44l0 38c2,2 4,4 7,5 4,1 7,2 10,2 7,0 12,-2 15,-6 3,-5 4,-11 4,-20 0,-10 -1,-16 -4,-21 -3,-5 -7,-7 -11,-7 -7,0 -14,3 -21,9z"/>
  <path id="20" class="fil1" d="M3427 1722l-24 -71 12 0 18 59 18 -59 11 0 -24 70c-3,9 -6,16 -10,21 -3,5 -8,9 -14,12l-4 -7c4,-2 7,-6 10,-10 4,-4 6,-9 7,-15z"/>
  <path id="21" class="fil1" d="M2604 1926l-10 0 0 -102 6 0 3 8c4,-3 8,-6 11,-7 4,-2 7,-3 11,-3 17,0 26,12 26,36 0,14 -3,23 -9,29 -6,5 -12,7 -18,7 -7,0 -14,-2 -20,-6l0 38zm0 -85l0 37c2,2 4,4 8,5 3,2 6,2 9,2 7,0 12,-2 15,-6 3,-4 4,-11 4,-20 0,-9 -1,-16 -4,-21 -3,-4 -7,-7 -11,-7 -3,0 -6,1 -9,2 -3,1 -5,2 -7,3 -1,2 -3,3 -5,5z"/>
  <path id="22" class="fil1" d="M2700 1852l5 0c0,-9 -1,-14 -3,-17 -2,-2 -7,-4 -14,-4 -7,0 -14,1 -19,3l-2 -8c8,-2 16,-4 25,-4 16,0 24,8 24,25l0 46 -6 0 -4 -8c-4,4 -8,6 -11,7 -3,1 -6,2 -10,2 -7,0 -12,-2 -16,-6 -3,-4 -5,-9 -5,-15 0,-14 12,-21 36,-21zm6 8l-7 0c-9,0 -16,1 -19,3 -4,2 -6,5 -6,9 0,4 1,7 3,10 2,2 5,3 8,3 4,0 7,0 10,-2 3,-1 6,-4 11,-8l0 -15z"/>
  <path id="23" class="fil1" d="M2752 1840l0 53 -10 0 0 -69 6 0 2 8c4,-4 8,-6 11,-8 3,-1 6,-2 10,-2 2,0 3,0 4,0l2 1 -1 10c-2,-1 -4,-1 -7,-1 -6,0 -11,3 -17,8z"/>
  <path id="24" class="fil1" d="M2823 1852l6 0c0,-9 -1,-14 -3,-17 -2,-2 -7,-4 -14,-4 -8,0 -14,1 -19,3l-2 -8c8,-2 16,-4 24,-4 17,0 25,8 25,25l0 46 -6 0 -4 -8c-4,4 -8,6 -11,7 -3,1 -7,2 -11,2 -6,0 -11,-2 -15,-6 -4,-4 -6,-9 -6,-15 0,-14 12,-21 36,-21zm6 8l-6 0c-10,0 -16,1 -20,3 -3,2 -5,5 -5,9 0,4 1,7 3,10 2,2 5,3 8,3 3,0 6,0 10,-2 3,-1 6,-4 10,-8l0 -15z"/>
  <path id="25" class="fil1" d="M2895 1822c8,0 15,3 19,10 7,-7 15,-10 21,-10 7,0 13,2 17,6 4,3 6,9 6,16l0 49 -10 0 0 -45c0,-5 -1,-10 -4,-12 -2,-3 -6,-5 -10,-5 -6,0 -12,2 -18,7 1,2 1,4 1,6l0 49 -10 0 0 -45c0,-5 -2,-10 -4,-12 -3,-3 -6,-5 -10,-5 -3,0 -6,1 -8,1 -2,1 -4,2 -5,2 -1,1 -3,2 -4,4l0 55 -11 0 0 -69 7 0 2 7c2,-2 4,-4 5,-5 1,0 3,-1 6,-2 3,-1 6,-2 10,-2z"/>
  <path id="26" class="fil1" d="M3032 1861l-45 0c0,9 3,15 7,19 4,3 9,5 16,5 3,0 5,0 7,0 1,-1 2,-1 3,-1 1,-1 2,-1 3,-1 2,-1 4,-1 6,-2l1 8c-9,3 -16,5 -21,5 -10,0 -18,-3 -23,-9 -6,-5 -9,-14 -9,-26 0,-11 3,-21 8,-27 6,-7 12,-10 21,-10 8,0 15,3 19,8 5,6 7,13 7,22 0,3 0,6 0,9zm-44 -8l34 0c0,-7 -1,-12 -3,-16 -3,-4 -7,-6 -13,-6 -6,0 -10,2 -13,6 -3,4 -5,9 -5,16z"/>
  <path id="27" class="fil1" d="M3053 1878l0 -46 -9 0 0 -8 9 0 0 -20 11 0 0 20 17 0 0 8 -17 0 0 44c0,7 3,10 9,10 2,0 4,-1 7,-1l2 7c-4,2 -8,2 -12,2 -4,0 -8,-1 -11,-4 -4,-2 -6,-6 -6,-12z"/>
  <path id="28" class="fil1" d="M3148 1861l-44 0c0,9 2,15 6,19 4,3 10,5 16,5 3,0 6,0 7,0 1,-1 2,-1 4,-1 1,-1 2,-1 2,-1 2,-1 4,-1 6,-2l2 8c-10,3 -17,5 -22,5 -10,0 -17,-3 -23,-9 -6,-5 -9,-14 -9,-26 0,-11 3,-21 8,-27 6,-7 13,-10 21,-10 8,0 15,3 20,8 4,6 7,13 7,22 0,3 -1,6 -1,9zm-44 -8l34 0c0,-7 -1,-12 -3,-16 -3,-4 -7,-6 -13,-6 -6,0 -10,2 -13,6 -3,4 -4,9 -5,16z"/>
  <path id="29" class="fil1" d="M3178 1840l0 53 -10 0 0 -69 7 0 1 8c5,-4 9,-6 12,-8 3,-1 6,-2 10,-2 2,0 3,0 4,0l2 1 -2 10c-2,-1 -4,-1 -7,-1 -5,0 -11,3 -17,8z"/>
  <path id="30" class="fil1" d="M3252 1881c6,3 12,4 17,4 6,0 10,-1 13,-3 2,-2 4,-5 4,-9 0,-4 -1,-6 -4,-8 -2,-2 -5,-4 -9,-5 -3,-1 -7,-2 -10,-4 -3,-1 -6,-3 -9,-5 -2,-3 -3,-6 -3,-10 0,-6 1,-11 5,-14 4,-3 9,-5 16,-5 6,0 12,1 18,3l1 1 -2 8c-6,-2 -11,-3 -16,-3 -4,0 -8,1 -9,3 -2,1 -3,3 -3,7 0,2 1,4 4,6 2,1 5,3 8,4 4,1 7,2 11,4 3,1 6,4 9,7 2,3 3,7 3,11 0,7 -2,12 -6,15 -5,4 -11,6 -19,6 -8,0 -15,-2 -22,-5l3 -8z"/>
  <path id="31" class="fil1" d="M3317 1878l0 -46 -9 0 0 -8 9 0 0 -20 11 0 0 20 17 0 0 8 -18 0 0 44c0,7 4,10 10,10 1,0 4,-1 7,-1l1 7c-4,2 -7,2 -11,2 -5,0 -8,-1 -12,-4 -3,-2 -5,-6 -5,-12z"/>
  <path id="32" class="fil1" d="M3403 1876l0 -52 11 0 0 69 -6 0 -4 -8c-7,6 -14,9 -21,9 -7,0 -12,-2 -16,-6 -3,-4 -5,-9 -5,-17l0 -47 11 0 0 46c0,5 0,9 2,12 2,2 4,3 8,3 4,0 8,-1 12,-3 4,-2 6,-4 8,-6z"/>
  <path id="33" class="fil1" d="M3479 1796l10 0 0 97 -6 0 -3 -8c-9,6 -16,9 -22,9 -17,0 -25,-12 -25,-36 0,-13 2,-23 8,-28 6,-5 12,-8 18,-8 7,0 14,3 20,7l0 -33zm0 80l0 -36c-2,-3 -4,-5 -8,-6 -3,-2 -6,-3 -9,-3 -7,0 -12,2 -15,7 -3,4 -4,11 -4,20 0,9 1,16 4,20 3,5 7,7 11,7 7,0 14,-3 21,-9z"/>
  <path id="34" class="fil1" d="M3513 1893l0 -69 10 0 0 69 -10 0zm10 -97l0 12 -10 0 0 -12 10 0z"/>
  <path id="35" class="fil1" d="M3595 1861l-44 0c0,9 2,15 6,19 4,3 9,5 16,5 3,0 5,0 7,0 1,-1 2,-1 3,-1 1,-1 2,-1 3,-1 2,-1 4,-1 6,-2l1 8c-9,3 -16,5 -21,5 -10,0 -18,-3 -23,-9 -6,-5 -9,-14 -9,-26 0,-11 3,-21 8,-27 6,-7 13,-10 21,-10 8,0 15,3 19,8 5,6 7,13 7,22 0,3 0,6 0,9zm-44 -8l34 0c0,-7 -1,-12 -3,-16 -3,-4 -7,-6 -13,-6 -6,0 -10,2 -13,6 -3,4 -5,9 -5,16z"/>
  <path id="36" class="fil1" d="M3612 1881c6,3 12,4 17,4 6,0 10,-1 13,-3 3,-2 4,-5 4,-9 0,-4 -1,-6 -4,-8 -2,-2 -5,-4 -8,-5 -4,-1 -7,-2 -11,-4 -3,-1 -6,-3 -9,-5 -2,-3 -3,-6 -3,-10 0,-6 2,-11 5,-14 4,-3 9,-5 16,-5 6,0 12,1 18,3l1 1 -2 8c-5,-2 -11,-3 -15,-3 -5,0 -8,1 -10,3 -2,1 -3,3 -3,7 0,2 1,4 4,6 2,1 5,3 9,4 3,1 7,2 10,4 4,1 7,4 9,7 2,3 4,7 4,11 0,7 -3,12 -7,15 -5,4 -11,6 -19,6 -8,0 -15,-2 -21,-5l2 -8z"/>
  <line class="fil0 str1" x1="853" y1="28" x2="853" y2= "2028" />
  <g id="_2330455656784">
   <line class="fil0 str2" x1="2351" y1="366" x2="3885" y2= "366" />
   <polyline class="fil0 str3" points="3884,331 3944,366 3884,400 "/>
   <polyline class="fil0 str3" points="2329,331 2269,366 2329,400 "/>
  </g>
  <g id="_2330455661008">
   <path class="fil0 str2" d="M2351 1688l356 0m867 0l315 0"/>
   <polyline class="fil0 str3" points="3882,1654 3942,1688 3882,1722 "/>
   <polyline class="fil0 str3" points="2339,1654 2279,1688 2339,1722 "/>
  </g>
  <line class="fil0 str0" x1="0" y1="2028" x2="5067" y2= "2028" />
  <line class="fil0 str1" x1="0" y1="686" x2="5067" y2= "686" />
  <line class="fil0 str1" x1="0" y1="1354" x2="5067" y2= "1354" />
  <g id="_2330455686128">
   <line class="fil0 str2" x1="2346" y1="1019" x2="3877" y2= "1019" />
   <polyline class="fil0 str3" points="3884,985 3944,1019 3884,1053 "/>
   <polyline class="fil0 str3" points="2329,985 2269,1019 2329,1053 "/>
  </g>
 </g>
</svg>
